<svg width="81" height="81" viewBox="0 0 81 81" fill="none" xmlns="http://www.w3.org/2000/svg">
<path d="M1.64434 22.1001C3.24434 22.7001 4.84435 21.6001 4.84435 19.8001C4.84435 16.3001 4.84435 12.7001 4.84435 9.20007C4.84435 8.80007 4.84432 8.5001 4.94432 8.1001C5.34432 6.1001 6.94432 4.80011 8.94432 4.80011C12.6443 4.80011 16.2443 4.80011 19.9443 4.80011C21.1443 4.80011 22.0443 4.10009 22.3443 2.90009C22.5443 1.90009 22.0443 0.80011 20.9443 0.30011C20.8443 0.20011 20.7443 0.200098 20.6443 0.100098C16.3443 0.100098 11.9443 0.100098 7.64434 0.100098C7.44434 0.200098 7.34434 0.20011 7.14434 0.30011C3.34434 1.00011 0.344336 4.40007 0.144336 8.20007C0.0443359 12.2001 0.0443359 16.1001 0.144336 20.1001C0.144336 21.0001 0.744336 21.7001 1.64434 22.1001Z" fill="#5C307D"/>
<path d="M78.9445 4.29999C77.6445 2.09999 75.6445 0.699951 73.1445 0.199951C73.0445 0.199951 72.8445 0.1 72.7445 0C68.4445 0 64.0445 0 59.7445 0L59.6445 0.0999756C58.3445 0.699976 57.8445 1.69999 58.0445 2.79999C58.3445 3.99999 59.2445 4.69995 60.6445 4.69995C64.1445 4.69995 67.6445 4.69995 71.1445 4.69995C71.5445 4.69995 71.8445 4.69999 72.2445 4.79999C74.2445 5.19999 75.5445 6.79999 75.5445 8.79999C75.5445 12.4 75.5445 16.1 75.5445 19.7C75.5445 21 76.2445 21.9 77.4445 22.2C78.5445 22.5 79.5445 21.9 80.1445 20.8C80.1445 20.7 80.2445 20.6 80.3445 20.6C80.3445 16.3 80.3445 11.9 80.3445 7.59998C79.7445 6.49998 79.4445 5.29999 78.9445 4.29999Z" fill="#5C307D"/>
<path d="M77.3444 57.9998C76.1444 58.2998 75.4443 59.1998 75.4443 60.5998C75.4443 64.0998 75.4443 67.5997 75.4443 71.1997C75.4443 73.7997 73.7443 75.4998 71.1443 75.4998C67.5443 75.4998 63.9444 75.4998 60.3444 75.4998C58.9444 75.4998 57.9443 76.4998 57.9443 77.7998C57.9443 79.0998 58.9444 80.0998 60.3444 80.0998C64.1444 80.0998 67.9443 80.0998 71.6443 80.0998C75.1443 80.0998 78.3444 77.7998 79.5444 74.4998C79.7444 73.8998 79.9443 73.2997 80.1443 72.6997C80.1443 68.3997 80.1443 63.9997 80.1443 59.6997L80.0444 59.5998C79.4444 58.2998 78.4444 57.6998 77.3444 57.9998Z" fill="#5C307D"/>
<path d="M2.54445 37.8001C1.44445 37.9001 0.444436 38.8001 0.344436 39.9001C0.244436 41.0001 0.944448 42.1001 2.04445 42.4001C2.44445 42.5001 2.8444 42.5001 3.2444 42.5001C27.8444 42.5001 52.4444 42.5001 77.0444 42.5001C77.2444 42.5001 77.5444 42.5001 77.7444 42.5001C78.9444 42.4001 79.9444 41.5001 79.9444 40.3001C80.0444 39.2001 79.2444 38.1001 78.0444 37.9001C77.7444 37.8001 77.3444 37.8001 77.0444 37.8001C64.7444 37.8001 52.4444 37.8001 40.1444 37.8001C27.8444 37.8001 15.5444 37.8001 3.14442 37.8001C3.04442 37.7001 2.74445 37.7001 2.54445 37.8001Z" fill="#5C307D"/>
<path d="M19.6444 75.3998C16.1444 75.3998 12.6444 75.3998 9.14442 75.3998C6.34442 75.3998 4.7444 73.7998 4.7444 70.9998C4.7444 67.3998 4.7444 63.7998 4.7444 60.1998C4.7444 58.8998 3.74441 57.7998 2.44441 57.7998C1.14441 57.7998 0.0444444 58.7998 0.0444444 60.0998C0.0444444 63.9998 -0.0555556 67.8998 0.0444444 71.7998C0.144444 75.7998 3.3444 79.2998 7.2444 79.7998C9.4444 80.0998 11.7444 79.7998 13.9444 79.7998V79.8998C15.8444 79.8998 17.7444 79.8998 19.5444 79.8998C21.1444 79.8998 22.2444 78.8998 22.1444 77.5998C22.3444 76.3998 21.2444 75.3998 19.6444 75.3998Z" fill="#5C307D"/>
<path d="M12.9442 17.9001C12.7442 19.5001 12.9442 21.1001 12.9442 22.6001H12.8442C12.8442 23.8001 12.8442 25.0001 12.8442 26.2001C12.8442 27.8001 13.7442 28.8001 15.1442 28.8001C16.5442 28.8001 17.4442 27.8001 17.4442 26.2001C17.4442 24.0001 17.4442 21.7001 17.4442 19.5001C17.4442 17.9001 18.1442 17.3001 19.6442 17.3001C21.9442 17.3001 24.2442 17.3001 26.6442 17.3001C28.0442 17.3001 29.0443 16.3001 29.0443 15.0001C29.0443 13.7001 28.0442 12.7001 26.6442 12.6001C24.1442 12.6001 21.5443 12.6001 19.0443 12.6001C16.0443 12.6001 13.4442 14.9001 12.9442 17.9001Z" fill="#5C307D"/>
<path d="M26.5444 62.6C24.2444 62.6 21.9443 62.6 19.6443 62.6C18.2443 62.6 17.5444 61.9 17.5444 60.4C17.5444 58.1 17.5444 55.7 17.5444 53.4C17.5444 52 16.5443 51 15.2443 51C13.9443 51 12.9443 52 12.9443 53.4C12.9443 55.9 12.9443 58.4 12.9443 60.9C12.9443 64 15.2443 66.7 18.2443 67.1C19.7443 67.3 21.3443 67.1 22.9443 67.1V67.2C24.1443 67.2 25.3443 67.2 26.6443 67.2C28.2443 67.2 29.2443 66.2 29.2443 64.8C29.0443 63.5 28.0444 62.6 26.5444 62.6Z" fill="#5C307D"/>
<path d="M53.8442 17.3001C56.0442 17.3001 58.3442 17.3001 60.5442 17.3001C62.1442 17.3001 62.8442 18.0001 62.8442 19.6001C62.8442 21.9001 62.8442 24.2001 62.8442 26.5001C62.8442 28.0001 63.8441 29.0001 65.2441 29.0001C66.6441 29.0001 67.5442 28.0001 67.5442 26.5001C67.5442 25.2001 67.5442 24.0001 67.5442 22.7001C67.5442 21.6001 67.5442 20.5001 67.5442 19.3001C67.5442 15.5001 64.7442 12.6001 60.8442 12.6001C58.5442 12.6001 56.1442 12.6001 53.8442 12.6001C52.2442 12.6001 51.2441 13.6001 51.2441 15.0001C51.2441 16.3001 52.2442 17.3001 53.8442 17.3001Z" fill="#5C307D"/>
<path d="M67.3445 61.8999C67.5445 60.3999 67.3445 58.7999 67.3445 57.1999H67.4445C67.4445 55.9999 67.4445 54.7999 67.4445 53.4999C67.4445 51.9999 66.5445 50.8999 65.1445 50.8999C63.7445 50.8999 62.7445 51.8999 62.7445 53.4999C62.7445 55.7999 62.7445 57.9999 62.7445 60.2999C62.7445 61.7999 62.0446 62.4999 60.5446 62.4999C58.2446 62.4999 55.9446 62.4999 53.5446 62.4999C52.1446 62.4999 51.1445 63.4999 51.1445 64.7999C51.1445 66.1999 52.1446 67.1999 53.5446 67.1999C56.0446 67.1999 58.4445 67.1999 60.9445 67.1999C64.2445 67.1999 66.9445 64.9999 67.3445 61.8999Z" fill="#5C307D"/>
</svg>
