<svg width="76" height="75" viewBox="0 0 76 75" fill="none" xmlns="http://www.w3.org/2000/svg">
<path d="M31.7 68.6128C26.6 67.6128 21.9 65.5128 17.9 62.2128C11.3 56.9128 7.49999 50.0128 6.29999 41.6128C5.79999 37.9128 5.89999 34.2128 6.79999 30.6128C8.59999 23.0128 12.6 16.8128 18.9 12.2128C23.6 8.71282 29 6.71282 34.8 6.21282C39.4 5.81282 43.9 6.41277 48.3 7.91277C50.7 8.81277 52.9 9.9128 55.1 11.3128C54.3 12.4128 53.6 13.4128 52.9 14.5128C52.7 14.9128 52.4 15.5128 52.6 15.8128C52.8 16.1128 53.4 16.1128 53.9 16.2128C54 16.2128 54 16.2128 54.1 16.2128C57.2 15.9128 60.3 15.6128 63.5 15.4128C65.2 15.3128 65.8 14.4128 65.4 12.8128C64.6 9.8128 63.7 6.71282 62.8 3.71282C62.7 3.21282 62.3 2.51277 61.9 2.41277C61.2 2.11277 60.9 2.91277 60.6 3.41277C59.9 4.41277 59.2 5.41277 58.5 6.41277C58.2 6.21277 57.9 6.0128 57.6 5.8128C49.1 0.512796 40 -1.1872 30.2 0.812796C24.9 1.8128 20 3.91278 15.7 7.11278C11.1 10.5128 7.39998 14.6128 4.59998 19.6128C2.59998 23.3128 1.19998 27.1128 0.599976 31.3128C0.399976 32.7128 0.2 34.2128 0 35.6128C0 37.0128 0 38.4128 0 39.9128C0 40.1128 0.0999756 40.4128 0.0999756 40.6128C0.399976 44.9128 1.49999 49.1128 3.29999 53.0128C5.99999 59.0128 10 63.9128 15.2 67.8128C19.9 71.3128 25.1 73.5128 30.9 74.6128C32.6 74.9128 34.1 73.9128 34.4 72.2128C34.7 70.5128 33.6 69.0128 31.7 68.6128Z" fill="#5C307D"/>
<path d="M33.8999 40.3128C40.8999 43.9128 47.9999 47.6128 54.9999 51.2128C55.2999 51.3128 55.5999 51.5128 55.8999 51.6128C57.2999 52.0128 58.6999 51.2128 58.9999 49.8128C59.2999 48.6128 58.7999 47.6128 57.3999 46.9128C51.1999 43.7128 44.9999 40.5128 38.7999 37.3128C38.2999 37.0128 38.0999 36.8128 38.0999 36.2128C38.0999 30.5128 38.0999 24.9128 38.0999 19.2128C38.0999 18.0128 38.0999 16.7128 38.0999 15.5128C38.0999 14.1128 36.8999 13.0128 35.4999 13.1128C34.1999 13.2128 33.2999 14.2128 33.2999 15.7128C33.2999 19.6128 33.2999 23.5127 33.2999 27.4127C33.2999 31.3127 33.2999 35.2128 33.2999 39.1128C33.1999 39.8128 33.3999 40.1128 33.8999 40.3128Z" fill="#5C307D"/>
<path d="M65.1999 55.313C63.3999 55.313 60.8999 57.913 60.8999 59.813V59.913C60.8999 61.213 61.4999 62.113 62.6999 62.613C63.7999 63.113 64.9999 63.013 65.7999 62.113C66.5999 61.413 67.2999 60.513 67.7999 59.613C68.8999 57.813 67.3999 55.313 65.1999 55.313Z" fill="#5C307D"/>
<path d="M45.3998 68.2129C44.4998 68.3129 43.6997 68.5128 42.7997 68.8128C41.2997 69.2128 40.4997 70.8128 40.7997 72.3128C41.0997 73.8128 42.5997 74.9129 44.0997 74.7129C44.9997 74.6129 45.7997 74.4128 46.6997 74.1128C47.9997 73.7128 48.7997 72.6128 48.7997 71.3128C48.7997 69.3128 47.2998 67.9129 45.3998 68.2129Z" fill="#5C307D"/>
<path d="M71.2999 45.0128C69.9999 44.7128 68.4999 45.2127 67.8999 46.4127C67.3999 47.4127 67.0999 48.4127 66.8999 49.4127C66.5999 50.7127 67.3999 52.0128 68.6999 52.6128C69.8999 53.1128 71.4999 52.8128 72.1999 51.7128C72.8999 50.5128 73.1998 49.2128 73.5998 48.5128C73.4998 46.5128 72.5999 45.3128 71.2999 45.0128Z" fill="#5C307D"/>
<path d="M67.6001 27.9128C68.1001 29.1128 69.1001 29.7129 70.1001 29.7129C72.2001 29.7129 73.7001 28.0128 73.3001 26.3128C73.1001 25.3128 72.7001 24.2128 72.2001 23.3128C71.5001 21.9128 69.9001 21.4129 68.5001 22.0129C67.1001 22.6129 66.3001 24.1129 66.7001 25.5129C66.9001 26.3129 67.2001 27.1128 67.6001 27.9128Z" fill="#5C307D"/>
<path d="M75.1 36.1129C75 34.4129 73.7 33.1129 72 33.2129C70.3 33.2129 69.1 34.5129 69 36.3129C69 36.6129 69 36.9129 69 37.3129C69 37.7129 69 38.1129 69 38.5129C69.1 40.2129 70.4 41.4129 72 41.4129C73.6 41.4129 74.9 40.1129 75 38.5129C75.1 37.7129 75.1 36.9129 75.1 36.1129Z" fill="#5C307D"/>
<path d="M55.3999 63.713C54.4999 64.113 53.6999 64.713 52.8999 65.213C51.8999 66.013 51.4999 67.413 51.9999 68.613C52.3999 69.813 53.5999 70.613 55.1999 70.513C56.5999 70.113 58.1999 69.413 59.1999 67.813C59.8999 66.713 59.5999 65.313 58.7999 64.313C57.8999 63.413 56.4999 63.113 55.3999 63.713Z" fill="#5C307D"/>
</svg>
