<svg width="74" height="78" viewBox="0 0 74 78" fill="none" xmlns="http://www.w3.org/2000/svg">
<path d="M71.7926 47.1C71.0926 46.7 70.3926 46.3 69.6926 45.9C64.4926 42.5 64.4926 34.7 69.7926 31.4C70.3926 31 70.9926 30.7 71.5926 30.3C73.8926 28.9 74.6926 26.3 73.2926 24C71.4926 20.8 69.6926 17.7 67.8926 14.6C66.5926 12.4 63.9926 11.7 61.6926 12.9C60.9926 13.3 60.2926 13.7 59.5926 14.1C54.6926 16.5 48.5926 13.7 47.3926 8.39996C47.0926 7.09996 47.1926 5.69996 47.0926 4.39996C46.9926 1.89996 45.0926 0 42.5926 0C38.8926 0 35.1926 0 31.4926 0C28.9926 0 27.0926 1.89996 26.9926 4.39996C26.9926 5.09996 26.9926 5.79996 26.9926 6.39996C26.8926 11.9 21.7926 16 16.3926 14.7C14.9926 14.4 13.6926 13.6 12.3926 12.9C10.0926 11.7 7.49264 12.3 6.19264 14.5C4.29264 17.7 2.4926 20.9 0.5926 24.1C-0.6074 26.3 0.092612 28.9 2.29261 30.2C2.89261 30.6 3.59261 31 4.29261 31.4C9.49261 34.7 9.59265 42.5 4.39265 45.9C3.79265 46.3 3.09265 46.7 2.39265 47.1C0.0926487 48.5 -0.707364 51.1 0.692636 53.4C2.49264 56.5 4.2926 59.7 6.0926 62.8C7.3926 65.1 9.99265 65.8 12.3926 64.5C13.0926 64.1 13.6926 63.7 14.3926 63.4C19.2926 60.9 25.4926 63.7 26.6926 69.1C26.9926 70.4 26.8926 71.8 26.9926 73.2C27.0926 74.9 27.8926 76.2 29.3926 77C29.7926 77.2 30.2926 77.4 30.6926 77.6C34.8926 77.6 39.1926 77.6 43.3926 77.6C43.4926 77.5 43.5926 77.5 43.6926 77.4C45.7926 76.7 46.9926 75.1 46.9926 72.9C46.9926 72.3 46.9926 71.6 46.9926 71C47.0926 65.6 52.1926 61.6 57.3926 62.7C58.7926 63 60.1926 63.8 61.4926 64.5C63.7926 65.7 66.3926 65.1 67.6926 62.9C69.5926 59.7 71.4926 56.4 73.2926 53.1C74.5926 50.9 73.8926 48.4 71.7926 47.1ZM63.8926 60.5C59.0926 57.3 54.1926 56.7 49.1926 59.6C44.1926 62.5 42.1926 67 42.5926 72.8C38.8926 72.8 35.2926 72.8 31.5926 72.8C31.9926 67.1 29.9926 62.5 24.9926 59.7C19.9926 56.8 14.9926 57.3 10.1926 60.6C8.29264 57.4 6.49264 54.2 4.69264 51C9.79264 48.5 12.7926 44.5 12.7926 38.7C12.7926 32.9 9.79264 28.9 4.69264 26.4C6.49264 23.2 8.39264 20.1 10.1926 16.8C14.9926 20 19.8926 20.6 24.9926 17.7C29.9926 14.8 31.9926 10.2 31.5926 4.5C35.2926 4.5 38.8926 4.5 42.5926 4.5C42.1926 10.2 44.1926 14.8 49.1926 17.7C54.1926 20.6 59.1926 20 63.8926 16.8C65.7926 20 67.5926 23.1 69.3926 26.4C64.2926 28.9 61.2926 32.9 61.2926 38.7C61.2926 44.5 64.1926 48.5 69.3926 51.1C67.4926 54.2 65.6926 57.3 63.8926 60.5Z" fill="#5C307D"/>
<path d="M36.9927 19.1001C26.2927 19.1001 17.4927 27.9001 17.4927 38.6001C17.4927 49.3001 26.1927 58.0001 36.9927 58.1001C47.6927 58.1001 56.4927 49.3001 56.4927 38.6001C56.4927 27.9001 47.7927 19.2001 36.9927 19.1001ZM36.9927 53.6001C28.7927 53.6001 22.0927 46.9001 21.9927 38.7001C21.9927 30.5001 28.6927 23.7001 36.9927 23.7001C45.1927 23.7001 51.8927 30.4001 51.8927 38.6001C51.8927 46.8001 45.1927 53.5001 36.9927 53.6001Z" fill="#5C307D"/>
<path d="M42.2925 33.3002C42.1925 33.4002 42.0926 33.5001 41.8926 33.6001C39.4926 35.4001 36.9925 37.2002 34.5925 39.0002C34.4925 38.9002 34.3926 38.9001 34.3926 38.9001C33.6926 38.1001 32.8926 37.3002 32.1926 36.5002C31.1926 35.5002 29.7926 35.4002 28.8926 36.3002C27.8926 37.2002 27.8926 38.6001 28.8926 39.7001C29.9926 40.9001 31.1926 42.2001 32.3926 43.4001C33.5926 44.6001 34.5926 44.8001 35.9926 43.7001C37.9926 42.2001 39.8926 40.8002 41.8926 39.3002C42.9926 38.5002 44.0925 37.7001 45.0925 36.9001C46.0925 36.1001 46.1926 34.7002 45.4926 33.8002C44.6926 32.8002 43.2925 32.6002 42.2925 33.3002Z" fill="#5C307D"/>
</svg>
