<svg width="78" height="78" viewBox="0 0 78 78" fill="none" xmlns="http://www.w3.org/2000/svg">
<path d="M69.5 15.2C63.3 7.10001 55.1 2.3 45.1 0.5C43.8 0.3 42.5 0.2 41.2 0C39.6 0 38 0 36.4 0C35 0.2 33.6 0.299976 32.1 0.599976C23.9 1.99998 16.9 5.70001 11.1 11.7C5.39998 17.5 1.9 24.5 0.5 32.5C0.3 33.8 0.2 35.1 0 36.4C0 38 0 39.6 0 41.2C0.2 42.6 0.299976 44.1 0.599976 45.5C2.19998 54.4 6.40001 61.9 13.2 67.8C19 73 25.8 76.1 33.5 77.1C44 78.5 53.7 76 62.1 69.6C70.3 63.4 75.3 55.1 77 45C78.8 34.1 76.3 24.1 69.5 15.2ZM38.8 72.7C20.1 72.7 4.79996 57.4 4.89996 38.7C4.89996 20 20.2 4.79999 38.8 4.79999C57.5 4.79999 72.8 20.1 72.7 38.8C72.7 57.5 57.5 72.7 38.8 72.7Z" fill="#5C307D"/>
<path d="M58.3999 47.3C57.1999 46.6 55.7999 47 55.0999 48.2C54.9999 48.4 54.8 48.6 54.7 48.8C48.9 58.1 35.7999 60.3 27.2999 53.5C25.4999 52 24 50.3 22.7 48.3C22 47.2 20.9999 46.8 19.8999 47.1C18.2999 47.5 17.5999 49.3 18.4999 50.8C23.0999 58.4 29.9999 62.1 38.0999 62.3C45.4999 62.2 51.1999 59.9 55.8999 55C57.0999 53.7 58.2 52.2 59.2 50.7C59.9 49.5 59.4999 48 58.3999 47.3Z" fill="#5C307D"/>
<path d="M22.8999 34.0999C25.4999 34.0999 27.7 31.8999 27.7 29.2999C27.7 26.5999 25.4999 24.3999 22.8999 24.3999C20.1999 24.3999 18.1 26.5 18.1 29.2C18 31.9 20.1999 34.0999 22.8999 34.0999Z" fill="#5C307D"/>
<path d="M54.6998 24.3999C51.9998 24.3999 49.7998 26.5999 49.8998 29.2999C49.8998 31.8999 52.0998 34.0999 54.6998 34.0999C57.3998 34.0999 59.5998 31.8999 59.5998 29.2999C59.5998 26.5999 57.3998 24.3999 54.6998 24.3999Z" fill="#5C307D"/>
</svg>
