<svg width="55" height="78" viewBox="0 0 55 78" fill="none" xmlns="http://www.w3.org/2000/svg">
<path d="M54.7 41.0249C54.7 38.0249 53.4 35.9249 50.8 34.5249C50.4 34.3249 50.3 34.025 50.3 33.625C50.3 30.225 50.3 26.8249 50.3 23.4249C50.3 21.8249 50.2 20.1249 49.9 18.5249C48.1 9.22492 40.6 1.82491 31.3 0.324906C21.7 -1.27509 12.3 3.12492 7.5 11.5249C5.4 15.1249 4.40002 19.1249 4.40002 23.3249C4.40002 26.8249 4.40002 30.2249 4.40002 33.7249C4.40002 34.0249 4.30004 34.4249 4.10004 34.5249C1.20004 36.0249 0 38.4249 0 41.7249C0.1 51.1249 0 60.5249 0 69.9249C0 70.3249 0 70.725 0 71.125C0.1 73.225 1.00001 75.0249 2.70001 76.2249C3.60001 76.9249 4.80002 77.225 5.90002 77.625C20.1 77.625 34.4 77.625 48.6 77.625L48.7 77.5249C52.7 76.5249 54.5 74.1249 54.5 70.0249C54.5 64.0249 54.5 57.9249 54.5 51.9249C54.7 48.2249 54.7 44.6249 54.7 41.0249ZM9.10004 21.625C9.40004 13.525 16 6.22491 24 4.82491C34.2 3.02491 43.5 9.52493 45.5 19.7249C45.7 20.8249 45.8 21.9249 45.8 22.9249C45.8 26.3249 45.8 29.8249 45.8 33.2249C45.8 33.4249 45.8 33.5249 45.7 33.8249C44.2 33.8249 42.8 33.8249 41.2 33.8249C41.2 33.5249 41.2 33.2249 41.2 32.9249C41.2 29.6249 41.2 26.325 41.2 23.125C41.1 16.125 36.6 10.6249 29.8 9.32491C21.9 7.72491 13.9 13.9249 13.6 21.9249C13.4 25.5249 13.5 29.2249 13.5 32.8249C13.5 33.1249 13.5 33.4249 13.5 33.8249C12 33.8249 10.5 33.8249 9 33.8249C9 33.7249 8.90002 33.5249 8.90002 33.4249C9.00002 29.4249 8.90004 25.525 9.10004 21.625ZM36.7 33.4249C36.7 33.5249 36.7 33.6249 36.6 33.8249C30.5 33.8249 24.3 33.8249 18.1 33.8249C18.1 33.6249 18 33.425 18 33.125C18 29.725 18 26.3249 18 22.9249C18.1 17.6249 22.3 13.525 27.6 13.625C32.3 13.725 36.4 17.6249 36.6 22.3249C36.8 26.0249 36.7 29.7249 36.7 33.4249ZM47.2 72.9249C40.6 72.9249 33.9 72.9249 27.3 72.9249C20.7 72.9249 14 72.9249 7.40002 72.9249C5.50002 72.9249 4.60004 72.025 4.60004 70.125C4.60004 60.525 4.60004 50.8249 4.60004 41.2249C4.60004 39.2249 5.5 38.4249 7.5 38.4249C20.8 38.4249 34 38.4249 47.3 38.4249C49.3 38.4249 50.1 39.3249 50.1 41.3249C50.1 50.9249 50.1 60.525 50.1 70.125C50.2 72.125 49.3 72.9249 47.2 72.9249Z" fill="#5C307D"/>
</svg>
