<svg width="295" height="346" viewBox="0 0 295 346" fill="none" xmlns="http://www.w3.org/2000/svg">
<path d="M114.24 169.6C114.24 169.6 106.76 169.29 97.7 174.97C93.72 177.46 89.91 183 86.58 187.18C82.3 192.55 78.81 195.68 76.76 187.36C67.95 144.46 105.75 114.23 106.83 113.39C106.85 113.37 106.85 113.37 106.85 113.37L114.24 169.6Z" fill="#9753D9"/>
<path d="M86.58 187.16V187.18C82.3 192.55 78.81 195.68 76.76 187.36C67.95 144.46 105.75 114.23 106.83 113.39C106.06 114.41 77.88 152.3 86.58 187.16Z" fill="#3D3370"/>
<path d="M180.76 169.6C180.76 169.6 188.24 169.29 197.3 174.97C201.28 177.46 205.09 183 208.42 187.18C212.7 192.55 216.19 195.68 218.24 187.36C227.05 144.46 189.25 114.23 188.17 113.39C188.15 113.37 188.15 113.37 188.15 113.37L180.76 169.6Z" fill="#9753D9"/>
<path opacity="0.74" d="M176.96 185.03L147.5 181.67L118.04 185.03C118.04 185.03 95.6201 267.19 0.340088 345.92H147.5H294.67C199.38 267.18 176.96 185.03 176.96 185.03Z" fill="url(#paint0_linear_15_21)"/>
<path d="M208.42 187.16V187.18C212.7 192.55 216.19 195.68 218.24 187.36C227.05 144.46 189.25 114.23 188.17 113.39C188.94 114.41 217.12 152.3 208.42 187.16Z" fill="#3D3370"/>
<path d="M180.76 173.73V185.41C180.76 187.7 178.91 189.56 176.61 189.56H118.39C116.1 189.56 114.24 187.71 114.24 185.41V173.73C114.24 171.45 116.09 169.6 118.39 169.6H176.61C178.53 169.6 180.16 170.9 180.61 172.67C180.71 173.02 180.76 173.37 180.76 173.73Z" fill="#230B45"/>
<path d="M194.98 120.86C194.98 137.64 193.66 153.64 191.29 168.18C190.4 173.61 185.74 177.6 180.26 177.66L162.13 177.92L116.52 178.55C110.94 178.63 106.11 174.63 105.19 169.1C102.72 154.32 101.35 137.99 101.35 120.85C101.35 86.4198 113.71 55.3298 125.73 33.2498C130.4 24.6598 135.02 17.4398 138.84 11.8998L145.75 1.38982C146.89 -0.370176 149.46 -0.370176 150.6 1.38982C150.6 1.38982 150.6 1.40982 150.62 1.41982L157.52 11.8898C157.99 12.8198 163.76 20.6098 170.64 33.2398C181.44 53.1198 194.98 84.9298 194.98 120.86Z" fill="#5E2F8B"/>
<path opacity="0.16" d="M194.98 120.86C194.98 137.64 193.66 153.64 191.29 168.18C190.4 173.61 185.74 177.6 180.26 177.66L162.13 177.92C174.98 87.4997 151.19 3.49969 150.6 1.42969L157.5 11.8997C157.97 12.8297 163.74 20.6197 170.62 33.2497C181.44 53.1197 194.98 84.9297 194.98 120.86Z" fill="black"/>
<path d="M147.5 99.17C158.518 99.17 167.45 90.2381 167.45 79.22C167.45 68.202 158.518 59.27 147.5 59.27C136.482 59.27 127.55 68.202 127.55 79.22C127.55 90.2381 136.482 99.17 147.5 99.17Z" fill="#230B45"/>
<path d="M147.5 93.8499C155.58 93.8499 162.13 87.2998 162.13 79.2198C162.13 71.1399 155.58 64.5898 147.5 64.5898C139.42 64.5898 132.87 71.1399 132.87 79.2198C132.87 87.2998 139.42 93.8499 147.5 93.8499Z" fill="#5E2F8B"/>
<path d="M142.72 76.7799C144.349 76.7799 145.67 75.4591 145.67 73.8299C145.67 72.2006 144.349 70.8799 142.72 70.8799C141.091 70.8799 139.77 72.2006 139.77 73.8299C139.77 75.4591 141.091 76.7799 142.72 76.7799Z" fill="white"/>
<path d="M141.66 82.5696C142.698 82.5696 143.54 81.7279 143.54 80.6896C143.54 79.6513 142.698 78.8096 141.66 78.8096C140.622 78.8096 139.78 79.6513 139.78 80.6896C139.78 81.7279 140.622 82.5696 141.66 82.5696Z" fill="white"/>
<path d="M151.53 196.71H145.09C142.8 196.71 140.92 194.83 140.92 192.54V118.57C140.92 116.28 142.8 114.4 145.09 114.4H151.53C153.82 114.4 155.7 116.28 155.7 118.57V192.54C155.7 194.83 153.82 196.71 151.53 196.71Z" fill="#230B45"/>
<path d="M150.3 193.41H146.33C144.96 193.41 143.84 192.29 143.84 190.92V120.2C143.84 118.83 144.96 117.71 146.33 117.71H150.3C151.67 117.71 152.79 118.83 152.79 120.2V190.92C152.79 192.29 151.67 193.41 150.3 193.41Z" fill="#9753D9"/>
<path d="M170.62 33.2596H125.72C130.39 24.6696 135.01 17.4496 138.83 11.9096L145.74 1.39959C146.88 -0.36041 149.45 -0.36041 150.59 1.39959L157.5 11.9096C157.97 12.8396 163.75 20.6296 170.62 33.2596Z" fill="#3D3370"/>
<defs>
<linearGradient id="paint0_linear_15_21" x1="147.5" y1="177.99" x2="147.5" y2="374.103" gradientUnits="userSpaceOnUse">
<stop stop-color="white"/>
<stop offset="0.1591" stop-color="#DECDF0" stop-opacity="0.8409"/>
<stop offset="0.3841" stop-color="#B38CDC" stop-opacity="0.6159"/>
<stop offset="0.5889" stop-color="#9259CC" stop-opacity="0.4111"/>
<stop offset="0.7662" stop-color="#7934C0" stop-opacity="0.2338"/>
<stop offset="0.9092" stop-color="#6A1DBA" stop-opacity="0.0908"/>
<stop offset="1" stop-color="#6515B7" stop-opacity="0"/>
</linearGradient>
</defs>
</svg>
