<svg width="656" height="409" viewBox="0 0 656 409" fill="none" xmlns="http://www.w3.org/2000/svg">
<path d="M607.5 409H48.1C21.5 409 0 387.4 0 360.9V209.2C0 182.6 21.6 161.1 48.1 161.1H607.5C634.1 161.1 655.6 182.7 655.6 209.2V360.9C655.6 387.5 634.1 409 607.5 409Z" fill="#A3AFDE"/>
<path d="M341.5 61.9001C341.3 61.5001 341.2 61.2001 341 60.8001C340.4 62.5001 339.5 63.8001 338.4 64.9001L342.6 74.1001L306.2 91.1001L295.8 95.8001C289.9 98.5001 283.4 99.2001 277 97.9001C272.7 97.0001 268.5 95.1001 265 92.5001L261.7 90.1001V97.3001H203.3V86.4001L156.6 133L135.7 112.1L210.7 37.3001C211.7 36.3001 213 35.4001 214.3 34.9001C215.7 34.3001 217.1 34.1001 218.6 34.1001C218.8 34.1001 219 34.1001 219.1 34.1001H219.5H219.7C220.6 34.0001 221.6 33.9001 222.5 33.9001H242.5C247.6 33.9001 252.5 35.9001 256.1 39.5001C256.8 40.2001 257.5 41.0001 258.1 41.8001L258.2 41.9001L280 65.9001C280.9 66.9001 282.1 67.5001 283.4 67.8001C284.7 68.1001 286 67.9001 287.3 67.4001L307.1 58.2001C307 57.3001 307 56.5001 307 55.9001V55.5001C307 54.9001 307 54.3001 307 53.8001L285.7 63.7001C285.3 63.9001 284.8 63.9001 284.3 63.8001C283.8 63.7001 283.4 63.5001 283.1 63.1001L261.3 39.2001C260.6 38.2001 259.8 37.3001 259 36.5001C254.6 32.1001 248.7 29.7001 242.5 29.6001H222.5C221.5 29.6001 220.4 29.7001 219.3 29.8001C219.1 29.8001 218.8 29.8001 218.6 29.8001H218.5C216.5 29.8001 214.6 30.2001 212.7 30.9001C210.8 31.7001 209.2 32.8001 207.8 34.2001L131.5 110.4L130.2 112.2L155 137L156.4 138.9L199.2 96.2001V101.3H265.8V97.8001C269 99.7001 272.5 101 276.1 101.8C283.3 103.3 290.7 102.5 297.5 99.4001L307.9 94.7001L347.9 76.0001L341.5 61.9001Z" fill="white"/>
<path d="M123.5 172.2C122.5 172.2 121.5 171.9 120.5 171.2C119.2 170.3 118.4 169.1 118.1 167.5C117.8 166 118 164.3 118.7 162.3C114.7 165.5 110.3 167.5 106.8 164.3C103 160.9 105.1 155.4 108.2 150.7C105.2 151.8 102.2 151.9 99.9999 149.4C98.0999 147.1 96.5999 141.6 108.2 131.3C110.2 129.5 112.3 127.9 114.5 126.5C116.9 124.9 134.2 114.3 134.9 113.9L136.3 113.1L155.9 132.7L152 138.2C150.9 145 150.2 149.6 150.1 154.4C149.9 160.6 149.5 172.1 142 172C137.4 171.9 135.5 167.4 134.7 163.3C131.9 167 127.7 172.2 123.5 172.2ZM131.5 143.5C131.9 143.5 132.3 143.6 132.7 143.9L133.4 144.4L133.5 145.3C133.7 146.4 133.5 146.7 129.1 152.3C128.5 153 127.8 153.9 127.7 154.1C122.2 162.1 121.8 165.5 122.1 166.8C122.2 167.3 122.4 167.6 122.7 167.8C124.3 168.9 127.4 166.1 132.1 159.6L137.7 151.7L138.1 157.5C138.5 164 139.9 167.7 142 167.8C144.4 167.8 145.6 163.5 146 154.1C146.2 148.9 146.9 144.2 148 136.9L148.1 136.4L150.6 133L135.7 118.2C131.4 120.8 118.7 128.6 116.7 129.9C114.6 131.2 112.7 132.7 110.9 134.4C103.7 140.8 101.8 145.2 103.1 146.8C104.5 148.4 108.7 146.6 114.7 141.8C114.9 141.7 115.7 140.9 116.4 140.3C121.9 135.3 122.2 135.1 123.3 135.2L124.2 135.3L124.8 136C126.1 137.6 124.6 139 123.1 140.4C122.1 141.3 120.9 142.5 119.8 143.5C118.9 144.4 117.7 145.4 117.5 145.7C110.3 153.7 107.4 159.4 109.5 161.4C111.4 163.1 115.5 160.4 122.3 153.2C122.8 152.7 124 151.2 125.2 149.8C126.3 148.5 127.4 147.1 128.4 146C129.4 144.6 130.4 143.5 131.5 143.5Z" fill="white"/>
<path d="M439.1 0C401.2 37.9 346.7 56.6 275.5 55.9C275.2 78.6 276.1 101.9 278.3 125C278.4 126 278 127.2 278.6 128C290.3 148.8 306.2 174.2 313.4 203.9C318.4 224.9 317.1 248.6 315.2 272C315 273.1 316.2 274 316.7 275C342.2 326.7 380.6 362 434.3 362.7C550.6 364.3 599.3 202.1 601.2 60.4C529.9 59 475.9 38.9 439.1 0Z" fill="#9753D9"/>
<path d="M436 350.3H434.4C408.6 349.9 385.3 341 365.2 323.6C347 307.8 331.4 285.2 319 256.4C317.9 253.8 316.8 251.1 315.7 248.4C315.5 248 315.2 247.6 315.2 247.2C316.6 221.1 314.9 192.8 295.8 164.7C295.4 162.3 292.7 159.9 292.4 157.5C292.3 157.1 292.3 156.8 292.2 156.4C288 127.1 285.9 95.6001 286.4 64.7001V64.4001H286.7C319.6 64.7001 349.1 60.5001 374.3 51.8001C399.5 43.2001 421.1 29.9001 438.7 12.4001L438.9 12.1001L439.1 12.4001C456.1 30.4001 477.4 44.2001 502.4 53.5001C527.4 62.8001 556.7 67.8001 589.6 68.4001H589.9V68.7001C589.5 102.5 586 137.1 580.1 168.5C573.6 202.9 564.2 233.5 552.1 259.4C538.9 287.9 522.7 310.1 504.1 325.3C484.2 342 461.2 350.3 436 350.3ZM287.1 65.0001C286.7 94.8001 288.6 125.2 292.5 153.6C292.6 154.4 295.6 159.3 295.7 160.1C296.1 163 296.9 162.9 297.3 165.8C316.3 194.4 317.5 213.4 316.8 239.2C316.8 240 317 249.6 317.3 250.3C318.1 252.2 318.9 254.2 319.7 256.1C332.1 284.9 347.6 307.4 365.7 323.1C385.6 340.4 408.8 349.3 434.4 349.7C460.1 350.1 483.5 341.7 503.9 325C522.4 309.8 538.5 287.6 551.7 259.2C563.7 233.3 573.1 202.8 579.6 168.5C585.5 137.2 588.9 102.8 589.4 69.1001C556.5 68.5001 527.2 63.5001 502.2 54.2001C477.2 44.9001 456 31.1001 438.9 13.2001C421.4 30.7001 399.7 43.9001 374.5 52.5001C349.5 61.0001 320 65.3001 287.1 65.0001Z" fill="#380766"/>
<path d="M473.7 132.6L416.5 132.8L416.4 104.7C416.4 100.6 418 96.6998 420.9 93.7998C423.8 90.8998 427.7 89.2998 431.7 89.2998H444.2C448.3 89.2998 452.2 90.8998 455.1 93.7998C458 96.6998 459.6 100.6 459.6 104.6L474.6 104.5C474.6 96.3998 471.3 88.6998 465.6 83.0998C459.9 77.3998 452.2 74.2998 444.1 74.2998H431.6C423.5 74.2998 415.8 77.5998 410.2 83.2998C404.5 88.9998 401.3 96.7998 401.4 104.8L401.5 132.9C395.8 133.2 390.5 135.6 386.6 139.8C382.7 143.9 380.5 149.4 380.5 155.1L380.6 190.3C380.6 193.2 381.2 196.1 382.3 198.8C383.4 201.5 385.1 203.9 387.1 206C389.2 208 391.6 209.7 394.3 210.8C397 211.9 399.9 212.5 402.8 212.4L473.9 212.1C476.8 212.1 479.7 211.5 482.4 210.4C485.1 209.3 487.5 207.6 489.6 205.6C491.6 203.5 493.3 201.1 494.4 198.4C495.5 195.7 496.1 192.8 496 189.9L495.9 154.7C495.9 151.8 495.3 148.9 494.2 146.2C493.1 143.5 491.4 141.1 489.4 139C487.3 137 484.9 135.3 482.2 134.2C479.5 133.2 476.6 132.6 473.7 132.6Z" fill="#380766"/>
<path d="M452.3 161.5C452.3 159 451.6 156.6 450.4 154.4C449.1 152.3 447.3 150.5 445.2 149.3C443.1 148.1 440.6 147.5 438.1 147.5C435.6 147.5 433.2 148.2 431 149.5C428.9 150.8 427.1 152.6 425.9 154.8C424.7 157 424.1 159.4 424.1 161.9C424.2 164.4 424.9 166.8 426.2 168.9C427.5 171 429.3 172.8 431.5 174L431.6 197.6L445.1 197.5L445 173.9C447.2 172.7 449.1 170.9 450.4 168.7C451.7 166.5 452.3 164 452.3 161.5Z" fill="white"/>
<path d="M389.3 267.5C393.7 263.1 393.7 255.9 389.3 251.5C384.9 247.1 377.7 247.1 373.3 251.5C368.9 255.9 368.9 263.1 373.3 267.5C377.7 271.9 384.9 271.9 389.3 267.5Z" fill="#380766"/>
<path d="M427.3 267.5C431.7 263.1 431.7 255.9 427.3 251.5C422.9 247.1 415.7 247.1 411.3 251.5C406.9 255.9 406.9 263.1 411.3 267.5C415.7 271.9 422.9 271.9 427.3 267.5Z" fill="#380766"/>
<path d="M465.2 267.5C469.6 263.1 469.6 255.9 465.2 251.5C460.8 247.1 453.6 247.1 449.2 251.5C444.8 255.9 444.8 263.1 449.2 267.5C453.7 272 460.8 272 465.2 267.5Z" fill="#380766"/>
<path d="M495.2 270.5C501.3 270.5 506.2 265.6 506.2 259.5C506.2 253.4 501.3 248.5 495.2 248.5C489.1 248.5 484.2 253.4 484.2 259.5C484.2 265.6 489.2 270.5 495.2 270.5Z" fill="white"/>
<path d="M495.2 270.8C493 270.8 490.8 270.1 488.9 268.9C487 267.7 485.6 265.9 484.7 263.8C483.8 261.7 483.6 259.5 484.1 257.3C484.6 255.1 485.6 253.1 487.2 251.5C488.8 249.9 490.8 248.8 493 248.4C495.2 248 497.5 248.2 499.5 249C501.6 249.9 503.3 251.3 504.6 253.2C505.8 255.1 506.5 257.2 506.5 259.5C506.5 262.5 505.3 265.4 503.2 267.5C501.1 269.6 498.2 270.8 495.2 270.8ZM495.2 248.9C493.1 248.9 491 249.5 489.3 250.7C487.5 251.9 486.2 253.5 485.4 255.5C484.6 257.4 484.4 259.6 484.8 261.7C485.2 263.8 486.2 265.7 487.7 267.2C489.2 268.7 491.1 269.7 493.2 270.1C495.3 270.5 497.4 270.3 499.4 269.5C501.3 268.7 503 267.3 504.2 265.6C505.4 263.8 506 261.8 506 259.7C506 256.9 504.9 254.2 502.9 252.2C500.9 250.2 498 248.9 495.2 248.9Z" fill="#380766"/>
<path d="M375.9 368.2H253.9V351.4H254.1V313.2H307.5L307.8 313.3L351.3 327.7C356.2 329.3 360.7 331.9 364.5 335.5C368.3 339 371.3 343.2 373.3 348L374.8 351.5H375.8V368.2H375.9ZM258 364.1H371.8V354.5L369.7 349.5C367.9 345.3 365.3 341.5 361.9 338.4C358.5 335.3 354.6 333 350.2 331.5L307 317.2H258.3V355.5H258.1V364.1H258Z" fill="white"/>
<path d="M105.2 367.3L50.8 258.2L65.9 250.7L66.0001 250.8L100.2 233.7L101.3 235.6L124.2 281.4L124.7 284.6L130.9 327.2C131.6 332.3 131.3 337.5 129.8 342.5C128.4 347.5 125.9 352 122.6 356L120 359L120.4 359.8L105.2 367.3ZM56.2001 260L107 361.8L115.7 357.5L119.3 353.3C122.3 349.8 124.4 345.8 125.7 341.3C127 336.9 127.3 332.3 126.6 327.8L120 282.7L98.3 239.2L64.0001 256.4L63.9 256.3L56.2001 260Z" fill="white"/>
<path d="M234.2 28.4001C232.5 28.4001 230.9 27.8001 229.5 26.8001C228 25.6001 227 23.9001 226.7 22.0001C226.6 21.6001 226.6 21.2001 226.6 20.7001V12.2001C226.6 10.4001 227.2 8.70008 228.3 7.30008C229.4 5.90008 231 5.0001 232.8 4.7001C233.3 4.6001 233.7 4.6001 234.2 4.6001C235.2 4.6001 236.2 4.8001 237.1 5.2001C238 5.6001 238.9 6.10009 239.6 6.90009C240.3 7.60009 240.9 8.40009 241.2 9.40009C241.6 10.3001 241.8 11.3001 241.8 12.3001V20.8001C241.8 22.7001 241.1 24.5001 239.8 26.0001C238.5 27.4001 236.7 28.3001 234.8 28.4001C234.6 28.4001 234.4 28.4001 234.2 28.4001ZM234.1 5.2001C233.7 5.2001 233.3 5.20008 232.9 5.30008C231.3 5.60008 229.8 6.5001 228.8 7.7001C227.8 9.0001 227.2 10.6001 227.2 12.2001V20.7001C227.2 21.1001 227.2 21.5001 227.3 21.9001C227.6 23.6001 228.5 25.2001 229.9 26.3001C231.3 27.4001 233 27.9001 234.8 27.8001C236.6 27.7001 238.2 26.9001 239.4 25.6001C240.6 24.3001 241.2 22.6001 241.2 20.8001V12.3001C241.2 11.4001 241 10.5001 240.7 9.6001C240.3 8.7001 239.8 8.00008 239.2 7.30008C238.5 6.60008 237.8 6.10008 236.9 5.80008C236 5.40008 235.1 5.2001 234.1 5.2001Z" fill="white"/>
<path d="M318 317.2H249.6V219.1C249 220.1 248.4 221.1 247.8 222.1C241.5 232.1 232.6 240.1 222 245.4L125.5 293.5L124.5 291.6L95 232.4L96.9 231.4L185 187.4C188.8 185.5 192 182.6 194.3 179C196.6 175.4 197.9 171.3 198 167L199.7 108.1C199.3 105.1 199.1 102.1 199.1 99.0999V96.8999H200V95.3999L202.7 96.8999H266V98.4999L309.3 184.1C314.9 195.3 317.9 207.8 317.9 220.3V317.2H318ZM253.7 313.1H313.9V220.4C313.9 208.5 311.1 196.6 305.7 186L262.7 101H203.3C203.4 103.3 203.5 105.5 203.8 107.8V108L202.1 167.2C202 172.2 200.5 177.1 197.8 181.3C195.1 185.5 191.3 188.9 186.9 191.1L100.5 234.2L127.4 288.1L220.3 241.8C230.2 236.9 238.6 229.3 244.5 220C246.5 216.9 248.2 213.5 249.6 210L252.7 202.2L253.5 210.6C253.7 212.4 253.8 214.3 253.8 216.1V313.1H253.7Z" fill="white"/>
<path d="M239.3 6.99991C237.9 5.59991 236.1 4.8999 234.1 4.8999C233.7 4.8999 233.2 4.99991 232.8 4.99991H232.7L232.2 5.09991H232.1L231.6 5.2999L231.5 5.3999L231.1 5.59991H231L230.6 5.8999L230.5 5.99991L230.1 6.2999L230 6.3999L229.6 6.69992L229.5 6.7999L229.2 7.09991L229.1 7.19992C229 7.29992 228.9 7.39991 228.8 7.49991L228.7 7.59991L228.4 7.99991L228.3 8.19992C228.2 8.29992 228.1 8.39991 228 8.59991L227.9 8.7999L227.7 9.19992L227.6 9.2999C227.5 9.4999 227.5 9.59992 227.4 9.69992C227.3 9.79992 227.4 9.7999 227.3 9.7999C227.3 9.7999 227.2 10.0999 227.2 10.2999L227.1 10.4999L227 10.9999C227 10.9999 227 11.0999 227 11.1999C227 11.3999 226.9 11.4999 226.9 11.6999C226.9 11.7999 226.9 11.7999 226.9 11.8999V21.0999C226.9 21.4999 226.9 21.8999 227 22.2999C231.6 22.5999 233.4 13.0999 233.3 12.6999C234 12.9999 239.7 12.7999 240.5 12.7999L241.5 12.6999V12.5999C241.5 11.5999 241.3 10.6999 241 9.7999C240.6 8.4999 240 7.69991 239.3 6.99991Z" fill="#9753D9"/>
<path d="M227.2 22.2997H226.7V21.9997C226.6 21.5997 226.6 21.1998 226.6 20.6998V11.4997C226.6 11.2997 226.6 11.1997 226.7 10.9997C226.7 10.8997 226.7 10.8997 226.7 10.7997C226.7 10.5997 226.8 10.4997 226.8 10.2997V10.0998C226.9 9.89975 226.9 9.79975 227 9.59975L227.1 9.39974C227.1 9.29974 227.2 9.09975 227.3 8.99975V8.89974C227.4 8.69974 227.5 8.59975 227.6 8.49975L227.7 8.29974L228 7.89974L228.1 7.69976L228.4 7.29974L228.5 7.19976L228.8 6.89974L228.9 6.79974L229.3 6.49975L229.4 6.39974L229.8 6.09975L229.9 5.99975L230.3 5.69976L230.4 5.59975L230.8 5.29974H230.9C231 5.19974 231.2 5.19975 231.3 5.09975L231.4 4.99975L231.9 4.79974H232L232.5 4.69976H232.7C233.9 4.49976 235.1 4.59974 236.3 4.89974C237.5 5.29974 238.5 5.89974 239.4 6.79974C240.1 7.49974 240.7 8.39974 241.1 9.29974C241.5 10.1997 241.7 11.1998 241.7 12.1998V12.5998L241.4 12.6998L240.4 12.7997H239.5C236.5 12.8997 234.4 12.8998 233.4 12.6998C233.2 14.0998 232.2 18.4997 230.1 20.7997C229.3 21.7997 228.3 22.2997 227.2 22.2997ZM232.8 5.39974C232.6 5.39974 232.5 5.39975 232.4 5.49975H232.3L231.8 5.69976H231.7L231.3 5.89974H231.2L230.8 6.09975L230.7 6.19976L230.3 6.49975L230.2 6.59975L229.8 6.89974L229.7 6.99975C229.6 7.09975 229.5 7.19974 229.4 7.29974L229.3 7.39974L229 7.69976L228.9 7.79974L228.6 8.19976L228.5 8.29974L228.2 8.69976C228.2 8.69976 228.2 8.69974 228.2 8.79974C228.2 8.79974 228.2 8.79974 228.2 8.89974C228.1 9.09974 228 9.19974 228 9.29974L227.9 9.39974C227.9 9.49974 227.8 9.69974 227.7 9.79974V9.89974C227.6 10.0997 227.6 10.1997 227.5 10.3997V10.4997L227.4 10.9997C227.4 10.9997 227.4 11.0998 227.4 11.1998C227.4 11.3998 227.3 11.4998 227.3 11.6998V12.2997V20.9997C227.3 21.2997 227.3 21.5997 227.3 21.8997C228.2 21.8997 229 21.4997 229.6 20.7997C232.1 18.3997 233.1 12.8998 233 12.5998L232.9 12.0998L233.4 12.2997C233.9 12.4997 238.1 12.3997 239.6 12.3997H241.1C241.1 11.4997 240.9 10.5997 240.6 9.79974C240.3 8.99974 239.7 8.19975 239.1 7.59975C238.3 6.79975 237.3 6.19974 236.2 5.89974C235.1 5.59974 234 5.49976 232.9 5.69976H232.8V5.39974Z" fill="white"/>
<path d="M237.9 19.3002C237.8 19.3002 237.8 19.3002 237.9 19.3002C237.8 19.2002 237.8 19.1002 237.9 19.1002L239.1 18.7002L238.3 16.3002C238.3 16.3002 238.3 16.2002 238.4 16.2002C238.4 16.2002 238.5 16.2002 238.5 16.3002L239.3 18.8002C239.3 18.8002 239.3 18.9002 239.2 18.9002L237.9 19.3002Z" fill="white"/>
<path d="M235.7 18.3002C234.8 18.3002 234 17.7002 233.9 16.8002C233.9 16.7002 233.9 16.7003 233.9 16.6003C233.8 15.6003 234.6 14.7003 235.6 14.6003C236.6 14.5003 237.5 15.3002 237.6 16.3002C237.7 17.3002 236.9 18.2002 235.9 18.3002C235.8 18.3002 235.8 18.3002 235.7 18.3002ZM235.7 14.7003H235.6C234.7 14.8003 234 15.6002 234 16.5002C234 16.6002 234 16.6003 234 16.7003C234.2 17.6003 234.9 18.2003 235.8 18.1003C236.7 18.0003 237.4 17.2002 237.3 16.3002C237.3 15.4002 236.6 14.7003 235.7 14.7003Z" fill="white"/>
<path d="M240.8 18.3002C240.7 18.3002 240.7 18.3002 240.6 18.3002C239.6 18.2002 238.8 17.3002 238.9 16.3002C239 15.3002 239.9 14.5003 240.9 14.6003C241.9 14.7003 242.7 15.6003 242.6 16.6003C242.6 17.6003 241.8 18.3002 240.8 18.3002ZM240.8 14.7003C239.9 14.7003 239.1 15.5002 239.1 16.4002C239.1 17.3002 239.8 18.0003 240.7 18.1003C241.6 18.2003 242.4 17.5003 242.5 16.6003C242.6 15.7003 241.9 14.9002 241 14.8002C240.9 14.7002 240.8 14.7003 240.8 14.7003Z" fill="white"/>
<path d="M239 16.4002H237.5C237.5 16.4002 237.4 16.4002 237.4 16.3002C237.4 16.3002 237.4 16.2002 237.5 16.2002H239C239 16.2002 239.1 16.2002 239 16.4002Z" fill="white"/>
<path d="M235.7 16.9004C235.976 16.9004 236.2 16.6765 236.2 16.4004C236.2 16.1242 235.976 15.9004 235.7 15.9004C235.424 15.9004 235.2 16.1242 235.2 16.4004C235.2 16.6765 235.424 16.9004 235.7 16.9004Z" fill="#1D1D1B"/>
<path d="M240.8 16.9004C241.076 16.9004 241.3 16.6765 241.3 16.4004C241.3 16.1242 241.076 15.9004 240.8 15.9004C240.524 15.9004 240.3 16.1242 240.3 16.4004C240.3 16.6765 240.524 16.9004 240.8 16.9004Z" fill="#1D1D1B"/>
<path d="M237.9 23.8C237.8 23.8 237.7 23.8 237.6 23.8C237 23.7 236.4 23.4 236 23C235.6 22.5 235.3 21.8 235.4 21.1C235.4 21 235.5 21 235.5 21H240.3C240.4 21 240.4 21.1 240.4 21.1C240 23.1 238.9 23.8 237.9 23.8ZM235.7 21.2C235.7 22.5 236.7 23.5 237.7 23.6C238.6 23.7 239.8 23.1 240.2 21.2H235.7Z" fill="white"/>
<path d="M342.1 53.9002C342.1 48.8002 340.1 46.2002 338.5 44.9002C336.4 43.3002 333.7 42.8002 330.8 43.6002C330.3 43.7002 329.8 43.9002 329.3 44.1002C327.3 42.4002 324.5 41.9002 321.3 42.8002C320 43.2002 318.9 43.6002 318 44.2002C316.7 43.6002 314.8 43.3002 312.4 43.9002C307.1 45.3002 306.6 48.7002 306.7 53.5002C306.7 54.1002 306.7 54.6002 306.7 55.2002V55.6002C306.7 56.2002 306.7 57.0002 306.8 57.9002C307.1 61.7002 308.4 67.3002 314.4 67.3002C315.5 67.3002 316.5 67.1002 317.4 66.7002C318.8 68.6002 320.9 69.5002 323.5 69.5002C326.2 69.5002 328.4 68.4002 329.9 66.4002C330.7 66.7002 331.6 66.9002 332.6 66.9002C334.8 66.9002 336.7 66.1002 338.1 64.7002C339.2 63.7002 340.1 62.3002 340.7 60.6002C341.7 58.9002 342.1 56.5002 342.1 53.9002ZM332.8 63.0002C331.7 63.0002 331.2 62.6002 330.9 62.3002L328.8 60.2002L327.6 62.9002C326.7 64.8002 325.5 65.6002 323.7 65.6002C321.9 65.6002 320.9 64.9002 320.2 63.2002L319 60.3002L316.8 62.5002C316.2 63.1002 315.5 63.4002 314.6 63.4002C313.3 63.4002 311.3 63.4002 311 56.2002C311 56.0002 311 55.9002 311 55.7002V55.2002C311 53.7002 310.9 52.6002 311 51.7002C311.1 48.9002 311.7 48.5002 313.6 48.0002C315.1 47.6002 316.2 47.8002 317 48.4002L318.1 49.3002C318.4 49.2002 318.8 49.2002 319.1 49.2002L319.9 48.2002C320.2 47.8002 320.8 47.3002 322.4 46.9002C325.7 46.0002 326.9 47.6002 327.3 48.1002L328.5 49.7002L330.1 48.5002C330.5 48.2002 331 48.0002 331.8 47.8002C333.4 47.4002 334.9 47.6002 336 48.4002C337.3 49.4002 338 51.4002 338 54.1002C338 55.0002 337.9 55.8002 337.9 56.5002C337.7 58.5002 337.1 60.0002 336.4 61.2002C335.4 62.3002 334.2 63.0002 332.8 63.0002Z" fill="white"/>
</svg>
