<svg width="492" height="169" viewBox="0 0 492 169" fill="none" xmlns="http://www.w3.org/2000/svg">
<path d="M459.7 168.6H16.9C7.59996 168.6 0 161 0 151.7V16.9C0 7.59999 7.59996 0 16.9 0H459.7C469 0 476.6 7.59999 476.6 16.9V151.7C476.6 161 469 168.6 459.7 168.6Z" fill="#A3AFDE"/>
<path d="M491.2 114.8C491.2 100.1 479.3 88.2002 464.6 88.2002C463.3 88.2002 462.1 88.3002 460.8 88.5002C455 81.9002 446.4 77.7002 436.9 77.7002C423.6 77.7002 412.3 85.8001 407.5 97.4001C407.4 97.4001 407.3 97.4001 407.1 97.4001C397.9 97.4001 390.1 103 386.8 111H382.9C374.5 111 367.7 117.8 367.7 126.2C367.7 134.6 374.5 141.4 382.9 141.4H466.6C468.7 141.4 470.8 140.9 472.6 140.1C483.4 136.7 491.2 126.7 491.2 114.8Z" fill="white"/>
</svg>
