<?xml version="1.0" encoding="utf-8"?>
<!-- Generator: Adobe Illustrator 27.4.0, SVG Export Plug-In . SVG Version: 6.00 Build 0)  -->
<svg version="1.1" id="Camada_1" xmlns="http://www.w3.org/2000/svg" xmlns:xlink="http://www.w3.org/1999/xlink" x="0px" y="0px"
	 viewBox="0 0 32 32" style="enable-background:new 0 0 32 32;" xml:space="preserve">
<style type="text/css">
	.st0{fill-rule:evenodd;clip-rule:evenodd;fill:#FFFFFF;}
</style>
<path class="st0" d="M27.2,24.1l-11.2,0l-11.2,0c-0.6-0.1-1-0.4-1.1-0.9l0-2l-0.1,0V21l-2.2,0c-0.3,0-0.4-0.2-0.5-0.5l0-8.1
	c0-0.4,0.2-0.6,0.5-0.6l2.3,0l0-0.1h0.1l0-2.9c0.1-0.6,0.5-0.9,1.1-1l11.2,0l11.2,0c0.6,0.1,1,0.4,1.1,1l0,2.9h0.1v0.1l2.3,0
	c0.4,0,0.5,0.2,0.5,0.6l0,8.1c-0.1,0.3-0.2,0.4-0.5,0.5l-2.2,0l0,0.2h-0.1v2C28.2,23.7,27.9,24,27.2,24.1L27.2,24.1z M9.1,17.3
	c0.8,0,1.4,0.8,1.4,1.8c0,1-0.6,1.8-1.4,1.8S7.7,20,7.7,19C7.7,18,8.3,17.3,9.1,17.3L9.1,17.3z M22.9,17.3c-0.8,0-1.4,0.8-1.4,1.8
	c0,1,0.6,1.8,1.4,1.8c0.8,0,1.4-0.8,1.4-1.8C24.3,18,23.7,17.3,22.9,17.3L22.9,17.3z"/>
</svg>
