<svg width="273" height="512" viewBox="0 0 273 512" fill="none" xmlns="http://www.w3.org/2000/svg">
<path d="M213.949 305.272C221.521 317.191 229.122 329.091 236.657 341.033C246.28 356.285 256.523 371.203 265.143 387.004C269.126 394.306 271.604 403.318 271.813 411.629C272.583 442.262 272.116 472.925 272.123 503.576C272.124 506.772 272.173 509.962 268.248 511.652C265.748 512 263.378 512 260.466 511.662C254.348 505.008 248.619 498.818 243.228 492.346C234.788 482.213 226.592 471.876 218.263 461.651C211.286 453.085 204.266 444.554 197.266 435.619C198.946 423.6 200.844 411.996 202.264 400.334C205.369 374.836 208.193 349.305 211.22 323.798C211.955 317.602 213.031 311.446 213.949 305.272Z" fill="#FF4F19"/>
<path d="M4.56293 512C2.78541 509.29 0.316648 506.591 0.292447 503.869C0.018407 473.051 -0.185748 442.226 0.263623 411.413C0.451932 398.5 6.08749 387.078 13.0403 376.3C27.5093 353.871 41.7838 331.316 56.1574 308.824C56.6848 307.999 57.4129 307.302 58.4526 306.504C59.6766 314.86 60.3667 323.271 61.342 331.649C63.1765 347.407 65.1099 363.155 67.1232 378.891C69.5548 397.898 72.1121 416.889 74.3958 436.188C71.7739 439.542 69.4277 442.642 66.9584 445.64C58.7796 455.571 50.5486 465.458 42.3523 475.375C32.2668 487.577 22.1959 499.791 12.1188 512C9.7482 512 7.37766 512 4.56293 512Z" fill="#E9001E"/>
<path d="M144.264 456.022C144.216 472.062 144.322 488.105 143.953 504.137C143.897 506.552 141.625 508.916 140.248 511.652C137.748 512 135.378 512 132.563 512C129.019 509.932 128.002 507.103 128.044 503.346C128.218 487.897 128.11 472.444 128.098 456.06C128.099 408.06 128.104 360.993 128.125 313.927C128.127 307.895 130.245 305.313 136.536 303.984C142.304 305.418 144.259 309.113 144.147 314.426C144.022 320.407 144.113 326.392 144.12 332.375C144.166 373.591 144.216 414.807 144.264 456.022Z" fill="#FF4F19"/>
<path d="M68.3051 71.7532C74.9432 61.5094 80.7841 50.6183 88.4349 41.1969C96.7339 30.9773 106.494 21.8907 116.062 12.7779C120.856 8.2126 126.64 4.68745 132.048 0.345947C133.185 1.3873e-05 134.252 1.39177e-05 135.719 0.468671C136.104 24.6023 136.088 48.2672 136.084 71.9705C136.094 72.0088 136.157 72.0589 135.685 72.0391C112.911 71.9306 90.6081 71.8419 68.3051 71.7532Z" fill="#E9021E"/>
<path d="M136.073 71.9321C136.088 48.2672 136.104 24.6022 136.119 0.468653C137.185 -3.99351e-06 138.252 -3.97673e-06 139.719 2.32704e-08C150.854 9.25322 161.999 18.0794 172.218 27.8715C184.067 39.2261 193.543 52.5649 201.115 67.1912C201.855 68.6197 202.899 69.8908 203.418 71.5894C180.714 71.9399 158.393 71.936 136.073 71.9321Z" fill="#FF4F19"/>
<path d="M136.084 71.9705C158.394 71.936 180.714 71.94 203.492 71.9208C212.039 88.5085 217.739 105.824 221.293 124.033C225.308 144.605 224.31 165.282 223.912 185.903C223.556 204.312 221.503 222.692 220.087 241.076C219.204 252.544 218.179 264.003 217.095 275.454C216.184 285.088 215.097 294.705 214.019 304.801C213.031 311.446 211.955 317.602 211.22 323.798C208.193 349.305 205.369 374.837 202.264 400.334C200.844 411.996 198.946 423.6 197.266 435.619C194.152 447.479 179.886 456.752 169.006 456.094C161.09 455.615 153.122 456.003 144.721 456.014C144.216 414.807 144.166 373.591 144.12 332.375C144.113 326.392 144.022 320.407 144.147 314.426C144.259 309.113 142.304 305.418 136.513 303.524C136.137 276.715 136.138 250.44 136.576 224.092C174.308 222.501 199.723 188.584 190.041 153.06C184.332 132.112 165.454 112.834 136.132 111.376C136.136 97.965 136.146 85.012 136.157 72.0589C136.157 72.0589 136.094 72.0088 136.084 71.9705Z" fill="#FFD200"/>
<path d="M136.139 224.165C136.138 250.44 136.137 276.715 136.16 303.45C130.245 305.313 128.127 307.895 128.125 313.926C128.104 360.993 128.099 408.06 128.057 455.597C120.402 456.045 112.779 455.905 105.161 456.025C90.6671 456.255 80.7338 449.612 74.8107 436.157C72.1121 416.889 69.5548 397.898 67.1231 378.891C65.1099 363.155 63.1765 347.407 61.342 331.649C60.3667 323.271 59.6766 314.86 58.5692 306.164C56.9037 292.648 55.3739 279.445 54.1987 266.212C53.2807 255.875 52.9061 245.491 52.1058 235.143C50.8765 219.247 48.8453 203.383 48.3481 187.469C47.8412 171.243 48.3784 154.953 49.1855 138.727C50.1083 120.174 55.3296 102.509 62.1878 85.3341C63.9322 80.9656 66.1007 76.7665 68.1896 72.1214C90.608 71.8418 112.911 71.9306 135.685 72.039C136.146 85.0119 136.135 97.965 135.691 111.447C95.4689 113.536 69.5618 151.953 84.2426 188.56C93.4599 211.544 111.628 222.804 136.139 224.165Z" fill="#FF9600"/>
<path d="M136.576 224.092C111.628 222.804 93.46 211.544 84.2427 188.56C69.5619 151.954 95.469 113.536 135.698 111.905C165.454 112.834 184.332 132.112 190.041 153.06C199.723 188.584 174.308 222.501 136.576 224.092ZM136.975 207.92C160.763 206.816 176.411 188.115 175.995 167.084C175.563 145.262 158.066 128.455 135.305 128.077C112.19 129.767 95.4567 147.23 96.1657 168.921C96.8771 190.686 114.372 207.706 136.975 207.92Z" fill="#5E566A"/>
<path d="M136.143 207.814C114.372 207.706 96.877 190.686 96.1656 168.921C95.4567 147.23 112.19 129.767 135.717 128.587C136.133 155.336 136.138 181.575 136.143 207.814Z" fill="#53DBFE"/>
<path d="M136.559 207.867C136.138 181.575 136.133 155.336 136.136 128.642C158.066 128.455 175.563 145.262 175.995 167.084C176.411 188.115 160.763 206.816 136.559 207.867Z" fill="#B2F3FE"/>
</svg>
