<svg width="124" height="124" viewBox="0 0 124 124" fill="none" xmlns="http://www.w3.org/2000/svg">
<path d="M61.92 123.84C96.1175 123.84 123.84 96.1175 123.84 61.92C123.84 27.7225 96.1175 0 61.92 0C27.7225 0 0 27.7225 0 61.92C0 96.1175 27.7225 123.84 61.92 123.84Z" fill="#EDEDED"/>
<path d="M61.9197 84.2499C60.4597 84.2499 59.0097 83.7699 57.7997 82.8199L18.1297 51.4599C15.2497 49.1799 14.7597 45.0099 17.0397 42.1299C19.3197 39.2499 23.4897 38.7599 26.3697 41.0399L61.9197 69.1499L97.4697 41.0399C100.35 38.7699 104.53 39.2499 106.8 42.1299C109.07 45.0099 108.59 49.1899 105.71 51.4599L66.0397 82.8199C64.8297 83.7699 63.3797 84.2499 61.9197 84.2499Z" fill="#772995"/>
</svg>
