<svg width="96" height="110" viewBox="0 0 96 110" fill="none" xmlns="http://www.w3.org/2000/svg">
<path d="M0.0532227 98.0701C0.0532227 104.58 5.33321 109.87 11.8532 109.87H83.2632C89.7732 109.87 95.0632 104.59 95.0632 98.0701V41.1301H0.0632324V98.0701H0.0532227ZM69.8832 58.2701C69.8832 56.7901 71.0832 55.6001 72.5532 55.6001H78.6832C80.1632 55.6001 81.3532 56.8001 81.3532 58.2701V64.4001C81.3532 65.8801 80.1532 67.0701 78.6832 67.0701H72.5532C71.0732 67.0701 69.8832 65.8701 69.8832 64.4001V58.2701ZM69.8832 85.6401C69.8832 84.1601 71.0832 82.9701 72.5532 82.9701H78.6832C80.1632 82.9701 81.3532 84.1701 81.3532 85.6401V91.7701C81.3532 93.2501 80.1532 94.4401 78.6832 94.4401H72.5532C71.0732 94.4401 69.8832 93.2401 69.8832 91.7701V85.6401ZM41.8132 58.2701C41.8132 56.7901 43.0132 55.6001 44.4832 55.6001H50.6132C52.0932 55.6001 53.2832 56.8001 53.2832 58.2701V64.4001C53.2832 65.8801 52.0832 67.0701 50.6132 67.0701H44.4832C43.0032 67.0701 41.8132 65.8701 41.8132 64.4001V58.2701ZM41.8132 85.6401C41.8132 84.1601 43.0132 82.9701 44.4832 82.9701H50.6132C52.0932 82.9701 53.2832 84.1701 53.2832 85.6401V91.7701C53.2832 93.2501 52.0832 94.4401 50.6132 94.4401H44.4832C43.0032 94.4401 41.8132 93.2401 41.8132 91.7701V85.6401ZM13.7332 58.2701C13.7332 56.7901 14.9332 55.6001 16.4032 55.6001H22.5332C24.0132 55.6001 25.2032 56.8001 25.2032 58.2701V64.4001C25.2032 65.8801 24.0032 67.0701 22.5332 67.0701H16.4032C14.9232 67.0701 13.7332 65.8701 13.7332 64.4001V58.2701ZM13.7332 85.6401C13.7332 84.1601 14.9332 82.9701 16.4032 82.9701H22.5332C24.0132 82.9701 25.2032 84.1701 25.2032 85.6401V91.7701C25.2032 93.2501 24.0032 94.4401 22.5332 94.4401H16.4032C14.9232 94.4401 13.7332 93.2401 13.7332 91.7701V85.6401Z" fill="white"/>
<path d="M83.2532 13.9201H74.4232L74.4132 6.91012C74.4032 3.16012 71.3632 0.130161 67.6132 0.140161C63.8632 0.150161 60.8332 3.19015 60.8432 6.94015L60.8532 13.9201H33.0632L33.0532 6.91012C33.0432 3.16012 30.0032 0.130161 26.2532 0.140161C22.5032 0.150161 19.4732 3.19015 19.4832 6.94015L19.4932 13.9201H11.8532C5.33321 13.9201 0.0532227 19.2001 0.0532227 25.7201V34.3701H95.0532V25.7201C95.0532 19.2001 89.7732 13.9201 83.2532 13.9201Z" fill="white"/>
</svg>
