<svg width="102" height="96" viewBox="0 0 102 96" fill="none" xmlns="http://www.w3.org/2000/svg">
<path d="M95.1863 1.54999C92.0963 1.81999 89.8264 4.61997 89.8264 7.71997V26.55C81.9964 11.25 66.0763 0.75 47.7363 0.75C21.6863 0.75 0.486328 21.95 0.486328 48C0.486328 74.06 21.6863 95.25 47.7363 95.25C64.3363 95.25 78.9463 86.64 87.3763 73.66H71.4563C65.2163 79.43 56.8763 82.97 47.7363 82.97C28.4563 82.97 12.7663 67.28 12.7663 48C12.7663 28.72 28.4563 13.03 47.7363 13.03C61.9163 13.03 74.1463 21.51 79.6263 33.67H59.0063C55.5763 33.67 52.8364 36.6 53.1364 40.09C53.4064 43.18 56.2063 45.45 59.3063 45.45H98.2663C100.106 45.45 101.586 43.96 101.586 42.13V7.41998C101.606 3.97998 98.6763 1.23999 95.1863 1.54999Z" fill="white"/>
</svg>
