<svg width="74" height="115" viewBox="0 0 74 115" fill="none" xmlns="http://www.w3.org/2000/svg">
<path d="M8.71985 71.8797C8.71985 71.8797 1.97985 70.7398 2.71985 66.3098C3.50985 61.6498 8.71985 63.3698 8.71985 63.3698V71.8797Z" fill="#EBBE8F"/>
<path d="M10.6896 62.1202C10.6896 62.1202 3.99958 61.0002 4.68958 56.5502C5.41958 51.8802 10.6896 53.6102 10.6896 53.6102V62.1202Z" fill="#EBBE8F"/>
<path d="M73.5396 114.06L65.8695 103.77C65.3295 103.05 64.9295 102.22 64.7095 101.35L60.9995 87.1595C59.5795 81.7295 57.4395 76.5196 54.6395 71.6696L46.8895 58.2396C45.9395 56.5896 44.4695 55.2896 42.7095 54.5596L31.9196 50.0195L41.9895 65.4495L37.1395 78.9896H15.5795C13.8895 78.9896 12.5195 80.3596 12.5195 82.0496C12.5195 83.7096 13.8695 85.0596 15.5295 85.0596H26.3395C27.9495 85.0596 29.4295 85.9295 30.2195 87.3295L36.5095 98.4896C39.5095 102.78 43.1196 106.61 47.2296 109.85L50.9895 114.07H73.5396V114.06Z" fill="#F6C499"/>
<path opacity="0.44" d="M58.3198 114.06L43.1398 82.2603L57.3198 89.1603L48.2298 80.7803L43.9798 76.8603L43.4098 71.0803L41.9798 56.5303L37.1298 78.9903H15.5198C13.8598 78.9903 12.5098 80.3402 12.5098 82.0002V82.0503C12.5098 83.7103 13.8598 85.0603 15.5198 85.0603H26.3298C27.9398 85.0603 29.4198 85.9303 30.2098 87.3303L36.4998 98.4903C39.4998 102.78 43.1098 106.61 47.2198 109.85L50.9798 114.07H58.3198V114.06Z" fill="#F0B18B"/>
<path d="M45.7199 81.4698L8.31989 81.4498C6.99989 81.4498 5.91992 80.3799 5.91992 79.0499L5.96991 7.73987C5.96991 6.41987 7.03987 5.33984 8.36987 5.33984L45.7699 5.35986C47.0899 5.35986 48.1699 6.42983 48.1699 7.75983L48.1199 79.0698C48.1199 80.3998 47.0399 81.4698 45.7199 81.4698Z" fill="#48404E"/>
<path d="M45.4304 79.4102L8.61041 79.3901C8.22041 79.3901 7.90039 79.0702 7.90039 78.6702L7.95038 8.12018C7.95038 7.73018 8.27041 7.41016 8.67041 7.41016L45.4904 7.43018C45.8804 7.43018 46.2004 7.75015 46.2004 8.15015L46.1504 78.7001C46.1504 79.0901 45.8304 79.4102 45.4304 79.4102Z" fill="#48404E"/>
<path d="M10.1797 9.87012L18.1897 9.88007" stroke="white" stroke-width="0.758" stroke-miterlimit="10" stroke-linecap="square"/>
<path d="M18.1797 76.5303L35.8697 76.5403" stroke="white" stroke-width="0.758" stroke-miterlimit="10" stroke-linecap="square"/>
<path d="M39.8799 9.88965H43.8799" stroke="white" stroke-width="0.758" stroke-miterlimit="10" stroke-linecap="square"/>
<path d="M36.9805 9.88965H38.5704" stroke="white" stroke-width="0.758" stroke-miterlimit="10" stroke-linecap="square"/>
<path d="M3.32971 5.41992L0.429688 5.44989" stroke="#5C307D" stroke-width="0.7898" stroke-miterlimit="10"/>
<path d="M3.99988 3.71021L0.919922 0.700195" stroke="#5C307D" stroke-width="0.7898" stroke-miterlimit="10"/>
<path d="M5.86035 2.90002V0" stroke="#5C307D" stroke-width="0.7898" stroke-miterlimit="10"/>
<path opacity="0.19" d="M48.0195 29.0303V55.2803H14.4895L8.62952 59.8203L8.4895 55.2803H6.01953V29.0303H48.0195Z" fill="#363636"/>
<path d="M0 23.8604H65.73V50.1104H16.5L10.64 54.6603L10.5 50.1104H0V23.8604Z" fill="#F5F5F5"/>
<path d="M26.3398 34.6797H58.2999" stroke="#D4D4D4" stroke-width="1.1503" stroke-miterlimit="10" stroke-linecap="square"/>
<path d="M26.3398 38.2998H49.6798" stroke="#D4D4D4" stroke-width="1.1503" stroke-miterlimit="10" stroke-linecap="square"/>
<path d="M18.0298 43.06L16.7998 41.46" stroke="#AF84E3" stroke-width="1.0057" stroke-miterlimit="10"/>
<path d="M8.86035 43.06L10.1003 41.46" stroke="#AF84E3" stroke-width="1.0057" stroke-miterlimit="10"/>
<path d="M13.3702 43.3802C17.1479 43.3802 20.2103 40.3179 20.2103 36.5402C20.2103 32.7626 17.1479 29.7002 13.3702 29.7002C9.59261 29.7002 6.53027 32.7626 6.53027 36.5402C6.53027 40.3179 9.59261 43.3802 13.3702 43.3802Z" fill="url(#paint0_linear_42_294)"/>
<path d="M11.96 28.4697H14.78" stroke="#5C307D" stroke-width="0.7898" stroke-miterlimit="10"/>
<path d="M8.65039 35.7203L13.5104 36.7803V32.8203" stroke="white" stroke-width="1.0057" stroke-miterlimit="10"/>
<path d="M16.6396 29.1602C17.7596 29.2102 18.7496 29.9101 19.1796 30.9401" stroke="#5C307D" stroke-width="0.7898" stroke-miterlimit="10"/>
<path d="M7.5498 30.9401C7.9798 29.9101 8.96978 29.2202 10.0898 29.1602" stroke="#5C307D" stroke-width="0.7898" stroke-miterlimit="10"/>
<path d="M56.7599 110.85L49.78 106.92C43.65 103.62 39.4799 97.5799 38.5599 90.6899C38.1999 87.9799 36.59 85.5799 34.21 84.2199L25.9999 78.3799C24.2599 77.0099 23.9199 74.5099 25.2399 72.7299C26.3899 71.1799 28.46 70.6499 30.21 71.4499L31.14 71.8699C35.71 73.9599 40.06 76.5099 44.11 79.4799L57.3099 89.1499L56.7599 110.85Z" fill="#F6C499"/>
<path d="M26.0704 77.5202C25.3704 76.9702 24.9304 76.1902 24.8104 75.3102C24.6904 74.4302 24.9204 73.5602 25.4504 72.8502C26.0804 72.0002 27.1004 71.4902 28.1604 71.4902C28.6504 71.4902 29.1204 71.5902 29.5604 71.8002L31.1804 72.5402L27.3204 78.4102L26.0704 77.5202Z" fill="#FFDAB5"/>
<defs>
<linearGradient id="paint0_linear_42_294" x1="15.5727" y1="44.3644" x2="11.0282" y2="28.2488" gradientUnits="userSpaceOnUse">
<stop stop-color="#CA6EED"/>
<stop offset="0.3226" stop-color="#AA5CCC"/>
<stop offset="1" stop-color="#5C307D"/>
</linearGradient>
</defs>
</svg>
