<svg width="82" height="120" viewBox="0 0 82 120" fill="none" xmlns="http://www.w3.org/2000/svg">
<path d="M19.5947 92.7198C19.5947 92.7198 10.3346 91.1798 11.3046 85.0198C12.3146 78.5598 19.5947 80.9498 19.5947 80.9498V92.7198Z" fill="#EBBE8F"/>
<path d="M68.0351 119.44H16.105C13.795 119.44 11.915 117.56 11.915 115.25V14.8599C11.915 12.5499 13.795 10.6699 16.105 10.6699H68.0351C70.3451 10.6699 72.2251 12.5499 72.2251 14.8599V115.25C72.2251 117.57 70.3551 119.44 68.0351 119.44Z" fill="#48404E"/>
<g opacity="0.36">
<path d="M29.3953 17.6796H17.9453C17.6453 17.6796 17.4053 17.4396 17.4053 17.1396C17.4053 16.8396 17.6453 16.5996 17.9453 16.5996H29.3953C29.6953 16.5996 29.9352 16.8396 29.9352 17.1396C29.9352 17.4396 29.6953 17.6796 29.3953 17.6796Z" fill="white"/>
<path d="M54.7255 112.949H29.4355C29.1355 112.949 28.8955 112.709 28.8955 112.409C28.8955 112.109 29.1355 111.869 29.4355 111.869H54.7255C55.0255 111.869 55.2655 112.109 55.2655 112.409C55.2655 112.709 55.0255 112.949 54.7255 112.949Z" fill="white"/>
<path d="M66.1057 17.6796H60.3857C60.0857 17.6796 59.8457 17.4396 59.8457 17.1396C59.8457 16.8396 60.0857 16.5996 60.3857 16.5996H66.1057C66.4057 16.5996 66.6457 16.8396 66.6457 17.1396C66.6457 17.4396 66.4057 17.6796 66.1057 17.6796Z" fill="white"/>
<path d="M58.5153 17.6796H56.2353C55.9353 17.6796 55.6953 17.4396 55.6953 17.1396C55.6953 16.8396 55.9353 16.5996 56.2353 16.5996H58.5153C58.8153 16.5996 59.0553 16.8396 59.0553 17.1396C59.0553 17.4396 58.8153 17.6796 58.5153 17.6796Z" fill="white"/>
</g>
<path d="M72.0844 6.25995L72.0244 1" stroke="white" stroke-width="1.3354" stroke-miterlimit="10"/>
<path d="M75.1641 7.47968L80.6341 1.88965" stroke="white" stroke-width="1.3354" stroke-miterlimit="10"/>
<path d="M76.6348 10.8301H81.8848" stroke="white" stroke-width="1.3354" stroke-miterlimit="10"/>
<path opacity="0.11" d="M63.245 100.77L11.875 100.79L11.985 32.7802L63.355 32.7002L63.245 100.77Z" fill="#363636"/>
<path d="M58.4823 27.2783L0.112305 27.1836L7.29253e-06 96.3636L58.37 96.4583L58.4823 27.2783Z" fill="#F7F7F7"/>
<path d="M28.8445 68.5699C39.0342 68.5699 47.2945 60.3096 47.2945 50.1199C47.2945 39.9303 39.0342 31.6699 28.8445 31.6699C18.6549 31.6699 10.3945 39.9303 10.3945 50.1199C10.3945 60.3096 18.6549 68.5699 28.8445 68.5699Z" fill="white"/>
<path d="M28.8447 66.4101C37.8414 66.4101 45.1347 59.1168 45.1347 50.1201C45.1347 41.1234 37.8414 33.8301 28.8447 33.8301C19.848 33.8301 12.5547 41.1234 12.5547 50.1201C12.5547 59.1168 19.848 66.4101 28.8447 66.4101Z" fill="url(#paint0_linear_42_64)"/>
<mask id="mask0_42_64" style="mask-type:luminance" maskUnits="userSpaceOnUse" x="12" y="33" width="34" height="34">
<mask id="mask1_42_64" style="mask-type:luminance" maskUnits="userSpaceOnUse" x="12" y="33" width="34" height="34">
<mask id="mask2_42_64" style="mask-type:luminance" maskUnits="userSpaceOnUse" x="10" y="31" width="38" height="38">
<path d="M28.8445 68.5699C39.0342 68.5699 47.2945 60.3096 47.2945 50.1199C47.2945 39.9303 39.0342 31.6699 28.8445 31.6699C18.6549 31.6699 10.3945 39.9303 10.3945 50.1199C10.3945 60.3096 18.6549 68.5699 28.8445 68.5699Z" fill="white"/>
</mask>
<g mask="url(#mask2_42_64)">
<path d="M28.8447 66.4101C37.8414 66.4101 45.1347 59.1168 45.1347 50.1201C45.1347 41.1234 37.8414 33.8301 28.8447 33.8301C19.848 33.8301 12.5547 41.1234 12.5547 50.1201C12.5547 59.1168 19.848 66.4101 28.8447 66.4101Z" fill="white"/>
</g>
</mask>
<g mask="url(#mask1_42_64)">
<path d="M28.8447 66.4101C37.8414 66.4101 45.1347 59.1168 45.1347 50.1201C45.1347 41.1234 37.8414 33.8301 28.8447 33.8301C19.848 33.8301 12.5547 41.1234 12.5547 50.1201C12.5547 59.1168 19.848 66.4101 28.8447 66.4101Z" fill="white"/>
</g>
</mask>
<g mask="url(#mask0_42_64)">
<path d="M36.8648 78.0002C33.1148 78.0902 29.3248 78.0702 25.5748 77.9302C24.5848 76.3702 22.8848 75.0402 21.4548 73.5602C19.3248 71.3902 18.5848 68.9901 18.9848 66.5801C19.0448 66.0401 19.1448 65.5102 19.2648 64.9702C19.6248 63.3602 20.1948 63.0402 20.6848 61.4202C20.9048 60.7702 21.5348 60.2102 22.3348 59.7102C23.3148 59.0802 24.6048 58.5702 25.9448 58.2202C31.0048 56.8702 37.4248 57.9201 40.3148 60.5101C40.8948 61.0301 41.3348 61.6102 41.5848 62.2402C42.0848 63.5302 42.2048 63.5502 41.9848 64.8602C41.9148 65.3002 41.8049 65.7302 41.6549 66.1602C40.4049 69.8002 38.8249 73.3802 37.4049 77.0002C37.0749 77.6202 36.8648 78.0002 36.8648 78.0002Z" fill="#CA6EED"/>
</g>
<mask id="mask3_42_64" style="mask-type:luminance" maskUnits="userSpaceOnUse" x="12" y="33" width="34" height="34">
<mask id="mask4_42_64" style="mask-type:luminance" maskUnits="userSpaceOnUse" x="12" y="33" width="34" height="34">
<mask id="mask5_42_64" style="mask-type:luminance" maskUnits="userSpaceOnUse" x="10" y="31" width="38" height="38">
<path d="M28.8445 68.5699C39.0342 68.5699 47.2945 60.3096 47.2945 50.1199C47.2945 39.9303 39.0342 31.6699 28.8445 31.6699C18.6549 31.6699 10.3945 39.9303 10.3945 50.1199C10.3945 60.3096 18.6549 68.5699 28.8445 68.5699Z" fill="white"/>
</mask>
<g mask="url(#mask5_42_64)">
<path d="M28.8447 66.4101C37.8414 66.4101 45.1347 59.1168 45.1347 50.1201C45.1347 41.1234 37.8414 33.8301 28.8447 33.8301C19.848 33.8301 12.5547 41.1234 12.5547 50.1201C12.5547 59.1168 19.848 66.4101 28.8447 66.4101Z" fill="white"/>
</g>
</mask>
<g mask="url(#mask4_42_64)">
<path d="M28.8447 66.4101C37.8414 66.4101 45.1347 59.1168 45.1347 50.1201C45.1347 41.1234 37.8414 33.8301 28.8447 33.8301C19.848 33.8301 12.5547 41.1234 12.5547 50.1201C12.5547 59.1168 19.848 66.4101 28.8447 66.4101Z" fill="white"/>
</g>
</mask>
<g mask="url(#mask3_42_64)">
<path opacity="0.33" d="M29.6841 62.8301C28.1141 71.1401 29.6941 68.1001 30.7541 76.5701" stroke="white" stroke-width="0.368" stroke-miterlimit="10" stroke-linecap="round"/>
</g>
<mask id="mask6_42_64" style="mask-type:luminance" maskUnits="userSpaceOnUse" x="12" y="33" width="34" height="34">
<mask id="mask7_42_64" style="mask-type:luminance" maskUnits="userSpaceOnUse" x="12" y="33" width="34" height="34">
<mask id="mask8_42_64" style="mask-type:luminance" maskUnits="userSpaceOnUse" x="10" y="31" width="38" height="38">
<path d="M28.8445 68.5699C39.0342 68.5699 47.2945 60.3096 47.2945 50.1199C47.2945 39.9303 39.0342 31.6699 28.8445 31.6699C18.6549 31.6699 10.3945 39.9303 10.3945 50.1199C10.3945 60.3096 18.6549 68.5699 28.8445 68.5699Z" fill="white"/>
</mask>
<g mask="url(#mask8_42_64)">
<path d="M28.8447 66.4101C37.8414 66.4101 45.1347 59.1168 45.1347 50.1201C45.1347 41.1234 37.8414 33.8301 28.8447 33.8301C19.848 33.8301 12.5547 41.1234 12.5547 50.1201C12.5547 59.1168 19.848 66.4101 28.8447 66.4101Z" fill="white"/>
</g>
</mask>
<g mask="url(#mask7_42_64)">
<path d="M28.8447 66.4101C37.8414 66.4101 45.1347 59.1168 45.1347 50.1201C45.1347 41.1234 37.8414 33.8301 28.8447 33.8301C19.848 33.8301 12.5547 41.1234 12.5547 50.1201C12.5547 59.1168 19.848 66.4101 28.8447 66.4101Z" fill="white"/>
</g>
</mask>
<g mask="url(#mask6_42_64)">
<path opacity="0.33" d="M31.4746 64.9697L32.5346 65.0397" stroke="white" stroke-width="0.368" stroke-miterlimit="10" stroke-linecap="round"/>
</g>
<mask id="mask9_42_64" style="mask-type:luminance" maskUnits="userSpaceOnUse" x="12" y="33" width="34" height="34">
<mask id="mask10_42_64" style="mask-type:luminance" maskUnits="userSpaceOnUse" x="12" y="33" width="34" height="34">
<mask id="mask11_42_64" style="mask-type:luminance" maskUnits="userSpaceOnUse" x="10" y="31" width="38" height="38">
<path d="M28.8445 68.5699C39.0342 68.5699 47.2945 60.3096 47.2945 50.1199C47.2945 39.9303 39.0342 31.6699 28.8445 31.6699C18.6549 31.6699 10.3945 39.9303 10.3945 50.1199C10.3945 60.3096 18.6549 68.5699 28.8445 68.5699Z" fill="white"/>
</mask>
<g mask="url(#mask11_42_64)">
<path d="M28.8447 66.4101C37.8414 66.4101 45.1347 59.1168 45.1347 50.1201C45.1347 41.1234 37.8414 33.8301 28.8447 33.8301C19.848 33.8301 12.5547 41.1234 12.5547 50.1201C12.5547 59.1168 19.848 66.4101 28.8447 66.4101Z" fill="white"/>
</g>
</mask>
<g mask="url(#mask10_42_64)">
<path d="M28.8447 66.4101C37.8414 66.4101 45.1347 59.1168 45.1347 50.1201C45.1347 41.1234 37.8414 33.8301 28.8447 33.8301C19.848 33.8301 12.5547 41.1234 12.5547 50.1201C12.5547 59.1168 19.848 66.4101 28.8447 66.4101Z" fill="white"/>
</g>
</mask>
<g mask="url(#mask9_42_64)">
<path d="M28.8541 56.95C28.1041 62.31 22.8741 66.82 17.3041 66.53C16.5541 66.49 15.8141 66.29 15.0641 66.08C14.6041 65.92 14.1942 65.7101 13.7742 65.4301C13.1942 65.0601 12.6941 64.7 12.2341 64.13C11.9041 63.72 11.6541 63.28 11.4841 62.83C9.78413 58.4 12.8941 54.0201 16.3041 51.1801C16.6741 50.8601 17.0542 50.61 17.4642 50.33C19.0042 49.31 20.5342 48.6701 22.3242 48.5001C22.8642 48.4601 23.4041 48.5 23.9441 48.58C24.8541 48.7 25.6041 49.11 26.3541 49.64C27.3041 50.37 27.9741 51.3 28.4341 52.4C28.5541 52.81 28.6842 53.1701 28.7742 53.5601C29.0042 54.5901 29.0441 55.74 28.8541 56.95Z" fill="#404041"/>
</g>
<mask id="mask12_42_64" style="mask-type:luminance" maskUnits="userSpaceOnUse" x="12" y="33" width="34" height="34">
<mask id="mask13_42_64" style="mask-type:luminance" maskUnits="userSpaceOnUse" x="12" y="33" width="34" height="34">
<mask id="mask14_42_64" style="mask-type:luminance" maskUnits="userSpaceOnUse" x="10" y="31" width="38" height="38">
<path d="M28.8445 68.5699C39.0342 68.5699 47.2945 60.3096 47.2945 50.1199C47.2945 39.9303 39.0342 31.6699 28.8445 31.6699C18.6549 31.6699 10.3945 39.9303 10.3945 50.1199C10.3945 60.3096 18.6549 68.5699 28.8445 68.5699Z" fill="white"/>
</mask>
<g mask="url(#mask14_42_64)">
<path d="M28.8447 66.4101C37.8414 66.4101 45.1347 59.1168 45.1347 50.1201C45.1347 41.1234 37.8414 33.8301 28.8447 33.8301C19.848 33.8301 12.5547 41.1234 12.5547 50.1201C12.5547 59.1168 19.848 66.4101 28.8447 66.4101Z" fill="white"/>
</g>
</mask>
<g mask="url(#mask13_42_64)">
<path d="M28.8447 66.4101C37.8414 66.4101 45.1347 59.1168 45.1347 50.1201C45.1347 41.1234 37.8414 33.8301 28.8447 33.8301C19.848 33.8301 12.5547 41.1234 12.5547 50.1201C12.5547 59.1168 19.848 66.4101 28.8447 66.4101Z" fill="white"/>
</g>
</mask>
<g mask="url(#mask12_42_64)">
<path d="M25.5647 47.8297C24.5147 55.4997 21.3347 63.0097 17.7847 60.7097C17.5147 60.5397 17.2847 60.2797 17.0447 59.9297C16.7747 59.5397 16.5447 59.0597 16.3347 58.5397C15.8247 57.1497 15.5547 55.3197 15.5947 53.4597C15.6447 51.0697 16.0147 48.8997 16.6247 46.8497C18.0747 41.8997 20.3547 39.8097 22.6947 39.2497C22.8547 39.2097 23.0147 39.2097 23.1747 39.2497C23.7947 39.4197 24.3747 39.8597 24.8947 40.8097C25.0047 41.0697 25.1047 41.2897 25.2147 41.5497C25.3547 41.9797 25.4847 42.3797 25.5647 42.8997C25.6347 43.2897 25.6847 43.7297 25.7147 44.1697C25.7547 45.2597 25.7147 46.4897 25.5647 47.8297Z" fill="#404041"/>
</g>
<mask id="mask15_42_64" style="mask-type:luminance" maskUnits="userSpaceOnUse" x="12" y="33" width="34" height="34">
<mask id="mask16_42_64" style="mask-type:luminance" maskUnits="userSpaceOnUse" x="12" y="33" width="34" height="34">
<mask id="mask17_42_64" style="mask-type:luminance" maskUnits="userSpaceOnUse" x="10" y="31" width="38" height="38">
<path d="M28.8445 68.5699C39.0342 68.5699 47.2945 60.3096 47.2945 50.1199C47.2945 39.9303 39.0342 31.6699 28.8445 31.6699C18.6549 31.6699 10.3945 39.9303 10.3945 50.1199C10.3945 60.3096 18.6549 68.5699 28.8445 68.5699Z" fill="white"/>
</mask>
<g mask="url(#mask17_42_64)">
<path d="M28.8447 66.4101C37.8414 66.4101 45.1347 59.1168 45.1347 50.1201C45.1347 41.1234 37.8414 33.8301 28.8447 33.8301C19.848 33.8301 12.5547 41.1234 12.5547 50.1201C12.5547 59.1168 19.848 66.4101 28.8447 66.4101Z" fill="white"/>
</g>
</mask>
<g mask="url(#mask16_42_64)">
<path d="M28.8447 66.4101C37.8414 66.4101 45.1347 59.1168 45.1347 50.1201C45.1347 41.1234 37.8414 33.8301 28.8447 33.8301C19.848 33.8301 12.5547 41.1234 12.5547 50.1201C12.5547 59.1168 19.848 66.4101 28.8447 66.4101Z" fill="white"/>
</g>
</mask>
<g mask="url(#mask15_42_64)">
<path d="M44.1346 46.3496C44.0846 50.1296 41.6546 53.1597 38.7046 53.1197C36.1846 53.3897 34.7945 52.6296 33.8145 51.3896C32.8245 50.1496 32.2446 48.4396 33.4546 46.2196C33.5046 42.4396 35.9346 39.4096 38.8846 39.4496C41.8346 39.4896 44.1846 42.5796 44.1346 46.3496Z" fill="#404041"/>
</g>
<mask id="mask18_42_64" style="mask-type:luminance" maskUnits="userSpaceOnUse" x="12" y="33" width="34" height="34">
<mask id="mask19_42_64" style="mask-type:luminance" maskUnits="userSpaceOnUse" x="12" y="33" width="34" height="34">
<mask id="mask20_42_64" style="mask-type:luminance" maskUnits="userSpaceOnUse" x="10" y="31" width="38" height="38">
<path d="M28.8445 68.5699C39.0342 68.5699 47.2945 60.3096 47.2945 50.1199C47.2945 39.9303 39.0342 31.6699 28.8445 31.6699C18.6549 31.6699 10.3945 39.9303 10.3945 50.1199C10.3945 60.3096 18.6549 68.5699 28.8445 68.5699Z" fill="white"/>
</mask>
<g mask="url(#mask20_42_64)">
<path d="M28.8447 66.4101C37.8414 66.4101 45.1347 59.1168 45.1347 50.1201C45.1347 41.1234 37.8414 33.8301 28.8447 33.8301C19.848 33.8301 12.5547 41.1234 12.5547 50.1201C12.5547 59.1168 19.848 66.4101 28.8447 66.4101Z" fill="white"/>
</g>
</mask>
<g mask="url(#mask19_42_64)">
<path d="M28.8447 66.4101C37.8414 66.4101 45.1347 59.1168 45.1347 50.1201C45.1347 41.1234 37.8414 33.8301 28.8447 33.8301C19.848 33.8301 12.5547 41.1234 12.5547 50.1201C12.5547 59.1168 19.848 66.4101 28.8447 66.4101Z" fill="white"/>
</g>
</mask>
<g mask="url(#mask18_42_64)">
<path d="M29.9542 59.9201C29.2842 59.9201 28.7441 59.3801 28.7441 58.7101V54.0401C28.7441 53.3701 29.2842 52.8301 29.9542 52.8301C30.6242 52.8301 31.1641 53.3701 31.1641 54.0401V58.7101C31.1641 59.3801 30.6242 59.9201 29.9542 59.9201Z" fill="url(#paint1_linear_42_64)"/>
</g>
<mask id="mask21_42_64" style="mask-type:luminance" maskUnits="userSpaceOnUse" x="12" y="33" width="34" height="34">
<mask id="mask22_42_64" style="mask-type:luminance" maskUnits="userSpaceOnUse" x="12" y="33" width="34" height="34">
<mask id="mask23_42_64" style="mask-type:luminance" maskUnits="userSpaceOnUse" x="10" y="31" width="38" height="38">
<path d="M28.8445 68.5699C39.0342 68.5699 47.2945 60.3096 47.2945 50.1199C47.2945 39.9303 39.0342 31.6699 28.8445 31.6699C18.6549 31.6699 10.3945 39.9303 10.3945 50.1199C10.3945 60.3096 18.6549 68.5699 28.8445 68.5699Z" fill="white"/>
</mask>
<g mask="url(#mask23_42_64)">
<path d="M28.8447 66.4101C37.8414 66.4101 45.1347 59.1168 45.1347 50.1201C45.1347 41.1234 37.8414 33.8301 28.8447 33.8301C19.848 33.8301 12.5547 41.1234 12.5547 50.1201C12.5547 59.1168 19.848 66.4101 28.8447 66.4101Z" fill="white"/>
</g>
</mask>
<g mask="url(#mask22_42_64)">
<path d="M28.8447 66.4101C37.8414 66.4101 45.1347 59.1168 45.1347 50.1201C45.1347 41.1234 37.8414 33.8301 28.8447 33.8301C19.848 33.8301 12.5547 41.1234 12.5547 50.1201C12.5547 59.1168 19.848 66.4101 28.8447 66.4101Z" fill="white"/>
</g>
</mask>
<g mask="url(#mask21_42_64)">
<path d="M29.5344 55.4703C26.8444 55.4703 24.3944 53.3503 23.8144 50.2903L22.8344 44.7404C22.2044 41.3304 24.1944 38.0703 27.1844 38.0703H31.8643C34.8643 38.0703 36.8544 41.3304 36.2144 44.7404L35.2343 50.2903C34.6843 53.3503 32.2344 55.4703 29.5344 55.4703Z" fill="url(#paint2_linear_42_64)"/>
</g>
<mask id="mask24_42_64" style="mask-type:luminance" maskUnits="userSpaceOnUse" x="12" y="33" width="34" height="34">
<mask id="mask25_42_64" style="mask-type:luminance" maskUnits="userSpaceOnUse" x="12" y="33" width="34" height="34">
<mask id="mask26_42_64" style="mask-type:luminance" maskUnits="userSpaceOnUse" x="10" y="31" width="38" height="38">
<path d="M28.8445 68.5699C39.0342 68.5699 47.2945 60.3096 47.2945 50.1199C47.2945 39.9303 39.0342 31.6699 28.8445 31.6699C18.6549 31.6699 10.3945 39.9303 10.3945 50.1199C10.3945 60.3096 18.6549 68.5699 28.8445 68.5699Z" fill="white"/>
</mask>
<g mask="url(#mask26_42_64)">
<path d="M28.8447 66.4101C37.8414 66.4101 45.1347 59.1168 45.1347 50.1201C45.1347 41.1234 37.8414 33.8301 28.8447 33.8301C19.848 33.8301 12.5547 41.1234 12.5547 50.1201C12.5547 59.1168 19.848 66.4101 28.8447 66.4101Z" fill="white"/>
</g>
</mask>
<g mask="url(#mask25_42_64)">
<path d="M28.8447 66.4101C37.8414 66.4101 45.1347 59.1168 45.1347 50.1201C45.1347 41.1234 37.8414 33.8301 28.8447 33.8301C19.848 33.8301 12.5547 41.1234 12.5547 50.1201C12.5547 59.1168 19.848 66.4101 28.8447 66.4101Z" fill="white"/>
</g>
</mask>
<g mask="url(#mask24_42_64)">
<path d="M27.4749 46.2497C27.4249 46.8597 25.1149 46.7597 25.1649 46.1797" stroke="#5C307D" stroke-width="0.3639" stroke-miterlimit="10"/>
</g>
<mask id="mask27_42_64" style="mask-type:luminance" maskUnits="userSpaceOnUse" x="12" y="33" width="34" height="34">
<mask id="mask28_42_64" style="mask-type:luminance" maskUnits="userSpaceOnUse" x="12" y="33" width="34" height="34">
<mask id="mask29_42_64" style="mask-type:luminance" maskUnits="userSpaceOnUse" x="10" y="31" width="38" height="38">
<path d="M28.8445 68.5699C39.0342 68.5699 47.2945 60.3096 47.2945 50.1199C47.2945 39.9303 39.0342 31.6699 28.8445 31.6699C18.6549 31.6699 10.3945 39.9303 10.3945 50.1199C10.3945 60.3096 18.6549 68.5699 28.8445 68.5699Z" fill="white"/>
</mask>
<g mask="url(#mask29_42_64)">
<path d="M28.8447 66.4101C37.8414 66.4101 45.1347 59.1168 45.1347 50.1201C45.1347 41.1234 37.8414 33.8301 28.8447 33.8301C19.848 33.8301 12.5547 41.1234 12.5547 50.1201C12.5547 59.1168 19.848 66.4101 28.8447 66.4101Z" fill="white"/>
</g>
</mask>
<g mask="url(#mask28_42_64)">
<path d="M28.8447 66.4101C37.8414 66.4101 45.1347 59.1168 45.1347 50.1201C45.1347 41.1234 37.8414 33.8301 28.8447 33.8301C19.848 33.8301 12.5547 41.1234 12.5547 50.1201C12.5547 59.1168 19.848 66.4101 28.8447 66.4101Z" fill="white"/>
</g>
</mask>
<g mask="url(#mask27_42_64)">
<path d="M33.2742 45.5996C33.3442 46.2096 31.0541 46.5596 30.9941 45.9696" stroke="#5C307D" stroke-width="0.3639" stroke-miterlimit="10"/>
</g>
<mask id="mask30_42_64" style="mask-type:luminance" maskUnits="userSpaceOnUse" x="12" y="33" width="34" height="34">
<mask id="mask31_42_64" style="mask-type:luminance" maskUnits="userSpaceOnUse" x="12" y="33" width="34" height="34">
<mask id="mask32_42_64" style="mask-type:luminance" maskUnits="userSpaceOnUse" x="10" y="31" width="38" height="38">
<path d="M28.8445 68.5699C39.0342 68.5699 47.2945 60.3096 47.2945 50.1199C47.2945 39.9303 39.0342 31.6699 28.8445 31.6699C18.6549 31.6699 10.3945 39.9303 10.3945 50.1199C10.3945 60.3096 18.6549 68.5699 28.8445 68.5699Z" fill="white"/>
</mask>
<g mask="url(#mask32_42_64)">
<path d="M28.8447 66.4101C37.8414 66.4101 45.1347 59.1168 45.1347 50.1201C45.1347 41.1234 37.8414 33.8301 28.8447 33.8301C19.848 33.8301 12.5547 41.1234 12.5547 50.1201C12.5547 59.1168 19.848 66.4101 28.8447 66.4101Z" fill="white"/>
</g>
</mask>
<g mask="url(#mask31_42_64)">
<path d="M28.8447 66.4101C37.8414 66.4101 45.1347 59.1168 45.1347 50.1201C45.1347 41.1234 37.8414 33.8301 28.8447 33.8301C19.848 33.8301 12.5547 41.1234 12.5547 50.1201C12.5547 59.1168 19.848 66.4101 28.8447 66.4101Z" fill="white"/>
</g>
</mask>
<g mask="url(#mask30_42_64)">
<path d="M28.7341 47.54L28.5641 47.78C28.2841 48.18 28.4142 48.73 28.8442 48.95L28.9642 49.02" stroke="#EBC596" stroke-width="0.478" stroke-miterlimit="10" stroke-linecap="square"/>
</g>
<mask id="mask33_42_64" style="mask-type:luminance" maskUnits="userSpaceOnUse" x="12" y="33" width="34" height="34">
<mask id="mask34_42_64" style="mask-type:luminance" maskUnits="userSpaceOnUse" x="12" y="33" width="34" height="34">
<mask id="mask35_42_64" style="mask-type:luminance" maskUnits="userSpaceOnUse" x="10" y="31" width="38" height="38">
<path d="M28.8445 68.5699C39.0342 68.5699 47.2945 60.3096 47.2945 50.1199C47.2945 39.9303 39.0342 31.6699 28.8445 31.6699C18.6549 31.6699 10.3945 39.9303 10.3945 50.1199C10.3945 60.3096 18.6549 68.5699 28.8445 68.5699Z" fill="white"/>
</mask>
<g mask="url(#mask35_42_64)">
<path d="M28.8447 66.4101C37.8414 66.4101 45.1347 59.1168 45.1347 50.1201C45.1347 41.1234 37.8414 33.8301 28.8447 33.8301C19.848 33.8301 12.5547 41.1234 12.5547 50.1201C12.5547 59.1168 19.848 66.4101 28.8447 66.4101Z" fill="white"/>
</g>
</mask>
<g mask="url(#mask34_42_64)">
<path d="M28.8447 66.4101C37.8414 66.4101 45.1347 59.1168 45.1347 50.1201C45.1347 41.1234 37.8414 33.8301 28.8447 33.8301C19.848 33.8301 12.5547 41.1234 12.5547 50.1201C12.5547 59.1168 19.848 66.4101 28.8447 66.4101Z" fill="white"/>
</g>
</mask>
<g mask="url(#mask33_42_64)">
<path d="M28.0243 40.7804C25.7743 49.1104 15.3443 53.1104 7.73427 49.5004C7.21427 49.2404 6.77428 48.8904 6.30428 48.5404C5.52428 47.8904 4.95432 47.1904 4.34432 46.3204C4.08432 45.9704 3.91432 45.5803 3.78432 45.1903C3.52432 44.4103 3.48432 43.6304 3.65432 42.8004C4.17432 40.2404 6.30432 38.6304 8.47432 37.5904C10.9043 36.3704 13.1643 35.0304 15.6043 33.9004C19.5143 32.1204 26.0343 30.2104 28.0743 35.4204C28.3343 36.0304 28.4643 36.6804 28.4543 37.3104C28.5343 38.3704 28.3943 39.5404 28.0243 40.7804Z" fill="#404041"/>
</g>
<mask id="mask36_42_64" style="mask-type:luminance" maskUnits="userSpaceOnUse" x="12" y="33" width="34" height="34">
<mask id="mask37_42_64" style="mask-type:luminance" maskUnits="userSpaceOnUse" x="12" y="33" width="34" height="34">
<mask id="mask38_42_64" style="mask-type:luminance" maskUnits="userSpaceOnUse" x="10" y="31" width="38" height="38">
<path d="M28.8445 68.5699C39.0342 68.5699 47.2945 60.3096 47.2945 50.1199C47.2945 39.9303 39.0342 31.6699 28.8445 31.6699C18.6549 31.6699 10.3945 39.9303 10.3945 50.1199C10.3945 60.3096 18.6549 68.5699 28.8445 68.5699Z" fill="white"/>
</mask>
<g mask="url(#mask38_42_64)">
<path d="M28.8447 66.4101C37.8414 66.4101 45.1347 59.1168 45.1347 50.1201C45.1347 41.1234 37.8414 33.8301 28.8447 33.8301C19.848 33.8301 12.5547 41.1234 12.5547 50.1201C12.5547 59.1168 19.848 66.4101 28.8447 66.4101Z" fill="white"/>
</g>
</mask>
<g mask="url(#mask37_42_64)">
<path d="M28.8447 66.4101C37.8414 66.4101 45.1347 59.1168 45.1347 50.1201C45.1347 41.1234 37.8414 33.8301 28.8447 33.8301C19.848 33.8301 12.5547 41.1234 12.5547 50.1201C12.5547 59.1168 19.848 66.4101 28.8447 66.4101Z" fill="white"/>
</g>
</mask>
<g mask="url(#mask36_42_64)">
<path d="M30.2348 42.5903C28.3848 42.3303 26.8248 41.5303 25.8048 40.4303C24.7848 39.3303 24.3148 37.9203 24.6748 36.4503C25.0248 34.9803 26.1349 33.7103 27.6449 32.8603C29.1449 32.0103 31.0148 31.6003 32.8848 31.8403C34.7548 32.0803 36.2548 32.9403 37.1848 34.1303C38.1048 35.3103 38.4848 36.8003 38.1148 38.2903C37.7448 39.7803 36.7048 40.9803 35.2948 41.7403C33.8748 42.5003 32.0848 42.8403 30.2348 42.5903Z" fill="#404041"/>
</g>
<mask id="mask39_42_64" style="mask-type:luminance" maskUnits="userSpaceOnUse" x="12" y="33" width="34" height="34">
<mask id="mask40_42_64" style="mask-type:luminance" maskUnits="userSpaceOnUse" x="12" y="33" width="34" height="34">
<mask id="mask41_42_64" style="mask-type:luminance" maskUnits="userSpaceOnUse" x="10" y="31" width="38" height="38">
<path d="M28.8445 68.5699C39.0342 68.5699 47.2945 60.3096 47.2945 50.1199C47.2945 39.9303 39.0342 31.6699 28.8445 31.6699C18.6549 31.6699 10.3945 39.9303 10.3945 50.1199C10.3945 60.3096 18.6549 68.5699 28.8445 68.5699Z" fill="white"/>
</mask>
<g mask="url(#mask41_42_64)">
<path d="M28.8447 66.4101C37.8414 66.4101 45.1347 59.1168 45.1347 50.1201C45.1347 41.1234 37.8414 33.8301 28.8447 33.8301C19.848 33.8301 12.5547 41.1234 12.5547 50.1201C12.5547 59.1168 19.848 66.4101 28.8447 66.4101Z" fill="white"/>
</g>
</mask>
<g mask="url(#mask40_42_64)">
<path d="M28.8447 66.4101C37.8414 66.4101 45.1347 59.1168 45.1347 50.1201C45.1347 41.1234 37.8414 33.8301 28.8447 33.8301C19.848 33.8301 12.5547 41.1234 12.5547 50.1201C12.5547 59.1168 19.848 66.4101 28.8447 66.4101Z" fill="white"/>
</g>
</mask>
<g mask="url(#mask39_42_64)">
<path d="M33.244 49.1001C33.424 48.1501 34.1441 47.1601 35.1441 46.5101C36.1541 45.8601 37.384 45.5201 38.734 45.7801C39.794 46.0501 40.5041 46.6701 40.8841 47.4401C41.2741 48.2101 41.324 49.1501 41.164 50.0201C40.874 51.0501 40.134 52.0801 39.104 52.6501C38.034 53.2001 36.854 53.2501 35.854 52.8701C35.224 52.6301 34.6241 52.3101 34.2041 51.8201C33.4141 51.1101 33.004 50.1601 33.244 49.1001Z" fill="#404041"/>
</g>
<mask id="mask42_42_64" style="mask-type:luminance" maskUnits="userSpaceOnUse" x="12" y="33" width="34" height="34">
<mask id="mask43_42_64" style="mask-type:luminance" maskUnits="userSpaceOnUse" x="12" y="33" width="34" height="34">
<mask id="mask44_42_64" style="mask-type:luminance" maskUnits="userSpaceOnUse" x="10" y="31" width="38" height="38">
<path d="M28.8445 68.5699C39.0342 68.5699 47.2945 60.3096 47.2945 50.1199C47.2945 39.9303 39.0342 31.6699 28.8445 31.6699C18.6549 31.6699 10.3945 39.9303 10.3945 50.1199C10.3945 60.3096 18.6549 68.5699 28.8445 68.5699Z" fill="white"/>
</mask>
<g mask="url(#mask44_42_64)">
<path d="M28.8447 66.4101C37.8414 66.4101 45.1347 59.1168 45.1347 50.1201C45.1347 41.1234 37.8414 33.8301 28.8447 33.8301C19.848 33.8301 12.5547 41.1234 12.5547 50.1201C12.5547 59.1168 19.848 66.4101 28.8447 66.4101Z" fill="white"/>
</g>
</mask>
<g mask="url(#mask43_42_64)">
<path d="M28.8447 66.4101C37.8414 66.4101 45.1347 59.1168 45.1347 50.1201C45.1347 41.1234 37.8414 33.8301 28.8447 33.8301C19.848 33.8301 12.5547 41.1234 12.5547 50.1201C12.5547 59.1168 19.848 66.4101 28.8447 66.4101Z" fill="white"/>
</g>
</mask>
<g mask="url(#mask42_42_64)">
<path d="M27.1146 50.7903C27.0046 50.7703 26.9346 50.9003 27.0046 50.9903C27.4146 51.5003 28.5546 53.0903 29.6046 53.0903C30.6346 53.0903 31.5946 51.3003 32.0646 50.6603C32.1346 50.5603 32.0346 50.4303 31.9246 50.4703C31.4146 50.6703 29.5646 50.3503 29.5646 51.0003C28.9846 50.3303 27.6046 50.8603 27.1146 50.7903Z" fill="#5C307D"/>
</g>
<mask id="mask45_42_64" style="mask-type:luminance" maskUnits="userSpaceOnUse" x="12" y="33" width="34" height="34">
<mask id="mask46_42_64" style="mask-type:luminance" maskUnits="userSpaceOnUse" x="12" y="33" width="34" height="34">
<mask id="mask47_42_64" style="mask-type:luminance" maskUnits="userSpaceOnUse" x="10" y="31" width="38" height="38">
<path d="M28.8445 68.5699C39.0342 68.5699 47.2945 60.3096 47.2945 50.1199C47.2945 39.9303 39.0342 31.6699 28.8445 31.6699C18.6549 31.6699 10.3945 39.9303 10.3945 50.1199C10.3945 60.3096 18.6549 68.5699 28.8445 68.5699Z" fill="white"/>
</mask>
<g mask="url(#mask47_42_64)">
<path d="M28.8447 66.4101C37.8414 66.4101 45.1347 59.1168 45.1347 50.1201C45.1347 41.1234 37.8414 33.8301 28.8447 33.8301C19.848 33.8301 12.5547 41.1234 12.5547 50.1201C12.5547 59.1168 19.848 66.4101 28.8447 66.4101Z" fill="white"/>
</g>
</mask>
<g mask="url(#mask46_42_64)">
<path d="M28.8447 66.4101C37.8414 66.4101 45.1347 59.1168 45.1347 50.1201C45.1347 41.1234 37.8414 33.8301 28.8447 33.8301C19.848 33.8301 12.5547 41.1234 12.5547 50.1201C12.5547 59.1168 19.848 66.4101 28.8447 66.4101Z" fill="white"/>
</g>
</mask>
<g mask="url(#mask45_42_64)">
<path d="M27.2441 51.0397C27.2441 51.0397 28.3442 52.4197 29.5042 52.4197C30.6642 52.4197 31.8842 50.7197 31.8842 50.7197C31.8842 50.7197 30.6841 51.2297 29.5641 51.2297C28.4441 51.2297 27.2441 51.0397 27.2441 51.0397Z" fill="#F1F1F2"/>
</g>
<path d="M50.2646 72.4902H8.72461V86.4002H50.2646V72.4902Z" fill="#EDEDED"/>
<path d="M9.55469 87.2598H49.4347" stroke="#D4D4D4" stroke-width="1.5918" stroke-miterlimit="10" stroke-linecap="square"/>
<path d="M16.4648 77.6201V82.2401" stroke="#666666" stroke-width="0.9931" stroke-miterlimit="10" stroke-linecap="square"/>
<path d="M18.4351 78.7305L14.4951 81.1304" stroke="#666666" stroke-width="0.9931" stroke-miterlimit="10" stroke-linecap="square"/>
<path d="M14.4951 78.7305L18.4351 81.1304" stroke="#666666" stroke-width="0.9931" stroke-miterlimit="10" stroke-linecap="square"/>
<path d="M25.0449 77.6201V82.2401" stroke="#666666" stroke-width="0.9931" stroke-miterlimit="10" stroke-linecap="square"/>
<path d="M27.0145 78.7305L23.0645 81.1304" stroke="#666666" stroke-width="0.9931" stroke-miterlimit="10" stroke-linecap="square"/>
<path d="M23.0645 78.7305L27.0145 81.1304" stroke="#666666" stroke-width="0.9931" stroke-miterlimit="10" stroke-linecap="square"/>
<path d="M33.6152 77.6201V82.2401" stroke="#666666" stroke-width="0.9931" stroke-miterlimit="10" stroke-linecap="square"/>
<path d="M35.5945 78.7305L31.6445 81.1304" stroke="#666666" stroke-width="0.9931" stroke-miterlimit="10" stroke-linecap="square"/>
<path d="M31.6445 78.7305L35.5945 81.1304" stroke="#666666" stroke-width="0.9931" stroke-miterlimit="10" stroke-linecap="square"/>
<path d="M42.1953 77.6201V82.2401" stroke="#666666" stroke-width="0.9931" stroke-miterlimit="10" stroke-linecap="square"/>
<path d="M44.1746 78.7305L40.2246 81.1304" stroke="#666666" stroke-width="0.9931" stroke-miterlimit="10" stroke-linecap="square"/>
<path d="M40.2246 78.7305L44.1746 81.1304" stroke="#666666" stroke-width="0.9931" stroke-miterlimit="10" stroke-linecap="square"/>
<defs>
<linearGradient id="paint0_linear_42_64" x1="28.8429" y1="45.4276" x2="28.8429" y2="62.781" gradientUnits="userSpaceOnUse">
<stop stop-color="#CA6EED"/>
<stop offset="0.3226" stop-color="#AA5CCC"/>
<stop offset="1" stop-color="#5C307D"/>
</linearGradient>
<linearGradient id="paint1_linear_42_64" x1="29.9545" y1="54.7523" x2="29.9545" y2="57.7557" gradientUnits="userSpaceOnUse">
<stop stop-color="#ED9864"/>
<stop offset="0.417" stop-color="#F6BC8E"/>
<stop offset="0.7909" stop-color="#FDD7AC"/>
<stop offset="1" stop-color="#FFE1B8"/>
</linearGradient>
<linearGradient id="paint2_linear_42_64" x1="31.211" y1="49.7085" x2="24.9221" y2="31.5156" gradientUnits="userSpaceOnUse">
<stop stop-color="#FFE1B8"/>
<stop offset="0.2091" stop-color="#FDD7AC"/>
<stop offset="0.583" stop-color="#F6BC8E"/>
<stop offset="1" stop-color="#ED9864"/>
</linearGradient>
</defs>
</svg>
