<svg width="97" height="126" viewBox="0 0 97 126" fill="none" xmlns="http://www.w3.org/2000/svg">
<path d="M77.9064 15.2899H69.2664C66.2364 6.60986 58.0064 0.379883 48.2964 0.379883C38.5864 0.379883 30.3565 6.60986 27.3265 15.2899H18.6865C8.68646 15.2899 0.586426 23.3999 0.586426 33.3899V107.52C0.586426 117.52 8.69646 125.62 18.6865 125.62H77.9064C87.9064 125.62 96.0065 117.51 96.0065 107.52V33.3899C96.0065 23.3899 87.9064 15.2899 77.9064 15.2899ZM48.2964 14.9399C52.5264 14.9399 55.9664 18.3699 55.9664 22.6099C55.9664 26.8399 52.5364 30.2799 48.2964 30.2799C44.0664 30.2799 40.6265 26.8499 40.6265 22.6099C40.6265 18.3699 44.0664 14.9399 48.2964 14.9399ZM77.5565 64.4799L45.8265 96.1699C44.3565 97.3999 42.3865 98.0099 40.3865 98.0099C38.2665 98.0099 36.1264 97.3199 34.5364 95.9599L34.1865 95.6399L19.0264 80.4799C16.5664 78.0199 16.5664 74.0299 19.0264 71.5699C21.4864 69.1099 25.4765 69.1099 27.9365 71.5699L40.2864 83.9199L68.6365 55.5799C71.0965 53.1199 75.0864 53.1199 77.5464 55.5799C80.0164 58.0199 80.0165 62.0099 77.5565 64.4799Z" fill="white"/>
</svg>
