<svg width="84" height="109" viewBox="0 0 84 109" fill="none" xmlns="http://www.w3.org/2000/svg">
<path d="M37.5 75C58.2107 75 75 58.2107 75 37.5C75 16.7893 58.2107 0 37.5 0C16.7893 0 0 16.7893 0 37.5C0 58.2107 16.7893 75 37.5 75Z" fill="#5C307D"/>
<path d="M67.6001 24.5297C65.9501 20.5597 63.6001 16.9997 60.6001 13.9397C57.6001 10.8797 54.1101 8.47968 50.2201 6.79968C46.1901 5.05968 41.9101 4.17969 37.5001 4.17969C33.0901 4.17969 28.8101 5.05968 24.7801 6.79968C20.8901 8.47968 17.4001 10.8797 14.4001 13.9397C11.4001 16.9997 9.05009 20.5597 7.40009 24.5297C5.70009 28.6397 4.83008 32.9997 4.83008 37.4897C4.83008 41.9797 5.69009 46.3497 7.40009 50.4497C9.05009 54.4197 11.4001 57.9797 14.4001 61.0397C17.4001 64.0997 20.8901 66.4997 24.7801 68.1797C28.8101 69.9197 33.0901 70.7997 37.5001 70.7997C41.9101 70.7997 46.1901 69.9197 50.2201 68.1797C54.1101 66.4997 57.6001 64.0997 60.6001 61.0397C63.6001 57.9797 65.9501 54.4197 67.6001 50.4497C69.3001 46.3397 70.1701 41.9797 70.1701 37.4897C70.1701 32.9997 69.3001 28.6397 67.6001 24.5297ZM66.8801 37.4997C66.8801 39.9497 66.5901 42.3597 66.0401 44.6797H56.2201C56.8101 41.9797 57.1001 39.2397 57.1001 36.4697C57.1001 33.8697 56.8401 31.3197 56.3201 28.8297H65.6401C66.4501 31.6097 66.8801 34.5197 66.8801 37.4997ZM58.2701 16.3197C60.9001 18.9997 62.9701 22.1097 64.4201 25.4897H55.4301C55.1001 24.4397 54.7201 23.3997 54.3001 22.3797C52.8201 18.8397 50.7701 15.4797 48.1901 12.4097C46.8601 10.8197 45.5201 9.46969 44.3101 8.36969C49.5601 9.61969 54.3701 12.3397 58.2701 16.3197ZM39.1401 8.39966C40.6801 9.52966 43.1901 11.5797 45.7001 14.5797C48.0601 17.3897 49.9401 20.4597 51.2801 23.6897C51.5301 24.2897 51.7601 24.8897 51.9701 25.4897H39.1401V8.39966ZM52.9401 28.8397C53.5201 31.3197 53.8101 33.8697 53.8101 36.4797C53.8101 39.2397 53.4801 41.9897 52.8401 44.6897H39.1401V28.8497H52.9401V28.8397ZM21.6201 36.4697C21.6201 33.8597 21.9101 31.3097 22.4901 28.8297H35.8601V44.6697H22.6001C21.9501 41.9797 21.6201 39.2397 21.6201 36.4697ZM35.8501 8.72968V25.4897H23.4601C23.6601 24.9097 23.8801 24.3297 24.1201 23.7497C25.4501 20.5297 27.3101 17.4797 29.6501 14.6697C31.9501 11.8997 34.2801 9.91968 35.8501 8.72968ZM16.7201 16.3197C20.7701 12.1897 25.7901 9.41967 31.2501 8.21967C30.0001 9.34967 28.6101 10.7397 27.2201 12.3997C24.6401 15.4697 22.5901 18.8297 21.1101 22.3697C20.6801 23.3897 20.3101 24.4297 19.9801 25.4797H10.5601C12.0201 22.1097 14.0901 18.9997 16.7201 16.3197ZM9.36011 28.8397H19.1201C18.6001 31.3197 18.3401 33.8797 18.3401 36.4797C18.3401 39.2397 18.6401 41.9897 19.2201 44.6897H8.96008C8.40008 42.3697 8.12006 39.9597 8.12006 37.5097C8.12006 34.5197 8.54011 31.6097 9.36011 28.8397ZM16.7201 58.6797C13.7101 55.6097 11.4301 51.9797 9.97009 48.0297H20.1001C20.4001 48.9797 20.7301 49.9297 21.1001 50.8697C22.5701 54.5697 24.6101 58.1497 27.1701 61.5197C28.8401 63.7197 30.5101 65.5297 31.9401 66.9297C26.2201 65.8097 20.9401 62.9797 16.7201 58.6797ZM29.7801 59.4597C27.4001 56.3397 25.5101 53.0297 24.1601 49.6097C23.9501 49.0797 23.7601 48.5597 23.5701 48.0297H35.8501V66.0097C34.2901 64.6297 32.0301 62.4197 29.7801 59.4597ZM39.1401 66.3897V48.0297H51.8601C51.6801 48.5397 51.5001 49.0497 51.3001 49.5497C49.9601 52.9497 48.0801 56.2597 45.7201 59.3697C43.2301 62.6497 40.7201 65.0297 39.1401 66.3897ZM58.2701 58.6797C54.1901 62.8397 49.1101 65.6297 43.5901 66.8097C45.0001 65.4197 46.6201 63.6497 48.2501 61.5097C50.8101 58.1497 52.8501 54.5697 54.3201 50.8597C54.6901 49.9197 55.0301 48.9697 55.3201 48.0197H65.0101C63.5601 51.9797 61.2901 55.6097 58.2701 58.6797Z" fill="white"/>
<path d="M40.3799 55.4805L52.0399 103.711L61.5099 94.1705L72.7699 108.86L78.1399 104.74L83.5199 100.62L72.2599 85.9305L83.9199 79.2605L40.3799 55.4805Z" fill="#CA6EED"/>
</svg>
