<svg width="97" height="84" viewBox="0 0 97 84" fill="none" xmlns="http://www.w3.org/2000/svg">
<path d="M92.4599 0.0399504C68.6999 0.0799504 44.9399 0.0599797 21.1799 0.0699797C18.4999 0.0699797 17.5699 1.01995 17.5699 3.72995C17.5699 6.20995 17.5699 8.67998 17.5699 11.26C16.8799 11.26 16.2599 11.26 15.6499 11.26C11.7999 11.26 7.94984 11.26 4.09984 11.26C1.85984 11.26 0.799855 12.32 0.799855 14.57C0.799855 33.86 0.789855 53.14 0.799855 72.43C0.799855 79.09 5.66989 83.93 12.3399 83.94C36.3499 83.95 60.3599 83.8899 84.3599 83.9799C91.0899 83.9999 95.5199 79.1799 96.0699 74.4099C96.0799 74.2899 96.1599 74.18 96.2099 74.07C96.2099 50.09 96.2099 26.11 96.2099 2.12998C95.4699 0.499977 94.1899 0.0299504 92.4599 0.0399504ZM17.5599 72.26C17.5599 76.58 13.9599 79.3399 10.0799 77.9699C7.95988 77.2199 6.78987 75.63 6.43987 73.43C6.37987 73.03 6.37987 72.6299 6.37987 72.2199C6.37987 54.0599 6.37987 35.89 6.37987 17.73C6.37987 17.48 6.37987 17.23 6.37987 16.88C10.1299 16.88 13.7799 16.88 17.5199 16.88C17.5299 17.18 17.5599 17.48 17.5599 17.78C17.5599 35.94 17.5699 54.1 17.5599 72.26ZM90.6199 6.67997C90.6199 28.48 90.6199 50.29 90.6199 72.09C90.6199 76.06 88.3399 78.34 84.3799 78.34C63.8199 78.34 43.2599 78.34 22.6999 78.34C22.3999 78.34 22.0998 78.34 21.5998 78.34C23.4898 75.28 23.1399 72.01 23.1399 68.8C23.1499 48.15 23.1399 27.49 23.1399 6.84C23.1399 6.48 23.1399 6.10999 23.1399 5.70999C45.6499 5.70999 68.0599 5.70999 90.6099 5.70999C90.6199 6.01999 90.6199 6.34997 90.6199 6.67997Z" fill="white"/>
<path d="M32.1898 33.61C40.4198 33.61 48.6498 33.61 56.8798 33.61C65.1698 33.61 73.4698 33.61 81.7598 33.61C83.9498 33.61 85.0198 32.53 85.0298 30.35C85.0398 26.93 85.0398 23.52 85.0298 20.1C85.0298 17.91 83.9498 16.8401 81.7698 16.8401C65.1798 16.8401 48.5998 16.8401 32.0098 16.8401C29.8198 16.8401 28.7498 17.92 28.7398 20.1C28.7298 23.45 28.7398 26.81 28.7398 30.16C28.7498 32.59 29.7598 33.61 32.1898 33.61ZM34.3798 22.4901C49.3598 22.4901 64.3398 22.4901 79.3998 22.4901C79.3998 24.3401 79.3998 26.13 79.3998 27.97C64.3798 27.97 49.3998 27.97 34.3798 27.97C34.3798 26.14 34.3798 24.3501 34.3798 22.4901Z" fill="white"/>
<path d="M81.7896 39.2C74.5796 39.2 67.3796 39.2 60.1696 39.2C57.9696 39.2 56.8896 40.2699 56.8896 42.4399C56.8896 49.5799 56.8896 56.7299 56.8896 63.8699C56.8896 66.0699 57.9596 67.15 60.1296 67.15C63.7296 67.16 67.3396 67.15 70.9396 67.15C74.5396 67.15 78.1496 67.15 81.7496 67.15C83.9496 67.15 85.0297 66.0799 85.0297 63.9099C85.0297 56.7699 85.0297 49.6199 85.0297 42.4799C85.0297 40.2799 83.9596 39.2 81.7896 39.2ZM79.3696 61.52C73.7296 61.52 68.1497 61.52 62.5297 61.52C62.5297 55.97 62.5297 50.4499 62.5297 44.8599C68.1097 44.8599 73.7096 44.8599 79.3696 44.8599C79.3696 50.3799 79.3696 55.91 79.3696 61.52Z" fill="white"/>
<path d="M48.13 39.2C45.43 39.19 42.73 39.2 40.02 39.2C37.32 39.2 34.62 39.19 31.91 39.2C30.01 39.21 28.75 40.33 28.75 41.99C28.75 43.65 30.02 44.78 31.91 44.78C37.31 44.79 42.72 44.79 48.12 44.78C50.02 44.78 51.28 43.65 51.28 41.99C51.29 40.34 50.02 39.21 48.13 39.2Z" fill="white"/>
<path d="M48.1298 50.3801C42.7298 50.3701 37.3197 50.3701 31.9197 50.3801C30.0197 50.3801 28.7598 51.51 28.7598 53.17C28.7598 54.83 30.0297 55.9601 31.9197 55.9601C34.5897 55.9701 37.2597 55.9601 39.9297 55.9601C42.6597 55.9601 45.3998 55.9701 48.1298 55.9601C50.0298 55.9501 51.2897 54.83 51.2897 53.17C51.2897 51.51 50.0198 50.3901 48.1298 50.3801Z" fill="white"/>
<path d="M48.13 61.57C42.73 61.56 37.32 61.56 31.92 61.57C30.02 61.57 28.76 62.7 28.75 64.36C28.75 66.02 30.01 67.15 31.91 67.16C34.61 67.17 37.31 67.16 40.02 67.16C42.72 67.16 45.42 67.17 48.13 67.16C50.03 67.15 51.29 66.03 51.3 64.37C51.29 62.7 50.02 61.57 48.13 61.57Z" fill="white"/>
</svg>
