<svg width="96" height="66" viewBox="0 0 96 66" fill="none" xmlns="http://www.w3.org/2000/svg">
<path d="M80.5999 10.4401L80.5499 9.83008C80.0399 6.45008 77.2299 0.0700684 70.2199 0.0700684H58.0599V8.30005H70.2199C71.6299 8.30005 72.2099 10.1901 72.3599 10.8401V22.1901L55.4099 42.8101H37.4V19.42H32.3199C14.5899 19.42 0.209961 33.8001 0.209961 51.5301H9.67993C9.66993 51.7101 9.64996 51.8801 9.64996 52.0601C9.64996 59.7201 15.86 65.9301 23.52 65.9301C31.18 65.9301 37.39 59.7201 37.39 52.0601C37.39 51.8801 37.3699 51.7101 37.3599 51.5301H37.39V51.04H59.2899L80.5899 25.1401V10.4401H80.5999ZM23.5399 57.3101C20.6399 57.3101 18.2899 54.9601 18.2899 52.0601C18.2899 51.8801 18.3299 51.7101 18.3399 51.5301H28.7399C28.7599 51.7101 28.7899 51.8801 28.7899 52.0601C28.7899 54.9601 26.4399 57.3101 23.5399 57.3101Z" fill="white"/>
<path d="M37.4 4.78003H14.5V12.81H37.4V4.78003Z" fill="white"/>
<path d="M81.1498 38.1899C73.4898 38.1899 67.2798 44.3999 67.2798 52.0599C67.2798 59.7199 73.4898 65.9299 81.1498 65.9299C88.8098 65.9299 95.0198 59.7199 95.0198 52.0599C95.0198 44.3999 88.8098 38.1899 81.1498 38.1899ZM81.1498 57.3099C78.2498 57.3099 75.8998 54.9599 75.8998 52.0599C75.8998 49.1599 78.2498 46.8099 81.1498 46.8099C84.0498 46.8099 86.3998 49.1599 86.3998 52.0599C86.3998 54.9599 84.0498 57.3099 81.1498 57.3099Z" fill="white"/>
</svg>
