<svg width="95" height="89" viewBox="0 0 95 89" fill="none" xmlns="http://www.w3.org/2000/svg">
<path d="M80.8997 64.9399L56.3097 39.4599C51.2297 34.8099 43.4397 34.8099 38.3697 39.4599L13.6997 64.9399C4.7597 73.1199 10.5497 88.0199 22.6697 88.0199H71.9297C84.0497 88.0199 89.8397 73.1299 80.8997 64.9399Z" fill="white"/>
<path d="M22.9 30.5001C22.9 24.1701 17.77 19.05 11.45 19.05C5.13001 19.05 0 24.1801 0 30.5001C0 36.8201 5.13001 41.9501 11.45 41.9501C17.77 41.9501 22.9 36.8301 22.9 30.5001Z" fill="white"/>
<path d="M83.16 19.05C76.83 19.05 71.71 24.1801 71.71 30.5001C71.71 36.8201 76.84 41.9501 83.16 41.9501C89.49 41.9501 94.61 36.8201 94.61 30.5001C94.61 24.1801 89.48 19.05 83.16 19.05Z" fill="white"/>
<path d="M32.7303 22.9C39.0539 22.9 44.1803 17.7737 44.1803 11.45C44.1803 5.12635 39.0539 0 32.7303 0C26.4066 0 21.2803 5.12635 21.2803 11.45C21.2803 17.7737 26.4066 22.9 32.7303 22.9Z" fill="white"/>
<path d="M61.8699 22.91C68.1999 22.91 73.3199 17.78 73.3199 11.46C73.3199 5.14002 68.1899 0.0100098 61.8699 0.0100098C55.5399 0.0100098 50.4199 5.14002 50.4199 11.46C50.4199 17.78 55.5399 22.91 61.8699 22.91Z" fill="white"/>
</svg>
