<svg width="100" height="88" viewBox="0 0 100 88" fill="none" xmlns="http://www.w3.org/2000/svg">
<path d="M97.8909 74.95L57.2009 4.46993C53.9009 -1.25007 45.6409 -1.25007 42.3409 4.46993L1.65094 74.95C-1.64906 80.67 2.48094 87.82 9.08094 87.82H90.4709C97.0709 87.82 101.191 80.67 97.8909 74.95ZM49.7409 69.0999C47.4909 69.0999 45.671 67.28 45.671 65.03C45.671 62.78 47.4909 60.96 49.7409 60.96C51.9909 60.96 53.8109 62.78 53.8109 65.03C53.8209 67.27 51.9909 69.0999 49.7409 69.0999ZM53.8709 52.94C53.8709 54.61 52.521 55.96 50.851 55.96H48.6809C47.0109 55.96 45.661 54.61 45.661 52.94V29.33C45.661 27.66 47.0109 26.31 48.6809 26.31H50.851C52.521 26.31 53.8709 27.66 53.8709 29.33V52.94Z" fill="white"/>
</svg>
