<svg width="96" height="96" viewBox="0 0 96 96" fill="none" xmlns="http://www.w3.org/2000/svg">
<path d="M36.1735 53.64C33.8935 53.62 31.6135 53.64 29.3335 53.64C27.0135 53.64 24.6935 53.62 22.3735 53.65C19.0835 53.69 16.5335 56.15 16.4935 59.43C16.4335 64.11 16.4435 68.8 16.4935 73.48C16.5335 76.75 19.0735 79.27 22.3435 79.3C26.9835 79.34 31.6335 79.34 36.2735 79.3C39.6235 79.27 42.1235 76.74 42.1435 73.39C42.1735 68.79 42.1735 64.18 42.1435 59.58C42.1135 56.15 39.6135 53.67 36.1735 53.64ZM34.7335 71.88C31.1335 71.88 27.5335 71.88 23.8335 71.88C23.8335 68.23 23.8335 64.69 23.8335 61.06C27.4735 61.06 31.0635 61.06 34.7335 61.06C34.7335 64.65 34.7335 68.22 34.7335 71.88Z" fill="white"/>
<path d="M59.5534 42.3899C61.7934 42.3999 64.0334 42.3899 66.2734 42.3899C68.4734 42.3899 70.6734 42.3999 72.8734 42.3899C76.5434 42.3699 79.0434 39.92 79.0634 36.28C79.0934 31.8 79.0834 27.32 79.0634 22.84C79.0434 19.21 76.5334 16.7299 72.8834 16.7199C68.4434 16.7099 64.0034 16.7099 59.5634 16.7199C55.9034 16.7299 53.4034 19.1999 53.3934 22.8299C53.3734 27.3099 53.3734 31.79 53.3934 36.27C53.4034 39.92 55.8734 42.3699 59.5534 42.3899ZM60.8234 24.1399C64.3834 24.1399 67.9534 24.1399 71.6234 24.1399C71.6234 27.7099 71.6234 31.3 71.6234 35.02C68.0034 35.02 64.4634 35.02 60.8234 35.02C60.8234 31.42 60.8234 27.8199 60.8234 24.1399Z" fill="white"/>
<path d="M79.0534 73.17C79.0734 68.69 79.0834 64.21 79.0534 59.73C79.0334 56.14 76.5534 53.66 72.9734 53.64C68.4534 53.62 63.9334 53.62 59.4134 53.64C55.9034 53.66 53.4134 56.14 53.3834 59.64C53.3634 61.88 53.3834 64.12 53.3834 66.36C53.3834 68.6 53.3734 70.84 53.3834 73.08C53.4034 76.81 55.8634 79.3 59.5734 79.31C64.0134 79.32 68.4534 79.32 72.8934 79.31C76.5334 79.29 79.0434 76.81 79.0534 73.17ZM71.6834 71.88C68.0534 71.88 64.4534 71.88 60.7834 71.88C60.7834 68.29 60.7834 64.72 60.7834 61.06C64.3834 61.06 67.9834 61.06 71.6834 61.06C71.6834 64.71 71.6834 68.25 71.6834 71.88Z" fill="white"/>
<path d="M36.2934 16.73C31.6534 16.69 27.0033 16.69 22.3633 16.73C19.0233 16.76 16.5034 19.29 16.4734 22.64C16.4334 27.24 16.4334 31.85 16.4734 36.45C16.5034 39.87 19.0233 42.36 22.4433 42.4C24.7233 42.43 27.0034 42.4 29.2834 42.4C31.6434 42.4 34.0133 42.43 36.3733 42.39C39.5833 42.33 42.1033 39.83 42.1233 36.62C42.1633 31.94 42.1633 27.25 42.1233 22.57C42.1033 19.28 39.5834 16.76 36.2934 16.73ZM34.7433 34.99C31.1133 34.99 27.5433 34.99 23.8833 34.99C23.8833 31.39 23.8833 27.79 23.8833 24.12C27.4833 24.12 31.0533 24.12 34.7433 24.12C34.7433 27.79 34.7433 31.36 34.7433 34.99Z" fill="white"/>
<path d="M91.7637 67.8301C89.5737 67.8301 88.1136 69.47 88.1136 71.98C88.1036 76.22 88.1136 80.4601 88.1136 84.7001C88.1136 87.2501 87.0136 88.36 84.4836 88.36C80.2436 88.37 76.0037 88.36 71.7637 88.36C69.2437 88.36 67.6037 89.79 67.5837 91.98C67.5637 94.2 69.2537 95.6901 71.8137 95.7001C74.0137 95.7101 76.2137 95.7001 78.4137 95.7001C80.5337 95.7001 82.6537 95.7101 84.7737 95.7001C90.9737 95.6501 95.4037 91.2501 95.4437 85.0601C95.4637 80.7001 95.4537 76.34 95.4437 71.98C95.4437 69.5 93.9437 67.8301 91.7637 67.8301Z" fill="white"/>
<path d="M0.0834961 24.05C0.0934961 26.51 1.59349 28.2 3.76349 28.2C5.95349 28.2 7.41351 26.56 7.41351 24.05C7.42351 19.81 7.41351 15.57 7.41351 11.33C7.41351 8.77005 8.50352 7.67001 11.0435 7.67001C15.4035 7.66001 19.7635 7.68 24.1235 7.66C26.3335 7.65 27.9135 6.12002 27.9335 4.05002C27.9535 2.01002 26.3535 0.360004 24.1835 0.350004C19.4535 0.310004 14.7235 0.260024 10.0035 0.370024C5.03348 0.490024 0.893518 4.10006 0.293518 9.03006C-0.0364819 11.7201 0.233459 14.48 0.233459 17.2C0.173459 17.2 0.123477 17.2 0.0634766 17.2C0.0734766 19.48 0.0734961 21.76 0.0834961 24.05Z" fill="white"/>
<path d="M71.6235 7.66008C75.9035 7.67008 80.1835 7.66008 84.4635 7.66008C87.0135 7.66008 88.1135 8.7601 88.1135 11.3001C88.1235 15.6601 88.1035 20.0201 88.1235 24.3801C88.1335 26.5801 89.6935 28.1701 91.7535 28.1801C93.8035 28.1901 95.4235 26.6001 95.4435 24.4201C95.4835 19.7301 95.5235 15.0401 95.4235 10.3601C95.3235 5.3301 91.7235 1.15009 86.7335 0.540089C84.0435 0.210089 81.2835 0.480091 78.5635 0.480091C78.5635 0.420091 78.5635 0.370109 78.5635 0.310109C76.2435 0.310109 73.9136 0.300109 71.5936 0.310109C69.2336 0.330109 67.5735 1.87011 67.5835 4.00011C67.5935 6.18011 69.2135 7.65008 71.6235 7.66008Z" fill="white"/>
<path d="M23.9033 88.3598C19.6233 88.3498 15.3433 88.3598 11.0633 88.3598C8.52332 88.3598 7.42331 87.2599 7.42331 84.7099C7.41331 80.3499 7.43336 75.9899 7.41336 71.6299C7.40336 69.4299 5.84335 67.8399 3.78335 67.8399C1.74335 67.8299 0.113359 69.4398 0.103359 71.6098C0.0733586 76.2998 0.0233171 80.9898 0.123317 85.6698C0.223317 90.6898 3.83332 94.8799 8.81332 95.4899C11.5033 95.8199 14.2633 95.5499 16.9833 95.5499C16.9833 95.6099 16.9833 95.6598 16.9833 95.7198C19.3033 95.7198 21.6333 95.7398 23.9533 95.7198C26.3133 95.6998 27.9633 94.1499 27.9533 92.0199C27.9333 89.8399 26.3033 88.3698 23.9033 88.3598Z" fill="white"/>
</svg>
