<svg width="88" height="102" viewBox="0 0 88 102" fill="none" xmlns="http://www.w3.org/2000/svg">
<path d="M69.1199 101.92L13.0199 94.0801C8.88989 93.5001 6.0099 89.6901 6.5899 85.5601L16.1299 17.2601C16.7099 13.1301 20.5199 10.2501 24.6499 10.8301L80.7499 18.6701C84.8799 19.2501 87.7599 23.0601 87.1799 27.1901L77.6399 95.4901C77.0599 99.6201 73.2499 102.5 69.1199 101.92Z" fill="#E6E6F5"/>
<path d="M26.5596 31.03L29.7296 35.24L37.1596 28.75" stroke="#05BD6B" stroke-width="2.7447" stroke-miterlimit="10" stroke-linecap="round"/>
<path d="M44.0996 30.9697L74.2596 35.1797" stroke="#D4D4D4" stroke-width="2.7447" stroke-miterlimit="10" stroke-linecap="round"/>
<path d="M43.4092 35.96L63.9092 38.8199" stroke="#D4D4D4" stroke-width="2.7447" stroke-miterlimit="10" stroke-linecap="round"/>
<path d="M31.3096 50.1494L23.8896 56.6394" stroke="#ED295C" stroke-width="2.7447" stroke-miterlimit="10" stroke-linecap="round"/>
<path d="M30.8494 57.1097L24.3594 49.6797" stroke="#ED295C" stroke-width="2.7447" stroke-miterlimit="10" stroke-linecap="round"/>
<path d="M41.0596 52.7598L71.2196 56.9697" stroke="#D4D4D4" stroke-width="2.7447" stroke-miterlimit="10" stroke-linecap="round"/>
<path d="M40.3594 57.75L55.2694 59.83" stroke="#D4D4D4" stroke-width="2.7447" stroke-miterlimit="10" stroke-linecap="round"/>
<path d="M20.4697 74.61L23.6497 78.8201L31.0697 72.3301" stroke="#05BD6B" stroke-width="2.7447" stroke-miterlimit="10" stroke-linecap="round"/>
<path d="M38.0098 74.5498L44.4698 75.4498" stroke="#D4D4D4" stroke-width="2.7447" stroke-miterlimit="10" stroke-linecap="round"/>
<path d="M37.3193 79.54L61.6393 82.9401" stroke="#D4D4D4" stroke-width="2.7447" stroke-miterlimit="10" stroke-linecap="round"/>
<path opacity="0.19" d="M71.3495 92.7001H13.9996C9.33957 92.7001 5.55957 88.9201 5.55957 84.2601V15.4501C5.55957 11.8501 8.73957 9.07012 12.3096 9.55012L72.1396 17.6502C75.0896 18.0502 77.2896 20.5701 77.2896 23.5501V86.7501C77.3096 90.0301 74.6395 92.7001 71.3495 92.7001Z" fill="#3D64B3"/>
<path d="M62.64 87.25H9.09998C4.06998 87.25 0 83.18 0 78.15V9.09998C0 4.06998 4.06998 0 9.09998 0H62.64C67.67 0 71.74 4.06998 71.74 9.09998V78.14C71.74 83.17 67.67 87.25 62.64 87.25Z" fill="#F5F5F5"/>
<path d="M17.9398 57.7801L15.5098 55.35L16.4797 54.3801L17.8698 55.7701L23.2098 49.5801L24.2498 50.48L17.9398 57.7801Z" fill="#5C307D"/>
<path d="M30.2305 51.1504H57.7505" stroke="#D4D4D4" stroke-width="1.852" stroke-miterlimit="10" stroke-linecap="square"/>
<path d="M30.2305 55.71H48.9405" stroke="#D4D4D4" stroke-width="1.852" stroke-miterlimit="10" stroke-linecap="square"/>
<path d="M20.3595 26.04H14.0195V37.5201H20.3595V26.04Z" fill="#5C307D"/>
<path d="M29.8497 23H23.5098V37.53H29.8497V23Z" fill="#5C307D"/>
<path d="M39.3497 19.5605H33.0098V37.5306H39.3497V19.5605Z" fill="#5C307D"/>
<path d="M48.8497 16.4502H42.5098V37.5302H48.8497V16.4502Z" fill="#5C307D"/>
<path d="M58.3497 11.6904H52.0098V37.5204H58.3497V11.6904Z" fill="#5C307D"/>
<path d="M17.9398 74.2302L15.5098 71.8002L16.4797 70.8303L17.8698 72.2103L23.2098 66.0303L24.2498 66.9302L17.9398 74.2302Z" fill="#5C307D"/>
<path d="M30.2305 67.5996H57.7505" stroke="#D4D4D4" stroke-width="1.852" stroke-miterlimit="10" stroke-linecap="square"/>
<path d="M30.2305 72.1494H52.4305" stroke="#D4D4D4" stroke-width="1.852" stroke-miterlimit="10" stroke-linecap="square"/>
<g opacity="0.59">
<path d="M56.39 77.7097C51.48 77.7097 46.86 75.7997 43.39 72.3197C39.92 68.8497 38 64.2297 38 59.3197C38 54.4097 39.91 49.7897 43.39 46.3197C46.86 42.8497 51.48 40.9297 56.39 40.9297C61.3 40.9297 65.92 42.8397 69.39 46.3197C72.86 49.7897 74.78 54.4097 74.78 59.3197C74.78 64.2297 72.87 68.8497 69.39 72.3197C65.93 75.7897 61.31 77.7097 56.39 77.7097ZM56.39 45.0397C48.52 45.0397 42.12 51.4397 42.12 59.3097C42.12 67.1797 48.52 73.5797 56.39 73.5797C60.2 73.5797 63.79 72.0997 66.48 69.3997C69.18 66.6997 70.66 63.1197 70.66 59.3097C70.67 51.4497 64.26 45.0397 56.39 45.0397Z" fill="#5C307D"/>
</g>
<path d="M56.39 77.7097C51.48 77.7097 46.86 75.7997 43.39 72.3197C39.92 68.8497 38 64.2297 38 59.3197C38 54.4097 39.91 49.7897 43.39 46.3197C46.86 42.8497 51.48 40.9297 56.39 40.9297C61.3 40.9297 65.92 42.8397 69.39 46.3197C72.86 49.7897 74.78 54.4097 74.78 59.3197C74.78 64.2297 72.87 68.8497 69.39 72.3197C65.93 75.7897 61.31 77.7097 56.39 77.7097ZM56.39 45.0397C48.52 45.0397 42.12 51.4397 42.12 59.3097C42.12 67.1797 48.52 73.5797 56.39 73.5797C60.2 73.5797 63.79 72.0997 66.48 69.3997C69.18 66.6997 70.66 63.1197 70.66 59.3097C70.67 51.4497 64.26 45.0397 56.39 45.0397Z" fill="#5C307D"/>
<path d="M69.4024 69.3972L66.5068 72.3281L83.303 88.9212L86.1985 85.9903L69.4024 69.3972Z" fill="#5C307D"/>
</svg>
