<svg width="61" height="120" viewBox="0 0 61 120" fill="none" xmlns="http://www.w3.org/2000/svg">
<path d="M60.49 63.73L55.63 11.33C55.47 5.08002 49.56 0.0300293 42.32 0.0300293H18.19C10.95 0.0300293 5.04 5.07002 4.88 11.33L0.039978 63.28L0.0200195 63.73C0.0200195 75.96 10.73 86.14 24.8 88.27V109.06H15.47C12.46 109.06 10.02 111.5 10.02 114.51C10.02 117.52 12.46 119.96 15.47 119.96H45.03C48.04 119.96 50.48 117.52 50.48 114.51C50.48 111.5 48.04 109.06 45.03 109.06H35.71V88.27C49.78 86.15 60.49 75.96 60.49 63.73ZM14.58 11.59C14.58 10.96 15.98 9.73999 18.18 9.73999H42.31C44.51 9.73999 45.91 10.95 45.91 11.59L47.29 26.42H13.22L14.56 12.04L14.58 11.59Z" fill="white"/>
</svg>
