<svg width="39" height="39" viewBox="0 0 39 39" fill="none" xmlns="http://www.w3.org/2000/svg">
<path d="M16 18H2C0.9 18 0 17.1 0 16V2C0 0.9 0.9 0 2 0H16C17.1 0 18 0.9 18 2V16C18 17.1 17.1 18 16 18Z" fill="#516896"/>
<path d="M36.6 18H22.6C21.5 18 20.6 17.1 20.6 16V2C20.6 0.9 21.5 0 22.6 0H36.6C37.7 0 38.6 0.9 38.6 2V16C38.6 17.1 37.7 18 36.6 18Z" fill="white"/>
<path d="M16 38.5996H2C0.9 38.5996 0 37.6996 0 36.5996V22.5996C0 21.4996 0.9 20.5996 2 20.5996H16C17.1 20.5996 18 21.4996 18 22.5996V36.5996C18 37.6996 17.1 38.5996 16 38.5996Z" fill="#516896"/>
<path d="M36.6 38.5996H22.6C21.5 38.5996 20.6 37.6996 20.6 36.5996V22.5996C20.6 21.4996 21.5 20.5996 22.6 20.5996H36.6C37.7 20.5996 38.6 21.4996 38.6 22.5996V36.5996C38.6 37.6996 37.7 38.5996 36.6 38.5996Z" fill="#516896"/>
</svg>
