<svg width="462" height="472" viewBox="0 0 462 472" fill="none" xmlns="http://www.w3.org/2000/svg">
<path d="M458.9 471.46H2.70001C1.20001 471.46 0 470.26 0 468.76C0 467.26 1.20001 466.06 2.70001 466.06H458.9C460.4 466.06 461.6 467.26 461.6 468.76C461.6 470.26 460.4 471.46 458.9 471.46Z" fill="#3A25A1"/>
<path d="M39.4 24.2592C43.1 2.25916 76.9 -7.64084 76.3 6.75916L231.3 7.65915C242 7.75915 250.7 17.3592 250.7 29.2592L251 436.859C251 449.159 242.2 459.159 231.2 459.259L73 460.659C72 462.759 70.2 464.559 67.3 466.159C49.2 466.559 40.5 457.559 37.3 447.459C36.3 444.759 35.7 441.759 35.7 438.559C36.3 433.259 38.3 29.4592 39.4 24.2592Z" fill="#772995"/>
<path d="M69 466.259L250.6 465.059C261.9 464.959 271.1 454.659 271.1 442.059L270.4 22.8592C270.4 10.6592 261.4 0.759186 250.2 0.759186L72.1 0.15918C60.9 0.15918 51.7 10.0592 51.6 22.2592L48.4 443.359C48.4 456.059 57.6 466.359 69 466.259Z" fill="#772995"/>
<path d="M66.5 463.159C67.3 463.259 68 463.259 68.8 463.259L250.4 461.859C260.1 461.759 268.1 452.759 268.1 441.659L267.5 22.9588C267.5 12.3588 259.7 3.65878 250.1 3.55878L72 2.75879C71.7 2.75879 71.4 2.75879 71.2 2.75879C66.7 2.95879 62.4999 4.9588 59.3999 8.4588C56.1999 12.0588 54.3999 16.7588 54.3999 21.7588L51.2 443.359C51 453.559 57.6 461.959 66.5 463.159Z" fill="black"/>
<path d="M60.5 23.1592L57.4 443.259L262 442.059L261.5 23.1592H60.5Z" fill="#9753D9"/>
<path d="M201.1 358.259H118.4V364.459H201.1V358.259Z" fill="#772995"/>
<path d="M227.8 372.059H90.6V378.259H227.8V372.059Z" fill="#772995"/>
<path d="M222.1 385.858H96.4V392.058H222.1V385.858Z" fill="#772995"/>
<path d="M200.1 237.46H124.9C101.7 237.46 83 218.66 83 195.56V116.46C83 93.2596 101.8 74.5596 124.9 74.5596H200.1C223.3 74.5596 242 93.3596 242 116.46V195.56C242 218.66 223.2 237.46 200.1 237.46Z" fill="#230B45"/>
<path d="M137.1 260.76C144.7 238.66 130.5 200.76 113.8 210.26C96.7 219.76 86.4 244.06 87.6 260.76H137.1Z" fill="#FFA599"/>
<path d="M190.4 260.76C182.8 238.66 197 200.76 213.7 210.26C230.8 219.76 241.1 244.06 239.9 260.76H190.4Z" fill="#FFA599"/>
<path d="M216.7 213.859C219.1 190.159 223.3 93.8594 164.3 93.8594C104.8 93.8594 110.3 189.559 112.3 211.959L216.7 213.859Z" fill="#0E0E0E"/>
<path d="M110.9 212.459C131.8 196.859 198.5 196.459 218 213.359L218.3 260.759H110.7L110.9 212.459Z" fill="#772995"/>
<path d="M146.6 201.46C146.6 201.46 122.1 216.26 136.7 230.06C148.8 241.46 166.5 224.46 166.5 224.46L146.6 201.46Z" fill="white"/>
<path d="M180.7 201.16C180.7 201.16 205.2 215.96 190.6 229.76C178.5 241.16 160.8 224.16 160.8 224.16L180.7 201.16Z" fill="white"/>
<path d="M183.2 216.36C183.2 229.96 144.4 229.96 144.4 216.36L146.5 195.36L147.8 181.76H179.9L182.1 204.36L183.2 216.36Z" fill="#FFA599"/>
<path d="M182 204.46L146.4 195.46L147.8 181.76H179.8L182 204.46Z" fill="#E87C5D"/>
<path d="M204.1 144.759C205.3 173.259 187.8 196.259 165 196.259C142.2 196.259 124.7 173.159 125.9 144.759C127 117.959 144.5 97.3594 165 97.3594C185.5 97.3594 203 117.959 204.1 144.759Z" fill="#FFA599"/>
<path d="M121.4 141.559H208.2C208.2 141.559 203.8 93.8594 164.4 93.8594C124.9 93.8594 121.4 141.559 121.4 141.559Z" fill="#0E0E0E"/>
<path d="M163 165.36C162 165.36 161 165.16 160.4 164.46C159 162.76 162.5 154.26 163.2 152.56C163.3 152.36 163.5 152.26 163.7 152.36C163.9 152.46 164 152.66 163.9 152.86C162.2 156.86 160.2 162.96 161 163.86C161.9 164.96 165 164.26 166.1 163.86C166.3 163.76 166.6 163.86 166.6 164.16C166.7 164.36 166.6 164.66 166.3 164.66C166.2 164.86 164.6 165.36 163 165.36Z" fill="#BD4A31"/>
<path d="M153 173.459C153 173.459 164.7 178.059 181.3 171.159C171.5 182.959 159.5 189.959 153 173.459Z" fill="#BD4A31"/>
<path d="M142.3 151.459C142.3 153.559 143.1 155.259 144.2 155.259C145.2 155.259 146.1 153.559 146.1 151.459C146.1 149.359 145.3 147.659 144.2 147.659C143.1 147.659 142.3 149.359 142.3 151.459Z" fill="#0E0E0E"/>
<path d="M147.7 146.76C147.6 146.76 147.5 146.66 147.4 146.66C144.3 143.06 140.5 146.06 140.4 146.16C140.2 146.26 140 146.26 139.8 146.06C139.7 145.86 139.7 145.66 139.9 145.46C139.9 145.46 144.5 141.76 148.1 146.06C148.2 146.26 148.2 146.46 148 146.66C147.9 146.76 147.8 146.76 147.7 146.76Z" fill="#BD4A31"/>
<path d="M184.8 155.259C185.849 155.259 186.7 153.558 186.7 151.459C186.7 149.361 185.849 147.659 184.8 147.659C183.751 147.659 182.9 149.361 182.9 151.459C182.9 153.558 183.751 155.259 184.8 155.259Z" fill="#0E0E0E"/>
<path d="M188.3 146.76C188.2 146.76 188.1 146.66 188 146.66C184.9 143.06 181.1 146.06 181 146.16C180.8 146.26 180.6 146.26 180.4 146.06C180.3 145.86 180.3 145.66 180.5 145.46C180.5 145.46 185.1 141.76 188.7 146.06C188.8 146.26 188.8 146.46 188.6 146.66C188.5 146.76 188.4 146.76 188.3 146.76Z" fill="#BD4A31"/>
<path d="M144.1 165.46C146.861 165.46 149.1 164.251 149.1 162.76C149.1 161.268 146.861 160.06 144.1 160.06C141.339 160.06 139.1 161.268 139.1 162.76C139.1 164.251 141.339 165.46 144.1 165.46Z" fill="#FF8F80"/>
<path d="M183.7 165.46C186.461 165.46 188.7 164.251 188.7 162.76C188.7 161.268 186.461 160.06 183.7 160.06C180.939 160.06 178.7 161.268 178.7 162.76C178.7 164.251 180.939 165.46 183.7 165.46Z" fill="#FF8F80"/>
<path d="M130.9 207.26H119.9C111.8 207.26 105.1 200.66 105.1 192.46V181.06H109.2V192.46C109.2 198.36 114 203.16 119.9 203.16H130.9V207.26Z" fill="white"/>
<path d="M206.2 207.26H195.5V203.16H206.2C212.1 203.16 216.9 198.36 216.9 192.46V180.76H221V192.46C220.9 200.56 214.3 207.26 206.2 207.26Z" fill="white"/>
<path d="M220.9 122.359H216.8V112.159C216.8 106.259 212 101.459 206.1 101.459H195.8V97.3594H206.1C214.2 97.3594 220.9 103.959 220.9 112.159V122.359Z" fill="white"/>
<path d="M109.3 124.359H105.2V112.259C105.2 104.159 111.8 97.459 120 97.459H130.6V101.559H120C114.1 101.559 109.3 106.359 109.3 112.259V124.359Z" fill="white"/>
<path d="M146.3 306.459V331.959C146.3 334.759 181 334.759 181 331.959V306.459H146.3Z" fill="#230B45"/>
<path d="M178 305.259H174.5V296.759C174.5 290.759 169.7 285.959 163.7 285.959C157.7 285.959 152.9 290.759 152.9 296.759V298.459H149.4V296.759C149.4 288.859 155.8 282.459 163.7 282.459C171.6 282.459 178 288.859 178 296.759V305.259Z" fill="#230B45"/>
<path d="M160.5 328.159C160.1 328.159 159.8 328.059 159.5 327.759L153.8 321.659C153.3 321.159 153.3 320.259 153.9 319.759C154.4 319.259 155.3 319.259 155.8 319.859L160.6 325.059L174 312.759C174.6 312.259 175.4 312.259 175.9 312.859C176.4 313.359 176.4 314.259 175.8 314.759L161.4 327.759C161.1 328.059 160.8 328.159 160.5 328.159Z" fill="#AAE0FF"/>
<path d="M425.9 142.06L346.9 142.16L363.7 187.86L425.9 142.06Z" fill="#9753D9"/>
<path d="M345.3 141.759C345.3 141.759 316.1 146.459 320.1 206.159C325.4 211.259 379.2 205.959 379.2 205.959C370.2 196.759 367.2 177.559 366.6 154.359C366.6 154.359 365.4 139.559 345.3 141.759Z" fill="#0E0E0E"/>
<path d="M372.8 197.559L404.5 188.959L434.4 161.959L440.2 166.959C440.2 166.959 417.1 196.159 411.3 201.359C406.2 205.959 375.8 218.959 375.8 218.959L372.8 197.559Z" fill="#FFA599"/>
<path d="M333.1 222.56C334.4 229.86 347.5 262.26 347.5 262.26C347.5 270.16 385.8 270.16 385.8 262.26C386.3 250.16 387.3 227.46 387.2 214.06C385.4 208.66 380.5 200.559 372 195.359C355.9 191.959 326.1 196.06 333.1 222.56Z" fill="#772995"/>
<path d="M335.5 310.959H369.6C368.8 317.859 365.1 325.459 363.6 331.659C349.7 369.759 342.9 420.659 328.3 454.259C328.3 454.259 322 457.559 317.8 454.259C320.7 428.959 320.5 413.359 328.7 371.459C331.5 359.259 330.3 330.159 335.5 310.959Z" fill="#FFA599"/>
<path d="M392.8 310.959C397.2 353.159 405.4 444.359 406.3 453.759L395.5 453.859C388.4 429.659 379.3 408.059 378.5 377.359C373 360.459 363.8 332.159 356.9 310.959H392.8Z" fill="#FFA599"/>
<path d="M334.5 319.359L360.3 321.459L366.6 321.959L394.2 324.259C395.4 335.959 396.7 349.859 398 364.159C389.7 367.559 378.1 372.559 377.1 373.059L363.6 331.559C359.6 344.459 354.8 361.359 351.1 374.559C344.1 371.259 336.7 368.559 329.4 366.959C330.7 351.759 332.4 334.159 334.5 319.359Z" fill="#E87C5D"/>
<path d="M368 194.259C368 194.259 378.8 201.659 374.8 207.159C371.3 211.859 362.8 206.459 362.8 206.459C362.8 206.459 361.4 213.759 355.6 212.859C347.6 211.459 345.9 199.759 349.3 195.859C352.6 192.059 364.1 192.259 368 194.259Z" fill="white"/>
<path d="M350.2 198.36C350.5 201.56 355.4 205.76 361.7 204.86C365.7 204.26 367.7 201.46 366.8 198.16L365.7 193.96L362.7 182.06L348 183.76L350.2 198.36Z" fill="#FFA599"/>
<path d="M348.2 181.659C350.7 186.459 355 189.959 364.6 189.659L361.6 177.759L348 179.359L348.2 181.659Z" fill="#E87C5D"/>
<path d="M313.2 359.759C323.3 363.459 336.1 365.459 348.9 366.259C374.4 367.759 403.6 363.459 406.2 358.859C401 311.259 385.9 262.259 385.9 262.259H347.6C340.8 267.559 334.7 276.859 330.8 286.759C328 294.559 317.3 328.759 313.2 359.759Z" fill="#772995"/>
<path d="M425.9 464.659C425.9 464.559 419.5 464.559 412.6 464.559C404.7 464.559 394.8 464.659 394.8 464.659C394.6 461.559 394.5 458.459 395.5 453.759L407.9 453.659C407.9 453.659 411.3 454.259 417.4 456.059C417.8 456.159 418.2 456.259 418.7 456.359C428.3 458.659 425.9 464.959 425.9 464.659Z" fill="#772995"/>
<path d="M425.9 464.66C425.9 464.56 419.5 464.56 412.6 464.56C412.4 463.96 412.3 463.26 412.3 462.56C412.3 459.56 414.4 457.06 417.4 456.06C417.8 456.16 418.2 456.26 418.7 456.36C428.3 458.66 425.9 464.96 425.9 464.66Z" fill="#9753D9"/>
<path d="M426.5 462.759H394.3V464.759H426.5V462.759Z" fill="#9753D9"/>
<path d="M328.9 465.06C328.7 465.06 325.6 465.06 321.6 464.96C315.2 464.86 306.9 464.86 306.1 465.06C303.9 459.66 308.5 456.96 312.7 455.46C314.5 454.86 316.2 454.36 317.4 454.06L328.2 454.16C329.3 458.86 329.1 462.06 328.9 465.06Z" fill="#772995"/>
<path d="M305.6 465.112H329.4V463.112H305.6V465.112Z" fill="#9753D9"/>
<path d="M321.7 465.059C315.3 464.959 307 464.959 306.2 465.159C304 459.759 308.6 457.059 312.8 455.559C315.3 455.259 318.1 455.659 320.4 458.059C322.7 460.459 322.5 463.059 321.7 465.059Z" fill="#9753D9"/>
<path d="M366.3 267.059C360.5 267.059 353.9 266.059 347.2 263.059C346.8 262.859 346.6 262.359 346.8 261.859C347 261.459 347.5 261.259 348 261.459C367.5 269.959 385.3 261.559 385.5 261.459C385.9 261.259 386.5 261.459 386.7 261.859C386.9 262.259 386.7 262.859 386.3 263.059C386.1 263.159 377.8 267.059 366.3 267.059Z" fill="white"/>
<path d="M367.8 184.259C357 189.859 344.9 185.559 340.6 176.259C332.7 165.759 330.2 152.859 339.1 145.859C349.5 137.759 365.1 141.559 367.9 157.459C369 158.659 370.8 161.559 371.8 165.259C372.1 166.059 372.3 166.959 372.3 167.859C373.3 172.859 372.6 178.859 367.8 184.259Z" fill="#FFA599"/>
<path d="M334.1 169.559C334.1 169.559 360.1 159.559 371.4 157.759C368.5 148.859 356.9 134.859 340.2 143.959C326 151.359 334.1 169.559 334.1 169.559Z" fill="#0E0E0E"/>
<path d="M345.8 155.259C343.2 166.059 344 184.759 360.9 205.859L354 206.959C354 206.959 346.2 205.559 334.1 178.059C327 159.459 338.4 152.559 345.8 155.259Z" fill="#0E0E0E"/>
<path d="M346.6 214.159C345.4 221.359 334.1 246.259 334.1 246.259L342.7 290.459L335.8 293.159C335.8 293.159 318.8 256.559 318.9 245.959C319.1 232.559 330.4 208.159 330.4 208.159C336.3 197.659 348.7 201.059 346.6 214.159Z" fill="#FFA599"/>
<path d="M335.2 290.659C335.2 290.659 330.6 305.359 335.3 308.259C340 311.259 342.8 295.359 342.8 295.359C342.8 295.359 344.8 297.959 345.7 297.459C346.6 296.959 343.9 291.059 342 289.359C340.2 287.659 336.5 286.959 335.2 290.659Z" fill="#FFA599"/>
<path d="M430.1 161.16C430.1 161.16 432.2 158.96 433.2 162.26C436.7 163.46 439.8 159.46 441.2 163.16C443.4 168.96 432.2 171.16 430.1 161.16Z" fill="#FFA599"/>
<path d="M440.4 157.859C440.4 157.859 437.6 150.959 432.7 148.159C430.8 147.259 429.9 147.859 429.9 147.859L437.2 167.559C440.6 170.059 443.5 164.659 440.4 157.859Z" fill="#FFA599"/>
<path d="M437.3 174.759L425.1 138.759C425.1 138.759 425.4 137.859 426.1 137.459L438.6 175.359C438 175.159 437.3 174.759 437.3 174.759Z" fill="#230B45"/>
<path d="M426.1 137.359C426.5 137.059 427.1 137.059 427.9 137.759C429.7 139.459 440.3 171.159 440.1 173.759C440 175.059 439.3 175.259 438.7 175.159L426.1 137.359Z" fill="#230B45"/>
<path d="M431.3 147.659C431.3 147.659 429.1 146.959 429.9 151.959C431 158.059 434.4 161.359 436.3 160.959C438.5 160.459 435.8 148.459 431.3 147.659Z" fill="#FFA599"/>
<path d="M366.3 168.659C366.2 168.659 366.1 168.559 366.1 168.559C366.1 168.459 366.1 168.359 366.2 168.359C366.7 168.259 368 167.659 368.1 167.059C368.2 166.459 365.9 164.759 364.2 163.659C364.1 163.559 364.1 163.459 364.1 163.359C364.2 163.259 364.3 163.259 364.4 163.259C365.1 163.759 368.5 166.059 368.4 166.959C368.4 168.059 366.5 168.659 366.3 168.659Z" fill="#BD4A31"/>
<path d="M368.8 173.959C368.8 173.959 364.3 176.859 356.9 175.459C361.9 179.559 367.5 181.359 368.8 173.959Z" fill="#BD4A31"/>
<path d="M356.4 165.259C356.6 165.959 356.5 166.659 356.2 166.759C355.8 166.859 355.4 166.359 355.1 165.659C354.9 164.959 355 164.259 355.3 164.159C355.7 164.059 356.2 164.559 356.4 165.259Z" fill="#0E0E0E"/>
<path d="M368.8 161.259C369 161.859 368.9 162.459 368.6 162.559C368.3 162.659 367.9 162.259 367.7 161.559C367.5 160.959 367.6 160.359 367.9 160.259C368.1 160.159 368.5 160.559 368.8 161.259Z" fill="#0E0E0E"/>
<path d="M354.8 171.559C355 172.259 356.2 172.659 357.5 172.359C358.9 172.059 359.8 171.259 359.7 170.559C359.5 169.859 358.3 169.459 357 169.759C355.6 170.059 354.6 170.859 354.8 171.559Z" fill="#FF8F80"/>
<path d="M372.4 167.859C371 168.159 369.7 167.759 369.6 167.059C369.4 166.359 370.4 165.559 371.8 165.259C371.9 165.259 371.9 165.259 371.9 165.259C372.2 166.059 372.4 166.959 372.4 167.859Z" fill="#FF8F80"/>
</svg>
