<svg width="49" height="37" viewBox="0 0 49 37" fill="none" xmlns="http://www.w3.org/2000/svg">
<path d="M5.19995 36.1998C8.07183 36.1998 10.4 33.8717 10.4 30.9998C10.4 28.1279 8.07183 25.7998 5.19995 25.7998C2.32807 25.7998 0 28.1279 0 30.9998C0 33.8717 2.32807 36.1998 5.19995 36.1998Z" fill="#516896"/>
<path d="M14.8999 31H47.2999" stroke="white" stroke-width="2.7636" stroke-miterlimit="10" stroke-linecap="round"/>
<path d="M5.19995 10.4C8.07183 10.4 10.4 8.07183 10.4 5.19995C10.4 2.32807 8.07183 0 5.19995 0C2.32807 0 0 2.32807 0 5.19995C0 8.07183 2.32807 10.4 5.19995 10.4Z" fill="#516896"/>
<path d="M14.8999 5.2002H47.2999" stroke="white" stroke-width="2.7636" stroke-miterlimit="10" stroke-linecap="round"/>
<path d="M5.19995 23.3004C8.07183 23.3004 10.4 20.9723 10.4 18.1004C10.4 15.2285 8.07183 12.9004 5.19995 12.9004C2.32807 12.9004 0 15.2285 0 18.1004C0 20.9723 2.32807 23.3004 5.19995 23.3004Z" fill="#516896"/>
<path d="M14.8999 18.0996H47.2999" stroke="white" stroke-width="2.7636" stroke-miterlimit="10" stroke-linecap="round"/>
</svg>
