<svg width="46" height="46" viewBox="0 0 46 46" fill="none" xmlns="http://www.w3.org/2000/svg">
<path d="M25.3394 26.9C25.3394 26.9 22.5394 12.3 33.6394 7.5" stroke="#702D22" stroke-width="2.0883" stroke-miterlimit="10"/>
<path d="M15.5394 14.7002C15.5394 14.7002 26.2394 20.4002 24.8394 27.6002" stroke="#702D22" stroke-width="1.4487" stroke-miterlimit="10"/>
<path d="M19.0394 16.9996C19.0394 16.9996 14.1394 18.7996 11.8394 16.9996C9.53942 15.2996 9.2394 12.8996 8.6394 11.8996C10.2394 12.1996 12.8394 11.2997 15.0394 12.0997C17.2394 12.8997 18.9394 14.6996 19.0394 16.9996Z" fill="#22B72F"/>
<path fill-rule="evenodd" clip-rule="evenodd" d="M13.1394 40.0004C13.1394 40.3004 13.3394 40.5004 13.6394 40.5004C16.9394 40.5004 21.2394 41.0004 23.5394 41.2004C27.8394 41.6004 30.9394 40.4004 34.6394 38.5004C38.8394 36.3004 41.0394 35.3004 43.9394 32.1004C44.8394 31.1004 45.2394 30.0004 45.1394 29.1004C45.0394 28.5004 44.6394 27.9004 44.0394 27.4004C43.0394 26.7004 42.0394 26.7004 41.1394 27.0004C40.2394 27.2004 39.4394 27.7004 38.6394 28.1004C37.2394 28.8004 36.1394 29.6004 34.9394 30.2004C34.9394 30.2004 34.9394 30.2004 35.0394 30.1004C35.8394 29.1004 36.0394 28.0004 35.6394 27.1004C35.2394 26.2004 34.3394 25.6004 33.0394 25.6004C31.3394 25.6004 29.9394 26.0004 28.2394 26.2004C27.6394 26.3004 26.9394 26.3004 26.2394 26.3004C25.5394 26.3004 24.8394 26.2004 24.1394 26.0004C23.4394 25.8004 22.7394 25.6004 22.1394 25.3004C20.8394 24.7004 20.2394 24.1004 19.4394 23.7004C19.2394 23.6004 18.9394 23.5004 18.6394 23.4004C17.4394 23.0004 16.2394 22.9004 14.9394 22.9004C13.7394 23.0004 12.4394 23.3004 11.3394 23.8004C10.8394 24.0004 10.2394 24.4004 9.7394 24.9004C8.6394 25.8004 7.53942 27.1004 6.63942 27.8004C6.43942 28.0004 6.43945 28.3004 6.53945 28.5004L13.1394 40.0004Z" fill="#FDBEBF"/>
<path fill-rule="evenodd" clip-rule="evenodd" d="M13.2394 42.6001C14.2394 41.6001 14.4394 40.0001 13.7394 38.8001C12.2394 36.2001 9.43939 31.4001 7.93939 28.8001C7.23939 27.6001 5.83939 27.0001 4.43939 27.3001C3.43939 27.5001 2.33939 27.8001 1.43939 28.0001C0.839386 28.1001 0.439398 28.5001 0.139398 29.1001C-0.0606019 29.6001 -0.0606264 30.2001 0.239374 30.7001C2.13937 33.9001 6.3394 41.2001 8.1394 44.4001C8.4394 44.9001 8.93942 45.2001 9.53942 45.3001C10.1394 45.4001 10.6394 45.2001 11.0394 44.7001C11.7394 44.1001 12.5394 43.3001 13.2394 42.6001Z" fill="#516896"/>
<path fill-rule="evenodd" clip-rule="evenodd" d="M35.8394 28.5996C35.4394 28.8996 35.1393 29.1996 34.7393 29.4996C33.6393 30.2996 32.5393 30.8996 31.4393 31.2996C28.4393 32.5996 26.0394 32.6996 26.0394 32.6996C25.9394 32.6996 25.8394 32.7996 25.8394 32.8996C25.8394 32.9996 25.9394 33.0996 26.0394 33.0996C26.0394 33.0996 28.6393 33.1996 31.7393 31.8996C33.4393 31.2996 35.2394 29.9996 35.0394 30.0996C35.0394 30.0996 35.0393 30.0996 35.1393 29.9996C35.4393 29.6996 35.7394 29.0996 35.8394 28.5996Z" fill="#E5837C"/>
<path d="M28.4394 11.2C28.4394 11.2 36.1394 12 38.9394 8.60004C41.7394 5.20004 41.1394 1.6 41.7394 0C39.5394 1 35.3394 0.700037 32.4394 2.60004C29.6394 4.60004 27.8394 7.90001 28.4394 11.2Z" fill="#22B72F"/>
</svg>
