<svg width="36" height="42" viewBox="0 0 36 42" fill="none" xmlns="http://www.w3.org/2000/svg">
<path d="M21.1001 37.9H14.2001C10.3001 37.9 7.1001 34.7 7.1001 30.8V9.09998C7.1001 5.19998 10.3001 2 14.2001 2H21.1001C25.0001 2 28.2001 5.19998 28.2001 9.09998V30.8C28.2001 34.7 25.0001 37.9 21.1001 37.9Z" stroke="white" stroke-width="2.7636" stroke-miterlimit="10" stroke-linecap="round"/>
<path d="M33.4 41.8998H2C0.9 41.8998 0 40.9998 0 39.8998V21.2998C0 20.1998 0.9 19.2998 2 19.2998H33.4C34.5 19.2998 35.4 20.1998 35.4 21.2998V39.8998C35.4 40.9998 34.5 41.8998 33.4 41.8998Z" fill="#516896"/>
<path d="M17.7 35.8004C20.5719 35.8004 22.9 33.4722 22.9 30.6003C22.9 27.7285 20.5719 25.4004 17.7 25.4004C14.8281 25.4004 12.5 27.7285 12.5 30.6003C12.5 33.4722 14.8281 35.8004 17.7 35.8004Z" fill="white"/>
</svg>
