<?xml version="1.0" encoding="utf-8"?>
<!-- Generator: Adobe Illustrator 27.3.1, SVG Export Plug-In . SVG Version: 6.00 Build 0)  -->
<svg version="1.1" id="Camada_1" xmlns="http://www.w3.org/2000/svg" xmlns:xlink="http://www.w3.org/1999/xlink" x="0px" y="0px"
	 viewBox="0 0 1943 1152" style="enable-background:new 0 0 1943 1152;" xml:space="preserve">
<style type="text/css">
	.st0{fill:#772995;}
	.st1{fill:#EDEDED;}
	.st2{fill:none;}
</style>
<g>
	<path class="st0" d="M1052.11,604.65H890.89c-15.82,0-28.65-12.82-28.65-28.65l0,0c0-15.82,12.82-28.65,28.65-28.65h161.23
		c15.82,0,28.65,12.82,28.65,28.65l0,0C1080.76,591.82,1067.93,604.65,1052.11,604.65z"/>
	<g>
		<g>
			<path class="st1" d="M918.87,581.12h-7.75v-14h2.32v12.04h5.43V581.12z"/>
			<path class="st1" d="M923.27,581.12h-2.39v-14h2.39V581.12z"/>
			<path class="st1" d="M937.69,567.12l-5.03,14h-2.6l-4.94-14h2.54l3.46,10.62c0.11,0.34,0.2,0.73,0.25,1.18h0.04
				c0.05-0.37,0.14-0.77,0.28-1.2l3.54-10.61H937.69z"/>
			<path class="st1" d="M945.24,581.35c-2.02,0-3.63-0.65-4.85-1.96s-1.82-3.01-1.82-5.11c0-2.25,0.62-4.05,1.86-5.39
				c1.24-1.34,2.92-2.01,5.04-2.01c1.97,0,3.55,0.65,4.75,1.95c1.2,1.3,1.8,3,1.8,5.11c0,2.29-0.62,4.09-1.85,5.42
				S947.3,581.35,945.24,581.35z M945.35,568.92c-1.28,0-2.33,0.48-3.13,1.44s-1.21,2.22-1.21,3.78c0,1.56,0.39,2.81,1.17,3.76
				c0.78,0.95,1.8,1.43,3.07,1.43c1.34,0,2.4-0.45,3.17-1.36c0.77-0.91,1.16-2.17,1.16-3.8c0-1.67-0.38-2.97-1.13-3.88
				C947.71,569.38,946.67,568.92,945.35,568.92z"/>
			<path class="st1" d="M977.46,567.12l-3.84,14H971l-2.67-9.79c-0.11-0.42-0.18-0.87-0.21-1.37h-0.04
				c-0.03,0.46-0.11,0.91-0.23,1.35l-2.68,9.81h-2.69l-3.92-14h2.55l2.54,10.25c0.1,0.43,0.17,0.88,0.2,1.35h0.05
				c0.03-0.33,0.12-0.78,0.27-1.35l2.87-10.25h2.39l2.66,10.33c0.09,0.35,0.16,0.77,0.21,1.25h0.04c0.02-0.33,0.09-0.76,0.22-1.29
				l2.49-10.29H977.46z"/>
			<path class="st1" d="M987.26,581.12h-7.86v-14h7.55v1.97h-5.22v3.96h4.81v1.96h-4.81v4.14h5.54V581.12z"/>
			<path class="st1" d="M989.75,581.12v-14h4.44c1.35,0,2.43,0.3,3.22,0.89c0.79,0.59,1.19,1.36,1.19,2.31
				c0,0.79-0.22,1.48-0.67,2.07s-1.07,1-1.87,1.25v0.04c0.96,0.11,1.73,0.47,2.31,1.07c0.58,0.6,0.86,1.38,0.86,2.35
				c0,1.2-0.47,2.17-1.42,2.91c-0.94,0.74-2.14,1.11-3.57,1.11H989.75z M992.07,568.98v3.98h1.5c0.81,0,1.44-0.19,1.9-0.57
				s0.69-0.92,0.69-1.62c0-1.2-0.8-1.8-2.4-1.8H992.07z M992.07,574.83v4.43h1.98c0.87,0,1.53-0.2,2.01-0.6
				c0.47-0.4,0.71-0.95,0.71-1.66c0-1.45-1.01-2.18-3.02-2.18H992.07z"/>
		</g>
		<g>
			<path class="st1" d="M1007.75,569.46c0.23-0.53,0.63-0.71,1.2-0.7c5.36,0.01,3.53,0.01,8.89,0.01c0.11,0,0.23,0,0.37,0
				c0-0.13,0-0.23,0-0.33c0-1.39,0-2.79,0-4.18c0-0.44,0.14-0.78,0.55-0.97c0.42-0.2,0.78-0.06,1.11,0.24
				c3.33,3.03,6.66,6.05,9.98,9.08c0.57,0.52,0.57,1.09,0,1.61c-3.33,3.03-6.67,6.06-10.01,9.1c-0.32,0.29-0.68,0.41-1.09,0.22
				c-0.4-0.18-0.55-0.51-0.55-0.94c0-1.5,0-3,0-4.54c-0.13,0-0.25,0-0.37,0c-5.36,0-3.53-0.01-8.89,0.01c-0.57,0-0.97-0.18-1.2-0.7
				C1007.75,574.72,1007.75,572.09,1007.75,569.46z"/>
			<g>
				<path class="st2" d="M1030.6,582.25c0.56,0,1.01-0.45,1.01-1.01v-15.88c0-0.55-0.45-1.01-1.01-1.01h-2.52v17.89H1030.6z"/>
				<path class="st1" d="M1030.6,562.35h-2.52v2.01h2.52c0.56,0,1.01,0.45,1.01,1.01v15.88c0,0.55-0.45,1.01-1.01,1.01h-2.52v2.01
					h2.52c1.67,0,3.02-1.35,3.02-3.02v-15.88C1033.62,563.7,1032.26,562.35,1030.6,562.35z"/>
			</g>
		</g>
	</g>
</g>
</svg>
