<?xml version="1.0" encoding="utf-8"?>
<!-- Generator: Adobe Illustrator 27.3.1, SVG Export Plug-In . SVG Version: 6.00 Build 0)  -->
<svg version="1.1" id="Camada_1" xmlns="http://www.w3.org/2000/svg" xmlns:xlink="http://www.w3.org/1999/xlink" x="0px" y="0px"
	 viewBox="0 0 1943 1152" style="enable-background:new 0 0 1943 1152;" xml:space="preserve">
<style type="text/css">
	.st0{fill:#1A0B2F;}
	.st1{fill:#772995;}
	.st2{fill:#EDEDED;}
</style>
<path class="st0" d="M1665.05,522.15"/>
<g>
	<path class="st1" d="M1061.17,604.65H881.83c-15.82,0-28.65-12.82-28.65-28.65l0,0c0-15.82,12.82-28.65,28.65-28.65h179.34
		c15.82,0,28.65,12.82,28.65,28.65l0,0C1089.82,591.82,1076.99,604.65,1061.17,604.65z"/>
	<g>
		<g>
			<path class="st2" d="M886.28,581.54h-7.75v-14h2.32v12.04h5.43V581.54z"/>
			<path class="st2" d="M890.68,581.54h-2.39v-14h2.39V581.54z"/>
			<path class="st2" d="M905.11,567.54l-5.03,14h-2.6l-4.94-14h2.54l3.46,10.62c0.11,0.34,0.2,0.73,0.25,1.18h0.04
				c0.05-0.37,0.14-0.77,0.28-1.2l3.54-10.61H905.11z"/>
			<path class="st2" d="M912.66,581.78c-2.02,0-3.63-0.65-4.85-1.96c-1.21-1.31-1.82-3.01-1.82-5.11c0-2.25,0.62-4.05,1.86-5.39
				c1.24-1.34,2.92-2.01,5.04-2.01c1.97,0,3.55,0.65,4.75,1.95c1.2,1.3,1.8,3,1.8,5.11c0,2.29-0.62,4.09-1.85,5.42
				S914.71,581.78,912.66,581.78z M912.76,569.34c-1.28,0-2.33,0.48-3.13,1.44c-0.8,0.96-1.21,2.22-1.21,3.78
				c0,1.56,0.39,2.81,1.17,3.76c0.78,0.95,1.8,1.43,3.07,1.43c1.34,0,2.4-0.45,3.17-1.36c0.78-0.9,1.16-2.17,1.16-3.8
				c0-1.67-0.38-2.96-1.13-3.88C915.12,569.8,914.09,569.34,912.76,569.34z"/>
			<path class="st2" d="M937.27,580.96c-1.05,0.55-2.37,0.82-3.94,0.82c-2.03,0-3.66-0.64-4.88-1.92c-1.22-1.28-1.84-2.96-1.84-5.05
				c0-2.24,0.69-4.05,2.07-5.43c1.38-1.38,3.12-2.07,5.22-2.07c1.35,0,2.48,0.19,3.37,0.58v2.3c-0.94-0.56-1.99-0.84-3.12-0.84
				c-1.52,0-2.75,0.49-3.69,1.46c-0.94,0.97-1.41,2.27-1.41,3.89c0,1.54,0.44,2.77,1.32,3.69c0.88,0.92,2.04,1.37,3.47,1.37
				c1.32,0,2.47-0.31,3.44-0.94V580.96z"/>
			<path class="st2" d="M945.44,581.78c-2.02,0-3.63-0.65-4.85-1.96c-1.21-1.31-1.82-3.01-1.82-5.11c0-2.25,0.62-4.05,1.86-5.39
				c1.24-1.34,2.92-2.01,5.04-2.01c1.97,0,3.55,0.65,4.75,1.95c1.2,1.3,1.8,3,1.8,5.11c0,2.29-0.62,4.09-1.85,5.42
				S947.5,581.78,945.44,581.78z M945.55,569.34c-1.28,0-2.33,0.48-3.13,1.44c-0.8,0.96-1.21,2.22-1.21,3.78
				c0,1.56,0.39,2.81,1.17,3.76c0.78,0.95,1.8,1.43,3.07,1.43c1.34,0,2.4-0.45,3.17-1.36c0.78-0.9,1.16-2.17,1.16-3.8
				c0-1.67-0.38-2.96-1.13-3.88C947.91,569.8,946.87,569.34,945.55,569.34z"/>
			<path class="st2" d="M969.82,581.54h-2.3v-9.06c0-0.74,0.05-1.65,0.14-2.72h-0.04c-0.14,0.61-0.27,1.05-0.38,1.32l-4.18,10.47
				h-1.6l-4.19-10.39c-0.12-0.31-0.24-0.77-0.37-1.4h-0.04c0.05,0.56,0.08,1.47,0.08,2.74v9.04h-2.15v-14h3.27l3.68,9.33
				c0.28,0.72,0.46,1.25,0.55,1.6h0.05c0.24-0.74,0.44-1.28,0.59-1.64l3.75-9.29h3.15V581.54z"/>
			<path class="st2" d="M981.13,581.54h-7.86v-14h7.55v1.97h-5.22v3.96h4.81v1.96h-4.81v4.14h5.54V581.54z"/>
			<path class="st2" d="M994.44,581.54h-2.71l-2.24-3.75c-0.2-0.34-0.4-0.64-0.59-0.88c-0.19-0.24-0.39-0.44-0.59-0.6
				c-0.2-0.16-0.42-0.27-0.65-0.34c-0.23-0.07-0.5-0.11-0.79-0.11h-0.94v5.68h-2.31v-14h4.61c0.66,0,1.26,0.08,1.82,0.23
				c0.55,0.16,1.04,0.39,1.45,0.71c0.41,0.32,0.73,0.71,0.96,1.18c0.23,0.47,0.35,1.02,0.35,1.66c0,0.5-0.07,0.95-0.22,1.36
				c-0.15,0.41-0.35,0.78-0.62,1.1c-0.27,0.32-0.6,0.6-0.98,0.83c-0.38,0.23-0.81,0.4-1.28,0.53v0.04c0.25,0.14,0.48,0.3,0.66,0.47
				c0.19,0.17,0.37,0.35,0.54,0.53c0.17,0.18,0.34,0.39,0.5,0.62c0.17,0.23,0.35,0.5,0.55,0.81L994.44,581.54z M985.94,569.42v4.55
				h1.93c0.36,0,0.69-0.05,0.99-0.17c0.3-0.11,0.57-0.27,0.79-0.48c0.22-0.21,0.39-0.46,0.52-0.76c0.12-0.3,0.19-0.63,0.19-1.01
				c0-0.67-0.21-1.19-0.63-1.57c-0.42-0.38-1.03-0.57-1.83-0.57H985.94z"/>
			<path class="st2" d="M1005.6,580.96c-1.05,0.55-2.37,0.82-3.94,0.82c-2.03,0-3.66-0.64-4.88-1.92c-1.22-1.28-1.84-2.96-1.84-5.05
				c0-2.24,0.69-4.05,2.07-5.43c1.38-1.38,3.12-2.07,5.22-2.07c1.35,0,2.48,0.19,3.37,0.58v2.3c-0.94-0.56-1.99-0.84-3.12-0.84
				c-1.52,0-2.75,0.49-3.69,1.46c-0.94,0.97-1.41,2.27-1.41,3.89c0,1.54,0.44,2.77,1.32,3.69c0.88,0.92,2.04,1.37,3.47,1.37
				c1.32,0,2.47-0.31,3.44-0.94V580.96z"/>
			<path class="st2" d="M1010.63,581.54h-2.39v-14h2.39V581.54z"/>
			<path class="st2" d="M1025.59,581.54h-2.55l-1.26-3.56h-5.51l-1.21,3.56h-2.54l5.24-14h2.62L1025.59,581.54z M1021.16,576.08
				l-1.94-5.59c-0.06-0.18-0.12-0.47-0.19-0.88h-0.04c-0.06,0.37-0.12,0.66-0.2,0.88l-1.92,5.59H1021.16z"/>
			<path class="st2" d="M1035.26,581.54h-7.75v-14h2.32v12.04h5.43V581.54z"/>
		</g>
		<g>
			<path class="st2" d="M1065.75,569.28c-1.91-6.26-9.11-9.22-14.87-6.11c-4.9,2.64-6.86,8.67-4.41,13.69
				c0.25,0.5,0.28,0.93,0.12,1.45c-0.45,1.5-0.84,3.03-1.27,4.58c0.1-0.02,0.17-0.04,0.24-0.06c1.7-0.44,3.39-0.89,5.09-1.33
				c0.11-0.03,0.25-0.01,0.34,0.04c2.54,1.27,5.17,1.53,7.88,0.7C1064.34,580.57,1067.42,574.74,1065.75,569.28z M1057.51,580.79
				c-2.18,0.45-4.24,0.07-6.15-1.06c-0.19-0.11-0.36-0.14-0.57-0.08c-0.97,0.27-1.95,0.52-2.97,0.79c0.27-1.01,0.53-1.98,0.81-2.94
				c0.05-0.19,0.02-0.32-0.08-0.48c-1.01-1.57-1.48-3.3-1.37-5.17c0.16-2.52,1.22-4.61,3.17-6.21c1.71-1.41,3.69-2.04,5.89-1.95
				c3.98,0.17,7.4,3.19,8.07,7.13C1065.1,575.47,1062.14,579.84,1057.51,580.79z"/>
			<path class="st2" d="M1060.91,574.69c-0.73-0.37-1.46-0.72-2.2-1.06c-0.25-0.12-0.36-0.06-0.54,0.17
				c-0.26,0.33-0.52,0.65-0.78,0.97c-0.14,0.17-0.3,0.2-0.51,0.12c-1.55-0.62-2.74-1.65-3.59-3.09c-0.11-0.19-0.09-0.35,0.04-0.52
				c0.22-0.26,0.41-0.54,0.62-0.82c0.14-0.19,0.15-0.38,0.05-0.59c-0.25-0.59-0.5-1.18-0.73-1.77c-0.16-0.41-0.37-0.7-0.83-0.58
				c-0.38-0.04-0.7,0.01-0.97,0.27c-0.83,0.81-1.11,1.79-0.86,2.91c0.18,0.79,0.59,1.46,1.06,2.11c1.47,2.07,3.31,3.64,5.81,4.33
				c0.69,0.19,1.38,0.26,2.05-0.02c1.19-0.5,1.51-1.03,1.53-2.13C1061.07,574.9,1060.99,574.74,1060.91,574.69z"/>
		</g>
	</g>
</g>
</svg>
