<?xml version="1.0" encoding="utf-8"?>
<!-- Generator: Adobe Illustrator 27.3.1, SVG Export Plug-In . SVG Version: 6.00 Build 0)  -->
<svg version="1.1" id="Camada_1" xmlns="http://www.w3.org/2000/svg" xmlns:xlink="http://www.w3.org/1999/xlink" x="0px" y="0px"
	 viewBox="0 0 1943 1152" style="enable-background:new 0 0 1943 1152;" xml:space="preserve">
<style type="text/css">
	.st0{fill:#1A0B2F;}
	.st1{fill:#9753D9;}
	.st2{fill:#3D3370;}
	.st3{opacity:0.74;fill:url(#SVGID_1_);}
	.st4{fill:#230B45;}
	.st5{fill:#5E2F8B;}
	.st6{opacity:0.16;}
	.st7{fill:#FFFFFF;}
</style>
<path class="st0" d="M1665.05,522.15"/>
<g>
	<g>
		<path class="st1" d="M938.24,572.6c0,0-7.48-0.31-16.54,5.37c-3.98,2.49-7.79,8.03-11.12,12.21c-4.28,5.37-7.77,8.5-9.82,0.18
			c-8.81-42.9,28.99-73.13,30.07-73.97c0.02-0.02,0.02-0.02,0.02-0.02L938.24,572.6z"/>
		<path class="st2" d="M910.58,590.16v0.02c-4.28,5.37-7.77,8.5-9.82,0.18c-8.81-42.9,28.99-73.13,30.07-73.97
			C930.06,517.41,901.88,555.3,910.58,590.16z"/>
		<path class="st1" d="M1004.76,572.6c0,0,7.48-0.31,16.54,5.37c3.98,2.49,7.79,8.03,11.12,12.21c4.28,5.37,7.77,8.5,9.82,0.18
			c8.81-42.9-28.99-73.13-30.07-73.97c-0.02-0.02-0.02-0.02-0.02-0.02L1004.76,572.6z"/>
		<linearGradient id="SVGID_1_" gradientUnits="userSpaceOnUse" x1="971.5" y1="580.9904" x2="971.5" y2="777.1031">
			<stop  offset="0" style="stop-color:#FFFFFF"/>
			<stop  offset="0.1591" style="stop-color:#DECDF0;stop-opacity:0.8409"/>
			<stop  offset="0.3841" style="stop-color:#B38CDC;stop-opacity:0.6159"/>
			<stop  offset="0.5889" style="stop-color:#9259CC;stop-opacity:0.4111"/>
			<stop  offset="0.7662" style="stop-color:#7934C0;stop-opacity:0.2338"/>
			<stop  offset="0.9092" style="stop-color:#6A1DBA;stop-opacity:0.0908"/>
			<stop  offset="1" style="stop-color:#6515B7;stop-opacity:0"/>
		</linearGradient>
		<path class="st3" d="M1000.96,588.03l-29.46-3.36l-29.46,3.36c0,0-22.42,82.16-117.7,160.89H971.5h147.17
			C1023.38,670.18,1000.96,588.03,1000.96,588.03z"/>
		<path class="st2" d="M1032.42,590.16v0.02c4.28,5.37,7.77,8.5,9.82,0.18c8.81-42.9-28.99-73.13-30.07-73.97
			C1012.94,517.41,1041.12,555.3,1032.42,590.16z"/>
		<path class="st4" d="M1004.76,576.73v11.68c0,2.29-1.85,4.15-4.15,4.15h-58.22c-2.29,0-4.15-1.85-4.15-4.15v-11.68
			c0-2.28,1.85-4.13,4.15-4.13h58.22c1.92,0,3.55,1.3,4,3.07C1004.71,576.02,1004.76,576.37,1004.76,576.73z"/>
		<path class="st5" d="M1018.98,523.86c0,16.78-1.32,32.78-3.69,47.32c-0.89,5.43-5.55,9.42-11.03,9.48l-18.13,0.26l-45.61,0.63
			c-5.58,0.08-10.41-3.92-11.33-9.45c-2.47-14.78-3.84-31.11-3.84-48.25c0-34.43,12.36-65.52,24.38-87.6
			c4.67-8.59,9.29-15.81,13.11-21.35l6.91-10.51c1.14-1.76,3.71-1.76,4.85,0c0,0,0,0.02,0.02,0.03l6.9,10.47
			c0.47,0.93,6.24,8.72,13.12,21.35C1005.44,456.12,1018.98,487.93,1018.98,523.86z"/>
		<path class="st6" d="M1018.98,523.86c0,16.78-1.32,32.78-3.69,47.32c-0.89,5.43-5.55,9.42-11.03,9.48l-18.13,0.26
			c12.85-90.42-10.94-174.42-11.53-176.49l6.9,10.47c0.47,0.93,6.24,8.72,13.12,21.35C1005.44,456.12,1018.98,487.93,1018.98,523.86
			z"/>
		<circle class="st4" cx="971.5" cy="482.22" r="19.95"/>
		<circle class="st5" cx="971.5" cy="482.22" r="14.63"/>
		<circle class="st7" cx="966.72" cy="476.83" r="2.95"/>
		<circle class="st7" cx="965.66" cy="483.69" r="1.88"/>
		<path class="st4" d="M975.53,599.71h-6.44c-2.29,0-4.17-1.88-4.17-4.17v-73.97c0-2.29,1.88-4.17,4.17-4.17h6.44
			c2.29,0,4.17,1.88,4.17,4.17v73.97C979.7,597.83,977.82,599.71,975.53,599.71z"/>
		<path class="st1" d="M974.3,596.41h-3.97c-1.37,0-2.49-1.12-2.49-2.49v-70.72c0-1.37,1.12-2.49,2.49-2.49h3.97
			c1.37,0,2.49,1.12,2.49,2.49v70.72C976.79,595.29,975.67,596.41,974.3,596.41z"/>
	</g>
	<path class="st2" d="M994.62,436.26h-44.9c4.67-8.59,9.29-15.81,13.11-21.35l6.91-10.51c1.14-1.76,3.71-1.76,4.85,0l6.91,10.51
		C981.97,415.84,987.75,423.63,994.62,436.26z"/>
</g>
</svg>
