<svg width="27" height="22" viewBox="0 0 27 22" fill="none" xmlns="http://www.w3.org/2000/svg">
<path d="M0.51001 7.11016C0.74001 6.58016 1.14002 6.40015 1.71002 6.41015C7.07002 6.42015 5.24004 6.42016 10.6 6.42016C10.71 6.42016 10.83 6.42016 10.97 6.42016C10.97 6.29016 10.97 6.19014 10.97 6.09014C10.97 4.70014 10.97 3.30015 10.97 1.91015C10.97 1.47015 11.11 1.13012 11.52 0.940119C11.94 0.740119 12.3 0.880171 12.63 1.18017C15.96 4.21017 19.29 7.23013 22.61 10.2601C23.18 10.7801 23.18 11.3501 22.61 11.8701C19.28 14.9001 15.94 17.9301 12.6 20.9701C12.28 21.2601 11.92 21.3801 11.51 21.1901C11.11 21.0101 10.96 20.6801 10.96 20.2501C10.96 18.7501 10.96 17.2501 10.96 15.7101C10.83 15.7101 10.71 15.7101 10.59 15.7101C5.23003 15.7101 7.06001 15.7001 1.70001 15.7201C1.13001 15.7201 0.73 15.5401 0.5 15.0201C0.51 12.3701 0.51001 9.74016 0.51001 7.11016Z" fill="#EDEDED"/>
<path d="M23.3599 0H20.8398V2.01001H23.3599C23.9199 2.01001 24.3699 2.46002 24.3699 3.02002V18.9C24.3699 19.45 23.9199 19.91 23.3599 19.91H20.8398V21.92H23.3599C25.0299 21.92 26.3799 20.57 26.3799 18.9V3.02002C26.3799 1.35002 25.0199 0 23.3599 0Z" fill="#EDEDED"/>
</svg>
