<?xml version="1.0" encoding="utf-8"?>
<!-- Generator: Adobe Illustrator 27.3.1, SVG Export Plug-In . SVG Version: 6.00 Build 0)  -->
<svg version="1.1" id="Camada_1" xmlns="http://www.w3.org/2000/svg" xmlns:xlink="http://www.w3.org/1999/xlink" x="0px" y="0px"
	 viewBox="0 0 1943 1152" style="enable-background:new 0 0 1943 1152;" xml:space="preserve">
<style type="text/css">
	.st0{fill:#1A0B2F;}
	.st1{fill-rule:evenodd;clip-rule:evenodd;fill:#EDEDED;}
</style>
<path class="st0" d="M1665.05,522.15"/>
<path class="st1" d="M1002.4,598.34l-30.9,0h-30.9c-1.72-0.24-2.71-1.11-2.98-2.6l0-5.5h-0.36v-0.42h-6.05
	c-0.74-0.08-1.19-0.51-1.36-1.28v-22.3c-0.01-1.09,0.48-1.63,1.48-1.64h6.2v-0.33h0.19v-7.87c0.27-1.67,1.28-2.58,3.02-2.74l30.75,0
	h30.75c1.74,0.16,2.75,1.07,3.02,2.74l0,7.87h0.19v0.33h6.2c1,0,1.49,0.55,1.48,1.64v22.3c-0.16,0.77-0.62,1.2-1.36,1.28h-6.05v0.42
	h-0.36v5.5C1005.12,597.23,1004.12,598.1,1002.4,598.34L1002.4,598.34z M952.48,579.45c2.09,0,3.78,2.18,3.78,4.87
	c0,2.69-1.69,4.87-3.78,4.87s-3.78-2.18-3.78-4.87C948.71,581.63,950.4,579.45,952.48,579.45L952.48,579.45z M990.52,579.45
	c-2.09,0-3.78,2.18-3.78,4.87c0,2.69,1.69,4.87,3.78,4.87c2.09,0,3.78-2.18,3.78-4.87C994.29,581.63,992.6,579.45,990.52,579.45
	L990.52,579.45z"/>
</svg>
