<?xml version="1.0" encoding="utf-8"?>
<!-- Generator: Adobe Illustrator 27.3.1, SVG Export Plug-In . SVG Version: 6.00 Build 0)  -->
<svg version="1.1" id="Camada_1" xmlns="http://www.w3.org/2000/svg" xmlns:xlink="http://www.w3.org/1999/xlink" x="0px" y="0px"
	 viewBox="0 0 1943 1152" style="enable-background:new 0 0 1943 1152;" xml:space="preserve">
<style type="text/css">
	.st0{fill:#1A0B2F;}
	.st1{fill:#772995;}
</style>
<path class="st0" d="M1665.05,522.15"/>
<g>
	<path class="st1" d="M971.54,573.54c-7.45,0-14.91,0-22.36,0c-0.32,0-0.65-0.02-0.96-0.11c-1.34-0.37-1.83-1.02-1.85-2.39
		c-0.02-1.03-0.04-2.06-0.02-3.1c0.01-0.44-0.14-0.64-0.58-0.65c-1.05-0.01-2.11-0.05-3.16-0.03c-1.72,0.04-2.03-0.25-2.03-1.94
		c0-5.07,0-10.13,0-15.2c0-0.21-0.01-0.42,0.02-0.63c0.08-0.63,0.41-0.98,1.05-1c1.19-0.04,2.37-0.03,3.56-0.04
		c0.15,0,0.31,0.01,0.46,0c0.74-0.03,0.77-0.05,0.77-0.8c0-1.61,0-3.21,0-4.82c0-1.33,0.81-2.25,2.15-2.37
		c0.84-0.07,1.68-0.1,2.52-0.1c13.64,0,27.28,0,40.93,0.01c0.78,0,1.57,0.02,2.35,0.09c1.42,0.13,2.25,1.03,2.26,2.46
		c0.02,1.57-0.01,3.13-0.01,4.7c0,0.75,0.06,0.81,0.82,0.82c1.25,0.01,2.49-0.01,3.74,0.03c0.98,0.03,1.24,0.34,1.24,1.32
		c0,5.33,0,10.67,0,16c0,1.04-0.33,1.39-1.36,1.41c-1.17,0.02-2.34,0.03-3.51,0c-0.53-0.01-0.8,0.19-0.8,0.72
		c-0.02,1.01-0.05,2.03-0.04,3.04c0.01,1.55-0.85,2.48-2.41,2.53c-0.96,0.03-1.92,0.01-2.87,0.01
		C984.8,573.53,978.17,573.53,971.54,573.54C971.54,573.53,971.54,573.54,971.54,573.54z M960.16,562.98
		c0.03-0.84-0.3-1.72-0.92-2.48c-0.88-1.07-2.28-1.21-3.3-0.36c-1.66,1.39-1.67,4.52-0.01,5.92c0.98,0.83,2.23,0.8,3.14-0.13
		C959.82,565.17,960.16,564.22,960.16,562.98z M988.35,562.93c0.03-0.64-0.2-1.45-0.7-2.18c-0.86-1.27-2.38-1.54-3.48-0.6
		c-1.75,1.49-1.7,4.61,0.11,6.03c0.85,0.67,1.9,0.67,2.75-0.02C987.97,565.39,988.34,564.36,988.35,562.93z"/>
	<g>
		<path class="st1" d="M1017.29,611.59c-3.41,0-6.82,0.02-10.23-0.01c-0.78-0.01-1.6-0.08-2.34-0.3c-1.98-0.58-2.84-1.93-2.93-3.81
			c-0.11-2.25-0.05-4.51-0.06-6.76c-0.01-3.05,0-6.09,0-9.14c0-1.04,0.18-2.04,0.77-2.93c0.78-1.19,1.93-1.74,3.31-1.87
			c0.75-0.07,1.5-0.09,2.25-0.09c6.31-0.01,12.62-0.01,18.94,0.01c0.76,0,1.54,0.07,2.26,0.29c1.86,0.55,2.94,1.96,2.99,3.9
			c0.06,2.79,0.05,5.57,0.06,8.36c0.01,2.66,0,5.33,0,7.99c0,0.74-0.08,1.47-0.42,2.15c-0.58,1.16-1.61,1.71-2.79,2.05
			c-0.39,0.11-0.81,0.16-1.21,0.16C1024.35,611.6,1020.82,611.6,1017.29,611.59C1017.29,611.6,1017.29,611.6,1017.29,611.59z
			 M1007.76,606.67c6.2,0,12.34,0,18.48,0c0-5.12,0-10.21,0-15.32c-0.12,0-0.22,0-0.31,0c-5.92,0-11.83,0-17.75-0.01
			c-0.36,0-0.42,0.13-0.42,0.45c0.01,4.24,0.01,8.47,0.01,12.71C1007.76,605.2,1007.76,605.91,1007.76,606.67z"/>
		<path class="st1" d="M958.04,586.63c0.22-0.01,0.34-0.03,0.46-0.03c1.88,0,3.75,0,5.63-0.01c0.38,0,0.65,0.09,0.85,0.43
			c0.99,1.71,2.04,3.4,2.98,5.14c2.12,3.93,4.19,7.88,6.28,11.83c0.04,0.08,0.1,0.16,0.21,0.34c0.05-0.11,0.07-0.17,0.11-0.23
			c1.38-2.54,2.75-5.09,4.15-7.63c1.4-2.53,2.82-5.05,4.25-7.57c0.36-0.63,0.77-1.23,1.15-1.84c0.2-0.33,0.46-0.47,0.88-0.46
			c1.55,0.03,3.09,0.02,4.64,0.02c0.13,0,0.27,0,0.5,0c-0.11,0.26-0.18,0.46-0.28,0.64c-1.87,3.53-3.73,7.08-5.64,10.59
			c-1.96,3.61-3.95,7.2-5.96,10.79c-0.48,0.86-1.04,1.67-1.56,2.5c-0.21,0.33-0.47,0.48-0.88,0.47c-0.93-0.03-1.86-0.04-2.79,0
			c-0.49,0.02-0.76-0.2-0.98-0.59c-0.77-1.35-1.56-2.69-2.34-4.04c-3.17-5.49-6.33-10.98-9.49-16.46c-0.65-1.12-1.29-2.25-1.93-3.38
			C958.2,587,958.14,586.86,958.04,586.63z"/>
		<path class="st1" d="M928.03,606.68c-0.21,0.54-0.32,1-0.54,1.4c-0.56,1.03-1.17,2.04-1.76,3.05c-0.15,0.25-0.34,0.39-0.66,0.39
			c-4.44-0.01-8.88-0.01-13.31-0.01c-0.34,0-0.68,0-1.04,0c-0.01-0.2-0.03-0.32-0.03-0.44c0-7.87,0.01-15.74,0.01-23.61
			c0-0.71,0.03-0.79,0.76-0.8c1.57-0.02,3.15-0.01,4.72-0.02c0.34,0,0.36,0.18,0.36,0.45c0,5.08,0,10.17,0,15.25
			c0,1.3,0.01,2.6-0.01,3.89c-0.01,0.36,0.09,0.47,0.46,0.47c3.25-0.01,6.49-0.01,9.74-0.01
			C927.12,606.68,927.51,606.68,928.03,606.68z"/>
		<path class="st1" d="M942.02,598.89c0-3.96,0-7.92-0.01-11.88c0-0.33,0.11-0.44,0.42-0.43c1.79,0.01,3.59,0.01,5.38,0.01
			c0.26,0,0.31,0.13,0.31,0.36c-0.01,1.93-0.01,3.85-0.01,5.78c-0.01,5.94-0.02,11.88-0.03,17.82c0,0.88-0.18,1.06-1.05,1.06
			c-1.46,0-2.93-0.01-4.39,0.01c-0.38,0.01-0.53-0.15-0.56-0.47c-0.03-0.24-0.04-0.49-0.04-0.73c0-3.84,0-7.67,0-11.51
			C942.03,598.89,942.02,598.89,942.02,598.89z"/>
	</g>
</g>
</svg>
