<svg width="123" height="72" viewBox="0 0 123 72" fill="none" xmlns="http://www.w3.org/2000/svg">
<path d="M61.54 33.54C54.09 33.54 46.63 33.54 39.18 33.54C38.86 33.54 38.53 33.52 38.22 33.43C36.88 33.06 36.39 32.41 36.37 31.04C36.35 30.01 36.33 28.98 36.35 27.94C36.36 27.5 36.21 27.3 35.77 27.29C34.72 27.28 33.66 27.24 32.61 27.26C30.89 27.3 30.58 27.01 30.58 25.32C30.58 20.25 30.58 15.19 30.58 10.12C30.58 9.91 30.57 9.69999 30.6 9.48999C30.68 8.85999 31.0101 8.50999 31.6501 8.48999C32.8401 8.44999 34.02 8.46001 35.21 8.45001C35.36 8.45001 35.52 8.46001 35.67 8.45001C36.41 8.42001 36.44 8.40002 36.44 7.65002C36.44 6.04002 36.44 4.44002 36.44 2.83002C36.44 1.50002 37.2501 0.580022 38.5901 0.460022C39.4301 0.390022 40.27 0.359985 41.11 0.359985C54.75 0.359985 68.39 0.359995 82.04 0.369995C82.82 0.369995 83.61 0.390022 84.39 0.460022C85.81 0.590022 86.6401 1.48998 86.6501 2.91998C86.6701 4.48998 86.64 6.05 86.64 7.62C86.64 8.37 86.7 8.43 87.46 8.44C88.71 8.45 89.95 8.42997 91.2 8.46997C92.18 8.49997 92.44 8.80998 92.44 9.78998C92.44 15.12 92.44 20.46 92.44 25.79C92.44 26.83 92.11 27.18 91.08 27.2C89.91 27.22 88.74 27.23 87.57 27.2C87.04 27.19 86.77 27.39 86.77 27.92C86.75 28.93 86.72 29.95 86.73 30.96C86.74 32.51 85.88 33.44 84.32 33.49C83.36 33.52 82.4 33.5 81.45 33.5C74.8 33.53 68.17 33.53 61.54 33.54ZM50.16 22.98C50.19 22.14 49.86 21.26 49.24 20.5C48.36 19.43 46.96 19.29 45.94 20.14C44.28 21.53 44.27 24.66 45.93 26.06C46.91 26.89 48.16 26.86 49.07 25.93C49.82 25.17 50.16 24.22 50.16 22.98ZM78.35 22.93C78.38 22.29 78.1501 21.48 77.6501 20.75C76.7901 19.48 75.27 19.21 74.17 20.15C72.42 21.64 72.4701 24.76 74.2801 26.18C75.1301 26.85 76.1801 26.85 77.0301 26.16C77.9701 25.39 78.34 24.36 78.35 22.93Z" fill="#772995"/>
<path d="M107.29 71.59C103.88 71.59 100.47 71.61 97.06 71.58C96.28 71.57 95.46 71.5 94.72 71.28C92.74 70.7 91.88 69.3499 91.79 67.4699C91.68 65.2199 91.74 62.96 91.73 60.71C91.72 57.66 91.73 54.62 91.73 51.57C91.73 50.53 91.91 49.53 92.5 48.64C93.28 47.45 94.43 46.9 95.81 46.77C96.56 46.7 97.31 46.68 98.06 46.68C104.37 46.67 110.68 46.67 117 46.69C117.76 46.69 118.54 46.76 119.26 46.98C121.12 47.53 122.2 48.94 122.25 50.88C122.31 53.67 122.3 56.45 122.31 59.24C122.32 61.9 122.31 64.57 122.31 67.23C122.31 67.97 122.23 68.7 121.89 69.38C121.31 70.54 120.28 71.09 119.1 71.43C118.71 71.54 118.29 71.59 117.89 71.59C114.35 71.6 110.82 71.6 107.29 71.59C107.29 71.6 107.29 71.6 107.29 71.59ZM97.76 66.67C103.96 66.67 110.1 66.67 116.24 66.67C116.24 61.55 116.24 56.4599 116.24 51.3499C116.12 51.3499 116.02 51.3499 115.93 51.3499C110.01 51.3499 104.1 51.35 98.18 51.34C97.82 51.34 97.76 51.47 97.76 51.79C97.77 56.03 97.77 60.26 97.77 64.5C97.76 65.2 97.76 65.91 97.76 66.67Z" fill="#772995"/>
<path d="M48.04 46.63C48.26 46.62 48.38 46.6 48.5 46.6C50.38 46.6 52.25 46.6 54.13 46.59C54.51 46.59 54.78 46.68 54.98 47.02C55.97 48.73 57.02 50.42 57.96 52.16C60.08 56.09 62.15 60.04 64.24 63.99C64.28 64.07 64.34 64.15 64.45 64.33C64.5 64.22 64.52 64.16 64.56 64.1C65.94 61.56 67.31 59.01 68.71 56.47C70.11 53.94 71.53 51.42 72.96 48.9C73.32 48.27 73.73 47.67 74.11 47.06C74.31 46.73 74.57 46.59 74.99 46.6C76.54 46.63 78.08 46.62 79.63 46.62C79.76 46.62 79.9 46.62 80.13 46.62C80.02 46.88 79.95 47.08 79.85 47.26C77.98 50.79 76.12 54.34 74.21 57.85C72.25 61.46 70.26 65.05 68.25 68.64C67.77 69.5 67.21 70.31 66.69 71.14C66.48 71.47 66.22 71.62 65.81 71.61C64.88 71.58 63.95 71.57 63.02 71.61C62.53 71.63 62.26 71.41 62.04 71.02C61.27 69.67 60.48 68.33 59.7 66.98C56.53 61.49 53.37 56 50.21 50.52C49.56 49.4 48.92 48.27 48.28 47.14C48.2 47 48.14 46.86 48.04 46.63Z" fill="#772995"/>
<path d="M18.03 66.68C17.82 67.22 17.71 67.68 17.49 68.08C16.93 69.11 16.32 70.12 15.73 71.13C15.58 71.38 15.39 71.52 15.07 71.52C10.63 71.51 6.19001 71.51 1.76001 71.51C1.42001 71.51 1.07997 71.51 0.719971 71.51C0.709971 71.31 0.690002 71.19 0.690002 71.07C0.690002 63.2 0.700012 55.33 0.700012 47.46C0.700012 46.75 0.730022 46.67 1.46002 46.66C3.03002 46.64 4.60999 46.65 6.17999 46.64C6.51999 46.64 6.53998 46.82 6.53998 47.09C6.53998 52.17 6.53998 57.26 6.53998 62.34C6.53998 63.64 6.55003 64.94 6.53003 66.23C6.52003 66.59 6.61999 66.7 6.98999 66.7C10.24 66.69 13.48 66.69 16.73 66.69C17.12 66.68 17.51 66.68 18.03 66.68Z" fill="#772995"/>
<path d="M32.02 58.89C32.02 54.93 32.02 50.97 32.01 47.01C32.01 46.68 32.12 46.57 32.43 46.58C34.22 46.59 36.02 46.59 37.81 46.59C38.07 46.59 38.12 46.72 38.12 46.95C38.11 48.88 38.11 50.8 38.11 52.73C38.1 58.67 38.09 64.61 38.08 70.55C38.08 71.43 37.9 71.61 37.03 71.61C35.57 71.61 34.1 71.6 32.64 71.62C32.26 71.63 32.11 71.47 32.08 71.15C32.05 70.91 32.04 70.66 32.04 70.42C32.04 66.58 32.04 62.75 32.04 58.91C32.03 58.89 32.02 58.89 32.02 58.89Z" fill="#772995"/>
</svg>
