<svg width="22" height="22" viewBox="0 0 22 22" fill="none" xmlns="http://www.w3.org/2000/svg">
<path d="M20.7504 8.28014C18.8404 2.02014 11.6404 -0.939903 5.88037 2.1701C0.980371 4.8101 -0.979663 10.8401 1.47034 15.8601C1.72034 16.3601 1.75033 16.7901 1.59033 17.3101C1.14033 18.8101 0.750313 20.3401 0.320312 21.8901C0.420313 21.8701 0.490425 21.8501 0.560425 21.8301C2.26042 21.3901 3.95039 20.9401 5.65039 20.5001C5.76039 20.4701 5.90036 20.4901 5.99036 20.5401C8.53036 21.8101 11.1604 22.0701 13.8704 21.2401C19.3404 19.5701 22.4204 13.7401 20.7504 8.28014ZM12.5104 19.7901C10.3304 20.2401 8.27035 19.8601 6.36035 18.7301C6.17035 18.6201 6.00041 18.5901 5.79041 18.6501C4.82041 18.9201 3.84031 19.1701 2.82031 19.4401C3.09031 18.4301 3.35037 17.4601 3.63037 16.5001C3.68037 16.3101 3.65042 16.1801 3.55042 16.0201C2.54042 14.4501 2.07042 12.7201 2.18042 10.8501C2.34042 8.33009 3.40034 6.24013 5.35034 4.64013C7.06034 3.23013 9.04036 2.60012 11.2404 2.69012C15.2204 2.86012 18.6404 5.88012 19.3104 9.82012C20.1004 14.4701 17.1404 18.8401 12.5104 19.7901Z" fill="#EDEDED"/>
<path d="M15.9107 13.69C15.1807 13.32 14.4506 12.97 13.7106 12.63C13.4606 12.51 13.3507 12.57 13.1707 12.8C12.9107 13.13 12.6507 13.45 12.3907 13.77C12.2507 13.94 12.0907 13.97 11.8807 13.89C10.3307 13.27 9.1407 12.24 8.2907 10.8C8.1807 10.61 8.20062 10.45 8.33062 10.28C8.55062 10.02 8.74061 9.74001 8.95061 9.46001C9.09061 9.27001 9.10066 9.07998 9.00066 8.86998C8.75066 8.27998 8.50068 7.68996 8.27068 7.09996C8.11068 6.68996 7.9006 6.40001 7.4406 6.52001C7.0606 6.48001 6.74063 6.52997 6.47063 6.78997C5.64063 7.59997 5.36065 8.58 5.61065 9.7C5.79065 10.49 6.2007 11.16 6.6707 11.81C8.1407 13.88 9.98064 15.45 12.4806 16.14C13.1706 16.33 13.8607 16.4 14.5307 16.12C15.7207 15.62 16.0407 15.09 16.0607 13.99C16.0707 13.9 15.9907 13.74 15.9107 13.69Z" fill="#EDEDED"/>
</svg>
