<svg width="230" height="230" viewBox="0 0 230 230" fill="none" xmlns="http://www.w3.org/2000/svg">
<path d="M220.9 229.2H8.29999C3.69999 229.2 0 225.5 0 220.9V8.30002C0 3.70002 3.69999 0 8.29999 0H220.9C225.5 0 229.2 3.70002 229.2 8.30002V220.9C229.2 225.5 225.5 229.2 220.9 229.2Z" fill="white"/>
<path d="M25.2993 18.7H18.6992V25.3H25.2993V18.7Z" fill="black"/>
<path d="M31.8988 18.7H25.2988V25.3H31.8988V18.7Z" fill="black"/>
<path d="M38.4985 18.7H31.8984V25.3H38.4985V18.7Z" fill="black"/>
<path d="M45.1 18.7H38.5V25.3H45.1V18.7Z" fill="black"/>
<path d="M51.6996 18.7H45.0996V25.3H51.6996V18.7Z" fill="black"/>
<path d="M58.2993 18.7H51.6992V25.3H58.2993V18.7Z" fill="black"/>
<path d="M64.9985 18.7H58.3984V25.3H64.9985V18.7Z" fill="black"/>
<path d="M91.3988 18.7H84.7988V25.3H91.3988V18.7Z" fill="black"/>
<path d="M124.498 18.7H117.898V25.3H124.498V18.7Z" fill="black"/>
<path d="M131.1 18.7H124.5V25.3H131.1V18.7Z" fill="black"/>
<path d="M137.7 18.7H131.1V25.3H137.7V18.7Z" fill="black"/>
<path d="M144.399 18.7H137.799V25.3H144.399V18.7Z" fill="black"/>
<path d="M150.998 18.7H144.398V25.3H150.998V18.7Z" fill="black"/>
<path d="M170.799 18.7H164.199V25.3H170.799V18.7Z" fill="black"/>
<path d="M177.399 18.7H170.799V25.3H177.399V18.7Z" fill="black"/>
<path d="M184.1 18.7H177.5V25.3H184.1V18.7Z" fill="black"/>
<path d="M190.7 18.7H184.1V25.3H190.7V18.7Z" fill="black"/>
<path d="M197.299 18.7H190.699V25.3H197.299V18.7Z" fill="black"/>
<path d="M203.899 18.7H197.299V25.3H203.899V18.7Z" fill="black"/>
<path d="M210.498 18.7H203.898V25.3H210.498V18.7Z" fill="black"/>
<path d="M25.2993 25.3H18.6992V31.9H25.2993V25.3Z" fill="black"/>
<path d="M64.9985 25.3H58.3984V31.9H64.9985V25.3Z" fill="black"/>
<path d="M84.7993 25.3H78.1992V31.9H84.7993V25.3Z" fill="black"/>
<path d="M111.299 25.3H104.699V31.9H111.299V25.3Z" fill="black"/>
<path d="M117.899 25.3H111.299V31.9H117.899V25.3Z" fill="black"/>
<path d="M124.498 25.3H117.898V31.9H124.498V25.3Z" fill="black"/>
<path d="M131.1 25.3H124.5V31.9H131.1V25.3Z" fill="black"/>
<path d="M144.399 25.3H137.799V31.9H144.399V25.3Z" fill="black"/>
<path d="M150.998 25.3H144.398V31.9H150.998V25.3Z" fill="black"/>
<path d="M157.6 25.3H151V31.9H157.6V25.3Z" fill="black"/>
<path d="M170.799 25.3H164.199V31.9H170.799V25.3Z" fill="black"/>
<path d="M210.498 25.3H203.898V31.9H210.498V25.3Z" fill="black"/>
<path d="M25.2993 31.8999H18.6992V38.4999H25.2993V31.8999Z" fill="black"/>
<path d="M38.4985 31.8999H31.8984V38.4999H38.4985V31.8999Z" fill="black"/>
<path d="M45.1 31.8999H38.5V38.4999H45.1V31.8999Z" fill="black"/>
<path d="M51.6996 31.8999H45.0996V38.4999H51.6996V31.8999Z" fill="black"/>
<path d="M64.9985 31.8999H58.3984V38.4999H64.9985V31.8999Z" fill="black"/>
<path d="M78.1996 31.8999H71.5996V38.4999H78.1996V31.8999Z" fill="black"/>
<path d="M97.9985 31.8999H91.3984V38.4999H97.9985V31.8999Z" fill="black"/>
<path d="M150.998 31.8999H144.398V38.4999H150.998V31.8999Z" fill="black"/>
<path d="M157.6 31.8999H151V38.4999H157.6V31.8999Z" fill="black"/>
<path d="M170.799 31.8999H164.199V38.4999H170.799V31.8999Z" fill="black"/>
<path d="M184.1 31.8999H177.5V38.4999H184.1V31.8999Z" fill="black"/>
<path d="M190.7 31.8999H184.1V38.4999H190.7V31.8999Z" fill="black"/>
<path d="M197.299 31.8999H190.699V38.4999H197.299V31.8999Z" fill="black"/>
<path d="M210.498 31.8999H203.898V38.4999H210.498V31.8999Z" fill="black"/>
<path d="M25.2993 38.5H18.6992V45.1H25.2993V38.5Z" fill="black"/>
<path d="M38.4985 38.5H31.8984V45.1H38.4985V38.5Z" fill="black"/>
<path d="M45.1 38.5H38.5V45.1H45.1V38.5Z" fill="black"/>
<path d="M51.6996 38.5H45.0996V45.1H51.6996V38.5Z" fill="black"/>
<path d="M64.9985 38.5H58.3984V45.1H64.9985V38.5Z" fill="black"/>
<path d="M84.7993 38.5H78.1992V45.1H84.7993V38.5Z" fill="black"/>
<path d="M131.1 38.5H124.5V45.1H131.1V38.5Z" fill="black"/>
<path d="M144.399 38.5H137.799V45.1H144.399V38.5Z" fill="black"/>
<path d="M150.998 38.5H144.398V45.1H150.998V38.5Z" fill="black"/>
<path d="M170.799 38.5H164.199V45.1H170.799V38.5Z" fill="black"/>
<path d="M184.1 38.5H177.5V45.1H184.1V38.5Z" fill="black"/>
<path d="M190.7 38.5H184.1V45.1H190.7V38.5Z" fill="black"/>
<path d="M197.299 38.5H190.699V45.1H197.299V38.5Z" fill="black"/>
<path d="M210.498 38.5H203.898V45.1H210.498V38.5Z" fill="black"/>
<path d="M25.2993 45.0999H18.6992V51.6998H25.2993V45.0999Z" fill="black"/>
<path d="M38.4985 45.0999H31.8984V51.6998H38.4985V45.0999Z" fill="black"/>
<path d="M45.1 45.0999H38.5V51.6998H45.1V45.0999Z" fill="black"/>
<path d="M51.6996 45.0999H45.0996V51.6998H51.6996V45.0999Z" fill="black"/>
<path d="M64.9985 45.0999H58.3984V51.6998H64.9985V45.0999Z" fill="black"/>
<path d="M84.7993 45.0999H78.1992V51.6998H84.7993V45.0999Z" fill="black"/>
<path d="M104.7 45.0999H98.0996V51.6998H104.7V45.0999Z" fill="black"/>
<path d="M124.498 45.0999H117.898V51.6998H124.498V45.0999Z" fill="black"/>
<path d="M131.1 45.0999H124.5V51.6998H131.1V45.0999Z" fill="black"/>
<path d="M137.7 45.0999H131.1V51.6998H137.7V45.0999Z" fill="black"/>
<path d="M144.399 45.0999H137.799V51.6998H144.399V45.0999Z" fill="black"/>
<path d="M150.998 45.0999H144.398V51.6998H150.998V45.0999Z" fill="black"/>
<path d="M170.799 45.0999H164.199V51.6998H170.799V45.0999Z" fill="black"/>
<path d="M184.1 45.0999H177.5V51.6998H184.1V45.0999Z" fill="black"/>
<path d="M190.7 45.0999H184.1V51.6998H190.7V45.0999Z" fill="black"/>
<path d="M197.299 45.0999H190.699V51.6998H197.299V45.0999Z" fill="black"/>
<path d="M210.498 45.0999H203.898V51.6998H210.498V45.0999Z" fill="black"/>
<path d="M25.2993 51.7H18.6992V58.3H25.2993V51.7Z" fill="black"/>
<path d="M64.9985 51.7H58.3984V58.3H64.9985V51.7Z" fill="black"/>
<path d="M91.3988 51.7H84.7988V58.3H91.3988V51.7Z" fill="black"/>
<path d="M97.9985 51.7H91.3984V58.3H97.9985V51.7Z" fill="black"/>
<path d="M111.299 51.7H104.699V58.3H111.299V51.7Z" fill="black"/>
<path d="M117.899 51.7H111.299V58.3H117.899V51.7Z" fill="black"/>
<path d="M124.498 51.7H117.898V58.3H124.498V51.7Z" fill="black"/>
<path d="M131.1 51.7H124.5V58.3H131.1V51.7Z" fill="black"/>
<path d="M137.7 51.7H131.1V58.3H137.7V51.7Z" fill="black"/>
<path d="M144.399 51.7H137.799V58.3H144.399V51.7Z" fill="black"/>
<path d="M150.998 51.7H144.398V58.3H150.998V51.7Z" fill="black"/>
<path d="M170.799 51.7H164.199V58.3H170.799V51.7Z" fill="black"/>
<path d="M210.498 51.7H203.898V58.3H210.498V51.7Z" fill="black"/>
<path d="M25.2993 58.3999H18.6992V64.9999H25.2993V58.3999Z" fill="black"/>
<path d="M31.8988 58.3999H25.2988V64.9999H31.8988V58.3999Z" fill="black"/>
<path d="M38.4985 58.3999H31.8984V64.9999H38.4985V58.3999Z" fill="black"/>
<path d="M45.1 58.3999H38.5V64.9999H45.1V58.3999Z" fill="black"/>
<path d="M51.6996 58.3999H45.0996V64.9999H51.6996V58.3999Z" fill="black"/>
<path d="M58.2993 58.3999H51.6992V64.9999H58.2993V58.3999Z" fill="black"/>
<path d="M64.9985 58.3999H58.3984V64.9999H64.9985V58.3999Z" fill="black"/>
<path d="M78.1996 58.3999H71.5996V64.9999H78.1996V58.3999Z" fill="black"/>
<path d="M91.3988 58.3999H84.7988V64.9999H91.3988V58.3999Z" fill="black"/>
<path d="M104.7 58.3999H98.0996V64.9999H104.7V58.3999Z" fill="black"/>
<path d="M117.899 58.3999H111.299V64.9999H117.899V58.3999Z" fill="black"/>
<path d="M131.1 58.3999H124.5V64.9999H131.1V58.3999Z" fill="black"/>
<path d="M144.399 58.3999H137.799V64.9999H144.399V58.3999Z" fill="black"/>
<path d="M157.6 58.3999H151V64.9999H157.6V58.3999Z" fill="black"/>
<path d="M170.799 58.3999H164.199V64.9999H170.799V58.3999Z" fill="black"/>
<path d="M177.399 58.3999H170.799V64.9999H177.399V58.3999Z" fill="black"/>
<path d="M184.1 58.3999H177.5V64.9999H184.1V58.3999Z" fill="black"/>
<path d="M190.7 58.3999H184.1V64.9999H190.7V58.3999Z" fill="black"/>
<path d="M197.299 58.3999H190.699V64.9999H197.299V58.3999Z" fill="black"/>
<path d="M203.899 58.3999H197.299V64.9999H203.899V58.3999Z" fill="black"/>
<path d="M210.498 58.3999H203.898V64.9999H210.498V58.3999Z" fill="black"/>
<path d="M78.1996 65H71.5996V71.6H78.1996V65Z" fill="black"/>
<path d="M97.9985 65H91.3984V71.6H97.9985V65Z" fill="black"/>
<path d="M104.7 65H98.0996V71.6H104.7V65Z" fill="black"/>
<path d="M111.299 65H104.699V71.6H111.299V65Z" fill="black"/>
<path d="M117.899 65H111.299V71.6H117.899V65Z" fill="black"/>
<path d="M124.498 65H117.898V71.6H124.498V65Z" fill="black"/>
<path d="M131.1 65H124.5V71.6H131.1V65Z" fill="black"/>
<path d="M137.7 65H131.1V71.6H137.7V65Z" fill="black"/>
<path d="M144.399 65H137.799V71.6H144.399V65Z" fill="black"/>
<path d="M157.6 65H151V71.6H157.6V65Z" fill="black"/>
<path d="M25.2993 71.5999H18.6992V78.1998H25.2993V71.5999Z" fill="black"/>
<path d="M31.8988 71.5999H25.2988V78.1998H31.8988V71.5999Z" fill="black"/>
<path d="M38.4985 71.5999H31.8984V78.1998H38.4985V71.5999Z" fill="black"/>
<path d="M51.6996 71.5999H45.0996V78.1998H51.6996V71.5999Z" fill="black"/>
<path d="M58.2993 71.5999H51.6992V78.1998H58.2993V71.5999Z" fill="black"/>
<path d="M64.9985 71.5999H58.3984V78.1998H64.9985V71.5999Z" fill="black"/>
<path d="M71.6 71.5999H65V78.1998H71.6V71.5999Z" fill="black"/>
<path d="M78.1996 71.5999H71.5996V78.1998H78.1996V71.5999Z" fill="black"/>
<path d="M111.299 71.5999H104.699V78.1998H111.299V71.5999Z" fill="black"/>
<path d="M117.899 71.5999H111.299V78.1998H117.899V71.5999Z" fill="black"/>
<path d="M131.1 71.5999H124.5V78.1998H131.1V71.5999Z" fill="black"/>
<path d="M137.7 71.5999H131.1V78.1998H137.7V71.5999Z" fill="black"/>
<path d="M144.399 71.5999H137.799V78.1998H144.399V71.5999Z" fill="black"/>
<path d="M150.998 71.5999H144.398V78.1998H150.998V71.5999Z" fill="black"/>
<path d="M157.6 71.5999H151V78.1998H157.6V71.5999Z" fill="black"/>
<path d="M164.2 71.5999H157.6V78.1998H164.2V71.5999Z" fill="black"/>
<path d="M170.799 71.5999H164.199V78.1998H170.799V71.5999Z" fill="black"/>
<path d="M197.299 71.5999H190.699V78.1998H197.299V71.5999Z" fill="black"/>
<path d="M25.2993 78.2H18.6992V84.8H25.2993V78.2Z" fill="black"/>
<path d="M31.8988 78.2H25.2988V84.8H31.8988V78.2Z" fill="black"/>
<path d="M45.1 78.2H38.5V84.8H45.1V78.2Z" fill="black"/>
<path d="M51.6996 78.2H45.0996V84.8H51.6996V78.2Z" fill="black"/>
<path d="M71.6 78.2H65V84.8H71.6V78.2Z" fill="black"/>
<path d="M84.7993 78.2H78.1992V84.8H84.7993V78.2Z" fill="black"/>
<path d="M111.299 78.2H104.699V84.8H111.299V78.2Z" fill="black"/>
<path d="M117.899 78.2H111.299V84.8H117.899V78.2Z" fill="black"/>
<path d="M131.1 78.2H124.5V84.8H131.1V78.2Z" fill="black"/>
<path d="M170.799 78.2H164.199V84.8H170.799V78.2Z" fill="black"/>
<path d="M190.7 78.2H184.1V84.8H190.7V78.2Z" fill="black"/>
<path d="M210.498 78.2H203.898V84.8H210.498V78.2Z" fill="black"/>
<path d="M31.8988 84.8H25.2988V91.4H31.8988V84.8Z" fill="black"/>
<path d="M45.1 84.8H38.5V91.4H45.1V84.8Z" fill="black"/>
<path d="M51.6996 84.8H45.0996V91.4H51.6996V84.8Z" fill="black"/>
<path d="M64.9985 84.8H58.3984V91.4H64.9985V84.8Z" fill="black"/>
<path d="M71.6 84.8H65V91.4H71.6V84.8Z" fill="black"/>
<path d="M78.1996 84.8H71.5996V91.4H78.1996V84.8Z" fill="black"/>
<path d="M91.3988 84.8H84.7988V91.4H91.3988V84.8Z" fill="black"/>
<path d="M104.7 84.8H98.0996V91.4H104.7V84.8Z" fill="black"/>
<path d="M117.899 84.8H111.299V91.4H117.899V84.8Z" fill="black"/>
<path d="M131.1 84.8H124.5V91.4H131.1V84.8Z" fill="black"/>
<path d="M137.7 84.8H131.1V91.4H137.7V84.8Z" fill="black"/>
<path d="M157.6 84.8H151V91.4H157.6V84.8Z" fill="black"/>
<path d="M164.2 84.8H157.6V91.4H164.2V84.8Z" fill="black"/>
<path d="M170.799 84.8H164.199V91.4H170.799V84.8Z" fill="black"/>
<path d="M197.299 84.8H190.699V91.4H197.299V84.8Z" fill="black"/>
<path d="M203.899 84.8H197.299V91.4H203.899V84.8Z" fill="black"/>
<path d="M210.498 84.8H203.898V91.4H210.498V84.8Z" fill="black"/>
<path d="M38.4985 91.3999H31.8984V97.9999H38.4985V91.3999Z" fill="black"/>
<path d="M51.6996 91.3999H45.0996V97.9999H51.6996V91.3999Z" fill="black"/>
<path d="M71.6 91.3999H65V97.9999H71.6V91.3999Z" fill="black"/>
<path d="M78.1996 91.3999H71.5996V97.9999H78.1996V91.3999Z" fill="black"/>
<path d="M84.7993 91.3999H78.1992V97.9999H84.7993V91.3999Z" fill="black"/>
<path d="M91.3988 91.3999H84.7988V97.9999H91.3988V91.3999Z" fill="black"/>
<path d="M97.9985 91.3999H91.3984V97.9999H97.9985V91.3999Z" fill="black"/>
<path d="M111.299 91.3999H104.699V97.9999H111.299V91.3999Z" fill="black"/>
<path d="M117.899 91.3999H111.299V97.9999H117.899V91.3999Z" fill="black"/>
<path d="M131.1 91.3999H124.5V97.9999H131.1V91.3999Z" fill="black"/>
<path d="M137.7 91.3999H131.1V97.9999H137.7V91.3999Z" fill="black"/>
<path d="M144.399 91.3999H137.799V97.9999H144.399V91.3999Z" fill="black"/>
<path d="M150.998 91.3999H144.398V97.9999H150.998V91.3999Z" fill="black"/>
<path d="M170.799 91.3999H164.199V97.9999H170.799V91.3999Z" fill="black"/>
<path d="M184.1 91.3999H177.5V97.9999H184.1V91.3999Z" fill="black"/>
<path d="M203.899 91.3999H197.299V97.9999H203.899V91.3999Z" fill="black"/>
<path d="M25.2993 98.0999H18.6992V104.7H25.2993V98.0999Z" fill="black"/>
<path d="M31.8988 98.0999H25.2988V104.7H31.8988V98.0999Z" fill="black"/>
<path d="M38.4985 98.0999H31.8984V104.7H38.4985V98.0999Z" fill="black"/>
<path d="M45.1 98.0999H38.5V104.7H45.1V98.0999Z" fill="black"/>
<path d="M51.6996 98.0999H45.0996V104.7H51.6996V98.0999Z" fill="black"/>
<path d="M58.2993 98.0999H51.6992V104.7H58.2993V98.0999Z" fill="black"/>
<path d="M64.9985 98.0999H58.3984V104.7H64.9985V98.0999Z" fill="black"/>
<path d="M91.3988 98.0999H84.7988V104.7H91.3988V98.0999Z" fill="black"/>
<path d="M111.299 98.0999H104.699V104.7H111.299V98.0999Z" fill="black"/>
<path d="M117.899 98.0999H111.299V104.7H117.899V98.0999Z" fill="black"/>
<path d="M124.498 98.0999H117.898V104.7H124.498V98.0999Z" fill="black"/>
<path d="M131.1 98.0999H124.5V104.7H131.1V98.0999Z" fill="black"/>
<path d="M137.7 98.0999H131.1V104.7H137.7V98.0999Z" fill="black"/>
<path d="M164.2 98.0999H157.6V104.7H164.2V98.0999Z" fill="black"/>
<path d="M170.799 98.0999H164.199V104.7H170.799V98.0999Z" fill="black"/>
<path d="M190.7 98.0999H184.1V104.7H190.7V98.0999Z" fill="black"/>
<path d="M203.899 98.0999H197.299V104.7H203.899V98.0999Z" fill="black"/>
<path d="M210.498 98.0999H203.898V104.7H210.498V98.0999Z" fill="black"/>
<path d="M31.8988 104.7H25.2988V111.3H31.8988V104.7Z" fill="black"/>
<path d="M71.6 104.7H65V111.3H71.6V104.7Z" fill="black"/>
<path d="M78.1996 104.7H71.5996V111.3H78.1996V104.7Z" fill="black"/>
<path d="M91.3988 104.7H84.7988V111.3H91.3988V104.7Z" fill="black"/>
<path d="M111.299 104.7H104.699V111.3H111.299V104.7Z" fill="black"/>
<path d="M117.899 104.7H111.299V111.3H117.899V104.7Z" fill="black"/>
<path d="M131.1 104.7H124.5V111.3H131.1V104.7Z" fill="black"/>
<path d="M137.7 104.7H131.1V111.3H137.7V104.7Z" fill="black"/>
<path d="M144.399 104.7H137.799V111.3H144.399V104.7Z" fill="black"/>
<path d="M157.6 104.7H151V111.3H157.6V104.7Z" fill="black"/>
<path d="M164.2 104.7H157.6V111.3H164.2V104.7Z" fill="black"/>
<path d="M170.799 104.7H164.199V111.3H170.799V104.7Z" fill="black"/>
<path d="M177.399 104.7H170.799V111.3H177.399V104.7Z" fill="black"/>
<path d="M190.7 104.7H184.1V111.3H190.7V104.7Z" fill="black"/>
<path d="M210.498 104.7H203.898V111.3H210.498V104.7Z" fill="black"/>
<path d="M25.2993 111.3H18.6992V117.9H25.2993V111.3Z" fill="black"/>
<path d="M38.4985 111.3H31.8984V117.9H38.4985V111.3Z" fill="black"/>
<path d="M64.9985 111.3H58.3984V117.9H64.9985V111.3Z" fill="black"/>
<path d="M78.1996 111.3H71.5996V117.9H78.1996V111.3Z" fill="black"/>
<path d="M91.3988 111.3H84.7988V117.9H91.3988V111.3Z" fill="black"/>
<path d="M117.899 111.3H111.299V117.9H117.899V111.3Z" fill="black"/>
<path d="M137.7 111.3H131.1V117.9H137.7V111.3Z" fill="black"/>
<path d="M144.399 111.3H137.799V117.9H144.399V111.3Z" fill="black"/>
<path d="M157.6 111.3H151V117.9H157.6V111.3Z" fill="black"/>
<path d="M177.399 111.3H170.799V117.9H177.399V111.3Z" fill="black"/>
<path d="M184.1 111.3H177.5V117.9H184.1V111.3Z" fill="black"/>
<path d="M190.7 111.3H184.1V117.9H190.7V111.3Z" fill="black"/>
<path d="M203.899 111.3H197.299V117.9H203.899V111.3Z" fill="black"/>
<path d="M210.498 111.3H203.898V117.9H210.498V111.3Z" fill="black"/>
<path d="M45.1 117.9H38.5V124.5H45.1V117.9Z" fill="black"/>
<path d="M51.6996 117.9H45.0996V124.5H51.6996V117.9Z" fill="black"/>
<path d="M58.2993 117.9H51.6992V124.5H58.2993V117.9Z" fill="black"/>
<path d="M71.6 117.9H65V124.5H71.6V117.9Z" fill="black"/>
<path d="M78.1996 117.9H71.5996V124.5H78.1996V117.9Z" fill="black"/>
<path d="M91.3988 117.9H84.7988V124.5H91.3988V117.9Z" fill="black"/>
<path d="M97.9985 117.9H91.3984V124.5H97.9985V117.9Z" fill="black"/>
<path d="M111.299 117.9H104.699V124.5H111.299V117.9Z" fill="black"/>
<path d="M117.899 117.9H111.299V124.5H117.899V117.9Z" fill="black"/>
<path d="M131.1 117.9H124.5V124.5H131.1V117.9Z" fill="black"/>
<path d="M137.7 117.9H131.1V124.5H137.7V117.9Z" fill="black"/>
<path d="M144.399 117.9H137.799V124.5H144.399V117.9Z" fill="black"/>
<path d="M150.998 117.9H144.398V124.5H150.998V117.9Z" fill="black"/>
<path d="M164.2 117.9H157.6V124.5H164.2V117.9Z" fill="black"/>
<path d="M177.399 117.9H170.799V124.5H177.399V117.9Z" fill="black"/>
<path d="M184.1 117.9H177.5V124.5H184.1V117.9Z" fill="black"/>
<path d="M190.7 117.9H184.1V124.5H190.7V117.9Z" fill="black"/>
<path d="M203.899 117.9H197.299V124.5H203.899V117.9Z" fill="black"/>
<path d="M25.2993 124.5H18.6992V131.1H25.2993V124.5Z" fill="black"/>
<path d="M51.6996 124.5H45.0996V131.1H51.6996V124.5Z" fill="black"/>
<path d="M64.9985 124.5H58.3984V131.1H64.9985V124.5Z" fill="black"/>
<path d="M71.6 124.5H65V131.1H71.6V124.5Z" fill="black"/>
<path d="M84.7993 124.5H78.1992V131.1H84.7993V124.5Z" fill="black"/>
<path d="M91.3988 124.5H84.7988V131.1H91.3988V124.5Z" fill="black"/>
<path d="M97.9985 124.5H91.3984V131.1H97.9985V124.5Z" fill="black"/>
<path d="M111.299 124.5H104.699V131.1H111.299V124.5Z" fill="black"/>
<path d="M117.899 124.5H111.299V131.1H117.899V124.5Z" fill="black"/>
<path d="M124.498 124.5H117.898V131.1H124.498V124.5Z" fill="black"/>
<path d="M131.1 124.5H124.5V131.1H131.1V124.5Z" fill="black"/>
<path d="M137.7 124.5H131.1V131.1H137.7V124.5Z" fill="black"/>
<path d="M164.2 124.5H157.6V131.1H164.2V124.5Z" fill="black"/>
<path d="M170.799 124.5H164.199V131.1H170.799V124.5Z" fill="black"/>
<path d="M190.7 124.5H184.1V131.1H190.7V124.5Z" fill="black"/>
<path d="M203.899 124.5H197.299V131.1H203.899V124.5Z" fill="black"/>
<path d="M210.498 124.5H203.898V131.1H210.498V124.5Z" fill="black"/>
<path d="M38.4985 131.1H31.8984V137.7H38.4985V131.1Z" fill="black"/>
<path d="M45.1 131.1H38.5V137.7H45.1V131.1Z" fill="black"/>
<path d="M58.2993 131.1H51.6992V137.7H58.2993V131.1Z" fill="black"/>
<path d="M71.6 131.1H65V137.7H71.6V131.1Z" fill="black"/>
<path d="M78.1996 131.1H71.5996V137.7H78.1996V131.1Z" fill="black"/>
<path d="M117.899 131.1H111.299V137.7H117.899V131.1Z" fill="black"/>
<path d="M131.1 131.1H124.5V137.7H131.1V131.1Z" fill="black"/>
<path d="M137.7 131.1H131.1V137.7H137.7V131.1Z" fill="black"/>
<path d="M157.6 131.1H151V137.7H157.6V131.1Z" fill="black"/>
<path d="M164.2 131.1H157.6V137.7H164.2V131.1Z" fill="black"/>
<path d="M170.799 131.1H164.199V137.7H170.799V131.1Z" fill="black"/>
<path d="M190.7 131.1H184.1V137.7H190.7V131.1Z" fill="black"/>
<path d="M197.299 131.1H190.699V137.7H197.299V131.1Z" fill="black"/>
<path d="M210.498 131.1H203.898V137.7H210.498V131.1Z" fill="black"/>
<path d="M25.2993 137.8H18.6992V144.4H25.2993V137.8Z" fill="black"/>
<path d="M38.4985 137.8H31.8984V144.4H38.4985V137.8Z" fill="black"/>
<path d="M45.1 137.8H38.5V144.4H45.1V137.8Z" fill="black"/>
<path d="M64.9985 137.8H58.3984V144.4H64.9985V137.8Z" fill="black"/>
<path d="M71.6 137.8H65V144.4H71.6V137.8Z" fill="black"/>
<path d="M78.1996 137.8H71.5996V144.4H78.1996V137.8Z" fill="black"/>
<path d="M117.899 137.8H111.299V144.4H117.899V137.8Z" fill="black"/>
<path d="M131.1 137.8H124.5V144.4H131.1V137.8Z" fill="black"/>
<path d="M170.799 137.8H164.199V144.4H170.799V137.8Z" fill="black"/>
<path d="M184.1 137.8H177.5V144.4H184.1V137.8Z" fill="black"/>
<path d="M203.899 137.8H197.299V144.4H203.899V137.8Z" fill="black"/>
<path d="M210.498 137.8H203.898V144.4H210.498V137.8Z" fill="black"/>
<path d="M31.8988 144.4H25.2988V151H31.8988V144.4Z" fill="black"/>
<path d="M51.6996 144.4H45.0996V151H51.6996V144.4Z" fill="black"/>
<path d="M58.2993 144.4H51.6992V151H58.2993V144.4Z" fill="black"/>
<path d="M78.1996 144.4H71.5996V151H78.1996V144.4Z" fill="black"/>
<path d="M84.7993 144.4H78.1992V151H84.7993V144.4Z" fill="black"/>
<path d="M91.3988 144.4H84.7988V151H91.3988V144.4Z" fill="black"/>
<path d="M104.7 144.4H98.0996V151H104.7V144.4Z" fill="black"/>
<path d="M111.299 144.4H104.699V151H111.299V144.4Z" fill="black"/>
<path d="M117.899 144.4H111.299V151H117.899V144.4Z" fill="black"/>
<path d="M124.498 144.4H117.898V151H124.498V144.4Z" fill="black"/>
<path d="M137.7 144.4H131.1V151H137.7V144.4Z" fill="black"/>
<path d="M144.399 144.4H137.799V151H144.399V144.4Z" fill="black"/>
<path d="M150.998 144.4H144.398V151H150.998V144.4Z" fill="black"/>
<path d="M177.399 144.4H170.799V151H177.399V144.4Z" fill="black"/>
<path d="M190.7 144.4H184.1V151H190.7V144.4Z" fill="black"/>
<path d="M203.899 144.4H197.299V151H203.899V144.4Z" fill="black"/>
<path d="M25.2993 151H18.6992V157.6H25.2993V151Z" fill="black"/>
<path d="M51.6996 151H45.0996V157.6H51.6996V151Z" fill="black"/>
<path d="M58.2993 151H51.6992V157.6H58.2993V151Z" fill="black"/>
<path d="M64.9985 151H58.3984V157.6H64.9985V151Z" fill="black"/>
<path d="M71.6 151H65V157.6H71.6V151Z" fill="black"/>
<path d="M78.1996 151H71.5996V157.6H78.1996V151Z" fill="black"/>
<path d="M84.7993 151H78.1992V157.6H84.7993V151Z" fill="black"/>
<path d="M91.3988 151H84.7988V157.6H91.3988V151Z" fill="black"/>
<path d="M111.299 151H104.699V157.6H111.299V151Z" fill="black"/>
<path d="M117.899 151H111.299V157.6H117.899V151Z" fill="black"/>
<path d="M124.498 151H117.898V157.6H124.498V151Z" fill="black"/>
<path d="M131.1 151H124.5V157.6H131.1V151Z" fill="black"/>
<path d="M137.7 151H131.1V157.6H137.7V151Z" fill="black"/>
<path d="M157.6 151H151V157.6H157.6V151Z" fill="black"/>
<path d="M164.2 151H157.6V157.6H164.2V151Z" fill="black"/>
<path d="M170.799 151H164.199V157.6H170.799V151Z" fill="black"/>
<path d="M177.399 151H170.799V157.6H177.399V151Z" fill="black"/>
<path d="M184.1 151H177.5V157.6H184.1V151Z" fill="black"/>
<path d="M78.1996 157.6H71.5996V164.2H78.1996V157.6Z" fill="black"/>
<path d="M84.7993 157.6H78.1992V164.2H84.7993V157.6Z" fill="black"/>
<path d="M91.3988 157.6H84.7988V164.2H91.3988V157.6Z" fill="black"/>
<path d="M111.299 157.6H104.699V164.2H111.299V157.6Z" fill="black"/>
<path d="M117.899 157.6H111.299V164.2H117.899V157.6Z" fill="black"/>
<path d="M131.1 157.6H124.5V164.2H131.1V157.6Z" fill="black"/>
<path d="M150.998 157.6H144.398V164.2H150.998V157.6Z" fill="black"/>
<path d="M157.6 157.6H151V164.2H157.6V157.6Z" fill="black"/>
<path d="M184.1 157.6H177.5V164.2H184.1V157.6Z" fill="black"/>
<path d="M197.299 157.6H190.699V164.2H197.299V157.6Z" fill="black"/>
<path d="M203.899 157.6H197.299V164.2H203.899V157.6Z" fill="black"/>
<path d="M210.498 157.6H203.898V164.2H210.498V157.6Z" fill="black"/>
<path d="M25.2993 164.2H18.6992V170.8H25.2993V164.2Z" fill="black"/>
<path d="M31.8988 164.2H25.2988V170.8H31.8988V164.2Z" fill="black"/>
<path d="M38.4985 164.2H31.8984V170.8H38.4985V164.2Z" fill="black"/>
<path d="M45.1 164.2H38.5V170.8H45.1V164.2Z" fill="black"/>
<path d="M51.6996 164.2H45.0996V170.8H51.6996V164.2Z" fill="black"/>
<path d="M58.2993 164.2H51.6992V170.8H58.2993V164.2Z" fill="black"/>
<path d="M64.9985 164.2H58.3984V170.8H64.9985V164.2Z" fill="black"/>
<path d="M78.1996 164.2H71.5996V170.8H78.1996V164.2Z" fill="black"/>
<path d="M91.3988 164.2H84.7988V170.8H91.3988V164.2Z" fill="black"/>
<path d="M131.1 164.2H124.5V170.8H131.1V164.2Z" fill="black"/>
<path d="M137.7 164.2H131.1V170.8H137.7V164.2Z" fill="black"/>
<path d="M150.998 164.2H144.398V170.8H150.998V164.2Z" fill="black"/>
<path d="M157.6 164.2H151V170.8H157.6V164.2Z" fill="black"/>
<path d="M170.799 164.2H164.199V170.8H170.799V164.2Z" fill="black"/>
<path d="M184.1 164.2H177.5V170.8H184.1V164.2Z" fill="black"/>
<path d="M190.7 164.2H184.1V170.8H190.7V164.2Z" fill="black"/>
<path d="M203.899 164.2H197.299V170.8H203.899V164.2Z" fill="black"/>
<path d="M210.498 164.2H203.898V170.8H210.498V164.2Z" fill="black"/>
<path d="M25.2993 170.8H18.6992V177.4H25.2993V170.8Z" fill="black"/>
<path d="M64.9985 170.8H58.3984V177.4H64.9985V170.8Z" fill="black"/>
<path d="M78.1996 170.8H71.5996V177.4H78.1996V170.8Z" fill="black"/>
<path d="M84.7993 170.8H78.1992V177.4H84.7993V170.8Z" fill="black"/>
<path d="M111.299 170.8H104.699V177.4H111.299V170.8Z" fill="black"/>
<path d="M124.498 170.8H117.898V177.4H124.498V170.8Z" fill="black"/>
<path d="M137.7 170.8H131.1V177.4H137.7V170.8Z" fill="black"/>
<path d="M157.6 170.8H151V177.4H157.6V170.8Z" fill="black"/>
<path d="M184.1 170.8H177.5V177.4H184.1V170.8Z" fill="black"/>
<path d="M190.7 170.8H184.1V177.4H190.7V170.8Z" fill="black"/>
<path d="M25.2993 177.5H18.6992V184.1H25.2993V177.5Z" fill="black"/>
<path d="M38.4985 177.5H31.8984V184.1H38.4985V177.5Z" fill="black"/>
<path d="M45.1 177.5H38.5V184.1H45.1V177.5Z" fill="black"/>
<path d="M51.6996 177.5H45.0996V184.1H51.6996V177.5Z" fill="black"/>
<path d="M64.9985 177.5H58.3984V184.1H64.9985V177.5Z" fill="black"/>
<path d="M78.1996 177.5H71.5996V184.1H78.1996V177.5Z" fill="black"/>
<path d="M91.3988 177.5H84.7988V184.1H91.3988V177.5Z" fill="black"/>
<path d="M111.299 177.5H104.699V184.1H111.299V177.5Z" fill="black"/>
<path d="M117.899 177.5H111.299V184.1H117.899V177.5Z" fill="black"/>
<path d="M137.7 177.5H131.1V184.1H137.7V177.5Z" fill="black"/>
<path d="M157.6 177.5H151V184.1H157.6V177.5Z" fill="black"/>
<path d="M164.2 177.5H157.6V184.1H164.2V177.5Z" fill="black"/>
<path d="M170.799 177.5H164.199V184.1H170.799V177.5Z" fill="black"/>
<path d="M177.399 177.5H170.799V184.1H177.399V177.5Z" fill="black"/>
<path d="M184.1 177.5H177.5V184.1H184.1V177.5Z" fill="black"/>
<path d="M210.498 177.5H203.898V184.1H210.498V177.5Z" fill="black"/>
<path d="M25.2993 184.1H18.6992V190.7H25.2993V184.1Z" fill="black"/>
<path d="M38.4985 184.1H31.8984V190.7H38.4985V184.1Z" fill="black"/>
<path d="M45.1 184.1H38.5V190.7H45.1V184.1Z" fill="black"/>
<path d="M51.6996 184.1H45.0996V190.7H51.6996V184.1Z" fill="black"/>
<path d="M64.9985 184.1H58.3984V190.7H64.9985V184.1Z" fill="black"/>
<path d="M111.299 184.1H104.699V190.7H111.299V184.1Z" fill="black"/>
<path d="M117.899 184.1H111.299V190.7H117.899V184.1Z" fill="black"/>
<path d="M131.1 184.1H124.5V190.7H131.1V184.1Z" fill="black"/>
<path d="M137.7 184.1H131.1V190.7H137.7V184.1Z" fill="black"/>
<path d="M157.6 184.1H151V190.7H157.6V184.1Z" fill="black"/>
<path d="M184.1 184.1H177.5V190.7H184.1V184.1Z" fill="black"/>
<path d="M197.299 184.1H190.699V190.7H197.299V184.1Z" fill="black"/>
<path d="M210.498 184.1H203.898V190.7H210.498V184.1Z" fill="black"/>
<path d="M25.2993 190.7H18.6992V197.3H25.2993V190.7Z" fill="black"/>
<path d="M38.4985 190.7H31.8984V197.3H38.4985V190.7Z" fill="black"/>
<path d="M45.1 190.7H38.5V197.3H45.1V190.7Z" fill="black"/>
<path d="M51.6996 190.7H45.0996V197.3H51.6996V190.7Z" fill="black"/>
<path d="M64.9985 190.7H58.3984V197.3H64.9985V190.7Z" fill="black"/>
<path d="M78.1996 190.7H71.5996V197.3H78.1996V190.7Z" fill="black"/>
<path d="M84.7993 190.7H78.1992V197.3H84.7993V190.7Z" fill="black"/>
<path d="M104.7 190.7H98.0996V197.3H104.7V190.7Z" fill="black"/>
<path d="M117.899 190.7H111.299V197.3H117.899V190.7Z" fill="black"/>
<path d="M157.6 190.7H151V197.3H157.6V190.7Z" fill="black"/>
<path d="M164.2 190.7H157.6V197.3H164.2V190.7Z" fill="black"/>
<path d="M177.399 190.7H170.799V197.3H177.399V190.7Z" fill="black"/>
<path d="M184.1 190.7H177.5V197.3H184.1V190.7Z" fill="black"/>
<path d="M190.7 190.7H184.1V197.3H190.7V190.7Z" fill="black"/>
<path d="M210.498 190.7H203.898V197.3H210.498V190.7Z" fill="black"/>
<path d="M25.2993 197.3H18.6992V203.9H25.2993V197.3Z" fill="black"/>
<path d="M64.9985 197.3H58.3984V203.9H64.9985V197.3Z" fill="black"/>
<path d="M78.1996 197.3H71.5996V203.9H78.1996V197.3Z" fill="black"/>
<path d="M91.3988 197.3H84.7988V203.9H91.3988V197.3Z" fill="black"/>
<path d="M97.9985 197.3H91.3984V203.9H97.9985V197.3Z" fill="black"/>
<path d="M104.7 197.3H98.0996V203.9H104.7V197.3Z" fill="black"/>
<path d="M111.299 197.3H104.699V203.9H111.299V197.3Z" fill="black"/>
<path d="M131.1 197.3H124.5V203.9H131.1V197.3Z" fill="black"/>
<path d="M137.7 197.3H131.1V203.9H137.7V197.3Z" fill="black"/>
<path d="M157.6 197.3H151V203.9H157.6V197.3Z" fill="black"/>
<path d="M203.899 197.3H197.299V203.9H203.899V197.3Z" fill="black"/>
<path d="M25.2993 203.9H18.6992V210.5H25.2993V203.9Z" fill="black"/>
<path d="M31.8988 203.9H25.2988V210.5H31.8988V203.9Z" fill="black"/>
<path d="M38.4985 203.9H31.8984V210.5H38.4985V203.9Z" fill="black"/>
<path d="M45.1 203.9H38.5V210.5H45.1V203.9Z" fill="black"/>
<path d="M51.6996 203.9H45.0996V210.5H51.6996V203.9Z" fill="black"/>
<path d="M58.2993 203.9H51.6992V210.5H58.2993V203.9Z" fill="black"/>
<path d="M64.9985 203.9H58.3984V210.5H64.9985V203.9Z" fill="black"/>
<path d="M78.1996 203.9H71.5996V210.5H78.1996V203.9Z" fill="black"/>
<path d="M84.7993 203.9H78.1992V210.5H84.7993V203.9Z" fill="black"/>
<path d="M91.3988 203.9H84.7988V210.5H91.3988V203.9Z" fill="black"/>
<path d="M111.299 203.9H104.699V210.5H111.299V203.9Z" fill="black"/>
<path d="M117.899 203.9H111.299V210.5H117.899V203.9Z" fill="black"/>
<path d="M124.498 203.9H117.898V210.5H124.498V203.9Z" fill="black"/>
<path d="M137.7 203.9H131.1V210.5H137.7V203.9Z" fill="black"/>
<path d="M144.399 203.9H137.799V210.5H144.399V203.9Z" fill="black"/>
<path d="M150.998 203.9H144.398V210.5H150.998V203.9Z" fill="black"/>
<path d="M157.6 203.9H151V210.5H157.6V203.9Z" fill="black"/>
<path d="M170.799 203.9H164.199V210.5H170.799V203.9Z" fill="black"/>
<path d="M184.1 203.9H177.5V210.5H184.1V203.9Z" fill="black"/>
<path d="M203.899 203.9H197.299V210.5H203.899V203.9Z" fill="black"/>
<path d="M210.498 203.9H203.898V210.5H210.498V203.9Z" fill="black"/>
</svg>
