<svg width="411" height="125" viewBox="0 0 411 125" fill="none" xmlns="http://www.w3.org/2000/svg">
<path d="M389.7 124.9H21.1C9.40004 124.9 0 115.4 0 103.8V21.1C0 9.40004 9.50004 0 21.1 0H389.8C401.5 0 410.9 9.50004 410.9 21.1V103.8C410.9 115.4 401.4 124.9 389.7 124.9Z" fill="black"/>
<path d="M134.6 75.4H140.3V88.4C138.6 89.7 136.7 90.8 134.4 91.5C132.2 92.2 129.9 92.6 127.5 92.6C124.2 92.6 121.2 91.9 118.5 90.4C115.8 89 113.7 87 112.2 84.4C110.7 81.9 109.9 79 109.9 75.8C109.9 72.6 110.7 69.7 112.2 67.2C113.7 64.7 115.8 62.7 118.5 61.2C121.2 59.8 124.2 59 127.6 59C130.3 59 132.8 59.5 135.1 60.4C137.3 61.3 139.2 62.6 140.7 64.4L136.9 68.1C134.4 65.6 131.4 64.4 127.9 64.4C125.6 64.4 123.6 64.9 121.8 65.8C120 66.8 118.6 68.1 117.6 69.9C116.6 71.6 116.1 73.6 116.1 75.9C116.1 78.1 116.6 80 117.6 81.8C118.6 83.5 120 84.9 121.8 85.9C123.6 86.9 125.6 87.4 127.9 87.4C130.4 87.4 132.7 86.8 134.6 85.7V75.4Z" fill="white"/>
<path d="M152.101 90.8C150.101 89.7 148.501 88.2 147.401 86.3C146.301 84.4 145.701 82.2 145.701 79.7C145.701 77.2 146.301 75.1 147.401 73.1C148.501 71.2 150.101 69.7 152.101 68.6C154.101 67.5 156.401 67 158.901 67C161.401 67 163.701 67.5 165.701 68.6C167.701 69.7 169.301 71.2 170.401 73.1C171.501 75 172.101 77.2 172.101 79.7C172.101 82.2 171.501 84.4 170.401 86.3C169.301 88.2 167.701 89.8 165.701 90.8C163.701 91.9 161.401 92.4 158.901 92.4C156.401 92.4 154.101 91.9 152.101 90.8ZM164.201 85.3C165.601 83.9 166.301 82 166.301 79.7C166.301 77.4 165.601 75.5 164.201 74.1C162.801 72.7 161.001 72 158.901 72C156.801 72 155.001 72.7 153.601 74.1C152.201 75.5 151.501 77.4 151.501 79.7C151.501 82 152.201 83.9 153.601 85.3C155.001 86.7 156.701 87.4 158.901 87.4C161.101 87.4 162.801 86.7 164.201 85.3Z" fill="white"/>
<path d="M182.201 90.8C180.201 89.7 178.601 88.2 177.501 86.3C176.401 84.4 175.801 82.2 175.801 79.7C175.801 77.2 176.401 75.1 177.501 73.1C178.601 71.2 180.201 69.7 182.201 68.6C184.201 67.5 186.501 67 189.001 67C191.501 67 193.801 67.5 195.801 68.6C197.801 69.7 199.401 71.2 200.501 73.1C201.601 75 202.201 77.2 202.201 79.7C202.201 82.2 201.601 84.4 200.501 86.3C199.401 88.2 197.801 89.8 195.801 90.8C193.801 91.9 191.501 92.4 189.001 92.4C186.501 92.4 184.201 91.9 182.201 90.8ZM194.301 85.3C195.701 83.9 196.401 82 196.401 79.7C196.401 77.4 195.701 75.5 194.301 74.1C192.901 72.7 191.101 72 189.001 72C186.901 72 185.101 72.7 183.701 74.1C182.301 75.5 181.601 77.4 181.601 79.7C181.601 82 182.301 83.9 183.701 85.3C185.101 86.7 186.801 87.4 189.001 87.4C191.101 87.4 192.901 86.7 194.301 85.3Z" fill="white"/>
<path d="M232.501 67.2V88.3C232.501 97.1 228.001 101.4 219.101 101.4C216.701 101.4 214.401 101.1 212.301 100.5C210.201 99.9 208.401 99 207.001 97.9L209.601 93.5C210.701 94.4 212.101 95.1 213.701 95.7C215.401 96.2 217.001 96.5 218.801 96.5C221.501 96.5 223.501 95.9 224.801 94.6C226.101 93.4 226.701 91.5 226.701 88.9V87.6C225.701 88.7 224.501 89.5 223.101 90.1C221.701 90.7 220.101 90.9 218.401 90.9C216.001 90.9 213.901 90.4 212.001 89.4C210.101 88.4 208.601 87 207.501 85.1C206.401 83.3 205.801 81.2 205.801 78.8C205.801 76.4 206.401 74.3 207.501 72.5C208.601 70.7 210.101 69.3 212.001 68.3C213.901 67.3 216.001 66.8 218.401 66.8C220.201 66.8 221.801 67.1 223.301 67.7C224.801 68.3 226.001 69.2 227.001 70.4V67.1H232.501V67.2ZM224.701 84C226.101 82.7 226.801 81 226.801 78.9C226.801 76.8 226.101 75.1 224.701 73.8C223.301 72.5 221.501 71.8 219.301 71.8C217.101 71.8 215.201 72.5 213.801 73.8C212.401 75.1 211.701 76.8 211.701 78.9C211.701 81 212.401 82.7 213.801 84C215.201 85.3 217.001 86 219.301 86C221.501 86 223.301 85.4 224.701 84Z" fill="white"/>
<path d="M240.201 57.5H246.001V92.1H240.201V57.5Z" fill="white"/>
<path d="M277.001 81.5001H257.501C257.801 83.3001 258.701 84.8001 260.201 85.9001C261.601 87.0001 263.401 87.5001 265.601 87.5001C268.301 87.5001 270.601 86.6001 272.401 84.8001L275.501 88.4001C274.401 89.7001 273.001 90.7001 271.301 91.4001C269.601 92.1001 267.701 92.4001 265.501 92.4001C262.801 92.4001 260.401 91.9001 258.301 90.8001C256.201 89.7001 254.601 88.2001 253.501 86.3001C252.401 84.4001 251.801 82.2001 251.801 79.7001C251.801 77.3001 252.401 75.1001 253.501 73.2001C254.601 71.3001 256.101 69.7001 258.101 68.7001C260.101 67.6001 262.301 67.1001 264.701 67.1001C267.101 67.1001 269.301 67.6001 271.201 68.7001C273.101 69.8001 274.601 71.3001 275.701 73.2001C276.801 75.1001 277.301 77.4001 277.301 79.9001C277.001 80.2001 277.001 80.8001 277.001 81.5001ZM259.701 73.2001C258.401 74.3001 257.601 75.8001 257.301 77.6001H271.401C271.201 75.8001 270.401 74.3001 269.101 73.2001C267.801 72.1001 266.201 71.5001 264.301 71.5001C262.601 71.6001 261.001 72.1001 259.701 73.2001Z" fill="white"/>
<path d="M316.9 60.9C319 61.8 320.6 63.2 321.7 64.9C322.8 66.6 323.4 68.7 323.4 71.1C323.4 73.5 322.8 75.5 321.7 77.3C320.6 79.1 319 80.4 316.9 81.3C314.8 82.2 312.3 82.7 309.5 82.7H302.1V92.1H296V59.5H309.4C312.3 59.5 314.8 59.9 316.9 60.9ZM315.2 75.9C316.6 74.8 317.3 73.2 317.3 71.1C317.3 69 316.6 67.4 315.2 66.3C313.8 65.2 311.8 64.6 309.2 64.6H302.1V77.6H309.2C311.8 77.5 313.8 77 315.2 75.9Z" fill="white"/>
<path d="M329.301 57.5H335.101V92.1H329.301V57.5Z" fill="white"/>
<path d="M360.7 69.6C362.6 71.4 363.6 73.9999 363.6 77.4999V92.1H358.1V89.1C357.4 90.2 356.4 91 355 91.6C353.7 92.2 352.1 92.4999 350.2 92.4999C348.3 92.4999 346.7 92.1999 345.3 91.4999C343.9 90.8999 342.8 90 342.1 88.8C341.3 87.7 341 86.3999 341 84.9999C341 82.7999 341.8 81 343.5 79.6C345.2 78.2 347.8 77.6 351.4 77.6H357.8V77.2C357.8 75.5 357.3 74.1 356.2 73.2C355.2 72.3 353.6 71.8 351.6 71.8C350.2 71.8 348.8 71.9999 347.5 72.4999C346.1 72.8999 345 73.5 344.1 74.3L341.8 70.1C343.1 69.1 344.7 68.3 346.5 67.8C348.3 67.3 350.3 66.9999 352.3 66.9999C356 66.8999 358.8 67.8 360.7 69.6ZM355.4 87.2C356.5 86.5 357.3 85.6 357.8 84.3V81.4H351.8C348.4 81.4 346.8 82.5 346.8 84.7C346.8 85.8 347.2 86.6 348.1 87.2C348.9 87.8 350.1 88.1 351.6 88.1C353 88.2 354.3 87.8 355.4 87.2Z" fill="white"/>
<path d="M393.9 67.2L382.3 94.1C381.2 96.8 379.9 98.7 378.3 99.8C376.7 100.9 374.9 101.5 372.7 101.5C371.5 101.5 370.2 101.3 369 100.9C367.8 100.5 366.8 99.9 366 99.2L368.3 94.9C368.9 95.4 369.5 95.8 370.3 96.2C371.1 96.5 371.8 96.7 372.6 96.7C373.6 96.7 374.5 96.4 375.1 95.9C375.8 95.4 376.4 94.5 376.9 93.2L377.3 92.2L366.4 67.2H372.5L380.3 85.6L388.2 67.2H393.9Z" fill="white"/>
<path d="M98.8012 60.7998L83.1012 51.7998L70.2012 64.1998L82.0012 75.5998L98.8012 65.8998C99.7012 65.3998 100.301 64.3998 100.301 63.2998C100.301 62.2998 99.7012 61.2998 98.8012 60.7998Z" fill="#FFD109"/>
<path d="M80.5 50.1999L63.3 40.2999L25.5 20.8999L68.1 62.1999L80.5 50.1999Z" fill="#06EF79"/>
<path d="M26.0996 106.9L63.2996 86.3998L79.3996 77.0998L68.0996 66.2998L26.0996 106.9Z" fill="#F93646"/>
<path d="M23.0004 22.5999L22.9004 105.9L66.0004 64.1998L23.0004 22.5999Z" fill="#05D5FB"/>
<path d="M120.4 41.4001C119.1 41.4001 117.9 41.1001 116.7 40.5001C115.6 39.9001 114.6 39.2001 113.7 38.2001C112.9 37.2001 112.2 36.1001 111.7 34.9001C111.2 33.7001 111 32.4001 111 31.1001C111 29.7001 111.2 28.5001 111.7 27.3001C112.2 26.1001 112.8 25.0001 113.7 24.1001C114.5 23.2001 115.5 22.4001 116.7 21.9001C117.8 21.4001 119.1 21.1001 120.4 21.1001C122.3 21.1001 123.9 21.5001 125.2 22.3001C126.5 23.1001 127.4 24.2001 128 25.5001L126.1 26.9001C125.5 25.7001 124.7 24.9001 123.7 24.3001C122.7 23.7001 121.6 23.5001 120.3 23.5001C119.3 23.5001 118.4 23.7001 117.5 24.1001C116.7 24.5001 116 25.1001 115.4 25.9001C114.8 26.6001 114.4 27.5001 114 28.4001C113.7 29.3001 113.5 30.3001 113.5 31.3001C113.5 32.4001 113.7 33.4001 114 34.3001C114.3 35.2001 114.8 36.1001 115.5 36.8001C116.1 37.5001 116.9 38.1001 117.7 38.5001C118.5 38.9001 119.5 39.1001 120.4 39.1001C121.5 39.1001 122.6 38.8001 123.7 38.2001C124.7 37.6001 125.7 36.7001 126.6 35.5001V38.1001C125 40.3001 122.9 41.4001 120.4 41.4001ZM126.5 33.2001H122.2V31.3001H128.7V41.3001H126.6V33.2001H126.5Z" fill="white"/>
<path d="M146.1 39V41.3H132.5V21.3H145.8V23.6H135V30.1H144.4V32.2H135V39.1H146.1V39Z" fill="white"/>
<path d="M163.999 23.5002H157.099V41.3002H154.599V23.5002H147.699V21.2002H163.999V23.5002Z" fill="white"/>
<path d="M173.199 41.2002V21.2002H175.699V41.2002H173.199Z" fill="white"/>
<path d="M183 25.9002V41.2002H180.5V21.2002H182.6L194.8 36.8002V21.2002H197.3V41.2002H195L183 25.9002Z" fill="white"/>
<path d="M217.4 41.4002C216 41.4002 214.7 41.1002 213.6 40.6002C212.5 40.0002 211.5 39.3002 210.6 38.3002C209.8 37.3002 209.1 36.2002 208.7 35.0002C208.2 33.8002 208 32.5002 208 31.3002C208 30.0002 208.2 28.7002 208.7 27.5002C209.2 26.3002 209.8 25.2002 210.7 24.3002C211.6 23.4002 212.6 22.6002 213.7 22.0002C214.8 21.4002 216.1 21.2002 217.4 21.2002C218.8 21.2002 220.1 21.5002 221.2 22.1002C222.3 22.7002 223.3 23.5002 224.2 24.4002C225 25.4002 225.7 26.5002 226.1 27.7002C226.6 28.9002 226.8 30.1002 226.8 31.4002C226.8 32.7002 226.6 34.0002 226.1 35.2002C225.6 36.4002 225 37.5002 224.1 38.4002C223.2 39.3002 222.2 40.1002 221.1 40.6002C220 41.1002 218.8 41.4002 217.4 41.4002ZM210.6 31.2002C210.6 32.2002 210.8 33.2002 211.1 34.1002C211.4 35.0002 211.9 35.9002 212.5 36.6002C213.1 37.3002 213.8 37.9002 214.7 38.3002C215.5 38.7002 216.5 38.9002 217.5 38.9002C218.6 38.9002 219.5 38.7002 220.4 38.2002C221.2 37.7002 222 37.1002 222.6 36.4002C223.2 35.6002 223.6 34.8002 224 33.9002C224.3 33.0002 224.5 32.0002 224.5 31.1002C224.5 30.1002 224.3 29.1002 224 28.2002C223.7 27.3002 223.2 26.4002 222.6 25.7002C222 25.0002 221.3 24.4002 220.4 24.0002C219.6 23.6002 218.6 23.4002 217.6 23.4002C216.5 23.4002 215.6 23.6002 214.7 24.1002C213.9 24.5002 213.1 25.1002 212.5 25.9002C211.9 26.7002 211.5 27.5002 211.1 28.4002C210.8 29.3002 210.6 30.2002 210.6 31.2002Z" fill="white"/>
<path d="M232.9 25.9002V41.2002H230.4V21.2002H232.5L244.7 36.8002V21.2002H247.2V41.2002H244.9L232.9 25.9002Z" fill="white"/>
</svg>
