<svg width="411" height="125" viewBox="0 0 411 125" fill="none" xmlns="http://www.w3.org/2000/svg">
<path d="M389.4 124.9H21.4C9.60002 124.9 0 115.3 0 103.5V21.4C0 9.60002 9.60002 0 21.4 0H389.5C401.3 0 410.9 9.60002 410.9 21.4V103.4C410.9 115.3 401.3 124.9 389.4 124.9Z" fill="black"/>
<path d="M37.3004 51C30.6004 62.6 34.9004 80.1 42.2004 90.8C45.9004 96.1 49.6004 100.9 54.7004 100.9C54.8004 100.9 54.9003 100.9 55.0003 100.9C57.4003 100.8 59.1004 100.1 60.8004 99.4C62.7004 98.6 64.6004 97.8 67.7004 97.8C70.6004 97.8 72.5004 98.6 74.2004 99.4C76.0004 100.2 77.8003 101 80.5003 100.9C86.2003 100.8 89.8004 95.6 92.9004 91.1C96.1004 86.4 97.8004 81.7 98.3004 80V79.9C98.4004 79.6 98.3003 79.2 98.0003 79.1C97.0003 78.7 88.1003 74.7 88.0003 64C87.9003 55.3 94.7003 50.7 96.0003 49.8H96.1004C96.2004 49.7 96.3004 49.6 96.4004 49.4C96.4004 49.2 96.4004 49.1 96.3004 48.9C91.6004 42.1 84.5004 41.1 81.6004 40.9C81.2004 40.9 80.8004 40.8 80.3004 40.8C76.9004 40.8 73.7004 42.1 71.1004 43.1C69.3004 43.8 67.8004 44.4 66.7004 44.4C65.5004 44.4 63.9004 43.8 62.1004 43.1C59.7004 42.1 57.0004 41.1 54.1004 41.1C54.0004 41.1 54.0004 41.1 53.9004 41.1C47.1004 41 40.8004 44.9 37.3004 51Z" fill="white"/>
<path d="M81.5998 22C77.4998 22.2 72.5998 24.7 69.6998 28.1C67.1998 31 64.7998 35.8 65.3998 40.6C65.3998 40.9 65.6997 41.1 65.9997 41.2C66.2997 41.2 66.5998 41.2 66.7998 41.2C70.7998 41.2 75.0998 39 77.9998 35.4C81.0998 31.7 82.6998 26.8 82.1998 22.5C82.1998 22.2 81.8998 22 81.5998 22Z" fill="white"/>
<path d="M128.5 28.3999H136.2C138.2 28.3999 140 28.7999 141.6 29.6999C143.2 30.4999 144.4 31.6999 145.3 33.1999C146.2 34.6999 146.6 36.3999 146.6 38.1999C146.6 40.0999 146.2 41.7999 145.3 43.1999C144.4 44.6999 143.2 45.7999 141.6 46.6999C140 47.4999 138.2 47.9999 136.2 47.9999H128.5V28.3999ZM136.1 46.6999C137.9 46.6999 139.5 46.2999 140.9 45.5999C142.3 44.8999 143.3 43.8999 144.1 42.5999C144.8 41.2999 145.2 39.7999 145.2 38.1999C145.2 36.4999 144.8 35.0999 144.1 33.7999C143.4 32.4999 142.3 31.4999 140.9 30.7999C139.5 30.0999 137.9 29.6999 136.1 29.6999H129.9V46.6999H136.1Z" fill="white"/>
<path d="M153 47.0999C151.9 46.4999 151 45.5999 150.4 44.4999C149.8 43.3999 149.5 42.0999 149.5 40.6999C149.5 39.2999 149.8 37.9999 150.4 36.8999C151 35.7999 151.9 34.8999 153 34.2999C154.1 33.6999 155.3 33.3999 156.7 33.3999C158.1 33.3999 159.3 33.6999 160.4 34.2999C161.5 34.8999 162.4 35.7999 163 36.8999C163.6 37.9999 163.9 39.2999 163.9 40.6999C163.9 42.0999 163.6 43.3999 163 44.4999C162.4 45.5999 161.5 46.4999 160.4 47.0999C159.3 47.6999 158.1 47.9999 156.7 47.9999C155.4 48.0999 154.1 47.6999 153 47.0999ZM159.8 45.9999C160.7 45.4999 161.4 44.7999 161.9 43.7999C162.4 42.8999 162.7 41.7999 162.7 40.5999C162.7 39.3999 162.4 38.2999 161.9 37.3999C161.4 36.4999 160.7 35.6999 159.8 35.1999C158.9 34.6999 157.9 34.3999 156.8 34.3999C155.7 34.3999 154.7 34.6999 153.8 35.1999C152.9 35.6999 152.2 36.3999 151.7 37.3999C151.2 38.2999 150.9 39.3999 150.9 40.5999C150.9 41.7999 151.2 42.8999 151.7 43.7999C152.2 44.6999 152.9 45.4999 153.8 45.9999C154.7 46.4999 155.7 46.7999 156.8 46.7999C157.9 46.7999 158.9 46.4999 159.8 45.9999Z" fill="white"/>
<path d="M188.801 33.3999L183.301 47.9999H181.901L177.001 35.3999L172.101 47.9999H170.801L165.301 33.3999H166.601L171.501 46.3999L176.501 33.3999H177.701L182.601 46.3999L187.501 33.3999H188.801Z" fill="white"/>
<path d="M203.4 34.9C204.5 36 205 37.5 205 39.5V48H203.6V39.6C203.6 38 203.2 36.7 202.4 35.9C201.6 35 200.4 34.6 198.9 34.6C197.2 34.6 195.8 35.1 194.9 36.1C193.9 37.1 193.4 38.5 193.4 40.2V48H192V33.4H193.3V36.6C193.8 35.6 194.6 34.8 195.5 34.2C196.5 33.6 197.7 33.3 199 33.3C200.9 33.3 202.4 33.8 203.4 34.9Z" fill="white"/>
<path d="M210.801 27.2H212.201V47.9H210.801V27.2Z" fill="white"/>
<path d="M220 47.0999C218.9 46.4999 218 45.5999 217.4 44.4999C216.8 43.3999 216.5 42.0999 216.5 40.6999C216.5 39.2999 216.8 37.9999 217.4 36.8999C218 35.7999 218.9 34.8999 220 34.2999C221.1 33.6999 222.3 33.3999 223.7 33.3999C225.1 33.3999 226.3 33.6999 227.4 34.2999C228.5 34.8999 229.4 35.7999 230 36.8999C230.6 37.9999 230.9 39.2999 230.9 40.6999C230.9 42.0999 230.6 43.3999 230 44.4999C229.4 45.5999 228.5 46.4999 227.4 47.0999C226.3 47.6999 225.1 47.9999 223.7 47.9999C222.4 48.0999 221.1 47.6999 220 47.0999ZM226.7 45.9999C227.6 45.4999 228.3 44.7999 228.8 43.7999C229.3 42.8999 229.6 41.7999 229.6 40.5999C229.6 39.3999 229.3 38.2999 228.8 37.3999C228.3 36.4999 227.6 35.6999 226.7 35.1999C225.8 34.6999 224.8 34.3999 223.7 34.3999C222.6 34.3999 221.6 34.6999 220.7 35.1999C219.8 35.6999 219.1 36.3999 218.6 37.3999C218.1 38.2999 217.8 39.3999 217.8 40.5999C217.8 41.7999 218.1 42.8999 218.6 43.7999C219.1 44.6999 219.8 45.4999 220.7 45.9999C221.6 46.4999 222.6 46.7999 223.7 46.7999C224.9 46.7999 225.9 46.4999 226.7 45.9999Z" fill="white"/>
<path d="M244.399 34.6999C245.399 35.5999 245.899 36.9999 245.899 38.7999V47.9999H244.599V45.3999C244.099 46.2999 243.499 46.8999 242.599 47.3999C241.699 47.8999 240.599 48.0999 239.399 48.0999C237.799 48.0999 236.499 47.6999 235.599 46.9999C234.699 46.1999 234.199 45.1999 234.199 43.9999C234.199 42.7999 234.599 41.7999 235.499 41.0999C236.399 40.2999 237.699 39.9999 239.599 39.9999H244.599V38.7999C244.599 37.3999 244.199 36.3999 243.499 35.6999C242.799 34.9999 241.699 34.5999 240.299 34.5999C239.299 34.5999 238.399 34.7999 237.499 35.0999C236.599 35.3999 235.899 35.8999 235.299 36.3999L234.599 35.3999C235.299 34.6999 236.199 34.1999 237.199 33.8999C238.199 33.4999 239.299 33.3999 240.399 33.3999C241.999 33.2999 243.399 33.6999 244.399 34.6999ZM242.499 46.0999C243.299 45.4999 243.999 44.6999 244.399 43.6999V40.9999H239.399C237.999 40.9999 236.899 41.2999 236.299 41.7999C235.699 42.2999 235.299 42.9999 235.299 43.8999C235.299 44.7999 235.699 45.5999 236.399 46.0999C237.099 46.5999 238.099 46.8999 239.399 46.8999C240.599 46.8999 241.699 46.5999 242.499 46.0999Z" fill="white"/>
<path d="M264.5 27.2V47.9H263.1V44.4999C262.5 45.5999 261.7 46.5 260.7 47.1C259.7 47.7 258.5 47.9999 257.2 47.9999C255.8 47.9999 254.6 47.7 253.5 47.1C252.4 46.5 251.5 45.5999 250.9 44.4999C250.3 43.3999 250 42.1 250 40.7C250 39.3 250.3 38 250.9 36.9C251.5 35.8 252.4 34.9 253.5 34.3C254.6 33.7 255.8 33.4 257.2 33.4C258.5 33.4 259.7 33.7 260.7 34.3C261.7 34.9 262.5 35.8 263.1 36.9V27.4H264.5V27.2ZM260.3 45.9999C261.2 45.4999 261.9 44.8 262.4 43.8C262.9 42.9 263.2 41.8 263.2 40.6C263.2 39.4 262.9 38.3 262.4 37.4C261.9 36.5 261.2 35.7 260.3 35.2C259.4 34.7 258.4 34.4 257.3 34.4C256.2 34.4 255.2 34.7 254.3 35.2C253.4 35.7 252.7 36.4 252.2 37.4C251.7 38.3 251.4 39.4 251.4 40.6C251.4 41.8 251.7 42.9 252.2 43.8C252.7 44.7 253.4 45.4999 254.3 45.9999C255.2 46.4999 256.2 46.8 257.3 46.8C258.4 46.8 259.4 46.4999 260.3 45.9999Z" fill="white"/>
<path d="M279.6 47.0999C278.5 46.4999 277.6 45.5999 277 44.4999C276.4 43.3999 276.1 42.0999 276.1 40.6999C276.1 39.2999 276.4 37.9999 277 36.8999C277.6 35.7999 278.5 34.8999 279.6 34.2999C280.7 33.6999 281.9 33.3999 283.3 33.3999C284.7 33.3999 285.9 33.6999 287 34.2999C288.1 34.8999 289 35.7999 289.6 36.8999C290.2 37.9999 290.5 39.2999 290.5 40.6999C290.5 42.0999 290.2 43.3999 289.6 44.4999C289 45.5999 288.1 46.4999 287 47.0999C285.9 47.6999 284.7 47.9999 283.3 47.9999C281.9 48.0999 280.7 47.6999 279.6 47.0999ZM286.3 45.9999C287.2 45.4999 287.9 44.7999 288.4 43.7999C288.9 42.8999 289.2 41.7999 289.2 40.5999C289.2 39.3999 288.9 38.2999 288.4 37.3999C287.9 36.4999 287.2 35.6999 286.3 35.1999C285.4 34.6999 284.4 34.3999 283.3 34.3999C282.2 34.3999 281.2 34.6999 280.3 35.1999C279.4 35.6999 278.7 36.3999 278.2 37.3999C277.7 38.2999 277.4 39.3999 277.4 40.5999C277.4 41.7999 277.7 42.8999 278.2 43.7999C278.7 44.6999 279.4 45.4999 280.3 45.9999C281.2 46.4999 282.2 46.7999 283.3 46.7999C284.4 46.7999 285.4 46.4999 286.3 45.9999Z" fill="white"/>
<path d="M306.3 34.9C307.4 36 307.9 37.5 307.9 39.5V48H306.5V39.6C306.5 38 306.1 36.7 305.3 35.9C304.5 35 303.3 34.6 301.8 34.6C300.1 34.6 298.7 35.1 297.8 36.1C296.8 37.1 296.3 38.5 296.3 40.2V48H294.9V33.4H296.2V36.6C296.7 35.6 297.5 34.8 298.4 34.2C299.4 33.6 300.6 33.3 301.9 33.3C303.8 33.3 305.3 33.8 306.3 34.9Z" fill="white"/>
<path d="M328.1 46.9999C327.7 47.2999 327.3 47.6 326.8 47.8C326.3 48 325.7 48.1 325.1 48.1C323.8 48.1 322.9 47.8 322.2 47.1C321.5 46.4 321.2 45.4 321.2 44.2V34.7H318.5V33.4H321.2V30.2H322.6V33.4H327.2V34.6H322.6V43.9999C322.6 44.8999 322.8 45.7 323.3 46.2C323.8 46.7 324.4 46.9 325.3 46.9C326.2 46.9 327 46.6 327.6 46.1L328.1 46.9999Z" fill="white"/>
<path d="M343.4 34.9C344.5 36 345 37.5 345 39.5V48H343.6V39.6C343.6 38 343.2 36.7 342.4 35.9C341.6 35 340.4 34.6 338.9 34.6C337.2 34.6 335.8 35.1 334.9 36.1C333.9 37.1 333.4 38.5 333.4 40.2V48H332V27.3H333.4V36.5C333.9 35.5 334.6 34.7 335.6 34.2C336.6 33.7 337.7 33.4 339.1 33.4C340.9 33.3 342.3 33.8 343.4 34.9Z" fill="white"/>
<path d="M363.1 41H350.6C350.6 42.1 350.9 43.1 351.5 44C352 44.9 352.8 45.6 353.7 46.1C354.6 46.6 355.7 46.8 356.8 46.8C357.7 46.8 358.6 46.6 359.4 46.3C360.2 46 360.9 45.4 361.4 44.8L362.2 45.7C361.6 46.5 360.8 47 359.8 47.5C358.8 47.9 357.8 48.1 356.7 48.1C355.2 48.1 354 47.8 352.8 47.2C351.7 46.6 350.8 45.7 350.1 44.6C349.5 43.5 349.1 42.2 349.1 40.8C349.1 39.4 349.4 38.1 350 37C350.6 35.9 351.4 35 352.5 34.4C353.6 33.8 354.8 33.5 356.1 33.5C357.4 33.5 358.6 33.8 359.7 34.4C360.8 35 361.6 35.9 362.2 37C362.8 38.1 363.1 39.4 363.1 40.8V41ZM353.4 35.2C352.6 35.7 351.9 36.3 351.4 37.1C350.9 37.9 350.6 38.9 350.5 39.9H361.7C361.6 38.9 361.4 37.9 360.9 37.1C360.4 36.3 359.7 35.6 358.9 35.2C358.1 34.7 357.2 34.5 356.1 34.5C355.1 34.5 354.2 34.7 353.4 35.2Z" fill="white"/>
<path d="M149.099 91.0999H132.399L129.099 98.7999H122.699L137.699 65.3999H143.799L158.899 98.7999H152.399L149.099 91.0999ZM147.099 86.2999L140.799 71.6999L134.599 86.2999H147.099Z" fill="white"/>
<path d="M183.4 74.7001C185.4 75.8001 186.9 77.3001 188 79.3001C189.1 81.3001 189.7 83.5001 189.7 86.1001C189.7 88.7001 189.1 91.0001 188 92.9001C186.9 94.9001 185.4 96.4001 183.4 97.5001C181.4 98.6001 179.2 99.1001 176.7 99.1001C173.3 99.1001 170.5 98.0001 168.5 95.7001V108H162.5V73.4001H168.2V76.7001C169.2 75.5001 170.4 74.6001 171.8 74.0001C173.2 73.4001 174.8 73.1001 176.6 73.1001C179.2 73.1001 181.4 73.6001 183.4 74.7001ZM181.5 91.9001C182.9 90.4001 183.6 88.5001 183.6 86.1001C183.6 83.7001 182.9 81.8001 181.5 80.3001C180.1 78.8001 178.3 78.1001 176.1 78.1001C174.7 78.1001 173.4 78.4001 172.2 79.1001C171.1 79.8001 170.1 80.7001 169.5 81.9001C168.8 83.1001 168.5 84.5001 168.5 86.1001C168.5 87.7001 168.8 89.1001 169.5 90.3001C170.2 91.5001 171.1 92.4001 172.2 93.1001C173.3 93.8001 174.6 94.1001 176.1 94.1001C178.3 94.1001 180.1 93.4001 181.5 91.9001Z" fill="white"/>
<path d="M216.099 74.7001C218.099 75.8001 219.599 77.3001 220.699 79.3001C221.799 81.3001 222.399 83.5001 222.399 86.1001C222.399 88.7001 221.799 91.0001 220.699 92.9001C219.599 94.9001 218.099 96.4001 216.099 97.5001C214.099 98.6001 211.899 99.1001 209.399 99.1001C205.999 99.1001 203.199 98.0001 201.199 95.7001V108H195.199V73.4001H200.899V76.7001C201.899 75.5001 203.099 74.6001 204.499 74.0001C205.899 73.4001 207.499 73.1001 209.299 73.1001C211.899 73.1001 214.099 73.6001 216.099 74.7001ZM214.199 91.9001C215.599 90.4001 216.299 88.5001 216.299 86.1001C216.299 83.7001 215.599 81.8001 214.199 80.3001C212.799 78.8001 210.999 78.1001 208.799 78.1001C207.399 78.1001 206.099 78.4001 204.899 79.1001C203.799 79.8001 202.799 80.7001 202.199 81.9001C201.499 83.1001 201.199 84.5001 201.199 86.1001C201.199 87.7001 201.499 89.1001 202.199 90.3001C202.899 91.5001 203.799 92.4001 204.899 93.1001C205.999 93.8001 207.299 94.1001 208.799 94.1001C210.999 94.1001 212.799 93.4001 214.199 91.9001Z" fill="white"/>
<path d="M244.598 98.2C242.198 97.5 240.298 96.5 238.898 95.3L240.998 90.5C242.398 91.6 243.998 92.5 245.998 93.1C247.998 93.8 249.998 94.1 251.998 94.1C254.498 94.1 256.298 93.7 257.598 92.9C258.798 92.1 259.398 91.1 259.398 89.8C259.398 88.8 259.098 88.1 258.398 87.4C257.698 86.8 256.898 86.3 255.798 85.9C254.798 85.6 253.298 85.2 251.498 84.7C248.998 84.1 246.898 83.5 245.298 82.9C243.698 82.3 242.398 81.4 241.198 80.1C240.098 78.8 239.498 77.1 239.498 74.9C239.498 73.1 239.998 71.4 240.998 69.9C241.998 68.4 243.498 67.2 245.498 66.3C247.498 65.4 249.998 65 252.898 65C254.898 65 256.898 65.3 258.898 65.8C260.898 66.3 262.598 67 263.998 68L261.998 72.8C260.498 71.9 258.998 71.3 257.398 70.8C255.798 70.4 254.298 70.1 252.798 70.1C250.398 70.1 248.498 70.5 247.298 71.3C246.098 72.1 245.498 73.2 245.498 74.6C245.498 75.6 245.798 76.3 246.498 76.9C247.198 77.5 247.998 78 249.098 78.3C250.098 78.7 251.598 79 253.398 79.5C255.898 80.1 257.898 80.7 259.498 81.3C261.098 81.9 262.398 82.9 263.598 84.1C264.698 85.4 265.298 87.1 265.298 89.2C265.298 91 264.798 92.7 263.798 94.2C262.798 95.7 261.298 96.9 259.198 97.8C257.198 98.7 254.698 99.1 251.798 99.1C249.498 99.3 246.998 99 244.598 98.2Z" fill="white"/>
<path d="M286.499 97.4999C285.799 98.0999 284.999 98.5 283.899 98.8C282.899 99.1 281.799 99.2 280.699 99.2C277.899 99.2 275.699 98.4999 274.199 96.9999C272.699 95.4999 271.899 93.4 271.899 90.6V78.3H267.699V73.4999H271.899V67.7H277.899V73.4999H284.699V78.3H277.899V90.4C277.899 91.6 278.199 92.6 278.799 93.2C279.399 93.9 280.299 94.2 281.399 94.2C282.699 94.2 283.799 93.9 284.699 93.2L286.499 97.4999Z" fill="white"/>
<path d="M295 97.4999C292.9 96.3999 291.3 94.8 290.2 92.9C289 90.9 288.5 88.7 288.5 86.2C288.5 83.7 289.1 81.3999 290.2 79.4999C291.4 77.4999 293 76 295 74.9C297.1 73.8 299.4 73.2 302 73.2C304.6 73.2 306.9 73.8 309 74.9C311.1 76 312.7 77.5999 313.8 79.4999C315 81.4999 315.5 83.7 315.5 86.2C315.5 88.7 314.9 91 313.8 92.9C312.6 94.9 311 96.3999 309 97.4999C306.9 98.5999 304.6 99.2 302 99.2C299.4 99.2 297.1 98.5999 295 97.4999ZM307.4 91.9C308.8 90.4 309.5 88.5 309.5 86.1C309.5 83.7 308.8 81.8 307.4 80.3C306 78.8 304.2 78.1 302 78.1C299.8 78.1 298 78.8 296.6 80.3C295.2 81.8 294.5 83.7 294.5 86.1C294.5 88.5 295.2 90.4 296.6 91.9C298 93.4 299.8 94.1 302 94.1C304.2 94.1 306 93.4 307.4 91.9Z" fill="white"/>
<path d="M335.999 73.1001V78.8001C335.499 78.7001 334.999 78.7001 334.599 78.7001C332.299 78.7001 330.499 79.4001 329.199 80.7001C327.899 82.1001 327.199 84.0001 327.199 86.5001V98.8001H321.199V73.4001H326.899V77.1001C328.699 74.4001 331.699 73.1001 335.999 73.1001Z" fill="white"/>
<path d="M364.699 88.0001H344.699C344.999 89.9001 345.999 91.4001 347.399 92.5001C348.899 93.6001 350.699 94.1001 352.899 94.1001C355.699 94.1001 357.999 93.2001 359.799 91.3001L362.999 95.0001C361.899 96.4001 360.399 97.4001 358.699 98.1001C356.999 98.8001 354.999 99.1001 352.799 99.1001C349.999 99.1001 347.499 98.5001 345.399 97.4001C343.299 96.3001 341.599 94.7001 340.499 92.8001C339.299 90.8001 338.799 88.6001 338.799 86.1001C338.799 83.6001 339.399 81.4001 340.499 79.4001C341.599 77.4001 343.199 75.9001 345.199 74.8001C347.199 73.7001 349.499 73.1001 351.999 73.1001C354.499 73.1001 356.699 73.6001 358.699 74.7001C360.699 75.8001 362.199 77.3001 363.299 79.3001C364.399 81.3001 364.899 83.6001 364.899 86.2001C364.799 86.7001 364.699 87.3001 364.699 88.0001ZM347.099 79.6001C345.799 80.7001 344.999 82.2001 344.699 84.1001H359.099C358.799 82.3001 358.099 80.8001 356.799 79.6001C355.499 78.5001 353.899 77.9001 351.899 77.9001C349.999 77.9001 348.399 78.4001 347.099 79.6001Z" fill="white"/>
</svg>
