<svg width="208" height="34" viewBox="0 0 208 34" fill="none" xmlns="http://www.w3.org/2000/svg">
<path d="M190.8 0H17C7.6 0 0 7.6 0 17C0 26.4 7.6 34 17 34H190.8C200.2 34 207.8 26.4 207.8 17C207.8 7.6 200.2 0 190.8 0Z" fill="#3AAA35"/>
<path d="M185.301 13C183.901 8.3 178.401 6.00002 174.001 8.40002C170.301 10.4 168.801 15 170.701 18.8C170.901 19.2 170.901 19.5 170.801 19.9C170.501 21 170.201 22.2 169.801 23.4C169.901 23.4 169.901 23.4 170.001 23.4C171.301 23.1 172.601 22.7 173.901 22.4C174.001 22.4 174.101 22.4 174.201 22.4C176.101 23.4 178.101 23.6 180.201 22.9C184.301 21.5 186.601 17.1 185.301 13ZM179.101 21.7C177.501 22 175.901 21.8 174.401 20.9C174.301 20.8 174.101 20.8 174.001 20.8C173.301 21 172.501 21.2 171.801 21.4C172.001 20.6 172.201 19.9 172.401 19.2C172.401 19.1 172.401 19 172.301 18.8C171.501 17.6 171.201 16.3 171.301 14.9C171.401 13 172.201 11.4 173.701 10.2C175.001 9.10001 176.501 8.70001 178.201 8.70001C181.201 8.80001 183.801 11.1 184.301 14.1C184.801 17.7 182.601 21 179.101 21.7Z" fill="#EDEDED"/>
<path d="M181.701 17.0999C181.101 16.7999 180.601 16.5999 180.001 16.2999C179.801 16.1999 179.701 16.3 179.601 16.4C179.401 16.6 179.201 16.8999 179.001 17.0999C178.901 17.1999 178.801 17.3 178.601 17.2C177.401 16.7 176.501 15.9 175.901 14.9C175.801 14.8 175.801 14.5999 175.901 14.4999C176.101 14.2999 176.201 14.1 176.401 13.9C176.501 13.8 176.501 13.5999 176.401 13.4999C176.201 13.0999 176.001 12.6 175.801 12.2C175.701 11.9 175.501 11.6999 175.201 11.7999C174.901 11.7999 174.701 11.7999 174.501 11.9999C173.901 12.5999 173.701 13.4 173.901 14.2C174.001 14.8 174.301 15.2999 174.701 15.7999C175.801 17.3999 177.201 18.5999 179.101 19.0999C179.601 19.1999 180.101 19.2999 180.701 19.0999C181.601 18.6999 181.801 18.2999 181.901 17.4999C181.801 17.1999 181.701 17.0999 181.701 17.0999Z" fill="#EDEDED"/>
<path d="M23.6168 19.6636V7.36001H27.7741C28.7393 7.36001 29.5283 7.53423 30.1411 7.88267C30.7579 8.22711 31.2144 8.6937 31.5108 9.28244C31.8072 9.87119 31.9554 10.528 31.9554 11.2529C31.9554 11.9779 31.8072 12.6367 31.5108 13.2294C31.2185 13.8222 30.7659 14.2948 30.1531 14.6472C29.5403 14.9957 28.7553 15.1699 27.7981 15.1699H24.8184V13.8482H27.7501C28.4109 13.8482 28.9416 13.7341 29.3421 13.5058C29.7426 13.2775 30.033 12.9691 30.2132 12.5806C30.3974 12.1881 30.4895 11.7456 30.4895 11.2529C30.4895 10.7603 30.3974 10.3198 30.2132 9.93126C30.033 9.54277 29.7406 9.23839 29.3361 9.01811C28.9316 8.79382 28.3949 8.68168 27.726 8.68168H25.1067V19.6636H23.6168ZM34.1632 19.6636V10.4359H35.5329V11.8297H35.629C35.7972 11.3731 36.1016 11.0026 36.5422 10.7183C36.9827 10.4339 37.4794 10.2917 38.0321 10.2917C38.1362 10.2917 38.2664 10.2937 38.4226 10.2977C38.5788 10.3017 38.6969 10.3077 38.777 10.3157V11.7576C38.729 11.7456 38.6188 11.7275 38.4466 11.7035C38.2784 11.6755 38.1002 11.6615 37.9119 11.6615C37.4634 11.6615 37.0628 11.7556 36.7104 11.9438C36.362 12.128 36.0856 12.3844 35.8814 12.7128C35.6811 13.0372 35.581 13.4077 35.581 13.8242V19.6636H34.1632ZM44.0457 19.8558C43.1566 19.8558 42.3896 19.6596 41.7448 19.2671C41.104 18.8706 40.6093 18.3179 40.2609 17.609C39.9165 16.8961 39.7442 16.067 39.7442 15.1218C39.7442 14.1766 39.9165 13.3436 40.2609 12.6227C40.6093 11.8978 41.0939 11.333 41.7147 10.9285C42.3395 10.52 43.0684 10.3157 43.9015 10.3157C44.3821 10.3157 44.8567 10.3959 45.3253 10.5561C45.7939 10.7163 46.2204 10.9766 46.6049 11.337C46.9894 11.6935 47.2958 12.1661 47.5241 12.7548C47.7524 13.3436 47.8665 14.0685 47.8665 14.9296V15.5303H40.7535V14.3048H46.4247C46.4247 13.7841 46.3206 13.3195 46.1123 12.911C45.908 12.5025 45.6157 12.1801 45.2352 11.9438C44.8587 11.7075 44.4141 11.5894 43.9015 11.5894C43.3368 11.5894 42.8482 11.7295 42.4356 12.0099C42.0271 12.2862 41.7127 12.6467 41.4925 13.0913C41.2722 13.5358 41.162 14.0124 41.162 14.5211V15.3381C41.162 16.035 41.2822 16.6257 41.5225 17.1103C41.7668 17.591 42.1052 17.9574 42.5378 18.2097C42.9703 18.458 43.473 18.5822 44.0457 18.5822C44.4182 18.5822 44.7546 18.5301 45.055 18.426C45.3593 18.3179 45.6217 18.1577 45.842 17.9454C46.0622 17.7291 46.2324 17.4608 46.3526 17.1404L47.7223 17.5249C47.5781 17.9895 47.3358 18.398 46.9954 18.7504C46.655 19.0989 46.2344 19.3712 45.7338 19.5675C45.2332 19.7597 44.6705 19.8558 44.0457 19.8558ZM53.772 19.8558C52.9069 19.8558 52.1619 19.6516 51.5372 19.243C50.9124 18.8345 50.4318 18.2718 50.0953 17.5549C49.7589 16.838 49.5907 16.019 49.5907 15.0978C49.5907 14.1606 49.7629 13.3336 50.1073 12.6167C50.4558 11.8957 50.9404 11.333 51.5612 10.9285C52.186 10.52 52.9149 10.3157 53.748 10.3157C54.3968 10.3157 54.9815 10.4359 55.5022 10.6762C56.0228 10.9165 56.4494 11.2529 56.7818 11.6855C57.1142 12.118 57.3205 12.6227 57.4006 13.1994H55.9828C55.8746 12.7789 55.6343 12.4064 55.2619 12.082C54.8934 11.7536 54.3968 11.5894 53.772 11.5894C53.2193 11.5894 52.7347 11.7335 52.3181 12.0219C51.9056 12.3063 51.5832 12.7088 51.3509 13.2294C51.1226 13.7461 51.0085 14.3529 51.0085 15.0497C51.0085 15.7626 51.1206 16.3834 51.3449 16.9121C51.5732 17.4408 51.8936 17.8513 52.3061 18.1437C52.7227 18.436 53.2113 18.5822 53.772 18.5822C54.1405 18.5822 54.4749 18.5181 54.7753 18.39C55.0756 18.2618 55.33 18.0776 55.5382 17.8373C55.7465 17.597 55.8947 17.3086 55.9828 16.9722H57.4006C57.3205 17.5169 57.1222 18.0075 56.8058 18.444C56.4934 18.8766 56.0789 19.221 55.5622 19.4773C55.0496 19.7297 54.4528 19.8558 53.772 19.8558ZM59.4732 19.6636V10.4359H60.891V19.6636H59.4732ZM60.1941 8.89796C59.9178 8.89796 59.6795 8.80384 59.4792 8.6156C59.283 8.42736 59.1848 8.20107 59.1848 7.93674C59.1848 7.67241 59.283 7.44612 59.4792 7.25788C59.6795 7.06964 59.9178 6.97552 60.1941 6.97552C60.4705 6.97552 60.7068 7.06964 60.903 7.25788C61.1033 7.44612 61.2034 7.67241 61.2034 7.93674C61.2034 8.20107 61.1033 8.42736 60.903 8.6156C60.7068 8.80384 60.4705 8.89796 60.1941 8.89796ZM70.024 12.5025L68.7504 12.863C68.6703 12.6507 68.5522 12.4444 68.396 12.2442C68.2438 12.0399 68.0355 11.8717 67.7712 11.7396C67.5069 11.6074 67.1684 11.5413 66.7559 11.5413C66.1912 11.5413 65.7206 11.6715 65.3441 11.9318C64.9717 12.1881 64.7854 12.5145 64.7854 12.911C64.7854 13.2635 64.9136 13.5418 65.1699 13.7461C65.4262 13.9503 65.8267 14.1206 66.3714 14.2567L67.7412 14.5932C68.5662 14.7934 69.181 15.0998 69.5855 15.5123C69.99 15.9208 70.1923 16.4475 70.1923 17.0923C70.1923 17.621 70.0401 18.0936 69.7357 18.5101C69.4353 18.9266 69.0148 19.2551 68.4741 19.4954C67.9334 19.7357 67.3046 19.8558 66.5877 19.8558C65.6465 19.8558 64.8675 19.6516 64.2507 19.243C63.634 18.8345 63.2435 18.2378 63.0793 17.4528L64.425 17.1164C64.5531 17.613 64.7954 17.9855 65.1519 18.2338C65.5123 18.4821 65.9829 18.6062 66.5637 18.6062C67.2245 18.6062 67.7492 18.4661 68.1377 18.1857C68.5302 17.9013 68.7264 17.5609 68.7264 17.1644C68.7264 16.844 68.6143 16.5757 68.39 16.3594C68.1657 16.1391 67.8213 15.9749 67.3567 15.8668L65.8187 15.5063C64.9737 15.3061 64.3529 14.9957 63.9564 14.5751C63.5639 14.1506 63.3676 13.6199 63.3676 12.9831C63.3676 12.4625 63.5138 12.0019 63.8062 11.6014C64.1026 11.2009 64.5051 10.8865 65.0137 10.6582C65.5264 10.4299 66.1071 10.3157 66.7559 10.3157C67.6691 10.3157 68.386 10.516 68.9066 10.9165C69.4313 11.317 69.8038 11.8457 70.024 12.5025ZM76.0752 19.8558C75.2421 19.8558 74.5112 19.6576 73.8824 19.2611C73.2576 18.8646 72.769 18.3099 72.4166 17.597C72.0681 16.8841 71.8939 16.051 71.8939 15.0978C71.8939 14.1366 72.0681 13.2975 72.4166 12.5806C72.769 11.8637 73.2576 11.307 73.8824 10.9105C74.5112 10.514 75.2421 10.3157 76.0752 10.3157C76.9082 10.3157 77.6372 10.514 78.262 10.9105C78.8908 11.307 79.3794 11.8637 79.7278 12.5806C80.0803 13.2975 80.2565 14.1366 80.2565 15.0978C80.2565 16.051 80.0803 16.8841 79.7278 17.597C79.3794 18.3099 78.8908 18.8646 78.262 19.2611C77.6372 19.6576 76.9082 19.8558 76.0752 19.8558ZM76.0752 18.5822C76.708 18.5822 77.2287 18.42 77.6372 18.0956C78.0457 17.7712 78.3481 17.3446 78.5443 16.816C78.7406 16.2873 78.8387 15.7146 78.8387 15.0978C78.8387 14.481 78.7406 13.9063 78.5443 13.3736C78.3481 12.8409 78.0457 12.4104 77.6372 12.082C77.2287 11.7536 76.708 11.5894 76.0752 11.5894C75.4424 11.5894 74.9217 11.7536 74.5132 12.082C74.1047 12.4104 73.8023 12.8409 73.6061 13.3736C73.4098 13.9063 73.3117 14.481 73.3117 15.0978C73.3117 15.7146 73.4098 16.2873 73.6061 16.816C73.8023 17.3446 74.1047 17.7712 74.5132 18.0956C74.9217 18.42 75.4424 18.5822 76.0752 18.5822ZM90.6632 19.8558C89.8942 19.8558 89.2153 19.6616 88.6266 19.2731C88.0378 18.8806 87.5772 18.3279 87.2448 17.615C86.9124 16.8981 86.7462 16.051 86.7462 15.0738C86.7462 14.1045 86.9124 13.2635 87.2448 12.5506C87.5772 11.8377 88.0398 11.287 88.6326 10.8985C89.2253 10.51 89.9102 10.3157 90.6872 10.3157C91.2879 10.3157 91.7625 10.4159 92.111 10.6161C92.4634 10.8124 92.7318 11.0367 92.916 11.289C93.1042 11.5373 93.2504 11.7416 93.3546 11.9018H93.4747V7.36001H94.8925V19.6636H93.5228V18.2458H93.3546C93.2504 18.414 93.1022 18.6263 92.91 18.8826C92.7178 19.1349 92.4434 19.3612 92.087 19.5614C91.7305 19.7577 91.2559 19.8558 90.6632 19.8558ZM90.8554 18.5822C91.4241 18.5822 91.9047 18.434 92.2972 18.1376C92.6897 17.8373 92.9881 17.4227 93.1924 16.8941C93.3966 16.3614 93.4987 15.7466 93.4987 15.0497C93.4987 14.3609 93.3986 13.7581 93.1984 13.2414C92.9981 12.7208 92.7017 12.3163 92.3092 12.0279C91.9167 11.7355 91.4321 11.5894 90.8554 11.5894C90.2546 11.5894 89.754 11.7436 89.3535 12.0519C88.957 12.3563 88.6586 12.7709 88.4584 13.2955C88.2621 13.8162 88.164 14.4009 88.164 15.0497C88.164 15.7066 88.2641 16.3033 88.4644 16.84C88.6686 17.3727 88.969 17.7972 89.3655 18.1136C89.766 18.426 90.2626 18.5822 90.8554 18.5822ZM101.555 19.8558C100.666 19.8558 99.8988 19.6596 99.254 19.2671C98.6132 18.8706 98.1186 18.3179 97.7701 17.609C97.4257 16.8961 97.2535 16.067 97.2535 15.1218C97.2535 14.1766 97.4257 13.3436 97.7701 12.6227C98.1186 11.8978 98.6032 11.333 99.224 10.9285C99.8488 10.52 100.578 10.3157 101.411 10.3157C101.891 10.3157 102.366 10.3959 102.835 10.5561C103.303 10.7163 103.73 10.9766 104.114 11.337C104.499 11.6935 104.805 12.1661 105.033 12.7548C105.262 13.3436 105.376 14.0685 105.376 14.9296V15.5303H98.2628V14.3048H103.934C103.934 13.7841 103.83 13.3195 103.622 12.911C103.417 12.5025 103.125 12.1801 102.744 11.9438C102.368 11.7075 101.923 11.5894 101.411 11.5894C100.846 11.5894 100.357 11.7295 99.9449 12.0099C99.5364 12.2862 99.222 12.6467 99.0017 13.0913C98.7814 13.5358 98.6713 14.0124 98.6713 14.5211V15.3381C98.6713 16.035 98.7914 16.6257 99.0317 17.1103C99.2761 17.591 99.6145 17.9574 100.047 18.2097C100.48 18.458 100.982 18.5822 101.555 18.5822C101.927 18.5822 102.264 18.5301 102.564 18.426C102.869 18.3179 103.131 18.1577 103.351 17.9454C103.571 17.7291 103.742 17.4608 103.862 17.1404L105.232 17.5249C105.087 17.9895 104.845 18.398 104.505 18.7504C104.164 19.0989 103.744 19.3712 103.243 19.5675C102.742 19.7597 102.18 19.8558 101.555 19.8558ZM118.827 12.5025L117.553 12.863C117.473 12.6507 117.355 12.4444 117.199 12.2442C117.047 12.0399 116.838 11.8717 116.574 11.7396C116.31 11.6074 115.971 11.5413 115.559 11.5413C114.994 11.5413 114.523 11.6715 114.147 11.9318C113.774 12.1881 113.588 12.5145 113.588 12.911C113.588 13.2635 113.716 13.5418 113.973 13.7461C114.229 13.9503 114.629 14.1206 115.174 14.2567L116.544 14.5932C117.369 14.7934 117.984 15.0998 118.388 15.5123C118.793 15.9208 118.995 16.4475 118.995 17.0923C118.995 17.621 118.843 18.0936 118.538 18.5101C118.238 18.9266 117.817 19.2551 117.277 19.4954C116.736 19.7357 116.107 19.8558 115.39 19.8558C114.449 19.8558 113.67 19.6516 113.053 19.243C112.437 18.8345 112.046 18.2378 111.882 17.4528L113.228 17.1164C113.356 17.613 113.598 17.9855 113.955 18.2338C114.315 18.4821 114.786 18.6062 115.366 18.6062C116.027 18.6062 116.552 18.4661 116.94 18.1857C117.333 17.9013 117.529 17.5609 117.529 17.1644C117.529 16.844 117.417 16.5757 117.193 16.3594C116.968 16.1391 116.624 15.9749 116.159 15.8668L114.621 15.5063C113.776 15.3061 113.156 14.9957 112.759 14.5751C112.367 14.1506 112.17 13.6199 112.17 12.9831C112.17 12.4625 112.317 12.0019 112.609 11.6014C112.905 11.2009 113.308 10.8865 113.816 10.6582C114.329 10.4299 114.91 10.3157 115.559 10.3157C116.472 10.3157 117.189 10.516 117.709 10.9165C118.234 11.317 118.606 11.8457 118.827 12.5025ZM126.945 15.8908V10.4359H128.362V19.6636H126.945V18.1016H126.848C126.632 18.5702 126.296 18.9687 125.839 19.2971C125.383 19.6215 124.806 19.7837 124.109 19.7837C123.532 19.7837 123.02 19.6576 122.571 19.4052C122.122 19.1489 121.77 18.7644 121.514 18.2518C121.257 17.7351 121.129 17.0843 121.129 16.2993V10.4359H122.547V16.2032C122.547 16.876 122.735 17.4127 123.112 17.8132C123.492 18.2137 123.977 18.414 124.566 18.414C124.918 18.414 125.276 18.3239 125.641 18.1437C126.009 17.9634 126.318 17.6871 126.566 17.3146C126.818 16.9421 126.945 16.4675 126.945 15.8908ZM130.959 23.124V10.4359H132.329V11.9018H132.497C132.601 11.7416 132.745 11.5373 132.93 11.289C133.118 11.0367 133.386 10.8124 133.735 10.6161C134.087 10.4159 134.564 10.3157 135.164 10.3157C135.941 10.3157 136.626 10.51 137.219 10.8985C137.812 11.287 138.274 11.8377 138.607 12.5506C138.939 13.2635 139.105 14.1045 139.105 15.0738C139.105 16.051 138.939 16.8981 138.607 17.615C138.274 18.3279 137.814 18.8806 137.225 19.2731C136.636 19.6616 135.957 19.8558 135.188 19.8558C134.596 19.8558 134.121 19.7577 133.765 19.5614C133.408 19.3612 133.134 19.1349 132.942 18.8826C132.749 18.6263 132.601 18.414 132.497 18.2458H132.377V23.124H130.959ZM132.353 15.0497C132.353 15.7466 132.455 16.3614 132.659 16.8941C132.864 17.4227 133.162 17.8373 133.554 18.1376C133.947 18.434 134.428 18.5822 134.996 18.5822C135.589 18.5822 136.084 18.426 136.48 18.1136C136.881 17.7972 137.181 17.3727 137.381 16.84C137.586 16.3033 137.688 15.7066 137.688 15.0497C137.688 14.4009 137.588 13.8162 137.387 13.2955C137.191 12.7709 136.893 12.3563 136.492 12.0519C136.096 11.7436 135.597 11.5894 134.996 11.5894C134.42 11.5894 133.935 11.7355 133.542 12.0279C133.15 12.3163 132.854 12.7208 132.653 13.2414C132.453 13.7581 132.353 14.3609 132.353 15.0497ZM145.017 19.8558C144.184 19.8558 143.453 19.6576 142.824 19.2611C142.199 18.8646 141.711 18.3099 141.358 17.597C141.01 16.8841 140.836 16.051 140.836 15.0978C140.836 14.1366 141.01 13.2975 141.358 12.5806C141.711 11.8637 142.199 11.307 142.824 10.9105C143.453 10.514 144.184 10.3157 145.017 10.3157C145.85 10.3157 146.579 10.514 147.204 10.9105C147.832 11.307 148.321 11.8637 148.67 12.5806C149.022 13.2975 149.198 14.1366 149.198 15.0978C149.198 16.051 149.022 16.8841 148.67 17.597C148.321 18.3099 147.832 18.8646 147.204 19.2611C146.579 19.6576 145.85 19.8558 145.017 19.8558ZM145.017 18.5822C145.65 18.5822 146.17 18.42 146.579 18.0956C146.987 17.7712 147.29 17.3446 147.486 16.816C147.682 16.2873 147.78 15.7146 147.78 15.0978C147.78 14.481 147.682 13.9063 147.486 13.3736C147.29 12.8409 146.987 12.4104 146.579 12.082C146.17 11.7536 145.65 11.5894 145.017 11.5894C144.384 11.5894 143.863 11.7536 143.455 12.082C143.046 12.4104 142.744 12.8409 142.548 13.3736C142.352 13.9063 142.253 14.481 142.253 15.0978C142.253 15.7146 142.352 16.2873 142.548 16.816C142.744 17.3446 143.046 17.7712 143.455 18.0956C143.863 18.42 144.384 18.5822 145.017 18.5822ZM151.362 19.6636V10.4359H152.732V11.8297H152.828C152.997 11.3731 153.301 11.0026 153.741 10.7183C154.182 10.4339 154.679 10.2917 155.231 10.2917C155.335 10.2917 155.466 10.2937 155.622 10.2977C155.778 10.3017 155.896 10.3077 155.976 10.3157V11.7576C155.928 11.7456 155.818 11.7275 155.646 11.7035C155.478 11.6755 155.299 11.6615 155.111 11.6615C154.663 11.6615 154.262 11.7556 153.91 11.9438C153.561 12.128 153.285 12.3844 153.081 12.7128C152.88 13.0372 152.78 13.4077 152.78 13.8242V19.6636H151.362ZM162.248 10.4359V11.6374H157.466V10.4359H162.248ZM158.86 8.2251H160.278V17.0202C160.278 17.4207 160.336 17.7211 160.452 17.9214C160.572 18.1176 160.724 18.2498 160.909 18.3179C161.097 18.382 161.295 18.414 161.503 18.414C161.659 18.414 161.788 18.406 161.888 18.39C161.988 18.3699 162.068 18.3539 162.128 18.3419L162.416 19.6155C162.32 19.6516 162.186 19.6876 162.014 19.7237C161.842 19.7637 161.623 19.7837 161.359 19.7837C160.959 19.7837 160.566 19.6976 160.182 19.5254C159.801 19.3532 159.485 19.0908 159.232 18.7384C158.984 18.386 158.86 17.9414 158.86 17.4047V8.2251ZM168.151 19.8558C167.262 19.8558 166.495 19.6596 165.85 19.2671C165.209 18.8706 164.714 18.3179 164.366 17.609C164.021 16.8961 163.849 16.067 163.849 15.1218C163.849 14.1766 164.021 13.3436 164.366 12.6227C164.714 11.8978 165.199 11.333 165.82 10.9285C166.445 10.52 167.173 10.3157 168.006 10.3157C168.487 10.3157 168.962 10.3959 169.43 10.5561C169.899 10.7163 170.325 10.9766 170.71 11.337C171.094 11.6935 171.401 12.1661 171.629 12.7548C171.857 13.3436 171.971 14.0685 171.971 14.9296V15.5303H164.859V14.3048H170.53C170.53 13.7841 170.426 13.3195 170.217 12.911C170.013 12.5025 169.721 12.1801 169.34 11.9438C168.964 11.7075 168.519 11.5894 168.006 11.5894C167.442 11.5894 166.953 11.7295 166.541 12.0099C166.132 12.2862 165.818 12.6467 165.597 13.0913C165.377 13.5358 165.267 14.0124 165.267 14.5211V15.3381C165.267 16.035 165.387 16.6257 165.627 17.1103C165.872 17.591 166.21 17.9574 166.643 18.2097C167.075 18.458 167.578 18.5822 168.151 18.5822C168.523 18.5822 168.86 18.5301 169.16 18.426C169.464 18.3179 169.727 18.1577 169.947 17.9454C170.167 17.7291 170.337 17.4608 170.458 17.1404L171.827 17.5249C171.683 17.9895 171.441 18.398 171.1 18.7504C170.76 19.0989 170.339 19.3712 169.839 19.5675C169.338 19.7597 168.775 19.8558 168.151 19.8558Z" fill="#EDEDED"/>
</svg>
