<svg width="208" height="34" viewBox="0 0 208 34" fill="none" xmlns="http://www.w3.org/2000/svg">
<path d="M190.8 0H17C7.6 0 0 7.6 0 17C0 26.4 7.6 34 17 34H190.8C200.2 34 207.8 26.4 207.8 17C207.8 7.6 200.2 0 190.8 0Z" fill="#3AAA35"/>
<path d="M185.3 13C183.9 8.3 178.4 6.00002 174 8.40002C170.3 10.4 168.8 15 170.7 18.8C170.9 19.2 170.9 19.5 170.8 19.9C170.5 21 170.2 22.2 169.8 23.4C169.9 23.4 169.9 23.4 170 23.4C171.3 23.1 172.6 22.7 173.9 22.4C174 22.4 174.1 22.4 174.2 22.4C176.1 23.4 178.1 23.6 180.2 22.9C184.3 21.5 186.6 17.1 185.3 13ZM179.1 21.7C177.5 22 175.9 21.8 174.4 20.9C174.3 20.8 174.1 20.8 174 20.8C173.3 21 172.5 21.2 171.8 21.4C172 20.6 172.2 19.9 172.4 19.2C172.4 19.1 172.4 19 172.3 18.8C171.5 17.6 171.2 16.3 171.3 14.9C171.4 13 172.2 11.4 173.7 10.2C175 9.10001 176.5 8.70001 178.2 8.70001C181.2 8.80001 183.8 11.1 184.3 14.1C184.8 17.7 182.6 21 179.1 21.7Z" fill="#EDEDED"/>
<path d="M181.7 17.1004C181.1 16.8004 180.6 16.6004 180 16.3004C179.8 16.2004 179.7 16.3005 179.6 16.4005C179.4 16.6005 179.2 16.9004 179 17.1004C178.9 17.2004 178.8 17.3004 178.6 17.2004C177.4 16.7004 176.5 15.9005 175.9 14.9005C175.8 14.8005 175.8 14.6004 175.9 14.5004C176.1 14.3004 176.2 14.1005 176.4 13.9005C176.5 13.8005 176.5 13.6004 176.4 13.5004C176.2 13.1004 176 12.6004 175.8 12.2004C175.7 11.9004 175.5 11.7004 175.2 11.8004C174.9 11.8004 174.7 11.8004 174.5 12.0004C173.9 12.6004 173.7 13.4004 173.9 14.2004C174 14.8004 174.3 15.3004 174.7 15.8004C175.8 17.4004 177.2 18.6004 179.1 19.1004C179.6 19.2004 180.1 19.3004 180.7 19.1004C181.6 18.7004 181.8 18.3004 181.9 17.5004C181.8 17.2004 181.7 17.1004 181.7 17.1004Z" fill="#EDEDED"/>
<path d="M25.5468 18.3686V22.6641H23.5891V10.8186H27.1823C28.5426 10.8186 29.5972 11.1352 30.3461 11.7685C31.095 12.4018 31.4695 13.294 31.4695 14.4449C31.4695 15.5959 31.0785 16.5376 30.2965 17.27C29.5145 18.0024 28.4572 18.3686 27.1245 18.3686H25.5468ZM25.5468 12.4376V16.7661H26.8189C27.6615 16.7661 28.303 16.5706 28.7436 16.1796C29.1841 15.7886 29.4044 15.2379 29.4044 14.5275C29.4044 13.1343 28.5949 12.4376 26.9758 12.4376H25.5468ZM38.177 16.0309C37.9457 15.8492 37.6125 15.7583 37.1775 15.7583C36.6103 15.7583 36.1367 16.0144 35.7567 16.5265C35.3767 17.0387 35.1867 17.7353 35.1867 18.6164V22.6641H33.2703V14.2054H35.1867V15.9483H35.2198C35.407 15.3536 35.6934 14.891 36.0789 14.5606C36.4698 14.2246 36.9049 14.0567 37.384 14.0567C37.7309 14.0567 37.9953 14.109 38.177 14.2136V16.0309ZM46.5448 18.9551H40.779C40.8011 19.7371 41.0406 20.3401 41.4977 20.7642C41.9603 21.1882 42.5936 21.4002 43.3976 21.4002C44.3008 21.4002 45.1296 21.1304 45.884 20.5907V22.1354C45.113 22.62 44.0942 22.8623 42.8276 22.8623C41.5831 22.8623 40.6056 22.4796 39.8952 21.7141C39.1903 20.9431 38.8378 19.861 38.8378 18.4678C38.8378 17.1516 39.2261 16.0805 40.0026 15.2544C40.7846 14.4229 41.7538 14.0071 42.9102 14.0071C44.0667 14.0071 44.9616 14.3788 45.5949 15.1223C46.2282 15.8657 46.5448 16.8983 46.5448 18.2199V18.9551ZM44.6945 17.6004C44.689 16.912 44.5265 16.3779 44.2071 15.9979C43.8877 15.6124 43.4472 15.4196 42.8855 15.4196C42.3348 15.4196 41.8667 15.6207 41.4812 16.0227C41.1012 16.4247 40.8672 16.9506 40.779 17.6004H44.6945ZM54.4253 22.2758C53.748 22.6668 52.9467 22.8623 52.0215 22.8623C50.7659 22.8623 49.7526 22.4713 48.9817 21.6893C48.2107 20.9018 47.8252 19.883 47.8252 18.633C47.8252 17.2397 48.2382 16.1218 49.0643 15.2792C49.8958 14.4311 51.0055 14.0071 52.3932 14.0071C53.1642 14.0071 53.8443 14.142 54.4336 14.4119V16.1961C53.8443 15.7556 53.2165 15.5353 52.5502 15.5353C51.7407 15.5353 51.0771 15.8106 50.5594 16.3613C50.0418 16.9065 49.7829 17.6224 49.7829 18.5091C49.7829 19.3847 50.0252 20.0758 50.5099 20.5824C51 21.0891 51.6553 21.3424 52.4758 21.3424C53.1642 21.3424 53.814 21.0973 54.4253 20.6072V22.2758ZM57.2999 12.4294C56.986 12.4294 56.7162 12.3275 56.4904 12.1237C56.2701 11.92 56.16 11.6611 56.16 11.3472C56.16 11.0333 56.2701 10.7718 56.4904 10.5625C56.7162 10.3532 56.986 10.2486 57.2999 10.2486C57.6249 10.2486 57.9002 10.3532 58.126 10.5625C58.3518 10.7718 58.4647 11.0333 58.4647 11.3472C58.4647 11.6446 58.3518 11.9007 58.126 12.1155C57.9002 12.3247 57.6249 12.4294 57.2999 12.4294ZM58.2499 22.6641H56.3335V14.2054H58.2499V22.6641ZM60.2324 22.3997V20.6237C60.9483 21.1689 61.7386 21.4415 62.6032 21.4415C63.7596 21.4415 64.3379 21.1001 64.3379 20.4172C64.3379 20.2245 64.2883 20.062 64.1892 19.9299C64.09 19.7922 63.9551 19.671 63.7844 19.5664C63.6192 19.4618 63.4209 19.3681 63.1896 19.2855C62.9639 19.2029 62.7105 19.1093 62.4297 19.0047C62.0827 18.867 61.7689 18.7211 61.488 18.5669C61.2126 18.4127 60.9814 18.2392 60.7941 18.0465C60.6124 17.8482 60.4747 17.6252 60.3811 17.3774C60.2875 17.1296 60.2407 16.8404 60.2407 16.51C60.2407 16.1025 60.337 15.7446 60.5298 15.4362C60.7225 15.1223 60.9814 14.8607 61.3063 14.6514C61.6312 14.4367 62.0001 14.277 62.4132 14.1723C62.8262 14.0622 63.253 14.0071 63.6935 14.0071C64.4755 14.0071 65.1749 14.1255 65.7917 14.3623V16.0392C65.1969 15.6317 64.5141 15.4279 63.7431 15.4279C63.5008 15.4279 63.2805 15.4527 63.0823 15.5023C62.8895 15.5518 62.7243 15.6207 62.5866 15.7088C62.449 15.7969 62.3416 15.9043 62.2645 16.0309C62.1874 16.1521 62.1488 16.287 62.1488 16.4357C62.1488 16.6174 62.1874 16.7716 62.2645 16.8983C62.3416 17.0249 62.4545 17.1378 62.6032 17.2369C62.7574 17.3306 62.9391 17.4187 63.1483 17.5013C63.3631 17.5784 63.6082 17.6637 63.8835 17.7574C64.247 17.906 64.5719 18.0575 64.8583 18.2117C65.1501 18.3659 65.3979 18.5421 65.6017 18.7403C65.8055 18.9331 65.9624 19.1589 66.0725 19.4177C66.1827 19.671 66.2378 19.9739 66.2378 20.3264C66.2378 20.7559 66.1386 21.1304 65.9404 21.4498C65.7421 21.7692 65.4778 22.0335 65.1474 22.2428C64.817 22.452 64.4342 22.6062 63.9992 22.7054C63.5696 22.81 63.1153 22.8623 62.6362 22.8623C61.711 22.8623 60.9098 22.7081 60.2324 22.3997ZM71.8136 22.8623C70.5084 22.8623 69.4648 22.4686 68.6828 21.6811C67.9064 20.8881 67.5181 19.839 67.5181 18.5338C67.5181 17.113 67.9229 16.0034 68.7324 15.2049C69.5474 14.4064 70.6433 14.0071 72.0201 14.0071C73.3417 14.0071 74.3715 14.3954 75.1095 15.1718C75.8474 15.9483 76.2164 17.0249 76.2164 18.4017C76.2164 19.7509 75.8171 20.833 75.0186 21.648C74.2256 22.4576 73.1573 22.8623 71.8136 22.8623ZM71.9044 15.5353C71.1555 15.5353 70.5635 15.7969 70.1284 16.32C69.6934 16.8432 69.4758 17.5646 69.4758 18.4843C69.4758 19.3709 69.6961 20.0703 70.1367 20.5824C70.5772 21.0891 71.1665 21.3424 71.9044 21.3424C72.6589 21.3424 73.2371 21.0918 73.6391 20.5907C74.0466 20.0896 74.2504 19.3764 74.2504 18.4512C74.2504 17.5206 74.0466 16.8019 73.6391 16.2953C73.2371 15.7886 72.6589 15.5353 71.9044 15.5353ZM90.5235 22.6641H88.607V21.2267H88.574C87.9572 22.3171 87.0073 22.8623 85.7242 22.8623C84.6833 22.8623 83.849 22.4851 83.2212 21.7306C82.5989 20.9707 82.2878 19.9381 82.2878 18.633C82.2878 17.2342 82.632 16.1135 83.3204 15.271C84.0142 14.4284 84.9367 14.0071 86.0876 14.0071C87.2276 14.0071 88.0564 14.4642 88.574 15.3783H88.607V10.1412H90.5235V22.6641ZM88.6318 18.7982V17.6913C88.6318 17.091 88.4363 16.5816 88.0453 16.1631C87.6543 15.7446 87.156 15.5353 86.5502 15.5353C85.8343 15.5353 85.2698 15.8024 84.8568 16.3366C84.4493 16.8707 84.2455 17.6114 84.2455 18.5586C84.2455 19.4177 84.441 20.0978 84.832 20.599C85.2285 21.0946 85.7599 21.3424 86.4263 21.3424C87.0816 21.3424 87.613 21.1028 88.0206 20.6237C88.4281 20.1391 88.6318 19.5306 88.6318 18.7982ZM100.188 18.9551H94.4224C94.4444 19.7371 94.684 20.3401 95.1411 20.7642C95.6036 21.1882 96.2369 21.4002 97.041 21.4002C97.9441 21.4002 98.7729 21.1304 99.5274 20.5907V22.1354C98.7564 22.62 97.7376 22.8623 96.471 22.8623C95.2264 22.8623 94.2489 22.4796 93.5385 21.7141C92.8336 20.9431 92.4812 19.861 92.4812 18.4678C92.4812 17.1516 92.8694 16.0805 93.6459 15.2544C94.4279 14.4229 95.3971 14.0071 96.5536 14.0071C97.7101 14.0071 98.6049 14.3788 99.2382 15.1223C99.8715 15.8657 100.188 16.8983 100.188 18.2199V18.9551ZM98.3379 17.6004C98.3324 16.912 98.1699 16.3779 97.8505 15.9979C97.5311 15.6124 97.0905 15.4196 96.5288 15.4196C95.9781 15.4196 95.51 15.6207 95.1245 16.0227C94.7446 16.4247 94.5105 16.9506 94.4224 17.6004H98.3379ZM106.144 22.3997V20.6237C106.86 21.1689 107.65 21.4415 108.515 21.4415C109.671 21.4415 110.249 21.1001 110.249 20.4172C110.249 20.2245 110.2 20.062 110.101 19.9299C110.002 19.7922 109.867 19.671 109.696 19.5664C109.531 19.4618 109.333 19.3681 109.101 19.2855C108.875 19.2029 108.622 19.1093 108.341 19.0047C107.994 18.867 107.68 18.7211 107.4 18.5669C107.124 18.4127 106.893 18.2392 106.706 18.0465C106.524 17.8482 106.386 17.6252 106.293 17.3774C106.199 17.1296 106.152 16.8404 106.152 16.51C106.152 16.1025 106.249 15.7446 106.441 15.4362C106.634 15.1223 106.893 14.8607 107.218 14.6514C107.543 14.4367 107.912 14.277 108.325 14.1723C108.738 14.0622 109.165 14.0071 109.605 14.0071C110.387 14.0071 111.086 14.1255 111.703 14.3623V16.0392C111.109 15.6317 110.426 15.4279 109.655 15.4279C109.412 15.4279 109.192 15.4527 108.994 15.5023C108.801 15.5518 108.636 15.6207 108.498 15.7088C108.361 15.7969 108.253 15.9043 108.176 16.0309C108.099 16.1521 108.06 16.287 108.06 16.4357C108.06 16.6174 108.099 16.7716 108.176 16.8983C108.253 17.0249 108.366 17.1378 108.515 17.2369C108.669 17.3306 108.851 17.4187 109.06 17.5013C109.275 17.5784 109.52 17.6637 109.795 17.7574C110.159 17.906 110.483 18.0575 110.77 18.2117C111.062 18.3659 111.31 18.5421 111.513 18.7403C111.717 18.9331 111.874 19.1589 111.984 19.4177C112.094 19.671 112.149 19.9739 112.149 20.3264C112.149 20.7559 112.05 21.1304 111.852 21.4498C111.654 21.7692 111.389 22.0335 111.059 22.2428C110.729 22.452 110.346 22.6062 109.911 22.7054C109.481 22.81 109.027 22.8623 108.548 22.8623C107.623 22.8623 106.821 22.7081 106.144 22.3997ZM121.351 22.6641H119.435V21.3259H119.402C118.846 22.3502 117.981 22.8623 116.808 22.8623C114.809 22.8623 113.81 21.6618 113.81 19.2608V14.2054H115.726V19.0625C115.726 20.5824 116.313 21.3424 117.486 21.3424C118.053 21.3424 118.518 21.1331 118.882 20.7146C119.251 20.2961 119.435 19.7481 119.435 19.0708V14.2054H121.351V22.6641ZM125.804 21.4167H125.771V26.5547H123.854V14.2054H125.771V15.6922H125.804C126.459 14.5688 127.417 14.0071 128.678 14.0071C129.752 14.0071 130.589 14.3843 131.19 15.1388C131.79 15.8932 132.09 16.9065 132.09 18.1786C132.09 19.5884 131.751 20.7173 131.074 21.5654C130.397 22.4135 129.471 22.8375 128.299 22.8375C127.219 22.8375 126.388 22.3639 125.804 21.4167ZM125.754 18.0795V19.1286C125.754 19.7454 125.95 20.2685 126.341 20.6981C126.737 21.1276 127.238 21.3424 127.844 21.3424C128.555 21.3424 129.111 21.067 129.513 20.5163C129.92 19.9601 130.124 19.1864 130.124 18.1952C130.124 17.3636 129.934 16.7138 129.554 16.2457C129.18 15.7721 128.67 15.5353 128.026 15.5353C127.343 15.5353 126.792 15.7776 126.374 16.2622C125.961 16.7468 125.754 17.3526 125.754 18.0795ZM137.798 22.8623C136.493 22.8623 135.449 22.4686 134.667 21.6811C133.891 20.8881 133.503 19.839 133.503 18.5338C133.503 17.113 133.907 16.0034 134.717 15.2049C135.532 14.4064 136.628 14.0071 138.005 14.0071C139.326 14.0071 140.356 14.3954 141.094 15.1718C141.832 15.9483 142.201 17.0249 142.201 18.4017C142.201 19.7509 141.802 20.833 141.003 21.648C140.21 22.4576 139.142 22.8623 137.798 22.8623ZM137.889 15.5353C137.14 15.5353 136.548 15.7969 136.113 16.32C135.678 16.8432 135.46 17.5646 135.46 18.4843C135.46 19.3709 135.681 20.0703 136.121 20.5824C136.562 21.0891 137.151 21.3424 137.889 21.3424C138.643 21.3424 139.222 21.0918 139.624 20.5907C140.031 20.0896 140.235 19.3764 140.235 18.4512C140.235 17.5206 140.031 16.8019 139.624 16.2953C139.222 15.7886 138.643 15.5353 137.889 15.5353ZM149.065 16.0309C148.834 15.8492 148.501 15.7583 148.066 15.7583C147.499 15.7583 147.025 16.0144 146.645 16.5265C146.265 17.0387 146.075 17.7353 146.075 18.6164V22.6641H144.159V14.2054H146.075V15.9483H146.108C146.295 15.3536 146.582 14.891 146.967 14.5606C147.358 14.2246 147.793 14.0567 148.272 14.0567C148.619 14.0567 148.884 14.109 149.065 14.2136V16.0309ZM155.376 22.5732C155.002 22.7604 154.509 22.8541 153.898 22.8541C152.257 22.8541 151.436 22.0666 151.436 20.4916V15.7088H150.023V14.2054H151.436V12.2476L153.352 11.7024V14.2054H155.376V15.7088H153.352V19.9381C153.352 20.4392 153.443 20.7972 153.625 21.012C153.807 21.2267 154.11 21.3341 154.534 21.3341C154.859 21.3341 155.139 21.2405 155.376 21.0533V22.5732ZM164.091 18.9551H158.325C158.347 19.7371 158.587 20.3401 159.044 20.7642C159.506 21.1882 160.14 21.4002 160.944 21.4002C161.847 21.4002 162.676 21.1304 163.43 20.5907V22.1354C162.659 22.62 161.64 22.8623 160.374 22.8623C159.129 22.8623 158.152 22.4796 157.441 21.7141C156.736 20.9431 156.384 19.861 156.384 18.4678C156.384 17.1516 156.772 16.0805 157.549 15.2544C158.331 14.4229 159.3 14.0071 160.456 14.0071C161.613 14.0071 162.508 14.3788 163.141 15.1223C163.774 15.8657 164.091 16.8983 164.091 18.2199V18.9551ZM162.241 17.6004C162.235 16.912 162.073 16.3779 161.753 15.9979C161.434 15.6124 160.993 15.4196 160.432 15.4196C159.881 15.4196 159.413 15.6207 159.027 16.0227C158.647 16.4247 158.413 16.9506 158.325 17.6004H162.241Z" fill="#EDEDED"/>
</svg>
