<svg width="212" height="212" viewBox="0 0 212 212" fill="none" xmlns="http://www.w3.org/2000/svg">
<path d="M209.866 51.4C206.666 30.7 196.466 15.1 176.966 6.39999C169.066 2.79999 160.566 1.29999 151.966 0.799988C147.066 0.499988 142.066 0.2 137.166 0C116.066 0 94.9659 0 73.8659 0C68.7659 0.3 63.666 0.499988 58.666 0.799988C45.966 1.69999 33.966 4.79998 23.566 12.6C11.466 21.7 4.36596 34 2.16596 48.8C0.765964 58.3 0.165958 68 0.0659582 77.6C-0.134042 100.5 0.165946 123.3 0.365946 146.2C0.465946 157.2 1.96596 168.1 6.66596 178.2C14.366 194.6 27.366 204.5 44.966 208.8C55.766 211.4 66.8659 211.5 77.8659 211.5C100.266 211.6 122.666 211.4 145.066 211.2C154.966 211.1 164.766 210.1 174.066 206.5C193.466 198.9 204.966 184.6 209.166 164.4C210.066 159.8 210.366 155.1 210.866 150.5C210.966 149.6 211.066 148.6 211.266 147.7C211.266 119.3 211.266 90.9 211.266 62.5C210.766 58.8 210.466 55.1 209.866 51.4ZM192.066 143.1C191.966 149.8 191.366 156.7 189.766 163.1C185.766 179.3 174.766 188.7 158.466 190.8C146.566 192.3 134.466 192.2 122.366 192.6C116.766 192.8 111.166 192.6 105.666 192.6C105.666 192.7 105.666 192.8 105.666 192.9C90.466 192.5 75.266 192.3 59.966 191.7C52.366 191.4 45.0659 189.8 38.3659 186C27.5659 179.7 21.766 169.9 20.566 157.8C19.366 146 19.066 134.2 18.966 122.3C18.766 105.2 18.866 88.1 19.266 71C19.466 63.9 19.866 56.8 21.266 49.9C24.566 34 35.566 23.5 51.666 21.1C60.766 19.8 70.066 19.4 79.266 19.3C99.066 19.1 118.966 19.1 138.766 19.4C146.166 19.5 153.666 19.9 160.966 21.4C177.966 24.8 188.566 36.3 190.666 53.6C191.866 63.7 192.166 73.9 192.266 84.1C192.566 103.9 192.366 123.5 192.066 143.1Z" fill="white"/>
<path d="M105.666 51.5C75.6659 51.5 51.1659 76 51.2659 105.9C51.3659 136 75.8659 160.3 105.766 160.2C135.866 160.1 160.266 135.5 159.966 105.6C159.866 75.6 135.666 51.5 105.666 51.5ZM105.566 141.1C86.0659 141 70.3659 125.3 70.4659 105.8C70.4659 86.3 86.1659 70.6 105.666 70.6C125.266 70.6 140.966 86.4 140.866 106C140.866 125.5 125.166 141.2 105.566 141.1Z" fill="white"/>
<path d="M162.266 36.7C155.266 36.7 149.666 42.3 149.566 49.2C149.566 56.2 155.166 61.9 162.066 62C169.166 62.1 174.866 56.5 174.966 49.4C174.966 42.3 169.366 36.7 162.266 36.7Z" fill="white"/>
</svg>
