<svg width="217" height="153" viewBox="0 0 217 153" fill="none" xmlns="http://www.w3.org/2000/svg">
<path d="M107.775 0C129.975 0.9 152.275 1.70001 174.475 2.70001C179.675 2.90001 184.975 3.60001 190.175 4.60001C202.675 6.90001 210.675 15.3 213.075 28.4C216.375 46.5 216.975 64.9 216.375 83.2C215.975 96.1 214.675 109 213.475 121.8C212.575 131.2 208.775 139.1 200.475 144.4C195.475 147.6 189.775 148.6 183.975 149.2C161.675 151.6 139.275 152.1 116.875 152C94.1748 151.9 71.4748 151.2 48.7748 150.5C41.4748 150.3 34.2748 149.3 27.0748 148.3C14.6748 146.5 5.97479 138 3.87479 125.2C2.27479 115.7 1.37477 106.1 0.674773 96.6C-0.425227 80.5 -0.125227 64.4 1.17477 48.4C1.77477 41 2.67477 33.6 4.17477 26.3C6.87477 13.5 15.9748 5.7 28.9748 4C50.1748 1.4 71.3748 1.09999 92.6748 0.799988C97.6748 0.699988 102.775 0.799988 107.775 0.799988C107.775 0.499988 107.775 0.3 107.775 0ZM86.8748 44C86.8748 65.7 86.8748 87.1 86.8748 108.7C105.675 97.9 124.175 87.2 143.075 76.3C124.175 65.4 105.675 54.8 86.8748 44Z" fill="white"/>
</svg>
