<svg width="606" height="464" viewBox="0 0 606 464" fill="none" xmlns="http://www.w3.org/2000/svg">
<path d="M557.3 463.376H48.1C21.5 463.376 0 441.776 0 415.276V294.376C0 267.776 21.6 246.276 48.1 246.276H557.2C583.8 246.276 605.3 267.876 605.3 294.376V415.176C605.4 441.776 583.9 463.376 557.3 463.376Z" fill="#F4F4F4"/>
<path d="M336.956 435.827H444.856V340.227H336.956V435.827Z" fill="#CA6EED"/>
<path d="M440.101 432.077H331.501C331.101 432.077 330.801 431.777 330.801 431.377V343.677C330.801 343.277 331.101 342.977 331.501 342.977H440.101C440.501 342.977 440.801 343.277 440.801 343.677V431.377C440.801 431.677 440.501 432.077 440.101 432.077ZM332.301 430.577H439.401V344.277H332.301V430.577Z" fill="white"/>
<path d="M444.386 435.827H507.386V340.227H444.386V435.827Z" fill="#5C307D"/>
<path d="M460.587 362.489H491.187V340.289H460.587V362.489Z" fill="white"/>
<path d="M362.883 340.192H429.083V281.492H362.883V340.192Z" fill="#8082B3"/>
<path d="M426.2 338.177H365.2C364.8 338.177 364.5 337.877 364.5 337.477V283.577C364.5 283.177 364.8 282.877 365.2 282.877H426.2C426.6 282.877 426.9 283.177 426.9 283.577V337.477C426.9 337.877 426.6 338.177 426.2 338.177ZM365.9 336.777H425.4V284.277H365.9V336.777Z" fill="white"/>
<path d="M428.771 340.192H467.471V281.492H428.771V340.192Z" fill="#516896"/>
<path d="M438.77 295.167H457.57V281.567H438.77V295.167Z" fill="#CA6EED"/>
<path d="M435.871 329.214H460.371V326.314H435.871V329.214Z" fill="#CA6EED"/>
<path d="M435.871 332.824H460.371V329.924H435.871V332.824Z" fill="#CA6EED"/>
<path d="M435.871 336.335H460.371V333.435H435.871V336.335Z" fill="#CA6EED"/>
<path d="M205.878 435.784H337.278V319.384H205.878L205.878 435.784Z" fill="#8082B3"/>
<path d="M331.601 431.076H211.501C211.101 431.076 210.801 430.776 210.801 430.376V323.476C210.801 323.076 211.101 322.776 211.501 322.776H331.601C332.001 322.776 332.301 323.076 332.301 323.476V430.376C332.301 430.776 331.901 431.076 331.601 431.076ZM212.201 429.676H330.901V324.176H212.201V429.676Z" fill="white"/>
<path d="M336.792 435.784H413.492V319.384H336.792V435.784Z" fill="#516896"/>
<path d="M356.492 346.449H393.792V319.349H356.492V346.449Z" fill="white"/>
<path d="M350.793 413.988H399.393V408.288H350.793V413.988Z" fill="white"/>
<path d="M350.793 420.996H399.393V415.296H350.793V420.996Z" fill="white"/>
<path d="M350.793 428.104H399.393V422.404H350.793V428.104Z" fill="white"/>
<path d="M308.758 413.988H327.258V408.288H308.758V413.988Z" fill="white"/>
<path d="M308.758 420.996H327.258V415.296H308.758V420.996Z" fill="white"/>
<path d="M308.758 428.104H327.258V422.404H308.758V428.104Z" fill="white"/>
<path d="M224 57.7764C224 57.7764 238.3 65.8764 236.7 83.7764L234.3 124.776L224 121.076V57.7764Z" fill="#5C307D"/>
<path d="M262.801 87.0762L220.301 119.076L236.701 145.776L282.301 109.976L262.801 87.0762Z" fill="#5C307D"/>
<path d="M264.801 89.5764L274.701 77.1764L286.601 70.5764L313.001 70.2764C313.601 74.4764 302.901 74.2764 294.301 76.2764C296.401 78.2764 297.401 79.1764 296.301 82.5764C299.301 84.5764 297.301 89.1764 294.501 90.7764C290.401 93.1764 276.901 103.676 276.901 103.676L264.801 89.5764Z" fill="white"/>
<path d="M256.5 399.977L262 413.677L262.5 429.377L287.3 428.977L288 415.777L282.8 400.177L256.5 399.977Z" fill="white"/>
<path d="M262.2 435.377L315.7 435.777C314.9 431.577 313.4 426.277 299 423.677L288 415.677C288 415.677 285.9 421.777 277.9 421.477C266.9 421.077 262 413.477 262 413.477L262.2 435.377Z" fill="#5C307D"/>
<path d="M177.101 178.477L249.501 405.277L290.501 405.577L240.501 167.477L177.101 178.477Z" fill="#516896"/>
<path d="M157.2 400.177V413.677L157.6 429.377L182.5 428.977L183.1 415.777L183.5 400.277L157.2 400.177Z" fill="white"/>
<path d="M157.4 435.377L210.9 435.777C210.1 431.577 208.6 426.277 194.2 423.677L183.2 415.677C183.2 415.677 181.1 421.777 173.1 421.477C162.1 421.077 157.2 413.477 157.2 413.477L157.4 435.377Z" fill="#5C307D"/>
<path d="M161.001 167.477C161.001 167.477 156.001 193.877 160.601 213.277C160.701 228.177 150.101 405.377 150.101 405.377L191.101 405.677L226.401 170.377L161.001 167.477Z" fill="#8082B3"/>
<path d="M170.301 393.977C169.901 393.977 169.601 393.677 169.601 393.277L178.401 182.877C178.401 182.477 178.801 182.177 179.101 182.177C179.501 182.177 179.801 182.477 179.801 182.877L171.001 393.277C171.001 393.677 170.701 393.977 170.301 393.977Z" fill="white"/>
<path d="M269.801 393.976C269.501 393.976 269.201 393.776 269.101 393.476L221.101 201.176C221.001 200.776 221.201 200.376 221.601 200.276C222.001 200.176 222.401 200.376 222.501 200.776L270.501 393.077C270.601 393.477 270.401 393.876 270.001 393.976C270.001 393.976 269.901 393.976 269.801 393.976Z" fill="white"/>
<path d="M192.5 393.976H150.1C149.7 393.976 149.4 393.676 149.4 393.276C149.4 392.876 149.7 392.576 150.1 392.576H192.5C192.9 392.576 193.2 392.876 193.2 393.276C193.2 393.676 192.9 393.976 192.5 393.976Z" fill="white"/>
<path d="M288.001 393.976H245.801C245.401 393.976 245.101 393.676 245.101 393.276C245.101 392.876 245.401 392.576 245.801 392.576H288.001C288.401 392.576 288.701 392.876 288.701 393.276C288.701 393.676 288.301 393.976 288.001 393.976Z" fill="white"/>
<path d="M184 406.377H157.2C156.8 406.377 156.5 406.077 156.5 405.677C156.5 405.277 156.8 404.977 157.2 404.977H184C184.4 404.977 184.7 405.277 184.7 405.677C184.7 406.077 184.4 406.377 184 406.377Z" fill="#1D1D1B"/>
<path d="M284.601 406.377H258.801C258.401 406.377 258.101 406.077 258.101 405.677C258.101 405.277 258.401 404.977 258.801 404.977H284.601C285.001 404.977 285.301 405.277 285.301 405.677C285.301 406.077 285.001 406.377 284.601 406.377Z" fill="#1D1D1B"/>
<path d="M241.801 173.777L159.601 177.177L169.201 81.3766C169.201 64.5766 182.801 50.9766 199.601 50.9766H206.301C223.101 50.9766 233.001 64.4766 233.001 81.2766L232.501 112.977L241.801 173.777Z" fill="#5C307D"/>
<path d="M197.3 37.5762C196.9 41.6762 194.2 49.5762 191.2 52.0762C191.6 56.7762 200.1 63.8762 207.5 67.7762C210.2 61.5762 209.9 54.9762 209.3 52.9762C209.3 52.9762 206.3 44.3762 207.7 38.9762L197.3 37.5762Z" fill="white"/>
<path d="M180 55.3767C167.9 55.1767 158.4 72.2767 153.9 124.077C151.4 152.477 161 164.277 188.3 161.977L268.1 145.577L262.1 110.977L196.9 120.977C196.6 93.4767 202.3 55.7767 180 55.3767Z" fill="#5C307D"/>
<path d="M208.501 50.0762L207.601 67.8762L214.801 70.0762L214.101 52.0762L208.501 50.0762Z" fill="#172F51"/>
<path d="M207.601 67.8768L191.301 52.1768L186.301 53.9767L204.001 73.7768L207.601 67.8768Z" fill="#172F51"/>
<path d="M184.101 162.776C178.201 162.776 167.501 162.076 161.201 157.576C160.901 157.376 160.801 156.876 161.001 156.576C161.201 156.276 161.701 156.176 162.001 156.376C170.201 162.276 187.101 161.276 188.101 161.276L236.501 151.276C236.901 151.176 237.301 151.476 237.301 151.776C237.401 152.176 237.101 152.576 236.801 152.576L188.401 162.576H188.301C188.101 162.676 186.501 162.776 184.101 162.776Z" fill="#172F51"/>
<path d="M197.001 121.677C196.801 121.677 196.601 121.577 196.501 121.477C196.301 121.277 196.301 121.077 196.301 120.877C196.401 120.377 203.701 70.3769 190.901 61.4769C190.601 61.2769 190.501 60.7769 190.701 60.4769C190.901 60.1769 191.401 60.0769 191.701 60.2769C204.301 69.0769 198.801 112.877 197.801 120.077L262.001 110.177C262.401 110.077 262.701 110.377 262.801 110.777C262.901 111.177 262.601 111.477 262.201 111.577L197.001 121.577C197.001 121.677 197.001 121.677 197.001 121.677Z" fill="#172F51"/>
<path d="M254.801 148.977C254.501 148.977 254.201 148.677 254.101 148.377L248.801 112.977C248.701 112.577 249.001 112.277 249.401 112.177C249.801 112.077 250.101 112.377 250.201 112.777L255.501 148.177C255.601 148.577 255.301 148.877 254.901 148.977H254.801Z" fill="white"/>
<path d="M288.1 84.3769C288 84.3769 287.9 84.3769 287.8 84.2769C286.8 83.8769 286.1 83.1769 285.8 82.1769C285.1 80.1769 286.3 77.9769 286.3 77.8769C286.4 77.6769 286.6 77.5768 286.8 77.4768L294 75.6769C294.4 75.5769 294.8 75.7769 294.9 76.1769C295 76.5769 294.8 76.9768 294.4 77.0768L287.5 78.8769C287.3 79.4769 286.8 80.7769 287.2 81.8769C287.4 82.3769 287.7 82.7768 288.3 83.0768L293.8 82.5768C294.2 82.5768 294.5 82.8769 294.6 83.1769C294.6 83.5769 294.3 83.8768 294 83.9768L288.1 84.3769Z" fill="#1D1D1B"/>
<path d="M295.101 87.7766H288.901C288.801 87.7766 288.701 87.7766 288.601 87.6766C287.901 87.2766 287.401 86.7766 287.201 86.0766C286.801 84.7766 287.501 83.4766 287.501 83.3766C287.701 83.0766 288.101 82.8766 288.501 83.0766C288.801 83.2766 289.001 83.6766 288.801 84.0766C288.701 84.3766 288.401 85.0766 288.601 85.6766C288.701 85.9766 288.901 86.1766 289.201 86.3766H295.201C295.601 86.3766 295.901 86.6766 295.901 87.0766C295.801 87.4766 295.501 87.7766 295.101 87.7766Z" fill="#1D1D1B"/>
<path d="M218.9 23.1763L216.1 41.6763C216.1 41.6763 214.6 47.7763 207.2 47.0763C200.7 46.3763 194.5 44.7763 194.2 39.5763C194 35.1763 194.9 31.3763 194.9 31.3763C191.6 31.0763 187.5 27.2763 191 22.7763C194 18.8763 196.3 24.2763 196.3 24.2763L197.9 16.3763C201.1 13.5763 217.9 10.2763 218.9 23.1763Z" fill="white"/>
<path d="M197.3 19.6766C197.3 19.6766 199.401 21.1766 202.401 16.7766C204.601 21.6766 210.601 27.5766 218.601 27.9766C227.101 28.4766 227.701 24.4766 226.101 18.9766C225.001 15.1766 225.8 4.37656 218.8 1.47656C211.6 -1.52344 205.7 0.976562 205.7 0.976562C205.7 0.976562 196.5 9.97656 191 12.4766C190.7 14.1766 191.701 18.3766 193.201 21.2766C194.301 23.3766 194.4 25.5766 195.8 26.7766L197.3 19.6766Z" fill="#9753D9"/>
<path d="M344.6 145.777H288.9L308.3 65.6768H364L344.6 145.777Z" fill="#CA6EED"/>
<path d="M342.7 143.576H292.8C292.6 143.576 292.4 143.476 292.2 143.276C292.1 143.076 292 142.876 292.1 142.676L309.5 68.5762C309.6 68.2762 309.9 68.0762 310.2 68.0762H360.1C360.3 68.0762 360.5 68.1762 360.7 68.3762C360.8 68.5762 360.9 68.7762 360.8 68.9762L343.4 143.076C343.3 143.376 343 143.576 342.7 143.576ZM293.7 142.176H342.1L359.1 69.4762H310.7L293.7 142.176Z" fill="white"/>
<path d="M262.101 110.977C262.101 110.977 275.301 107.877 279.901 106.777C284.101 105.777 293.801 100.877 300.001 98.877C299.701 102.677 299.901 103.477 301.801 105.477C303.101 106.877 305.201 107.777 311.801 105.577C317.101 103.777 318.801 105.177 318.501 107.477C318.201 109.977 316.201 110.877 316.201 110.877C316.201 110.877 319.101 111.977 315.501 115.277C315.501 115.277 316.801 117.777 312.901 119.977C308.901 122.277 309.401 122.777 291.501 124.977C273.601 127.177 265.401 132.177 265.601 131.577C265.901 131.077 262.101 110.977 262.101 110.977Z" fill="white"/>
<path d="M307.2 113.576C306.9 113.576 306.6 113.376 306.5 112.976C306.4 112.576 306.7 112.176 307 112.176L316.1 110.276C316.5 110.176 316.9 110.476 316.9 110.776C317 111.176 316.7 111.576 316.4 111.576L307.3 113.476C307.3 113.576 307.2 113.576 307.2 113.576Z" fill="#1D1D1B"/>
<path d="M306.3 117.677C306 117.677 305.7 117.477 305.6 117.077C305.5 116.677 305.8 116.377 306.2 116.277L315.5 114.677C315.9 114.577 316.2 114.877 316.3 115.277C316.4 115.677 316.1 115.977 315.7 116.077L306.4 117.677C306.4 117.677 306.4 117.677 306.3 117.677Z" fill="#1D1D1B"/>
<path d="M232.501 113.577C232.101 113.577 231.801 113.277 231.801 112.877L232.301 81.1766C232.301 80.7766 232.601 80.4766 233.001 80.4766C233.401 80.4766 233.701 80.7766 233.701 81.1766L233.201 112.877C233.201 113.277 232.901 113.577 232.501 113.577Z" fill="#172F51"/>
<path d="M351 71.0764H320C318.6 71.0764 317.6 69.7763 318 68.4763L319 64.7764C319.3 63.8764 320.1 63.2764 321 63.2764H352C353.4 63.2764 354.4 64.5764 354 65.8764L353 69.5764C352.8 70.4764 351.9 71.0764 351 71.0764Z" fill="#5C307D"/>
<path d="M343.301 63.2764H331.101C330.601 63.2764 330.201 62.5764 330.301 61.7764L330.701 59.6764C330.801 59.1764 331.101 58.7764 331.501 58.7764H343.701C344.201 58.7764 344.601 59.4764 344.501 60.2764L344.101 62.3764C344.001 62.8764 343.701 63.2764 343.301 63.2764Z" fill="#FAAE00"/>
<path d="M269.3 109.977C269.1 109.977 268.9 109.877 268.8 109.777L254.3 93.5766C254 93.2766 254.1 92.8766 254.4 92.5766C254.7 92.2766 255.1 92.3767 255.4 92.6767L269.9 108.877C270.2 109.177 270.1 109.577 269.8 109.877C269.6 109.977 269.5 109.977 269.3 109.977Z" fill="white"/>
<path d="M550.4 436.877H42.6004C42.0004 436.877 41.4004 436.477 41.4004 435.877C41.4004 435.277 41.9004 434.877 42.6004 434.877H550.4C551 434.877 551.6 435.277 551.6 435.877C551.6 436.477 551.1 436.877 550.4 436.877Z" fill="#172F51"/>
<path d="M193.901 28.0769C193.901 28.0769 193.801 28.0769 193.801 27.9769L192.101 25.0769C192.101 24.9769 192.101 24.977 192.101 24.877C192.201 24.877 192.201 24.877 192.301 24.877L194.001 27.7769C194.001 27.9769 194.001 28.0769 193.901 28.0769Z" fill="#222433"/>
<path d="M211.901 27.8775C211.801 27.8775 211.801 27.7775 211.801 27.6775C211.801 27.5775 211.901 27.5774 211.901 27.5774C213.401 26.9774 215.101 27.3775 216.101 28.6775C216.201 28.7775 216.201 28.8775 216.101 28.8775C216.001 28.9775 215.901 28.8775 215.901 28.8775C215.001 27.7775 213.401 27.3775 212.101 27.8775C212.001 27.8775 212.001 27.8775 211.901 27.8775Z" fill="#222433"/>
<path d="M206.401 26.477C206.301 26.477 206.301 26.477 206.401 26.477C205.401 25.277 203.801 24.877 202.501 25.477C202.401 25.477 202.301 25.4771 202.301 25.3771C202.301 25.2771 202.301 25.1771 202.401 25.1771C203.901 24.5771 205.601 24.9771 206.601 26.2771C206.701 26.3771 206.601 26.477 206.601 26.477C206.501 26.477 206.401 26.477 206.401 26.477Z" fill="#222433"/>
<path d="M206.201 35.8764C206.101 35.8764 206.101 35.7764 206.101 35.6764C206.101 35.5764 206.201 35.5764 206.301 35.5764L208.901 35.3764L208.501 30.4763C208.501 30.3763 208.601 30.2764 208.701 30.2764C208.801 30.2764 208.901 30.3763 208.901 30.4763L209.301 35.5764C209.301 35.6764 209.201 35.7764 209.101 35.7764L206.201 35.8764Z" fill="#222433"/>
<path d="M205.4 42.2764C205.3 42.2764 205.2 42.1764 205 42.1764C204.2 41.8764 203.4 41.1764 203 40.3764C202.5 39.4764 202.5 38.3764 202.8 37.3764C202.8 37.2764 202.9 37.2764 203 37.2764L210 39.0764C210.1 39.0764 210.1 39.1764 210.1 39.2764C208.8 41.9764 206.9 42.6764 205.4 42.2764ZM203.1 37.5764C202.6 39.5764 203.7 41.2764 205.2 41.7764C206.5 42.2764 208.4 41.8764 209.8 39.2764L203.1 37.5764Z" fill="#222433"/>
<path d="M202.601 32.8768C200.901 32.4768 199.701 30.8767 199.801 29.0767C199.801 28.9767 199.801 28.8767 199.801 28.6767C200.101 26.6767 202.001 25.3767 204.001 25.6767C206.001 25.9767 207.301 27.8768 207.001 29.8768C206.701 31.8768 204.801 33.1768 202.801 32.8768C202.801 32.8768 202.701 32.8768 202.601 32.8768ZM204.301 26.0767C204.201 26.0767 204.101 26.0767 204.001 25.9767C202.201 25.6767 200.501 26.8767 200.201 28.6767C200.201 28.7767 200.201 28.8767 200.201 28.9767C200.101 30.6767 201.301 32.1767 203.001 32.4767C204.801 32.7767 206.501 31.4767 206.801 29.6767C207.101 28.1767 206.001 26.5767 204.301 26.0767Z" fill="#222433"/>
<path d="M212.201 35.2772C212.101 35.2772 212.001 35.1772 211.901 35.1772C210.001 34.4772 208.901 32.4772 209.601 30.5772C210.301 28.6772 212.301 27.6772 214.301 28.2772C216.201 28.8772 217.201 30.9772 216.601 32.8772C216.001 34.7772 214.101 35.7772 212.201 35.2772ZM213.901 28.5772C212.101 28.1772 210.301 29.1772 209.901 30.9772C209.501 32.6772 210.401 34.3772 212.101 34.9772C213.801 35.5772 215.701 34.6772 216.301 32.9772C216.901 31.2772 216.001 29.3772 214.201 28.7772C214.101 28.5772 214.001 28.5772 213.901 28.5772Z" fill="#222433"/>
<path d="M209.8 30.7764L207 30.0764C206.9 30.0764 206.9 29.9764 206.9 29.8764C206.9 29.7764 207 29.7764 207.1 29.7764L209.9 30.4763C210 30.4763 210 30.5764 210 30.6764C210 30.7764 209.9 30.7764 209.8 30.7764Z" fill="#222433"/>
<path d="M204.568 29.573C204.703 29.0375 204.378 28.4938 203.842 28.3588C203.307 28.2238 202.763 28.5485 202.628 29.084C202.493 29.6196 202.818 30.1632 203.353 30.2982C203.889 30.4332 204.433 30.1086 204.568 29.573Z" fill="#222433"/>
<path d="M214.136 31.9597C214.271 31.4242 213.946 30.8806 213.411 30.7455C212.875 30.6105 212.332 30.9352 212.197 31.4707C212.062 32.0063 212.386 32.5499 212.922 32.6849C213.457 32.82 214.001 32.4953 214.136 31.9597Z" fill="#222433"/>
</svg>
