<svg width="470" height="264" viewBox="0 0 470 264" fill="none" xmlns="http://www.w3.org/2000/svg">
<path d="M453.8 263.4H16C7.2 263.4 0 256.2 0 247.4V16C0 7.2 7.2 0 16 0H453.9C462.7 0 469.9 7.2 469.9 16V247.4C469.8 256.2 462.7 263.4 453.8 263.4Z" fill="#EDEDED"/>
<path d="M394.251 36.7647C390.991 32.9619 386.206 30.8877 380.935 30.8877H336.964C325.798 30.8877 315.394 40.2218 313.661 51.7683L294.935 177.536C294.102 183.413 295.49 188.806 299.027 192.885C302.286 196.688 307.072 198.762 312.343 198.762H356.314C367.48 198.762 377.883 189.428 379.617 177.882L398.343 52.114C399.175 46.237 397.719 40.844 394.251 36.7647Z" fill="#383A48"/>
<path d="M372.82 32.0635H328.918C318.307 32.0635 308.389 40.9827 306.724 51.9761L287.999 177.744C286.334 188.737 293.616 197.656 304.297 197.656H348.268C358.879 197.656 368.797 188.737 370.462 177.744L389.187 51.9761C390.782 40.9135 383.431 32.0635 372.82 32.0635Z" fill="#F3F6E6"/>
<path d="M348.199 198.762H304.297C299.026 198.762 294.31 196.688 290.981 192.885C287.513 188.806 285.988 183.413 286.889 177.536L305.615 51.7683C307.349 40.2218 317.752 30.8877 328.918 30.8877H372.889C378.16 30.8877 382.876 32.9619 386.205 36.7647C389.673 40.844 391.199 46.237 390.297 52.114L371.571 177.882C369.768 189.428 359.365 198.762 348.199 198.762ZM328.918 33.1693C318.862 33.1693 309.429 41.6737 307.834 52.114L289.108 177.882C288.346 183.067 289.594 187.838 292.646 191.433C295.489 194.752 299.581 196.55 304.228 196.55H348.199C358.255 196.55 367.688 188.045 369.283 177.605L388.009 51.8374C388.771 46.6519 387.523 41.8811 384.471 38.2858C381.628 34.967 377.536 33.1693 372.889 33.1693H328.918Z" fill="#383A48"/>
<path d="M372.82 30.8877H327.601C326.977 30.8877 326.491 31.3717 326.491 31.9939C326.491 32.6162 326.977 33.1002 327.601 33.1002H331.069C331.693 33.1002 332.248 33.3076 332.594 33.7225C333.011 34.2065 333.149 34.8287 333.08 35.5893C332.872 36.9721 333.219 38.2858 334.051 39.2538C334.814 40.1526 335.993 40.7057 337.311 40.7057H362.209C364.775 40.7057 367.133 38.6315 367.549 35.935C367.757 34.4139 369.214 33.1002 370.67 33.1002H372.89C373.514 33.1002 373.999 32.6162 373.999 31.9939C373.93 31.3717 373.444 30.8877 372.82 30.8877Z" fill="#383A48"/>
<path d="M345.216 192.125H309.152C308.527 192.125 308.042 191.641 308.042 191.018C308.042 190.396 308.527 189.912 309.152 189.912H345.147C345.771 189.912 346.257 190.396 346.257 191.018C346.326 191.641 345.84 192.125 345.216 192.125Z" fill="#383A48"/>
<path d="M75.5834 82.3226C78.8336 78.5272 83.6052 76.457 88.8609 76.457H132.704C143.838 76.457 154.211 85.773 155.94 97.2972L174.611 222.821C175.441 228.687 174.058 234.069 170.531 238.141C167.281 241.936 162.509 244.006 157.253 244.006H113.41C102.277 244.006 91.9036 234.69 90.1748 223.166L71.5034 97.6422C70.6044 91.7766 72.0566 86.325 75.5834 82.3226Z" fill="#383A48"/>
<path d="M96.8827 77.5615H140.657C151.237 77.5615 161.126 86.4635 162.786 97.4356L181.457 222.959C183.117 233.932 175.856 242.834 165.206 242.834H121.363C110.783 242.834 100.894 233.932 99.234 222.959L80.5626 97.4356C79.0412 86.4635 86.3023 77.5615 96.8827 77.5615Z" fill="#F3F6E6"/>
<path d="M121.432 244.006H165.206C170.462 244.006 175.164 241.936 178.484 238.141C181.941 234.069 183.463 228.687 182.564 222.821L163.892 97.2972C162.164 85.773 151.791 76.457 140.657 76.457H96.8138C91.5581 76.457 86.8557 78.5272 83.5363 82.3226C80.0787 86.3941 78.5573 91.7766 79.4563 97.6422L98.1276 223.166C99.9256 234.69 110.368 244.006 121.432 244.006ZM140.726 78.7343C150.753 78.7343 160.158 87.2221 161.749 97.6422L180.42 223.166C181.181 228.342 179.936 233.103 176.893 236.692C174.058 240.004 169.978 241.798 165.345 241.798H121.501C111.474 241.798 102.069 233.31 100.479 222.89L81.8075 97.3662C81.0468 92.1906 82.2916 87.4291 85.3343 83.8408C88.1696 80.5284 92.2496 78.7343 96.8829 78.7343H140.726Z" fill="#383A48"/>
<path d="M96.8828 76.457H141.971C142.593 76.457 143.077 76.9401 143.077 77.5611C143.077 78.1822 142.593 78.6652 141.971 78.6652H138.513C137.891 78.6652 137.337 78.8723 136.992 79.2863C136.577 79.7694 136.438 80.3904 136.508 81.1495C136.715 82.5296 136.369 83.8408 135.539 84.8069C134.779 85.704 133.603 86.256 132.289 86.256H107.463C104.905 86.256 102.553 84.1858 102.138 81.4945C101.931 79.9764 100.479 78.6652 99.0266 78.6652H96.8137C96.1913 78.6652 95.7072 78.1822 95.7072 77.5611C95.7763 76.9401 96.2604 76.457 96.8828 76.457Z" fill="#383A48"/>
<path d="M124.406 237.382H160.365C160.988 237.382 161.472 236.899 161.472 236.278C161.472 235.657 160.988 235.174 160.365 235.174H124.475C123.852 235.174 123.368 235.657 123.368 236.278C123.299 236.83 123.783 237.382 124.406 237.382Z" fill="#383A48"/>
<path d="M141.2 141.9L212.1 121.9L225.1 169.4L165.6 185.1L141.2 141.9Z" fill="#9753D9"/>
<path d="M165.6 186.101C165.2 186.101 164.9 185.901 164.7 185.601L140.4 142.301C140.2 142.001 140.2 141.701 140.3 141.401C140.4 141.101 140.7 140.901 140.9 140.801L211.8 120.901C212 120.801 212.3 120.901 212.5 121.001C212.7 121.101 212.9 121.301 213 121.601L225.9 169.101C226 169.301 225.9 169.601 225.8 169.801C225.7 170.001 225.5 170.201 225.2 170.201L165.7 185.901C165.8 186.101 165.7 186.101 165.6 186.101ZM142.7 142.501L166.1 184.001L223.9 168.701L211.5 123.101L142.7 142.501Z" fill="#383A48"/>
<path d="M195.9 176.9L198.5 157.9L222.1 170.3L195.9 176.9Z" fill="#383A48"/>
<path d="M195.9 177.901C195.7 177.901 195.4 177.801 195.3 177.601C195.1 177.401 195 177.101 195 176.701L197.7 157.701C197.7 157.401 197.9 157.101 198.2 157.001C198.5 156.901 198.8 156.901 199.1 157.001L222.7 169.401C223.1 169.601 223.3 170.001 223.2 170.401C223.2 170.801 222.9 171.101 222.5 171.201L196.2 177.901C196 177.901 195.9 177.901 195.9 177.901ZM199.3 159.401L197 175.601L219.4 169.901L199.3 159.401Z" fill="#383A48"/>
<path d="M187.2 128.9L189.6 139L177.4 131.8L187.2 128.9Z" fill="#383A48"/>
<path d="M189.6 140C189.4 140 189.3 140 189.1 139.9L176.8 132.6C176.3 132.3 176.2 131.7 176.5 131.3C176.6 131.1 176.8 130.9 177.1 130.9L187 128C187.3 127.9 187.5 128 187.8 128.1C188 128.2 188.2 128.5 188.2 128.7L190.6 138.8C190.7 139.2 190.5 139.6 190.2 139.8C190 139.9 189.8 140 189.6 140ZM179.8 132.1L188.2 137.1L186.6 130.2L179.8 132.1Z" fill="#383A48"/>
<path d="M223.201 111.5L199.101 117.6C191.701 119.5 187.301 127.1 189.201 134.7L193.001 149.8C196.601 164.2 211.001 173 225.001 169.5C239.001 165.9 247.501 151.3 243.801 136.9L240.001 121.8C238.101 114.3 230.601 109.7 223.201 111.5Z" fill="#9753D9"/>
<path d="M218.7 171.301C213.7 171.301 208.8 169.901 204.6 167.301C198.3 163.501 193.8 157.301 192.1 150.101L188.3 135.001C186.3 126.901 191 118.701 198.9 116.701L223 110.601C230.9 108.601 239 113.601 241 121.701L244.8 136.801C248.6 151.701 239.8 166.801 225.3 170.501C223.1 171.001 220.9 171.301 218.7 171.301ZM223.2 111.501L223.4 112.401L199.3 118.501C192.5 120.201 188.3 127.401 190.1 134.401L193.9 149.501C195.6 156.201 199.8 161.901 205.6 165.501C211.4 169.101 218.2 170.201 224.8 168.501C238.3 165.101 246.4 151.001 242.9 137.101L239.1 122.001C237.3 115.001 230.3 110.601 223.5 112.401L223.2 111.501Z" fill="#383A48"/>
<path d="M239.6 119.5L244.1 137.2C245.4 142.5 245.1 148.1 243.2 153.2C242.3 155.4 241.2 157.5 239.8 159.5L238.4 159.2L221.4 155.9L215.6 154.8L194.2 150.6L193.1 150.4L192.7 150.3L188.2 132.6C188.1 132 187.9 131.4 187.9 130.8C187.8 130.2 187.8 129.5 187.8 128.9C187.9 123.1 191.6 118 197 116.1C197.4 115.9 197.9 115.8 198.3 115.7L222.7 109.5C222.9 109.4 223.1 109.4 223.4 109.3C223.6 109.3 223.7 109.2 223.9 109.2C231.1 108 237.9 112.5 239.6 119.5Z" fill="#9753D9"/>
<path d="M239.7 160.4H239.6H239.5L192.5 151.2C192.1 151.1 191.8 150.8 191.7 150.5L187.2 132.8C187 132.2 186.9 131.6 186.9 130.9C186.1 124 190.1 117.5 196.6 115.1C197.1 114.9 197.6 114.8 198 114.7L222.4 108.5C222.7 108.4 222.9 108.4 223.1 108.3C223.3 108.3 223.5 108.2 223.6 108.2C231.2 107 238.5 111.8 240.4 119.3L244.9 137C246.3 142.5 246 148.3 243.9 153.6C243 155.9 241.8 158.1 240.3 160.1C240.3 160.2 240 160.4 239.7 160.4ZM193.5 149.3L194.4 149.5L239.3 158.3C240.5 156.6 241.5 154.7 242.3 152.8C244.2 147.9 244.5 142.5 243.2 137.4L238.7 119.7C237.9 116.5 236 113.8 233.2 112C230.5 110.2 227.2 109.5 224.1 110C223.9 110 223.8 110.1 223.6 110.1C223.4 110.1 223.2 110.2 223 110.2L198.6 116.4C198.2 116.5 197.8 116.6 197.4 116.8C192.4 118.6 189 123.4 188.9 128.7C188.9 129.3 188.9 129.9 189 130.5C189.1 131.1 189.2 131.6 189.3 132.1L193.5 149.3Z" fill="#383A48"/>
<path d="M231.1 85.5001L240.5 122.9C240.6 123.2 240.6 123.4 240.7 123.7V123.8C240.7 124.1 240.8 124.5 240.7 124.8C240.6 128.7 237.4 131.7 233.5 131.6C230.4 131.5 227.7 129.4 226.9 126.3L217.5 88.9001C217.2 87.9001 217.2 86.8001 217.4 85.8001C217.5 85.5001 217.6 85.1001 217.7 84.8001C219 81.2001 223 79.3001 226.7 80.6001C228.9 81.4001 230.6 83.2001 231.1 85.5001Z" fill="#9753D9"/>
<path d="M233.8 132.601C230.2 132.601 227 130.101 226.1 126.601L216.7 89.2009C216.4 88.0009 216.4 86.8009 216.6 85.6009C216.7 85.2009 216.8 84.8009 216.9 84.5009C218.4 80.4009 223 78.2009 227.1 79.8009C229.6 80.7009 231.4 82.8009 232.1 85.3009L241.5 122.701C241.6 123.001 241.6 123.301 241.7 123.601V123.701C241.7 124.101 241.8 124.501 241.8 124.801C241.8 125.501 241.7 126.301 241.4 127.001C240.6 129.601 238.4 131.601 235.8 132.301C235.1 132.501 234.4 132.601 233.8 132.601ZM224.4 81.2009C223.9 81.2009 223.4 81.3009 222.9 81.4009C221 81.9009 219.4 83.3009 218.7 85.2009C218.6 85.5009 218.5 85.8009 218.4 86.1009C218.2 87.0009 218.2 87.9009 218.5 88.8009L227.9 126.201C228.7 129.401 232 131.401 235.2 130.601C237.2 130.101 238.8 128.601 239.5 126.601C239.7 126.101 239.8 125.501 239.8 124.901C239.8 124.601 239.8 124.301 239.8 124.101V124.001C239.8 123.801 239.7 123.501 239.7 123.301L230.3 85.9009C229.9 84.3009 228.9 83.0009 227.5 82.2009C226.5 81.5009 225.4 81.2009 224.4 81.2009Z" fill="#383A48"/>
<path d="M221.4 129.9C217.7 130.9 213.9 128.6 212.9 124.9L202.8 84.8004C201.9 81.0004 204.1 77.2004 207.9 76.3004C211.6 75.4004 215.4 77.6004 216.4 81.4004L226.5 121.5C227.4 125.1 225.1 128.9 221.4 129.9Z" fill="#9753D9"/>
<path d="M219.701 131.1C216.101 131.1 212.901 128.6 212.001 125.1L201.901 85.0001C200.801 80.7001 203.401 76.4001 207.701 75.3001C212.001 74.2001 216.301 76.8001 217.401 81.1001L227.501 121.2C228.601 125.5 226.001 129.8 221.701 130.9C221.001 131 220.301 131.1 219.701 131.1ZM209.601 76.9001C209.101 76.9001 208.601 77.0001 208.101 77.1001C204.901 77.9001 202.901 81.2001 203.701 84.4001L213.801 124.5C214.601 127.7 217.901 129.7 221.101 128.9C224.301 128.1 226.301 124.8 225.501 121.6L215.401 81.5001C215.001 79.9001 214.001 78.6001 212.601 77.8001C211.701 77.2001 210.701 76.9001 209.601 76.9001Z" fill="#383A48"/>
<path d="M208.5 133.1C204.8 134.1 201 131.8 200 128.1L188.3 81.9C187.4 78.1 189.6 74.3 193.4 73.4C197.2 72.5 200.9 74.7 201.9 78.5L213.6 124.7C214.5 128.4 212.3 132.2 208.5 133.1Z" fill="#9753D9"/>
<path d="M206.801 134.301C203.201 134.301 200.001 131.801 199.101 128.301L187.401 82.1007C186.301 77.8007 188.901 73.5007 193.201 72.4007C197.501 71.3007 201.801 73.9007 202.901 78.2007L214.601 124.401C215.701 128.701 213.101 133.001 208.801 134.101C208.101 134.201 207.401 134.301 206.801 134.301ZM195.101 74.1007C194.601 74.1007 194.101 74.2007 193.601 74.3007C190.401 75.1007 188.401 78.4007 189.201 81.6007L200.901 127.801C201.701 131.001 205.001 133.001 208.201 132.201C211.401 131.401 213.401 128.101 212.601 124.901L200.901 78.7007C200.301 76.0007 197.901 74.1007 195.101 74.1007Z" fill="#383A48"/>
<path d="M196.8 138.301C193.1 139.301 189.9 139.601 189 135.901L178.2 93.2008C177.3 89.4008 179.5 85.6008 183.3 84.7008C187 83.8008 190.8 86.0009 191.8 89.8009L201.9 129.901C202.8 133.501 200.6 137.301 196.8 138.301Z" fill="#9753D9"/>
<path d="M192.901 139.901C190.801 139.901 188.801 139.101 188.001 136.101L177.201 93.4005C176.101 89.1005 178.701 84.8005 183.001 83.7005C187.301 82.6005 191.601 85.2006 192.701 89.5006L202.801 129.601C203.901 133.901 201.301 138.201 197.001 139.301C195.901 139.501 194.401 139.901 192.901 139.901ZM185.001 85.4005C184.501 85.4005 184.001 85.5005 183.501 85.6005C180.301 86.4005 178.301 89.7005 179.101 92.9005L189.901 135.601C190.501 138.101 192.101 138.501 196.501 137.301C199.701 136.501 201.701 133.201 200.901 130.001L190.801 89.9005C190.201 87.2005 187.701 85.4005 185.001 85.4005Z" fill="#383A48"/>
<path d="M223 112.201L199.7 118.101C192.6 119.901 188.3 127.401 190.2 134.701L193.9 149.401C197.4 163.401 211.3 172.001 224.9 168.601C238.5 165.201 246.6 151.001 243.1 137.001L239.4 122.301C237.5 114.901 230.2 110.401 223 112.201Z" fill="#9753D9"/>
<path d="M217.7 149.1C214.7 131.1 197.6 139.2 192.6 134.9L180.8 124.5C177.4 121.6 172.3 122 169.5 125.4C166.6 128.8 167 133.9 170.4 136.8C170.4 136.8 197.3 162.6 210.4 168.9" fill="#9753D9"/>
<path d="M210.3 169.801C210.2 169.801 210 169.801 209.9 169.701C204.4 167.001 195.9 160.801 184.8 151.201C176.7 144.201 170.1 137.901 169.7 137.501C165.9 134.201 165.5 128.501 168.7 124.801C171.9 121.101 177.6 120.601 181.4 123.801L193.2 134.201C194.6 135.401 197.3 135.501 200.4 135.601C207.2 135.801 216.4 136.101 218.6 149.001C218.7 149.501 218.3 150.001 217.8 150.101C217.3 150.201 216.8 149.801 216.7 149.301C214.8 138.001 207.1 137.701 200.4 137.501C196.9 137.401 193.8 137.301 192 135.601L180.2 125.201C177.2 122.701 172.8 123.001 170.2 126.001C167.7 129.001 168 133.501 171 136.001C171.3 136.301 197.9 161.701 210.8 167.901C211.3 168.101 211.5 168.701 211.2 169.201C211 169.601 210.7 169.801 210.3 169.801Z" fill="#383A48"/>
<path d="M179 180.501L163.2 184.801L139.2 143.301L167.6 135.501L179 180.501Z" fill="url(#paint0_linear_52_152)"/>
<path d="M239.1 121.401C238.5 122.301 237.6 123.101 236.7 123.701C237.7 123.701 238.7 123.601 239.7 123.701C240 123.701 240.2 123.701 240.5 123.701C240.6 123.701 240.6 123.701 240.7 123.701V123.801L244.1 137.201C245.5 142.701 244.4 145.801 242.5 150.701L242.4 150.601C242.1 150.401 241.7 150.201 241.4 150.101C233.3 145.701 206.9 126.401 206.9 126.401C206.2 125.901 205.6 125.201 205 124.501C203.6 122.501 203.2 119.901 203.9 117.501C204 117.301 204 117.101 204.1 116.801C204.3 116.201 204.7 115.601 205.1 115.001C205.4 114.601 205.6 114.301 206 114.001C207.5 112.501 209.5 111.701 211.6 111.701C211.8 111.701 212.1 111.701 212.3 111.701C212.8 111.701 213.4 111.801 213.9 112.001C214.8 112.301 215.6 112.701 216.4 113.201L216.8 113.501L217.4 113.901L225.2 119.201L226 119.801L226.7 120.301L217.7 84.6009C219 81.0009 223.1 79.1009 226.7 80.4009C228.9 81.2009 230.5 83.0009 231.1 85.3009L239.8 119.701V119.801C239.7 119.901 239.7 120.101 239.6 120.201C239.5 120.701 239.3 121.001 239.1 121.401Z" fill="#383A48"/>
<path d="M242.5 151.601C242.3 151.601 242.2 151.601 242.1 151.501L242 151.401C241.7 151.201 241.3 151.001 241 150.901C232.9 146.501 207.5 128.001 206.4 127.201C205.6 126.601 204.9 125.901 204.3 125.101C202.7 122.801 202.3 120.001 203 117.301C203.1 117.001 203.2 116.801 203.3 116.601C203.6 115.901 203.9 115.301 204.4 114.701C206.1 112.401 208.8 111.001 211.6 111.001C211.9 111.001 212.1 111.001 212.4 111.001C213 111.001 213.6 111.201 214.2 111.301C215.2 111.601 216.1 112.001 217 112.701L218 113.501L225.2 118.301L216.9 85.2005C216.9 85.0005 216.9 84.8005 216.9 84.6005C218.4 80.5005 223 78.3005 227.1 79.9005C229.6 80.8005 231.4 82.9005 232.1 85.4005L240.8 119.801C240.8 120.001 240.8 120.201 240.8 120.301C240.8 120.401 240.8 120.401 240.7 120.501C240.6 120.701 240.6 120.801 240.5 121.001C240.3 121.401 240.1 121.701 239.9 122.101C239.7 122.401 239.6 122.601 239.4 122.801C239.5 122.801 239.6 122.801 239.7 122.801C240 122.801 240.3 122.801 240.6 122.801H240.7C240.8 122.801 240.8 122.801 240.9 122.801C241.3 122.801 241.7 123.201 241.8 123.601V123.701L245.2 137.001C246.6 142.701 245.6 145.901 243.6 151.101C243.5 151.401 243.3 151.601 243 151.701C242.8 151.601 242.7 151.601 242.5 151.601ZM211.7 112.801C209.8 112.801 208 113.501 206.7 114.801C206.4 115.101 206.2 115.401 205.9 115.701C205.6 116.201 205.3 116.701 205.1 117.201C205 117.401 205 117.601 204.9 117.801C204.3 119.901 204.6 122.101 205.9 123.901C206.3 124.501 206.9 125.101 207.5 125.601C207.8 125.801 233.9 144.901 241.9 149.201L242 149.301C243.6 144.901 244.4 142.201 243.1 137.401L239.9 124.601C239.8 124.601 239.7 124.601 239.6 124.601C238.7 124.601 237.8 124.601 236.6 124.601C236.1 124.601 235.7 124.301 235.6 123.901C235.5 123.501 235.7 123.001 236.1 122.801C236.9 122.301 237.7 121.701 238.2 120.901C238.4 120.601 238.5 120.401 238.6 120.101C238.6 120.001 238.7 120.001 238.7 119.901L230.1 85.8006C229.3 82.6006 226 80.6005 222.8 81.4005C221 81.9005 219.5 83.2005 218.7 84.9005L227.6 120.301C227.7 120.701 227.5 121.101 227.2 121.401C226.9 121.601 226.4 121.601 226.1 121.401L225.4 120.901L224.7 120.401L216.9 115.101L215.8 114.301C215.1 113.801 214.4 113.501 213.6 113.201C213.2 113.101 212.7 113.001 212.2 112.901C212.1 112.801 211.9 112.801 211.7 112.801Z" fill="#383A48"/>
<path d="M235.9 119.501L235.1 116.301C233.2 108.801 237.7 101.301 245.2 99.4005L269.6 93.2005C277.1 91.3005 284.6 95.8005 286.5 103.301L292 125.001" fill="#9753D9"/>
<path d="M292 126.001C291.6 126.001 291.2 125.701 291.1 125.301L285.6 103.601C283.8 96.7006 276.8 92.5006 269.9 94.2006L245.5 100.401C238.6 102.201 234.4 109.201 236.1 116.201L236.9 119.401C237 119.901 236.7 120.501 236.2 120.601C235.7 120.701 235.1 120.401 235 119.901L234.2 116.701C232.2 108.701 237 100.601 245 98.6006L269.4 92.4006C277.4 90.4006 285.5 95.2006 287.5 103.201L293 124.901C293.1 125.401 292.8 125.901 292.3 126.101C292.1 126.001 292.1 126.001 292 126.001Z" fill="#383A48"/>
<path d="M283 117.9C279.3 118.9 275.5 116.6 274.5 112.9L264.4 72.8004C263.5 69.0004 265.7 65.2004 269.5 64.3004C273.3 63.4004 277 65.6004 278 69.4004L288.1 109.5C289 113.1 286.8 116.9 283 117.9Z" fill="#9753D9"/>
<path d="M281.3 119.1C277.7 119.1 274.5 116.6 273.6 113.1L263.5 73.0001C262.4 68.7001 265 64.4001 269.3 63.3001C273.6 62.2001 277.9 64.8001 279 69.1001L289.1 109.2C290.2 113.5 287.6 117.8 283.3 118.9C282.6 119 281.9 119.1 281.3 119.1ZM271.2 65.0001C270.7 65.0001 270.2 65.1001 269.7 65.2001C266.5 66.0001 264.5 69.3001 265.3 72.5001L275.4 112.6C276.2 115.8 279.5 117.8 282.7 117C285.9 116.2 287.9 112.9 287.1 109.7L277 69.6001C276.3 66.9001 273.9 65.0001 271.2 65.0001Z" fill="#383A48"/>
<path d="M268.2 113.7C264.5 114.7 260.7 112.4 259.7 108.7L249.6 68.6002C248.7 64.8002 250.9 61.0002 254.7 60.1002C258.5 59.2002 262.2 61.4002 263.2 65.2002L273.3 105.3C274.2 108.9 272 112.7 268.2 113.7Z" fill="#9753D9"/>
<path d="M266.5 114.9C262.9 114.9 259.7 112.4 258.8 108.9L248.7 68.8003C247.6 64.5003 250.2 60.2003 254.4 59.1003C258.7 58.0003 263 60.6003 264.1 64.8003C264.1 64.8003 264.1 64.8003 264.1 64.9003L274.2 105C275.3 109.3 272.7 113.6 268.4 114.7C267.9 114.8 267.2 114.9 266.5 114.9ZM256.4 60.8003C255.9 60.8003 255.4 60.9003 254.9 61.0003C251.7 61.8003 249.7 65.1003 250.5 68.3003L260.6 108.4C261.4 111.6 264.7 113.6 267.9 112.8C271.1 112 273.1 108.7 272.3 105.5L262.2 65.4003C261.8 63.8003 260.8 62.5003 259.4 61.7003C258.6 61.1003 257.5 60.8003 256.4 60.8003Z" fill="#383A48"/>
<path d="M255.4 116.901C251.7 117.901 247.9 115.601 246.9 111.901L235.2 65.7008C234.3 61.9008 236.5 58.1008 240.3 57.2008C244.1 56.3008 247.8 58.5008 248.8 62.3008L260.5 108.501C261.4 112.201 259.1 116.001 255.4 116.901Z" fill="#9753D9"/>
<path d="M253.601 118.101C250.001 118.101 246.801 115.601 245.901 112.101L234.201 65.9005C233.101 61.6005 235.701 57.3005 240.001 56.2005C244.301 55.1005 248.601 57.7005 249.701 62.0005L261.401 108.2C262.501 112.5 259.901 116.8 255.601 117.9C255.001 118 254.301 118.101 253.601 118.101ZM242.001 57.9005C241.501 57.9005 241.001 58.0005 240.501 58.1005C237.301 58.9005 235.301 62.2005 236.101 65.4005L247.801 111.601C248.601 114.801 251.901 116.801 255.101 116.001C258.301 115.201 260.301 111.9 259.501 108.7L247.801 62.5005C247.401 60.9005 246.401 59.6005 245.001 58.8005C244.101 58.2005 243.101 57.9005 242.001 57.9005Z" fill="#383A48"/>
<path d="M243.7 122.101C240 123.101 236.2 120.801 235.2 117.101L225.1 77.0006C224.2 73.2006 226.4 69.4006 230.2 68.5006C234 67.6006 237.7 69.8006 238.7 73.6006L248.8 113.701C249.7 117.301 247.4 121.101 243.7 122.101Z" fill="#9753D9"/>
<path d="M241.9 123.3C238.3 123.3 235.1 120.8 234.2 117.3L224.1 77.2003C223 72.9003 225.6 68.6003 229.9 67.5003C234.2 66.4003 238.5 69.0003 239.6 73.3003L249.7 113.4C250.8 117.7 248.2 122 243.9 123.1C243.3 123.2 242.6 123.3 241.9 123.3ZM231.8 69.1003C231.3 69.1003 230.8 69.2003 230.3 69.3003C227.1 70.1003 225.1 73.4003 225.9 76.6003L236 116.7C236.8 119.9 240.1 121.9 243.3 121.1C246.5 120.3 248.5 117 247.7 113.8L237.6 73.7003C237.2 72.1003 236.2 70.8003 234.8 70.0003C234 69.4003 232.9 69.1003 231.8 69.1003Z" fill="#383A48"/>
<path d="M261.801 132.6C257.301 114.9 240.901 124.4 235.601 120.4L223.001 111C219.401 108.4 214.401 109.3 211.801 113C209.301 116.6 210.101 121.5 213.601 124.1C213.601 124.1 242.501 147.6 256.101 152.8" fill="#9753D9"/>
<path d="M256.1 153.801C256 153.801 255.9 153.801 255.8 153.701C250.1 151.501 241.2 146.001 229.2 137.301C220.6 131.001 213.5 125.201 213 124.901C209 122.001 208.1 116.301 211 112.301C213.9 108.301 219.6 107.401 223.6 110.301L236.2 119.701C237.7 120.801 240.4 120.701 243.5 120.501C250.3 120.201 259.5 119.701 262.7 132.401C262.8 132.901 262.5 133.501 262 133.601C261.5 133.701 260.9 133.401 260.8 132.901C258 121.801 250.3 122.201 243.6 122.501C240.1 122.701 237 122.801 235 121.301L222.4 111.901C219.2 109.601 214.8 110.301 212.5 113.501C210.2 116.701 210.9 121.101 214.1 123.401C214.4 123.601 243 146.801 256.3 152.001C256.8 152.201 257.1 152.801 256.9 153.301C256.9 153.601 256.5 153.801 256.1 153.801Z" fill="#383A48"/>
<path d="M246.2 102L269.8 96.0003C277 94.2003 284.3 98.6003 286.2 105.9L289.9 120.4C293.4 134.3 285.1 148.4 271.4 151.9C257.7 155.4 243.7 146.9 240.2 133L236.5 118.5C234.7 111.2 239 103.8 246.2 102Z" fill="#9753D9"/>
<path d="M274 107.901L327.6 94.001L327.8 144.801L284.1 155.901C273.6 158.801 262.3 157.301 253 151.701L249.4 149.601" fill="#9753D9"/>
<path d="M273.5 158.4C266.1 158.4 258.9 156.4 252.5 152.6L248.9 150.4C248.4 150.1 248.3 149.5 248.6 149.1C248.9 148.6 249.5 148.5 249.9 148.8L253.5 151C262.6 156.5 273.6 157.9 283.9 155.1L326.9 144.2L326.7 95.4004L274.3 109C273.8 109.1 273.2 108.8 273.1 108.3C273 107.8 273.3 107.2 273.8 107.1L327.4 93.2004C327.7 93.1004 328 93.2004 328.2 93.4004C328.4 93.6004 328.6 93.9004 328.6 94.2004L328.8 145C328.8 145.5 328.5 145.8 328.1 146L284.4 157.1C280.8 157.9 277.2 158.4 273.5 158.4Z" fill="#383A48"/>
<path d="M329.7 143.5L302.2 150.3L290.7 104.7L329.9 94.4004L329.7 143.5Z" fill="url(#paint1_linear_52_152)"/>
<path d="M155.186 57.6088L159.339 51.4747L182.685 67.258L178.3 73.421L155.186 57.6088Z" fill="#383A48"/>
<path d="M255.409 44.8076L267.229 19.4695L274.22 22.8028L262.4 48.1409L255.409 44.8076Z" fill="#383A48"/>
<path d="M206.735 25.4178L213.982 23.3397L220.874 48.2025L213.628 50.2806L206.735 25.4178Z" fill="#383A48"/>
<path d="M139.474 147.711C139.348 147.75 139.21 147.653 139.168 147.493C139.125 147.333 139.193 147.171 139.32 147.131C139.446 147.092 139.583 147.189 139.626 147.349C139.669 147.509 139.601 147.671 139.474 147.711Z" fill="#383A48"/>
<path d="M141.053 153.63C140.927 153.669 140.789 153.572 140.747 153.412C140.704 153.252 140.772 153.09 140.899 153.05C141.025 153.011 141.163 153.108 141.205 153.268C141.248 153.428 141.18 153.59 141.053 153.63Z" fill="#383A48"/>
<path d="M142.632 159.548C142.506 159.587 142.368 159.49 142.326 159.33C142.283 159.17 142.351 159.008 142.478 158.968C142.604 158.929 142.742 159.026 142.784 159.186C142.827 159.346 142.759 159.508 142.632 159.548Z" fill="#383A48"/>
<path d="M144.211 165.467C144.085 165.506 143.948 165.409 143.905 165.249C143.862 165.089 143.93 164.927 144.057 164.887C144.183 164.848 144.321 164.945 144.363 165.105C144.406 165.265 144.338 165.427 144.211 165.467Z" fill="#383A48"/>
<path d="M145.791 171.385C145.664 171.424 145.527 171.327 145.484 171.167C145.441 171.007 145.509 170.845 145.636 170.805C145.763 170.766 145.9 170.863 145.943 171.023C145.985 171.183 145.917 171.345 145.791 171.385Z" fill="#383A48"/>
<path d="M147.37 177.304C147.243 177.343 147.106 177.246 147.063 177.086C147.02 176.926 147.088 176.764 147.215 176.724C147.342 176.684 147.479 176.782 147.522 176.942C147.564 177.102 147.496 177.264 147.37 177.304Z" fill="#383A48"/>
<path d="M148.96 183.264C148.833 183.303 148.696 183.206 148.653 183.046C148.61 182.886 148.678 182.724 148.805 182.684C148.932 182.644 149.069 182.742 149.111 182.902C149.154 183.062 149.086 183.224 148.96 183.264Z" fill="#383A48"/>
<path d="M150.539 189.182C150.412 189.222 150.275 189.124 150.232 188.964C150.189 188.804 150.257 188.643 150.384 188.603C150.511 188.563 150.648 188.661 150.691 188.821C150.733 188.981 150.665 189.143 150.539 189.182Z" fill="#383A48"/>
<path d="M144.939 146.001C144.812 146.04 144.675 145.943 144.632 145.783C144.59 145.623 144.658 145.461 144.784 145.421C144.911 145.382 145.048 145.479 145.091 145.639C145.134 145.799 145.066 145.961 144.939 146.001Z" fill="#383A48"/>
<path d="M146.518 151.919C146.391 151.958 146.254 151.861 146.211 151.701C146.169 151.541 146.237 151.379 146.363 151.339C146.49 151.3 146.627 151.397 146.67 151.557C146.713 151.717 146.645 151.879 146.518 151.919Z" fill="#383A48"/>
<path d="M148.097 157.838C147.971 157.877 147.833 157.78 147.791 157.62C147.748 157.46 147.816 157.298 147.943 157.258C148.069 157.219 148.206 157.316 148.249 157.476C148.292 157.636 148.224 157.798 148.097 157.838Z" fill="#383A48"/>
<path d="M149.676 163.756C149.55 163.795 149.412 163.698 149.37 163.538C149.327 163.378 149.395 163.216 149.522 163.176C149.648 163.137 149.786 163.234 149.828 163.394C149.871 163.554 149.803 163.716 149.676 163.756Z" fill="#383A48"/>
<path d="M151.255 169.675C151.129 169.714 150.991 169.617 150.949 169.457C150.906 169.297 150.974 169.135 151.101 169.095C151.227 169.056 151.365 169.153 151.407 169.313C151.45 169.473 151.382 169.635 151.255 169.675Z" fill="#383A48"/>
<path d="M152.834 175.594C152.707 175.633 152.57 175.536 152.527 175.376C152.484 175.216 152.552 175.054 152.679 175.014C152.806 174.975 152.943 175.072 152.986 175.232C153.028 175.392 152.96 175.554 152.834 175.594Z" fill="#383A48"/>
<path d="M154.424 181.554C154.298 181.593 154.16 181.496 154.118 181.336C154.075 181.176 154.143 181.014 154.27 180.974C154.396 180.934 154.534 181.032 154.576 181.192C154.619 181.352 154.551 181.514 154.424 181.554Z" fill="#383A48"/>
<path d="M156.003 187.471C155.877 187.511 155.74 187.414 155.697 187.254C155.654 187.094 155.722 186.932 155.849 186.892C155.975 186.852 156.113 186.95 156.155 187.11C156.198 187.27 156.13 187.432 156.003 187.471Z" fill="#383A48"/>
<path d="M150.403 144.29C150.276 144.329 150.139 144.232 150.096 144.072C150.054 143.912 150.122 143.75 150.248 143.71C150.375 143.671 150.512 143.768 150.555 143.928C150.598 144.088 150.529 144.25 150.403 144.29Z" fill="#383A48"/>
<path d="M151.982 150.209C151.855 150.248 151.718 150.151 151.675 149.991C151.633 149.831 151.701 149.669 151.827 149.629C151.954 149.59 152.091 149.687 152.134 149.847C152.177 150.007 152.109 150.169 151.982 150.209Z" fill="#383A48"/>
<path d="M153.561 156.128C153.434 156.167 153.297 156.07 153.254 155.91C153.212 155.75 153.28 155.588 153.406 155.548C153.533 155.509 153.67 155.606 153.713 155.766C153.756 155.926 153.688 156.088 153.561 156.128Z" fill="#383A48"/>
<path d="M155.14 162.046C155.014 162.085 154.876 161.988 154.834 161.828C154.791 161.668 154.859 161.506 154.986 161.466C155.112 161.427 155.249 161.524 155.292 161.684C155.335 161.844 155.267 162.006 155.14 162.046Z" fill="#383A48"/>
<path d="M156.719 167.965C156.593 168.004 156.455 167.907 156.413 167.747C156.37 167.587 156.438 167.425 156.565 167.385C156.691 167.346 156.829 167.443 156.871 167.603C156.914 167.763 156.846 167.925 156.719 167.965Z" fill="#383A48"/>
<path d="M158.298 173.883C158.172 173.922 158.034 173.825 157.992 173.665C157.949 173.505 158.017 173.343 158.144 173.303C158.27 173.264 158.408 173.361 158.45 173.521C158.493 173.681 158.425 173.843 158.298 173.883Z" fill="#383A48"/>
<path d="M159.889 179.843C159.763 179.882 159.625 179.785 159.583 179.625C159.54 179.465 159.608 179.303 159.735 179.263C159.861 179.224 159.998 179.321 160.041 179.481C160.084 179.641 160.016 179.803 159.889 179.843Z" fill="#383A48"/>
<path d="M161.468 185.762C161.342 185.801 161.204 185.704 161.162 185.544C161.119 185.384 161.187 185.222 161.314 185.182C161.44 185.142 161.578 185.24 161.62 185.4C161.663 185.56 161.595 185.722 161.468 185.762Z" fill="#383A48"/>
<path d="M155.868 142.58C155.741 142.62 155.604 142.522 155.561 142.362C155.518 142.202 155.586 142.04 155.713 142C155.84 141.961 155.977 142.058 156.02 142.218C156.062 142.378 155.994 142.54 155.868 142.58Z" fill="#383A48"/>
<path d="M157.447 148.499C157.32 148.538 157.183 148.441 157.14 148.281C157.098 148.121 157.166 147.959 157.292 147.919C157.419 147.88 157.556 147.977 157.599 148.137C157.641 148.297 157.573 148.459 157.447 148.499Z" fill="#383A48"/>
<path d="M159.026 154.417C158.899 154.456 158.762 154.359 158.719 154.199C158.677 154.039 158.745 153.877 158.871 153.837C158.998 153.798 159.135 153.895 159.178 154.055C159.221 154.215 159.153 154.377 159.026 154.417Z" fill="#383A48"/>
<path d="M160.605 160.336C160.478 160.375 160.341 160.278 160.298 160.118C160.256 159.958 160.324 159.796 160.45 159.756C160.577 159.717 160.714 159.814 160.757 159.974C160.8 160.134 160.732 160.296 160.605 160.336Z" fill="#383A48"/>
<path d="M162.184 166.255C162.057 166.294 161.92 166.197 161.878 166.037C161.835 165.877 161.903 165.715 162.029 165.675C162.156 165.636 162.293 165.733 162.336 165.893C162.379 166.053 162.311 166.215 162.184 166.255Z" fill="#383A48"/>
<path d="M163.763 172.173C163.637 172.212 163.499 172.115 163.457 171.955C163.414 171.795 163.482 171.633 163.609 171.593C163.735 171.554 163.872 171.651 163.915 171.811C163.958 171.971 163.89 172.133 163.763 172.173Z" fill="#383A48"/>
<path d="M165.353 178.133C165.226 178.172 165.089 178.075 165.046 177.915C165.004 177.755 165.072 177.593 165.198 177.553C165.325 177.514 165.462 177.611 165.505 177.771C165.548 177.931 165.48 178.093 165.353 178.133Z" fill="#383A48"/>
<path d="M166.932 184.052C166.805 184.091 166.668 183.994 166.626 183.834C166.583 183.674 166.651 183.512 166.778 183.472C166.904 183.433 167.041 183.53 167.084 183.69C167.127 183.85 167.059 184.012 166.932 184.052Z" fill="#383A48"/>
<path d="M161.333 140.87C161.206 140.91 161.069 140.812 161.026 140.652C160.983 140.492 161.051 140.33 161.178 140.291C161.305 140.251 161.442 140.348 161.485 140.508C161.527 140.668 161.459 140.83 161.333 140.87Z" fill="#383A48"/>
<path d="M162.912 146.788C162.785 146.828 162.648 146.73 162.605 146.57C162.562 146.41 162.63 146.248 162.757 146.208C162.884 146.169 163.021 146.266 163.064 146.426C163.106 146.586 163.038 146.748 162.912 146.788Z" fill="#383A48"/>
<path d="M164.491 152.707C164.364 152.747 164.227 152.649 164.184 152.489C164.141 152.329 164.209 152.167 164.336 152.127C164.463 152.088 164.6 152.185 164.643 152.345C164.685 152.505 164.617 152.667 164.491 152.707Z" fill="#383A48"/>
<path d="M166.07 158.626C165.943 158.665 165.806 158.568 165.763 158.408C165.721 158.248 165.789 158.086 165.915 158.046C166.042 158.007 166.179 158.104 166.222 158.264C166.265 158.424 166.196 158.586 166.07 158.626Z" fill="#383A48"/>
<path d="M167.649 164.544C167.522 164.583 167.385 164.486 167.342 164.326C167.3 164.166 167.368 164.004 167.494 163.964C167.621 163.925 167.758 164.022 167.801 164.182C167.844 164.342 167.776 164.504 167.649 164.544Z" fill="#383A48"/>
<path d="M169.228 170.463C169.101 170.502 168.964 170.405 168.921 170.245C168.879 170.085 168.947 169.923 169.073 169.883C169.2 169.844 169.337 169.941 169.38 170.101C169.423 170.261 169.355 170.423 169.228 170.463Z" fill="#383A48"/>
<path d="M170.818 176.423C170.691 176.462 170.554 176.365 170.511 176.205C170.469 176.045 170.537 175.883 170.663 175.843C170.79 175.804 170.927 175.901 170.97 176.061C171.013 176.221 170.945 176.383 170.818 176.423Z" fill="#383A48"/>
<path d="M172.397 182.341C172.27 182.38 172.133 182.283 172.09 182.123C172.048 181.963 172.116 181.801 172.242 181.761C172.369 181.722 172.506 181.819 172.549 181.979C172.592 182.139 172.524 182.301 172.397 182.341Z" fill="#383A48"/>
<path d="M171.573 156.903C171.446 156.943 171.309 156.845 171.266 156.685C171.224 156.525 171.292 156.363 171.418 156.324C171.545 156.284 171.682 156.382 171.725 156.542C171.767 156.702 171.699 156.864 171.573 156.903Z" fill="#383A48"/>
<path d="M173.152 162.822C173.025 162.862 172.888 162.764 172.845 162.604C172.803 162.444 172.871 162.282 172.997 162.243C173.124 162.203 173.261 162.301 173.304 162.461C173.347 162.621 173.279 162.782 173.152 162.822Z" fill="#383A48"/>
<path d="M174.731 168.74C174.604 168.78 174.467 168.682 174.424 168.522C174.382 168.362 174.45 168.2 174.576 168.161C174.703 168.121 174.84 168.219 174.883 168.379C174.926 168.539 174.858 168.7 174.731 168.74Z" fill="#383A48"/>
<path d="M176.321 174.7C176.194 174.74 176.057 174.642 176.014 174.482C175.972 174.322 176.04 174.16 176.166 174.121C176.293 174.081 176.43 174.179 176.473 174.339C176.515 174.499 176.447 174.66 176.321 174.7Z" fill="#383A48"/>
<path d="M177.9 180.619C177.773 180.659 177.636 180.561 177.593 180.401C177.551 180.241 177.619 180.079 177.745 180.04C177.872 180 178.009 180.097 178.052 180.257C178.095 180.417 178.027 180.579 177.9 180.619Z" fill="#383A48"/>
<path d="M177.038 155.193C176.911 155.233 176.774 155.135 176.731 154.975C176.688 154.815 176.756 154.653 176.883 154.614C177.01 154.574 177.147 154.672 177.19 154.832C177.232 154.992 177.164 155.154 177.038 155.193Z" fill="#383A48"/>
<path d="M178.617 161.111C178.49 161.151 178.353 161.053 178.31 160.893C178.267 160.733 178.335 160.571 178.462 160.532C178.589 160.492 178.726 160.59 178.769 160.75C178.811 160.91 178.743 161.072 178.617 161.111Z" fill="#383A48"/>
<path d="M180.196 167.03C180.069 167.07 179.932 166.972 179.889 166.812C179.847 166.652 179.915 166.49 180.041 166.451C180.168 166.411 180.305 166.509 180.348 166.669C180.39 166.829 180.322 166.99 180.196 167.03Z" fill="#383A48"/>
<path d="M181.786 172.99C181.659 173.03 181.522 172.932 181.479 172.772C181.436 172.612 181.504 172.45 181.631 172.411C181.758 172.371 181.895 172.469 181.938 172.629C181.98 172.789 181.912 172.95 181.786 172.99Z" fill="#383A48"/>
<path d="M183.365 178.909C183.238 178.949 183.101 178.851 183.058 178.691C183.015 178.531 183.084 178.369 183.21 178.33C183.337 178.29 183.474 178.388 183.517 178.548C183.559 178.708 183.491 178.869 183.365 178.909Z" fill="#383A48"/>
<path d="M182.502 153.483C182.376 153.523 182.239 153.425 182.196 153.265C182.153 153.105 182.221 152.943 182.348 152.904C182.474 152.864 182.612 152.962 182.654 153.122C182.697 153.282 182.629 153.444 182.502 153.483Z" fill="#383A48"/>
<path d="M184.081 159.401C183.954 159.441 183.817 159.343 183.774 159.183C183.731 159.023 183.799 158.861 183.926 158.822C184.053 158.782 184.19 158.88 184.233 159.04C184.275 159.2 184.207 159.362 184.081 159.401Z" fill="#383A48"/>
<path d="M185.66 165.32C185.533 165.36 185.396 165.262 185.353 165.102C185.31 164.942 185.378 164.78 185.505 164.741C185.632 164.701 185.769 164.799 185.812 164.959C185.854 165.119 185.786 165.281 185.66 165.32Z" fill="#383A48"/>
<path d="M187.25 171.28C187.124 171.32 186.987 171.222 186.944 171.062C186.901 170.902 186.969 170.74 187.096 170.701C187.223 170.661 187.36 170.759 187.402 170.919C187.445 171.079 187.377 171.24 187.25 171.28Z" fill="#383A48"/>
<path d="M188.83 177.198C188.703 177.238 188.566 177.14 188.523 176.98C188.48 176.82 188.548 176.658 188.675 176.619C188.802 176.579 188.939 176.677 188.982 176.837C189.024 176.997 188.956 177.158 188.83 177.198Z" fill="#383A48"/>
<path d="M191.125 163.61C190.998 163.65 190.861 163.552 190.818 163.392C190.775 163.232 190.843 163.07 190.97 163.031C191.097 162.991 191.234 163.089 191.277 163.249C191.319 163.409 191.251 163.571 191.125 163.61Z" fill="#383A48"/>
<path d="M192.715 169.569C192.589 169.609 192.451 169.511 192.409 169.351C192.366 169.191 192.434 169.029 192.561 168.99C192.687 168.95 192.825 169.048 192.867 169.208C192.91 169.368 192.842 169.53 192.715 169.569Z" fill="#383A48"/>
<path d="M194.293 175.488C194.167 175.528 194.03 175.43 193.987 175.27C193.944 175.11 194.012 174.948 194.139 174.909C194.266 174.869 194.403 174.967 194.445 175.127C194.488 175.287 194.42 175.448 194.293 175.488Z" fill="#383A48"/>
<path d="M196.589 161.899C196.463 161.939 196.325 161.841 196.283 161.681C196.24 161.521 196.308 161.359 196.435 161.32C196.561 161.28 196.699 161.378 196.741 161.538C196.784 161.698 196.716 161.86 196.589 161.899Z" fill="#383A48"/>
<path d="M198.179 167.859C198.053 167.899 197.915 167.801 197.873 167.641C197.83 167.481 197.898 167.319 198.025 167.28C198.151 167.24 198.289 167.338 198.331 167.498C198.374 167.658 198.306 167.82 198.179 167.859Z" fill="#383A48"/>
<path d="M199.758 173.778C199.632 173.818 199.494 173.72 199.452 173.56C199.409 173.4 199.477 173.238 199.604 173.199C199.73 173.159 199.868 173.257 199.91 173.417C199.953 173.577 199.885 173.739 199.758 173.778Z" fill="#383A48"/>
<path d="M202.054 160.189C201.928 160.229 201.79 160.131 201.748 159.971C201.705 159.811 201.773 159.649 201.9 159.61C202.026 159.57 202.164 159.668 202.206 159.828C202.249 159.988 202.181 160.15 202.054 160.189Z" fill="#383A48"/>
<path d="M203.644 166.149C203.517 166.189 203.38 166.091 203.337 165.931C203.295 165.771 203.363 165.609 203.489 165.57C203.616 165.53 203.753 165.628 203.796 165.788C203.839 165.948 203.771 166.11 203.644 166.149Z" fill="#383A48"/>
<path d="M205.223 172.068C205.097 172.108 204.959 172.01 204.917 171.85C204.874 171.69 204.942 171.528 205.069 171.489C205.195 171.449 205.332 171.547 205.375 171.707C205.418 171.867 205.35 172.029 205.223 172.068Z" fill="#383A48"/>
<path d="M331.791 97.5864C331.918 97.5516 331.991 97.3925 331.954 97.2309C331.916 97.0694 331.783 96.9667 331.656 97.0014C331.529 97.0362 331.456 97.1954 331.493 97.3569C331.531 97.5185 331.664 97.6212 331.791 97.5864Z" fill="#383A48"/>
<path d="M333.17 103.562C333.297 103.527 333.37 103.368 333.333 103.207C333.295 103.045 333.162 102.942 333.035 102.977C332.908 103.012 332.835 103.171 332.872 103.333C332.909 103.494 333.043 103.597 333.17 103.562Z" fill="#383A48"/>
<path d="M334.548 109.537C334.675 109.502 334.748 109.343 334.71 109.181C334.673 109.02 334.54 108.917 334.413 108.952C334.286 108.986 334.213 109.146 334.25 109.307C334.287 109.469 334.421 109.571 334.548 109.537Z" fill="#383A48"/>
<path d="M335.936 115.553C336.064 115.518 336.136 115.359 336.099 115.198C336.062 115.036 335.929 114.933 335.801 114.968C335.674 115.003 335.602 115.162 335.639 115.324C335.676 115.485 335.809 115.588 335.936 115.553Z" fill="#383A48"/>
<path d="M337.315 121.528C337.442 121.493 337.515 121.334 337.478 121.172C337.441 121.011 337.308 120.908 337.18 120.943C337.053 120.978 336.98 121.137 337.018 121.298C337.055 121.46 337.188 121.563 337.315 121.528Z" fill="#383A48"/>
<path d="M338.693 127.503C338.82 127.469 338.893 127.309 338.856 127.148C338.819 126.986 338.685 126.884 338.558 126.918C338.431 126.953 338.358 127.112 338.396 127.274C338.433 127.435 338.566 127.538 338.693 127.503Z" fill="#383A48"/>
<path d="M340.072 133.478C340.199 133.443 340.272 133.284 340.235 133.123C340.198 132.961 340.064 132.858 339.937 132.893C339.81 132.928 339.737 133.087 339.775 133.249C339.812 133.41 339.945 133.513 340.072 133.478Z" fill="#383A48"/>
<path d="M341.451 139.453C341.578 139.418 341.651 139.259 341.614 139.097C341.577 138.936 341.443 138.833 341.316 138.868C341.189 138.902 341.116 139.062 341.153 139.223C341.191 139.385 341.324 139.487 341.451 139.453Z" fill="#383A48"/>
<path d="M326.305 99.0884C326.432 99.0536 326.505 98.8944 326.467 98.7329C326.43 98.5714 326.297 98.4686 326.17 98.5034C326.042 98.5382 325.97 98.6974 326.007 98.8589C326.044 99.0204 326.177 99.1232 326.305 99.0884Z" fill="#383A48"/>
<path d="M327.684 105.063C327.811 105.028 327.883 104.869 327.846 104.707C327.809 104.546 327.676 104.443 327.549 104.478C327.421 104.513 327.349 104.672 327.386 104.833C327.423 104.995 327.556 105.098 327.684 105.063Z" fill="#383A48"/>
<path d="M329.062 111.039C329.19 111.004 329.262 110.845 329.225 110.683C329.188 110.522 329.055 110.419 328.927 110.454C328.8 110.488 328.727 110.648 328.765 110.809C328.802 110.971 328.935 111.073 329.062 111.039Z" fill="#383A48"/>
<path d="M330.45 117.055C330.577 117.02 330.65 116.861 330.613 116.7C330.576 116.538 330.442 116.435 330.315 116.47C330.188 116.505 330.115 116.664 330.152 116.826C330.19 116.987 330.323 117.09 330.45 117.055Z" fill="#383A48"/>
<path d="M331.829 123.03C331.956 122.995 332.029 122.836 331.992 122.674C331.954 122.513 331.821 122.41 331.694 122.445C331.567 122.48 331.494 122.639 331.531 122.8C331.569 122.962 331.702 123.065 331.829 123.03Z" fill="#383A48"/>
<path d="M333.208 129.004C333.335 128.97 333.408 128.81 333.371 128.649C333.333 128.487 333.2 128.385 333.073 128.419C332.946 128.454 332.873 128.613 332.91 128.775C332.948 128.936 333.081 129.039 333.208 129.004Z" fill="#383A48"/>
<path d="M334.587 134.98C334.714 134.945 334.787 134.786 334.75 134.624C334.712 134.463 334.579 134.36 334.452 134.395C334.325 134.43 334.252 134.589 334.289 134.75C334.326 134.912 334.46 135.015 334.587 134.98Z" fill="#383A48"/>
<path d="M335.965 140.955C336.092 140.92 336.165 140.761 336.127 140.599C336.09 140.438 335.957 140.335 335.83 140.37C335.703 140.404 335.63 140.564 335.667 140.725C335.704 140.887 335.838 140.989 335.965 140.955Z" fill="#383A48"/>
<path d="M320.78 100.6C320.907 100.565 320.98 100.406 320.943 100.245C320.906 100.083 320.772 99.9803 320.645 100.015C320.518 100.05 320.445 100.209 320.483 100.371C320.52 100.532 320.653 100.635 320.78 100.6Z" fill="#383A48"/>
<path d="M322.159 106.576C322.286 106.541 322.359 106.382 322.322 106.22C322.285 106.059 322.151 105.956 322.024 105.991C321.897 106.025 321.824 106.185 321.861 106.346C321.899 106.508 322.032 106.61 322.159 106.576Z" fill="#383A48"/>
<path d="M323.538 112.55C323.665 112.515 323.738 112.356 323.701 112.195C323.663 112.033 323.53 111.931 323.403 111.965C323.276 112 323.203 112.159 323.24 112.321C323.278 112.482 323.411 112.585 323.538 112.55Z" fill="#383A48"/>
<path d="M324.927 118.567C325.054 118.532 325.127 118.373 325.089 118.211C325.052 118.05 324.919 117.947 324.792 117.982C324.665 118.017 324.592 118.176 324.629 118.337C324.666 118.499 324.8 118.602 324.927 118.567Z" fill="#383A48"/>
<path d="M326.305 124.541C326.432 124.507 326.505 124.348 326.467 124.186C326.43 124.024 326.297 123.922 326.17 123.957C326.043 123.991 325.97 124.15 326.007 124.312C326.044 124.474 326.177 124.576 326.305 124.541Z" fill="#383A48"/>
<path d="M327.684 130.517C327.811 130.482 327.883 130.323 327.846 130.162C327.809 130 327.676 129.897 327.549 129.932C327.421 129.967 327.349 130.126 327.386 130.288C327.423 130.449 327.556 130.552 327.684 130.517Z" fill="#383A48"/>
<path d="M329.062 136.492C329.19 136.457 329.262 136.298 329.225 136.136C329.188 135.975 329.055 135.872 328.927 135.907C328.8 135.942 328.727 136.101 328.765 136.262C328.802 136.424 328.935 136.526 329.062 136.492Z" fill="#383A48"/>
<path d="M330.441 142.466C330.568 142.431 330.641 142.272 330.604 142.111C330.567 141.949 330.433 141.847 330.306 141.881C330.179 141.916 330.106 142.075 330.144 142.237C330.181 142.398 330.314 142.501 330.441 142.466Z" fill="#383A48"/>
<path d="M315.295 102.102C315.422 102.067 315.495 101.908 315.458 101.747C315.42 101.585 315.287 101.482 315.16 101.517C315.033 101.552 314.96 101.711 314.997 101.873C315.034 102.034 315.168 102.137 315.295 102.102Z" fill="#383A48"/>
<path d="M316.674 108.077C316.801 108.042 316.874 107.883 316.836 107.721C316.799 107.56 316.666 107.457 316.539 107.492C316.412 107.526 316.339 107.686 316.376 107.847C316.413 108.009 316.547 108.111 316.674 108.077Z" fill="#383A48"/>
<path d="M318.052 114.052C318.179 114.017 318.252 113.858 318.214 113.697C318.177 113.535 318.044 113.432 317.917 113.467C317.79 113.502 317.717 113.661 317.754 113.823C317.791 113.984 317.925 114.087 318.052 114.052Z" fill="#383A48"/>
<path d="M319.44 120.069C319.567 120.034 319.64 119.875 319.603 119.713C319.566 119.552 319.433 119.449 319.305 119.484C319.178 119.519 319.105 119.678 319.143 119.839C319.18 120.001 319.313 120.104 319.44 120.069Z" fill="#383A48"/>
<path d="M320.819 126.043C320.946 126.009 321.019 125.849 320.982 125.688C320.945 125.526 320.811 125.424 320.684 125.458C320.557 125.493 320.484 125.652 320.522 125.814C320.559 125.975 320.692 126.078 320.819 126.043Z" fill="#383A48"/>
<path d="M322.198 132.018C322.325 131.983 322.398 131.824 322.361 131.663C322.324 131.501 322.19 131.398 322.063 131.433C321.936 131.468 321.863 131.627 321.9 131.789C321.938 131.95 322.071 132.053 322.198 132.018Z" fill="#383A48"/>
<path d="M323.576 137.994C323.703 137.959 323.776 137.8 323.739 137.638C323.702 137.477 323.568 137.374 323.441 137.409C323.314 137.443 323.241 137.603 323.278 137.764C323.316 137.926 323.449 138.028 323.576 137.994Z" fill="#383A48"/>
<path d="M324.955 143.968C325.082 143.933 325.155 143.774 325.118 143.613C325.08 143.451 324.947 143.348 324.82 143.383C324.693 143.418 324.62 143.577 324.657 143.739C324.695 143.9 324.828 144.003 324.955 143.968Z" fill="#383A48"/>
<path d="M309.809 103.604C309.936 103.569 310.008 103.41 309.971 103.249C309.934 103.087 309.801 102.984 309.674 103.019C309.546 103.054 309.474 103.213 309.511 103.375C309.548 103.536 309.681 103.639 309.809 103.604Z" fill="#383A48"/>
<path d="M311.187 109.579C311.315 109.544 311.387 109.385 311.35 109.223C311.313 109.062 311.18 108.959 311.052 108.994C310.925 109.028 310.852 109.188 310.89 109.349C310.927 109.511 311.06 109.613 311.187 109.579Z" fill="#383A48"/>
<path d="M312.566 115.553C312.693 115.518 312.766 115.359 312.729 115.198C312.692 115.036 312.558 114.933 312.431 114.968C312.304 115.003 312.231 115.162 312.269 115.324C312.306 115.485 312.439 115.588 312.566 115.553Z" fill="#383A48"/>
<path d="M313.955 121.57C314.082 121.535 314.155 121.376 314.118 121.214C314.08 121.053 313.947 120.95 313.82 120.985C313.693 121.02 313.62 121.179 313.657 121.34C313.695 121.502 313.828 121.605 313.955 121.57Z" fill="#383A48"/>
<path d="M315.333 127.545C315.46 127.511 315.533 127.351 315.496 127.19C315.458 127.028 315.325 126.926 315.198 126.96C315.071 126.995 314.998 127.154 315.035 127.316C315.073 127.477 315.206 127.58 315.333 127.545Z" fill="#383A48"/>
<path d="M316.712 133.52C316.839 133.485 316.912 133.326 316.875 133.165C316.837 133.003 316.704 132.9 316.577 132.935C316.45 132.97 316.377 133.129 316.414 133.291C316.451 133.452 316.585 133.555 316.712 133.52Z" fill="#383A48"/>
<path d="M318.091 139.495C318.218 139.46 318.291 139.301 318.253 139.139C318.216 138.978 318.083 138.875 317.956 138.91C317.829 138.944 317.756 139.104 317.793 139.265C317.83 139.427 317.964 139.529 318.091 139.495Z" fill="#383A48"/>
<path d="M319.47 145.469C319.597 145.434 319.67 145.275 319.632 145.114C319.595 144.952 319.462 144.849 319.335 144.884C319.208 144.919 319.135 145.078 319.172 145.24C319.209 145.401 319.343 145.504 319.47 145.469Z" fill="#383A48"/>
<path d="M308.469 123.072C308.596 123.037 308.669 122.878 308.631 122.716C308.594 122.555 308.461 122.452 308.334 122.487C308.207 122.522 308.134 122.681 308.171 122.842C308.208 123.004 308.342 123.107 308.469 123.072Z" fill="#383A48"/>
<path d="M309.848 129.046C309.975 129.012 310.048 128.852 310.01 128.691C309.973 128.529 309.84 128.427 309.713 128.461C309.585 128.496 309.513 128.655 309.55 128.817C309.587 128.978 309.72 129.081 309.848 129.046Z" fill="#383A48"/>
<path d="M311.226 135.022C311.354 134.987 311.426 134.828 311.389 134.666C311.352 134.505 311.219 134.402 311.091 134.437C310.964 134.472 310.892 134.631 310.929 134.792C310.966 134.954 311.099 135.057 311.226 135.022Z" fill="#383A48"/>
<path d="M312.604 140.997C312.732 140.962 312.804 140.803 312.767 140.641C312.73 140.48 312.597 140.377 312.469 140.412C312.342 140.446 312.269 140.606 312.307 140.767C312.344 140.929 312.477 141.031 312.604 140.997Z" fill="#383A48"/>
<path d="M313.983 146.971C314.11 146.936 314.183 146.777 314.146 146.616C314.109 146.454 313.975 146.351 313.848 146.386C313.721 146.421 313.648 146.58 313.686 146.742C313.723 146.903 313.856 147.006 313.983 146.971Z" fill="#383A48"/>
<path d="M302.983 124.574C303.11 124.539 303.183 124.38 303.146 124.218C303.109 124.057 302.975 123.954 302.848 123.989C302.721 124.024 302.648 124.183 302.686 124.344C302.723 124.506 302.856 124.609 302.983 124.574Z" fill="#383A48"/>
<path d="M304.361 130.548C304.488 130.514 304.561 130.354 304.524 130.193C304.487 130.031 304.353 129.929 304.226 129.963C304.099 129.998 304.026 130.157 304.064 130.319C304.101 130.48 304.234 130.583 304.361 130.548Z" fill="#383A48"/>
<path d="M305.74 136.523C305.867 136.488 305.94 136.329 305.903 136.167C305.866 136.006 305.732 135.903 305.605 135.938C305.478 135.973 305.405 136.132 305.442 136.293C305.48 136.455 305.613 136.558 305.74 136.523Z" fill="#383A48"/>
<path d="M307.119 142.498C307.246 142.463 307.319 142.304 307.282 142.142C307.244 141.981 307.111 141.878 306.984 141.913C306.857 141.947 306.784 142.107 306.821 142.268C306.859 142.43 306.992 142.532 307.119 142.498Z" fill="#383A48"/>
<path d="M308.498 148.473C308.625 148.438 308.698 148.279 308.661 148.118C308.623 147.956 308.49 147.853 308.363 147.888C308.236 147.923 308.163 148.082 308.2 148.244C308.238 148.405 308.371 148.508 308.498 148.473Z" fill="#383A48"/>
<path d="M297.497 126.075C297.624 126.04 297.697 125.881 297.66 125.719C297.622 125.558 297.489 125.455 297.362 125.49C297.235 125.525 297.162 125.684 297.199 125.845C297.237 126.007 297.37 126.109 297.497 126.075Z" fill="#383A48"/>
<path d="M298.876 132.049C299.003 132.015 299.076 131.855 299.039 131.694C299.001 131.532 298.868 131.43 298.741 131.464C298.614 131.499 298.541 131.658 298.578 131.82C298.616 131.981 298.749 132.084 298.876 132.049Z" fill="#383A48"/>
<path d="M300.254 138.025C300.381 137.99 300.454 137.831 300.417 137.669C300.379 137.508 300.246 137.405 300.119 137.44C299.992 137.475 299.919 137.634 299.956 137.795C299.993 137.957 300.127 138.06 300.254 138.025Z" fill="#383A48"/>
<path d="M301.633 143.999C301.76 143.965 301.833 143.806 301.795 143.644C301.758 143.482 301.625 143.38 301.498 143.415C301.371 143.449 301.298 143.608 301.335 143.77C301.372 143.932 301.506 144.034 301.633 143.999Z" fill="#383A48"/>
<path d="M303.012 149.974C303.139 149.939 303.212 149.78 303.174 149.619C303.137 149.457 303.004 149.354 302.877 149.389C302.75 149.424 302.677 149.583 302.714 149.745C302.751 149.906 302.885 150.009 303.012 149.974Z" fill="#383A48"/>
<path d="M294.73 139.537C294.857 139.502 294.93 139.343 294.893 139.181C294.856 139.02 294.723 138.917 294.595 138.952C294.468 138.986 294.395 139.146 294.433 139.307C294.47 139.469 294.603 139.571 294.73 139.537Z" fill="#383A48"/>
<path d="M296.108 145.511C296.235 145.476 296.308 145.317 296.271 145.156C296.234 144.994 296.1 144.891 295.973 144.926C295.846 144.961 295.773 145.12 295.811 145.282C295.848 145.443 295.981 145.546 296.108 145.511Z" fill="#383A48"/>
<path d="M297.487 151.487C297.614 151.452 297.687 151.293 297.65 151.131C297.613 150.97 297.479 150.867 297.352 150.902C297.225 150.937 297.152 151.096 297.19 151.257C297.227 151.419 297.36 151.522 297.487 151.487Z" fill="#383A48"/>
<path d="M289.244 141.039C289.371 141.004 289.444 140.845 289.407 140.683C289.369 140.522 289.236 140.419 289.109 140.454C288.982 140.488 288.909 140.648 288.946 140.809C288.984 140.971 289.117 141.073 289.244 141.039Z" fill="#383A48"/>
<path d="M290.623 147.013C290.75 146.978 290.823 146.819 290.786 146.658C290.748 146.496 290.615 146.393 290.488 146.428C290.361 146.463 290.288 146.622 290.325 146.784C290.363 146.945 290.496 147.048 290.623 147.013Z" fill="#383A48"/>
<path d="M292.002 152.988C292.129 152.953 292.202 152.794 292.165 152.632C292.127 152.471 291.994 152.368 291.867 152.403C291.74 152.438 291.667 152.597 291.704 152.758C291.741 152.92 291.875 153.023 292.002 152.988Z" fill="#383A48"/>
<path d="M283.759 142.54C283.886 142.505 283.959 142.346 283.921 142.184C283.884 142.023 283.751 141.92 283.624 141.955C283.497 141.989 283.424 142.149 283.461 142.31C283.498 142.472 283.632 142.574 283.759 142.54Z" fill="#383A48"/>
<path d="M285.137 148.515C285.264 148.48 285.337 148.321 285.299 148.16C285.262 147.998 285.129 147.895 285.002 147.93C284.875 147.965 284.802 148.124 284.839 148.286C284.876 148.447 285.01 148.55 285.137 148.515Z" fill="#383A48"/>
<path d="M286.516 154.49C286.643 154.455 286.716 154.296 286.678 154.134C286.641 153.973 286.508 153.87 286.381 153.905C286.253 153.94 286.181 154.099 286.218 154.26C286.255 154.422 286.388 154.525 286.516 154.49Z" fill="#383A48"/>
<defs>
<linearGradient id="paint0_linear_52_152" x1="144.837" y1="165.406" x2="173.401" y2="158.194" gradientUnits="userSpaceOnUse">
<stop stop-color="#F7F0FC"/>
<stop offset="1" stop-color="#9A59DA"/>
</linearGradient>
<linearGradient id="paint1_linear_52_152" x1="296.463" y1="127.4" x2="335.771" y2="117.475" gradientUnits="userSpaceOnUse">
<stop stop-color="#9753D9"/>
<stop offset="1" stop-color="#FFFEFF"/>
</linearGradient>
</defs>
</svg>
