<svg width="470" height="264" viewBox="0 0 470 264" fill="none" xmlns="http://www.w3.org/2000/svg">
<path d="M453.8 263.4H16C7.2 263.4 0 256.2 0 247.4V16C0 7.2 7.2 0 16 0H453.9C462.7 0 469.9 7.2 469.9 16V247.4C469.8 256.2 462.7 263.4 453.8 263.4Z" fill="#EDEDED"/>
<mask id="mask0_52_764" style="mask-type:luminance" maskUnits="userSpaceOnUse" x="56" y="30" width="183" height="215">
<path d="M238.3 30.0996H56.4004V244.1H238.3V30.0996Z" fill="white"/>
</mask>
<g mask="url(#mask0_52_764)">
<mask id="mask1_52_764" style="mask-type:luminance" maskUnits="userSpaceOnUse" x="56" y="30" width="183" height="215">
<path d="M238.3 30.0996H56.4004V244.4H238.3V30.0996Z" fill="white"/>
</mask>
<g mask="url(#mask1_52_764)">
<path d="M200.701 98.5992C200.201 98.3992 199.601 98.2992 199.001 98.1992C195.401 97.4992 191.701 97.8992 188.201 99.0992V82.2992L179.601 74.9992L169.501 79.3992C165.001 81.2992 160.001 81.7992 155.301 80.6992L124.101 73.6992L104.601 76.1992L103.501 98.5992C100.401 97.6992 97.2006 97.4992 94.1006 98.0992C93.5006 98.1992 93.0006 98.2992 92.4006 98.4992C82.3006 101.299 76.0006 111.299 78.0006 121.599C79.3006 128.699 84.3006 134.499 91.1006 136.899C92.9006 137.499 94.7006 137.899 96.6006 137.999C99.3006 138.199 102.001 137.799 104.501 136.899H104.601C104.001 139.599 103.701 142.399 103.701 145.199C103.701 159.699 110.901 173.199 123.001 181.199V203.699C123.001 216.899 133.801 227.699 147.001 227.699C160.301 227.699 171.001 216.999 171.001 203.699V181.299C183.101 173.299 190.301 159.799 190.301 145.299C190.301 142.699 190.101 140.099 189.601 137.499L189.501 137.299C191.701 137.899 194.001 138.199 196.401 138.099C198.301 137.999 200.101 137.599 201.901 136.999C208.701 134.599 213.701 128.799 215.001 121.699C217.101 111.399 210.801 101.399 200.701 98.5992Z" fill="white"/>
</g>
<mask id="mask2_52_764" style="mask-type:luminance" maskUnits="userSpaceOnUse" x="56" y="30" width="183" height="215">
<path d="M238.3 30.0996H56.4004V244.4H238.3V30.0996Z" fill="white"/>
</mask>
<g mask="url(#mask2_52_764)">
<path d="M147.1 228.4C133.4 228.4 122.3 217.3 122.3 203.7V181.7C110.2 173.5 103 159.9 103 145.3C103 142.9 103.2 140.5 103.7 138.1C101.4 138.8 99.0001 139 96.6001 138.9C94.6001 138.8 92.7001 138.4 90.9001 137.7C83.9001 135.2 78.7001 129.2 77.3001 121.9V121.8C75.3001 111.2 81.9001 100.8 92.3001 97.9C92.8001 97.8 93.4001 97.6 94.0001 97.5C96.9001 97 99.9001 97 102.8 97.7L103.8 76.2C103.8 75.8 104.1 75.5 104.5 75.5L124 73C124.1 73 124.2 73 124.3 73L155.5 80C160.1 81 164.9 80.6 169.3 78.7L179.4 74.3C179.7 74.2 180 74.2 180.2 74.4L188.8 81.7C189 81.8 189.1 82.1 189.1 82.3V98C192.4 97 195.9 96.7 199.3 97.4C199.9 97.5 200.5 97.6 201 97.8C211.4 100.7 217.9 111 216 121.7V121.8C214.6 129.1 209.5 135.1 202.4 137.6C200.6 138.3 198.6 138.6 196.7 138.8C194.7 138.9 192.7 138.8 190.8 138.3C191.2 140.6 191.3 142.9 191.3 145.2C191.3 159.8 184.1 173.4 172 181.6V203.6C171.9 217.3 160.8 228.4 147.1 228.4ZM104.7 136.2C105.1 136.2 105.5 136.5 105.5 137V137.1C102 153.9 109.2 171.2 123.6 180.6C123.8 180.7 123.9 181 123.9 181.2V203.7C123.9 216.5 134.3 226.9 147.2 226.9C160.1 226.9 170.4 216.5 170.4 203.7V181.3C170.4 181 170.5 180.8 170.7 180.7C182.6 172.8 189.7 159.5 189.7 145.3C189.7 142.8 189.5 140.2 189.1 137.7V137.6C189 137.2 189.1 136.8 189.5 136.6C189.7 136.5 189.8 136.5 190 136.6C192.1 137.2 194.4 137.5 196.6 137.3C198.4 137.2 200.2 136.8 201.9 136.2C208.4 133.9 213.2 128.4 214.5 121.6V121.5C216.3 111.7 210.2 101.9 200.6 99.3C200.1 99.2 199.6 99 199 98.9C195.5 98.3 191.9 98.6 188.6 99.8C188.2 99.9 187.8 99.7 187.6 99.4C187.6 99.3 187.6 99.2 187.6 99.1V82.7L179.6 75.9L170 80.1C165.4 82.1 160.2 82.6 155.3 81.5L124.3 74.6L105.6 77L104.6 98.8C104.6 99.2 104.2 99.5 103.8 99.5C103.7 99.5 103.7 99.5 103.6 99.5C100.7 98.6 97.6001 98.5 94.6001 99C94.0001 99.1 93.5001 99.2 93.0001 99.4C83.4001 102.1 77.3001 111.8 79.1001 121.6V121.7C80.4001 128.4 85.2001 134 91.7001 136.3C93.4001 136.9 95.2001 137.3 97.0001 137.4C99.6001 137.6 102.1 137.2 104.6 136.4H104.7H104.8C104.6 136.2 104.6 136.2 104.7 136.2Z" fill="#222433"/>
</g>
<mask id="mask3_52_764" style="mask-type:luminance" maskUnits="userSpaceOnUse" x="56" y="30" width="183" height="215">
<path d="M238.3 30.0996H56.4004V244.4H238.3V30.0996Z" fill="white"/>
</mask>
<g mask="url(#mask3_52_764)">
<path d="M186.701 64.1996C190.001 48.9996 180.201 33.9997 165.001 30.7997C152.101 28.0997 139.101 34.4997 133.501 46.3997C119.501 42.6997 105.201 51.0996 101.501 64.9996C100.901 67.1996 100.601 69.3996 100.601 71.6996C100.601 72.4996 100.601 73.3996 100.701 74.1996C95.9008 81.1996 94.8008 89.9997 97.7008 97.8997C100.501 97.4997 106.301 99.5997 106.301 99.5997L105.501 89.9996C105.501 82.8996 111.301 77.0997 118.501 77.0997C119.301 77.0997 120.001 77.1996 120.801 77.2996L134.401 79.6996C136.901 80.0996 139.401 80.3997 141.901 80.5997C153.101 89.1997 168.901 88.1997 178.901 78.3997C183.301 80.5997 186.001 85.0997 186.001 89.8997L185.901 100.4C188.701 98.7997 191.901 97.8997 195.101 97.8997C201.301 86.1997 197.701 71.6996 186.701 64.1996Z" fill="#9753D9"/>
</g>
<mask id="mask4_52_764" style="mask-type:luminance" maskUnits="userSpaceOnUse" x="56" y="30" width="183" height="215">
<path d="M238.3 30.0996H56.4004V244.4H238.3V30.0996Z" fill="white"/>
</mask>
<g mask="url(#mask4_52_764)">
<path d="M57.2002 243.699C61.3002 220.899 81.3002 203.199 106 203.199H188.7C213.5 203.199 233.4 220.899 237.5 243.699H57.2002Z" fill="white"/>
</g>
<mask id="mask5_52_764" style="mask-type:luminance" maskUnits="userSpaceOnUse" x="56" y="30" width="183" height="215">
<path d="M238.3 30.0996H56.4004V244.4H238.3V30.0996Z" fill="white"/>
</mask>
<g mask="url(#mask5_52_764)">
<path d="M237.5 244.399H57.2004C56.8004 244.399 56.4004 244.099 56.4004 243.599V243.499C60.7004 219.699 81.6004 202.399 106 202.399H188.7C213.1 202.399 234 219.699 238.3 243.499C238.4 243.899 238.1 244.299 237.7 244.399C237.6 244.399 237.6 244.399 237.5 244.399ZM58.1004 242.899H236.6C232.1 220.299 212.1 203.999 188.7 203.999H106C82.6004 203.999 62.6004 220.299 58.1004 242.899Z" fill="#222433"/>
</g>
<mask id="mask6_52_764" style="mask-type:luminance" maskUnits="userSpaceOnUse" x="56" y="30" width="183" height="215">
<path d="M238.3 30.0996H56.4004V244.4H238.3V30.0996Z" fill="white"/>
</mask>
<g mask="url(#mask6_52_764)">
<path d="M147.4 227.599L116.4 242.999V203.199H123.3H171.4H178.3V242.999L147.4 227.699V227.599V227.699V227.599Z" fill="white"/>
</g>
<mask id="mask7_52_764" style="mask-type:luminance" maskUnits="userSpaceOnUse" x="56" y="30" width="183" height="215">
<path d="M238.3 30.0996H56.4004V244.4H238.3V30.0996Z" fill="white"/>
</mask>
<g mask="url(#mask7_52_764)">
<path d="M178.3 243.8C178.2 243.8 178.1 243.8 178 243.7L147.4 228.5L116.8 243.7C116.4 243.9 116 243.7 115.8 243.4C115.7 243.3 115.7 243.2 115.7 243.1V203.3C115.7 202.9 116 202.5 116.5 202.5H178.4C178.8 202.5 179.2 202.8 179.2 203.3V243.1C179.1 243.4 178.8 243.8 178.3 243.8ZM147.9 227.1L177.6 241.8V204H117.2V241.8L147 227C147.2 226.9 147.3 226.9 147.5 226.9C147.7 226.9 147.8 227 147.9 227.1Z" fill="#222433"/>
</g>
<mask id="mask8_52_764" style="mask-type:luminance" maskUnits="userSpaceOnUse" x="56" y="30" width="183" height="215">
<path d="M238.3 30.0996H56.4004V244.4H238.3V30.0996Z" fill="white"/>
</mask>
<g mask="url(#mask8_52_764)">
<path d="M110.9 102.4C106.3 98.6996 100.3 97.1996 94.5 98.1996C93.9 98.2996 93.4 98.3996 92.8 98.5996C82.7 101.4 76.4 111.4 78.4 121.7C79.7 128.8 84.7 134.6 91.5 137C93.3 137.6 95.1 138 97 138.1C99.7 138.3 102.4 137.9 104.9 137H105C104.4 139.7 104.1 142.5 104.1 145.3C104.1 159.8 111.3 173.3 123.4 181.3V203.7C123.4 216.9 134.2 227.7 147.4 227.7C160.7 227.7 171.4 217 171.4 203.7V181.3C183.5 173.3 190.7 159.8 190.7 145.3C190.7 142.7 190.5 140.1 190 137.5L189.9 137.3C192.1 137.9 194.4 138.2 196.8 138.1C198.7 138 200.5 137.6 202.3 137C209.1 134.6 214.1 128.8 215.4 121.7C217.3 111.4 211.1 101.4 201 98.5996C200.5 98.3996 199.9 98.2996 199.3 98.1996C193.5 97.0996 187.5 98.5996 182.9 102.4" fill="white"/>
</g>
<mask id="mask9_52_764" style="mask-type:luminance" maskUnits="userSpaceOnUse" x="56" y="30" width="183" height="215">
<path d="M238.3 30.0996H56.4004V244.4H238.3V30.0996Z" fill="white"/>
</mask>
<g mask="url(#mask9_52_764)">
<path d="M147.401 228.4C133.701 228.4 122.601 217.3 122.601 203.7V181.7C110.501 173.5 103.301 159.9 103.301 145.3C103.301 142.9 103.501 140.5 104.001 138.1C101.701 138.8 99.3009 139 96.9009 138.9C94.9009 138.8 93.0009 138.4 91.2009 137.7C84.2009 135.2 79.0009 129.2 77.6009 121.9V121.8C75.6009 111.2 82.2009 100.8 92.6009 97.8998C93.1009 97.7998 93.7009 97.5998 94.3009 97.4998C100.301 96.3998 106.601 97.9997 111.301 101.8C111.601 102.1 111.701 102.5 111.401 102.9C111.101 103.2 110.701 103.3 110.301 103C105.901 99.3998 100.101 97.8998 94.5009 98.9998C93.9009 99.0998 93.4009 99.1998 92.9009 99.3998C83.3009 102.1 77.2009 111.8 79.0009 121.6V121.7C80.3009 128.4 85.1009 134 91.6009 136.3C93.3009 136.9 95.1009 137.3 96.9009 137.4C99.5009 137.6 102.001 137.2 104.501 136.4H104.601H104.701C105.101 136.3 105.501 136.6 105.601 137C105.601 137.1 105.601 137.2 105.601 137.3C102.101 154.1 109.301 171.4 123.701 180.8C123.901 180.9 124.001 181.2 124.001 181.4V203.7C124.001 216.5 134.401 226.9 147.301 226.9C160.101 226.9 170.601 216.5 170.601 203.7V181.3C170.601 181 170.701 180.8 170.901 180.7C182.801 172.8 189.901 159.5 189.901 145.3C189.901 142.8 189.701 140.2 189.301 137.7V137.6C189.201 137.2 189.301 136.8 189.701 136.6C189.901 136.5 190.001 136.5 190.201 136.6C192.301 137.2 194.601 137.5 196.801 137.3C198.601 137.2 200.401 136.8 202.101 136.2C208.601 133.9 213.401 128.4 214.701 121.6V121.5C216.501 111.7 210.401 101.9 200.801 99.2997C200.301 99.1997 199.801 98.9998 199.201 98.8998C193.601 97.8998 187.801 99.2998 183.401 102.9C183.101 103.2 182.601 103.1 182.301 102.8C182.001 102.5 182.101 102 182.401 101.7C187.201 97.7998 193.401 96.2998 199.401 97.3998C200.001 97.4998 200.601 97.5997 201.101 97.7997C211.501 100.7 218.001 111 216.101 121.7V121.8C214.701 129.1 209.601 135.1 202.501 137.6C200.701 138.3 198.701 138.6 196.801 138.8C194.801 138.9 192.801 138.8 190.901 138.3C191.301 140.6 191.401 142.9 191.401 145.2C191.401 159.8 184.201 173.4 172.101 181.6V203.6C172.101 217.3 161.001 228.4 147.401 228.4Z" fill="#222433"/>
</g>
<mask id="mask10_52_764" style="mask-type:luminance" maskUnits="userSpaceOnUse" x="56" y="30" width="183" height="215">
<path d="M238.3 30.0996H56.4004V244.4H238.3V30.0996Z" fill="white"/>
</mask>
<g mask="url(#mask10_52_764)">
<path d="M192.5 126.299C192.1 126.299 191.7 125.999 191.7 125.499C191.7 125.399 191.7 125.199 191.8 125.099L202.4 106.799C202.6 106.399 203.1 106.299 203.4 106.499C203.8 106.699 203.9 107.199 203.7 107.499L193.1 125.799C193.1 126.099 192.8 126.299 192.5 126.299Z" fill="#222433"/>
</g>
<mask id="mask11_52_764" style="mask-type:luminance" maskUnits="userSpaceOnUse" x="56" y="30" width="183" height="215">
<path d="M238.3 30.0996H56.4004V244.4H238.3V30.0996Z" fill="white"/>
</mask>
<g mask="url(#mask11_52_764)">
<path d="M101.3 126.3C101 126.3 100.8 126.2 100.6 125.9L90.0004 107.6C89.8004 107.2 89.9004 106.8 90.3004 106.6C90.7004 106.4 91.1004 106.5 91.3004 106.9L101.9 125.2C102.1 125.6 102 126 101.6 126.2C101.5 126.2 101.4 126.3 101.3 126.3Z" fill="#222433"/>
</g>
<mask id="mask12_52_764" style="mask-type:luminance" maskUnits="userSpaceOnUse" x="56" y="30" width="183" height="215">
<path d="M238.3 30.0996H56.4004V244.4H238.3V30.0996Z" fill="white"/>
</mask>
<g mask="url(#mask12_52_764)">
<path d="M152 191.1H142.4C126.1 191.1 112.9 177.9 112.9 161.6C112.9 145.3 126.1 132.1 142.4 132.1H152C168.3 132.1 181.5 145.3 181.5 161.6C181.5 177.9 168.3 191.1 152 191.1Z" fill="#9753D9"/>
</g>
<mask id="mask13_52_764" style="mask-type:luminance" maskUnits="userSpaceOnUse" x="56" y="30" width="183" height="215">
<path d="M238.3 30.0996H56.4004V244.4H238.3V30.0996Z" fill="white"/>
</mask>
<g mask="url(#mask13_52_764)">
<path d="M143.601 133.699C143.201 133.699 142.801 133.399 142.801 132.899C142.801 132.599 143.001 132.299 143.301 132.199L154.001 128.499L147.101 107.699C147.001 107.299 147.201 106.899 147.601 106.699C148.001 106.599 148.401 106.799 148.601 107.199L155.701 128.699C155.801 129.099 155.601 129.499 155.201 129.699L143.801 133.699C143.801 133.699 143.701 133.699 143.601 133.699Z" fill="#222433"/>
</g>
<mask id="mask14_52_764" style="mask-type:luminance" maskUnits="userSpaceOnUse" x="56" y="30" width="183" height="215">
<path d="M238.3 30.0996H56.4004V244.4H238.3V30.0996Z" fill="white"/>
</mask>
<g mask="url(#mask14_52_764)">
<path d="M147.101 162.199C146.501 162.199 146.001 162.199 145.401 162.099C141.501 161.599 137.601 159.599 134.901 156.399C132.001 152.899 130.401 148.499 130.601 143.899C130.601 143.499 131.001 143.199 131.401 143.199H163.301C163.701 143.199 164.101 143.499 164.101 143.999V144.099C161.401 157.499 153.801 162.199 147.101 162.199ZM132.201 144.699C132.201 153.699 138.901 159.799 145.601 160.599C151.901 161.299 159.501 157.499 162.401 144.699H132.201Z" fill="#222433"/>
</g>
<mask id="mask15_52_764" style="mask-type:luminance" maskUnits="userSpaceOnUse" x="56" y="30" width="183" height="215">
<path d="M238.3 30.0996H56.4004V244.4H238.3V30.0996Z" fill="white"/>
</mask>
<g mask="url(#mask15_52_764)">
<path d="M126.201 124.1C118.301 124.7 111.201 119.3 109.701 111.5C109.601 111 109.501 110.5 109.501 110C108.801 101.5 115.201 94.1 123.701 93.4C132.201 92.7 139.701 99.1 140.401 107.6C141.101 116 134.801 123.4 126.201 124.1Z" fill="white"/>
</g>
<mask id="mask16_52_764" style="mask-type:luminance" maskUnits="userSpaceOnUse" x="56" y="30" width="183" height="215">
<path d="M238.3 30.0996H56.4004V244.4H238.3V30.0996Z" fill="white"/>
</mask>
<g mask="url(#mask16_52_764)">
<path d="M125.001 124.9C117.201 124.9 110.401 119.3 109.001 111.6C108.901 111.1 108.801 110.5 108.801 110C108.101 101.1 114.701 93.2997 123.701 92.5997C132.601 91.8997 140.501 98.4997 141.201 107.5C141.901 116.4 135.301 124.2 126.301 124.9C126.201 124.9 126.201 124.9 126.101 124.9C125.701 124.9 125.401 124.9 125.001 124.9ZM125.001 94.0997C124.601 94.0997 124.201 94.0997 123.801 94.0997C115.701 94.7997 109.701 101.8 110.301 109.9C110.301 110.4 110.401 110.8 110.501 111.3C111.801 118.7 118.601 123.9 126.201 123.3C126.301 123.3 126.301 123.3 126.401 123.3C134.501 122.6 140.501 115.4 139.701 107.3C139.001 99.7997 132.601 94.0997 125.001 94.0997Z" fill="#222433"/>
</g>
<mask id="mask17_52_764" style="mask-type:luminance" maskUnits="userSpaceOnUse" x="56" y="30" width="183" height="215">
<path d="M238.3 30.0996H56.4004V244.4H238.3V30.0996Z" fill="white"/>
</mask>
<g mask="url(#mask17_52_764)">
<path d="M109.6 108.099C109.3 108.099 109.1 107.999 109 107.699L103.8 99.2994C103.6 98.8994 103.7 98.4994 104.1 98.2994C104.5 98.0994 104.9 98.1994 105.1 98.4994L110.3 106.899C110.5 107.299 110.4 107.699 110 107.899C109.8 108.099 109.7 108.099 109.6 108.099Z" fill="#222433"/>
</g>
<mask id="mask18_52_764" style="mask-type:luminance" maskUnits="userSpaceOnUse" x="56" y="30" width="183" height="215">
<path d="M238.3 30.0996H56.4004V244.4H238.3V30.0996Z" fill="white"/>
</mask>
<g mask="url(#mask18_52_764)">
<path d="M184.2 110C183.5 118.5 176.1 124.8 167.5 124.2C159 123.5 152.6 116.1 153.3 107.6C154 99.1 161.4 92.7 170 93.4C178.5 94 184.9 101.4 184.2 110C184.2 109.9 184.2 109.9 184.2 110Z" fill="white"/>
</g>
<mask id="mask19_52_764" style="mask-type:luminance" maskUnits="userSpaceOnUse" x="56" y="30" width="183" height="215">
<path d="M238.3 30.0996H56.4004V244.4H238.3V30.0996Z" fill="white"/>
</mask>
<g mask="url(#mask19_52_764)">
<path d="M168.8 124.9C168.4 124.9 167.9 124.899 167.5 124.799C158.6 124.099 151.9 116.299 152.6 107.299C153.3 98.2995 161.2 91.6995 170.1 92.3995C179 93.0995 185.7 100.899 185 109.799V109.9C184.3 118.4 177.3 124.9 168.8 124.9ZM168.8 93.9995C160.7 93.9995 154.1 100.6 154.1 108.7C154.1 116.3 160 122.699 167.6 123.299C175.6 123.899 182.7 118 183.4 110V109.9C184.1 101.8 178 94.6995 170 94.0995C169.6 93.9995 169.2 93.9995 168.8 93.9995Z" fill="#222433"/>
</g>
<mask id="mask20_52_764" style="mask-type:luminance" maskUnits="userSpaceOnUse" x="56" y="30" width="183" height="215">
<path d="M238.3 30.0996H56.4004V244.4H238.3V30.0996Z" fill="white"/>
</mask>
<g mask="url(#mask20_52_764)">
<path d="M159.601 93.5C159.201 93.5 158.801 93.2 158.801 92.7C158.801 92.5 158.901 92.2 159.101 92.1C164.801 87.8 172.601 87.8 178.401 92.1C178.701 92.3 178.801 92.8 178.601 93.2C178.401 93.5 177.901 93.6 177.501 93.4C172.301 89.6 165.201 89.6 160.001 93.4C159.901 93.5 159.801 93.5 159.601 93.5Z" fill="#222433"/>
</g>
<mask id="mask21_52_764" style="mask-type:luminance" maskUnits="userSpaceOnUse" x="56" y="30" width="183" height="215">
<path d="M238.3 30.0996H56.4004V244.4H238.3V30.0996Z" fill="white"/>
</mask>
<g mask="url(#mask21_52_764)">
<path d="M134.2 93.4992C134 93.4992 133.9 93.3992 133.7 93.3992C128.5 89.4992 121.4 89.4992 116.2 93.3992C115.9 93.5992 115.4 93.5992 115.1 93.1992C114.9 92.8992 114.9 92.3992 115.3 92.0992C121 87.8992 128.9 87.8992 134.6 92.0992C134.9 92.2992 135 92.7992 134.8 93.1992C134.6 93.3992 134.4 93.4992 134.2 93.4992Z" fill="#222433"/>
</g>
<mask id="mask22_52_764" style="mask-type:luminance" maskUnits="userSpaceOnUse" x="56" y="30" width="183" height="215">
<path d="M238.3 30.0996H56.4004V244.4H238.3V30.0996Z" fill="white"/>
</mask>
<g mask="url(#mask22_52_764)">
<path d="M184.2 108.1C183.8 108.1 183.4 107.8 183.4 107.3C183.4 107.2 183.4 107 183.5 106.9L188.7 98.4C188.9 98 189.4 97.9 189.7 98.1C190.1 98.3 190.2 98.8 190 99.1L184.8 107.6C184.7 108 184.5 108.1 184.2 108.1Z" fill="#222433"/>
</g>
<mask id="mask23_52_764" style="mask-type:luminance" maskUnits="userSpaceOnUse" x="56" y="30" width="183" height="215">
<path d="M238.3 30.0996H56.4004V244.4H238.3V30.0996Z" fill="white"/>
</mask>
<g mask="url(#mask23_52_764)">
<path d="M153.401 108.2H140.401C140.001 108.2 139.601 107.9 139.601 107.4C139.601 106.9 139.901 106.6 140.401 106.6H153.401C153.801 106.6 154.201 106.9 154.201 107.4C154.201 107.9 153.801 108.2 153.401 108.2Z" fill="#222433"/>
</g>
<mask id="mask24_52_764" style="mask-type:luminance" maskUnits="userSpaceOnUse" x="56" y="30" width="183" height="215">
<path d="M238.3 30.0996H56.4004V244.4H238.3V30.0996Z" fill="white"/>
</mask>
<g mask="url(#mask24_52_764)">
<path d="M125 113.3C127.541 113.3 129.6 111.24 129.6 108.7C129.6 106.159 127.541 104.1 125 104.1C122.46 104.1 120.4 106.159 120.4 108.7C120.4 111.24 122.46 113.3 125 113.3Z" fill="#222433"/>
</g>
<mask id="mask25_52_764" style="mask-type:luminance" maskUnits="userSpaceOnUse" x="56" y="30" width="183" height="215">
<path d="M238.3 30.0996H56.4004V244.4H238.3V30.0996Z" fill="white"/>
</mask>
<g mask="url(#mask25_52_764)">
<path d="M168.701 113.3C171.241 113.3 173.301 111.24 173.301 108.7C173.301 106.159 171.241 104.1 168.701 104.1C166.16 104.1 164.101 106.159 164.101 108.7C164.101 111.24 166.16 113.3 168.701 113.3Z" fill="#222433"/>
</g>
</g>
<mask id="mask26_52_764" style="mask-type:luminance" maskUnits="userSpaceOnUse" x="269" y="20" width="123" height="225">
<path d="M391.901 20.2998H269.601V244.4H391.901V20.2998Z" fill="white"/>
</mask>
<g mask="url(#mask26_52_764)">
<path d="M377.201 20.2998H369.401C369.001 20.2998 368.601 20.5998 368.601 21.0998H370.501C378.201 21.0998 384.401 27.2998 384.401 34.9998V229.7C384.401 237.4 378.201 243.6 370.501 243.6H368.601C368.601 244 368.901 244.4 369.401 244.4H377.201C385.301 244.4 391.901 237.8 391.901 229.7V34.9998C391.901 26.8998 385.301 20.2998 377.201 20.2998Z" fill="#222433"/>
</g>
<mask id="mask27_52_764" style="mask-type:luminance" maskUnits="userSpaceOnUse" x="269" y="20" width="123" height="225">
<path d="M391.901 20.2998H269.601V244.4H391.901V20.2998Z" fill="white"/>
</mask>
<g mask="url(#mask27_52_764)">
<path d="M384.4 34.9996V229.7C384.4 237.4 378.2 243.6 370.5 243.6H284.3C276.6 243.6 270.4 237.4 270.4 229.7V34.9996C270.4 27.2996 276.6 21.0996 284.3 21.0996H370.5C378.2 21.0996 384.4 27.2996 384.4 34.9996Z" fill="white"/>
</g>
<mask id="mask28_52_764" style="mask-type:luminance" maskUnits="userSpaceOnUse" x="269" y="20" width="123" height="225">
<path d="M391.901 20.2998H269.601V244.4H391.901V20.2998Z" fill="white"/>
</mask>
<g mask="url(#mask28_52_764)">
<path d="M284.301 244.4C276.201 244.4 269.601 237.8 269.601 229.7V34.9998C269.601 26.8998 276.201 20.2998 284.301 20.2998H370.501C378.601 20.2998 385.201 26.8998 385.201 34.9998V229.7C385.201 237.8 378.601 244.4 370.501 244.4H284.301ZM284.301 21.7998C277.001 21.7998 271.101 27.6998 271.101 34.9998V229.8C271.101 237.1 277.001 242.9 284.301 242.9H370.501C377.801 242.9 383.701 237 383.701 229.7V34.9998C383.701 27.6998 377.801 21.7998 370.501 21.7998H284.301Z" fill="#222433"/>
</g>
<mask id="mask29_52_764" style="mask-type:luminance" maskUnits="userSpaceOnUse" x="269" y="20" width="123" height="225">
<path d="M391.901 20.2998H269.601V244.4H391.901V20.2998Z" fill="white"/>
</mask>
<g mask="url(#mask29_52_764)">
<path d="M349.101 30.8002H305.801C302.901 30.8002 300.501 28.4002 300.501 25.5002C300.501 23.4002 298.801 21.8002 296.801 21.8002C296.401 21.8002 296.001 21.5002 296.001 21.0002C296.001 20.6002 296.301 20.2002 296.801 20.2002C299.701 20.2002 302.101 22.6002 302.101 25.5002C302.101 27.6002 303.801 29.2002 305.901 29.2002H349.201C351.301 29.2002 352.901 27.5002 352.901 25.5002C352.901 22.6002 355.301 20.2002 358.201 20.2002C358.601 20.2002 359.001 20.5002 359.001 21.0002C359.001 21.4002 358.701 21.8002 358.201 21.8002C356.101 21.8002 354.501 23.5002 354.501 25.5002C354.401 28.5002 352.001 30.8002 349.101 30.8002Z" fill="#222433"/>
</g>
<mask id="mask30_52_764" style="mask-type:luminance" maskUnits="userSpaceOnUse" x="18" y="150" width="27" height="94">
<path d="M18.9004 150.899H44.8004L41.6004 243.699H18.9004V150.899Z" fill="white"/>
</mask>
<g mask="url(#mask30_52_764)">
<mask id="mask31_52_764" style="mask-type:luminance" maskUnits="userSpaceOnUse" x="18" y="150" width="29" height="95">
<path d="M46.6004 150.899H18.9004V244.099H46.6004V150.899Z" fill="white"/>
</mask>
<g mask="url(#mask31_52_764)">
<path d="M35.1008 244.099C34.7008 244.099 34.4008 243.799 34.3008 243.399L28.8008 154.999C28.8008 154.599 29.1007 154.199 29.5007 154.199C29.9007 154.199 30.3008 154.499 30.3008 154.899L35.8008 243.299C35.8008 243.699 35.5008 243.999 35.1008 244.099Z" fill="#222433"/>
</g>
<mask id="mask32_52_764" style="mask-type:luminance" maskUnits="userSpaceOnUse" x="18" y="150" width="29" height="95">
<path d="M46.6004 150.899H18.9004V244.099H46.6004V150.899Z" fill="white"/>
</mask>
<g mask="url(#mask32_52_764)">
<path d="M29.6008 162.299C32.804 162.299 35.4008 159.747 35.4008 156.599C35.4008 153.451 32.804 150.899 29.6008 150.899C26.3975 150.899 23.8008 153.451 23.8008 156.599C23.8008 159.747 26.3975 162.299 29.6008 162.299Z" fill="#3A25A1"/>
</g>
<mask id="mask33_52_764" style="mask-type:luminance" maskUnits="userSpaceOnUse" x="18" y="150" width="29" height="95">
<path d="M46.6004 150.899H18.9004V244.099H46.6004V150.899Z" fill="white"/>
</mask>
<g mask="url(#mask33_52_764)">
<path d="M36.1008 174.299C39.304 174.299 41.9008 171.747 41.9008 168.599C41.9008 165.451 39.304 162.899 36.1008 162.899C32.8975 162.899 30.3008 165.451 30.3008 168.599C30.3008 171.747 32.8975 174.299 36.1008 174.299Z" fill="#3A25A1"/>
</g>
<mask id="mask34_52_764" style="mask-type:luminance" maskUnits="userSpaceOnUse" x="18" y="150" width="29" height="95">
<path d="M46.6004 150.899H18.9004V244.099H46.6004V150.899Z" fill="white"/>
</mask>
<g mask="url(#mask34_52_764)">
<path d="M24.7004 175C27.9036 175 30.5004 172.448 30.5004 169.3C30.5004 166.152 27.9036 163.6 24.7004 163.6C21.4971 163.6 18.9004 166.152 18.9004 169.3C18.9004 172.448 21.4971 175 24.7004 175Z" fill="#3A25A1"/>
</g>
<mask id="mask35_52_764" style="mask-type:luminance" maskUnits="userSpaceOnUse" x="18" y="150" width="29" height="95">
<path d="M46.6004 150.899H18.9004V244.099H46.6004V150.899Z" fill="white"/>
</mask>
<g mask="url(#mask35_52_764)">
<path d="M36.9006 186.899C40.1038 186.899 42.7006 184.347 42.7006 181.199C42.7006 178.051 40.1038 175.499 36.9006 175.499C33.6973 175.499 31.1006 178.051 31.1006 181.199C31.1006 184.347 33.6973 186.899 36.9006 186.899Z" fill="#3A25A1"/>
</g>
<mask id="mask36_52_764" style="mask-type:luminance" maskUnits="userSpaceOnUse" x="18" y="150" width="29" height="95">
<path d="M46.6004 150.899H18.9004V244.099H46.6004V150.899Z" fill="white"/>
</mask>
<g mask="url(#mask36_52_764)">
<path d="M25.5002 187.599C28.7034 187.599 31.3002 185.047 31.3002 181.899C31.3002 178.751 28.7034 176.199 25.5002 176.199C22.2969 176.199 19.7002 178.751 19.7002 181.899C19.7002 185.047 22.2969 187.599 25.5002 187.599Z" fill="#3A25A1"/>
</g>
</g>
<mask id="mask37_52_764" style="mask-type:luminance" maskUnits="userSpaceOnUse" x="293" y="47" width="71" height="77">
<path d="M363.6 47.5H293V123.3H363.6V47.5Z" fill="white"/>
</mask>
<g mask="url(#mask37_52_764)">
<mask id="mask38_52_764" style="mask-type:luminance" maskUnits="userSpaceOnUse" x="293" y="47" width="72" height="78">
<path d="M364.3 47.5H293V124.1H364.3V47.5Z" fill="white"/>
</mask>
<g mask="url(#mask38_52_764)">
<path d="M363.6 59.4998C363.2 59.4998 362.8 59.1998 362.8 58.6998V48.8998H353C352.6 48.8998 352.2 48.5998 352.2 48.0998C352.2 47.5998 352.5 47.2998 353 47.2998H363.6C364 47.2998 364.4 47.5998 364.4 48.0998V58.5998C364.3 59.1998 364 59.4998 363.6 59.4998Z" fill="#222433"/>
</g>
<mask id="mask39_52_764" style="mask-type:luminance" maskUnits="userSpaceOnUse" x="293" y="47" width="72" height="78">
<path d="M364.3 47.5H293V124.1H364.3V47.5Z" fill="white"/>
</mask>
<g mask="url(#mask39_52_764)">
<path d="M293.8 59.5004C293.4 59.5004 293 59.2004 293 58.7004V48.2004C293 47.8004 293.3 47.4004 293.8 47.4004H304.4C304.8 47.4004 305.2 47.7004 305.2 48.2004C305.2 48.7004 304.9 49.0004 304.4 49.0004H294.6V58.8004C294.5 59.2004 294.2 59.5004 293.8 59.5004Z" fill="#222433"/>
</g>
<mask id="mask40_52_764" style="mask-type:luminance" maskUnits="userSpaceOnUse" x="293" y="47" width="72" height="78">
<path d="M364.3 47.5H293V124.1H364.3V47.5Z" fill="white"/>
</mask>
<g mask="url(#mask40_52_764)">
<path d="M363.6 124.1H353C352.6 124.1 352.2 123.8 352.2 123.3C352.2 122.9 352.5 122.5 353 122.5H362.8V112.7C362.8 112.3 363.1 111.9 363.6 111.9C364.1 111.9 364.4 112.2 364.4 112.7V123.2C364.3 123.7 364 124.1 363.6 124.1Z" fill="#222433"/>
</g>
<mask id="mask41_52_764" style="mask-type:luminance" maskUnits="userSpaceOnUse" x="293" y="47" width="72" height="78">
<path d="M364.3 47.5H293V124.1H364.3V47.5Z" fill="white"/>
</mask>
<g mask="url(#mask41_52_764)">
<path d="M304.3 124.1H293.7C293.3 124.1 292.9 123.8 292.9 123.3V112.8C292.9 112.4 293.2 112 293.7 112C294.1 112 294.5 112.3 294.5 112.8V122.6H304.3C304.7 122.6 305.1 122.9 305.1 123.4C305.1 123.7 304.7 124.1 304.3 124.1Z" fill="#222433"/>
</g>
</g>
<mask id="mask42_52_764" style="mask-type:luminance" maskUnits="userSpaceOnUse" x="60" y="23" width="174" height="182">
<path d="M233.8 23.2998H60.2002V204.4H233.8V23.2998Z" fill="white"/>
</mask>
<g mask="url(#mask42_52_764)">
<mask id="mask43_52_764" style="mask-type:luminance" maskUnits="userSpaceOnUse" x="60" y="23" width="175" height="182">
<path d="M234.2 23.2998H60.2002V204.8H234.2V23.2998Z" fill="white"/>
</mask>
<g mask="url(#mask43_52_764)">
<path d="M233.4 50.1C233 50.1 232.7 49.8 232.7 49.4V24.9H208.1C207.7 24.9 207.4 24.6 207.4 24.2C207.4 23.8 207.7 23.5 208.1 23.5H233.4C233.8 23.5 234.1 23.8 234.1 24.2V49.5C234.1 49.8 233.8 50.1 233.4 50.1Z" fill="#222433"/>
</g>
<mask id="mask44_52_764" style="mask-type:luminance" maskUnits="userSpaceOnUse" x="60" y="23" width="175" height="182">
<path d="M234.2 23.2998H60.2002V204.8H234.2V23.2998Z" fill="white"/>
</mask>
<g mask="url(#mask44_52_764)">
<path d="M60.9002 50.0994C60.5002 50.0994 60.2002 49.7994 60.2002 49.3994V24.0994C60.2002 23.6994 60.5002 23.3994 60.9002 23.3994H86.2002C86.6002 23.3994 86.9002 23.6994 86.9002 24.0994C86.9002 24.4994 86.6002 24.7994 86.2002 24.7994H61.6002V49.2994C61.7002 49.7994 61.4002 50.0994 60.9002 50.0994Z" fill="#222433"/>
</g>
<mask id="mask45_52_764" style="mask-type:luminance" maskUnits="userSpaceOnUse" x="60" y="23" width="175" height="182">
<path d="M234.2 23.2998H60.2002V204.8H234.2V23.2998Z" fill="white"/>
</mask>
<g mask="url(#mask45_52_764)">
<path d="M233.4 204.8H208.1C207.7 204.8 207.4 204.5 207.4 204.1C207.4 203.7 207.7 203.4 208.1 203.4H232.7V178.9C232.7 178.5 233 178.2 233.4 178.2C233.8 178.2 234.1 178.5 234.1 178.9V204.2C234.1 204.5 233.8 204.8 233.4 204.8Z" fill="#222433"/>
</g>
<mask id="mask46_52_764" style="mask-type:luminance" maskUnits="userSpaceOnUse" x="60" y="23" width="175" height="182">
<path d="M234.2 23.2998H60.2002V204.8H234.2V23.2998Z" fill="white"/>
</mask>
<g mask="url(#mask46_52_764)">
<path d="M86.2998 204.8H60.9998C60.5998 204.8 60.2998 204.5 60.2998 204.1V178.8C60.2998 178.4 60.5998 178.1 60.9998 178.1C61.3998 178.1 61.6998 178.4 61.6998 178.8V203.3H86.2998C86.6998 203.3 86.9998 203.6 86.9998 204C86.9998 204.4 86.6998 204.8 86.2998 204.8Z" fill="#222433"/>
</g>
</g>
<mask id="mask47_52_764" style="mask-type:luminance" maskUnits="userSpaceOnUse" x="270" y="53" width="114" height="191">
<path d="M384 53.5H270V243.3H384V53.5Z" fill="white"/>
</mask>
<g mask="url(#mask47_52_764)">
<path d="M371 242.4L360.4 200.9H359.9C359.9 200.9 300.1 200.5 300.1 200.9C299.7 200.8 299.3 201 299.2 201.4L285.7 242.3C285.6 242.7 285.8 243.1 286.2 243.2C286.3 243.2 369.5 243 369.6 243C370 243 371.1 242.8 371 242.4Z" fill="#9753D9"/>
</g>
<mask id="mask48_52_764" style="mask-type:luminance" maskUnits="userSpaceOnUse" x="270" y="53" width="114" height="191">
<path d="M384 53.5H270V243.3H384V53.5Z" fill="white"/>
</mask>
<g mask="url(#mask48_52_764)">
<path d="M383.2 221.4L359.9 201.6L357.6 193.4L379.6 175.4L383.2 178.8V221.4Z" fill="white"/>
</g>
<mask id="mask49_52_764" style="mask-type:luminance" maskUnits="userSpaceOnUse" x="270" y="53" width="114" height="191">
<path d="M384 53.5H270V243.3H384V53.5Z" fill="white"/>
</mask>
<g mask="url(#mask49_52_764)">
<path d="M383.2 222.2C383 222.2 382.8 222.1 382.7 222L359.4 202.2C359.3 202.1 359.2 202 359.2 201.8L357 193.6C356.9 193.3 357 193 357.3 192.8L379.3 174.8C379.6 174.6 380 174.6 380.3 174.8L383.9 178.2C384 178.3 384.1 178.5 384.1 178.7V221.3C383.9 221.9 383.6 222.2 383.2 222.2ZM360.5 201.2L382.4 219.8V179.1L379.6 176.4L358.5 193.7L360.5 201.2Z" fill="#222433"/>
</g>
<mask id="mask50_52_764" style="mask-type:luminance" maskUnits="userSpaceOnUse" x="270" y="53" width="114" height="191">
<path d="M384 53.5H270V243.3H384V53.5Z" fill="white"/>
</mask>
<g mask="url(#mask50_52_764)">
<path d="M270.7 187.2C270.3 187.2 269.9 186.9 269.9 186.4C269.9 184 270.9 181.7 271.9 179.5L273.8 175.8C274 175.4 274.4 175.3 274.8 175.5C275.2 175.7 275.3 176.1 275.1 176.5L273.2 180.2C272.3 182.2 271.3 184.4 271.3 186.5C271.5 186.8 271.2 187.2 270.7 187.2Z" fill="#222433"/>
</g>
<mask id="mask51_52_764" style="mask-type:luminance" maskUnits="userSpaceOnUse" x="270" y="53" width="114" height="191">
<path d="M384 53.5H270V243.3H384V53.5Z" fill="white"/>
</mask>
<g mask="url(#mask51_52_764)">
<path d="M357.6 193.3L379.7 175.3C380.3 174.8 380.5 174.1 380.2 173.4L378.4 168.9C378.1 168.1 377.1 167.7 376.3 168C376.1 168.1 376 168.2 375.9 168.3L364.3 140.4C361.4 132.4 353.8 127.1 345.3 127.1H311.7C303.8 127.1 296.6 131.7 293.3 138.9L278.4 168.8C277.7 168.3 276.8 168.5 276.3 169.2C276.3 169.3 276.2 169.3 276.2 169.4L273.9 173.9C273.5 174.6 273.8 175.4 274.4 175.9L302.3 193.3H357.6Z" fill="white"/>
</g>
<mask id="mask52_52_764" style="mask-type:luminance" maskUnits="userSpaceOnUse" x="270" y="53" width="114" height="191">
<path d="M384 53.5H270V243.3H384V53.5Z" fill="white"/>
</mask>
<g mask="url(#mask52_52_764)">
<path d="M357.6 194.1L302.2 194C302.1 194 301.9 194 301.8 193.9L273.9 176.5C272.9 175.9 272.6 174.6 273.1 173.6L275.4 169.1C275.9 168.2 276.9 167.7 277.9 167.9L292.5 138.7C295.9 131.2 303.3 126.4 311.6 126.4H345.2C354 126.4 361.8 131.9 364.9 140.1L376.2 167.2C377.4 166.9 378.6 167.5 379.1 168.6L380.9 173.1C381.3 174.1 381 175.2 380.2 175.9L358.1 193.9C357.9 194 357.7 194.1 357.6 194.1ZM302.4 192.5L357.3 192.6L379.2 174.8C379.5 174.6 379.6 174.1 379.5 173.8L377.7 169.3C377.5 168.8 377 168.6 376.5 168.8C376.4 168.8 376.3 168.9 376.3 168.9C376 169.2 375.5 169.1 375.2 168.8C375.2 168.7 375.1 168.7 375.1 168.6L363.4 140.7C360.6 133 353.3 127.9 345.1 127.9H311.5C303.9 127.9 296.9 132.4 293.8 139.3L278.9 169.2C278.7 169.6 278.3 169.7 277.9 169.5C277.9 169.5 277.8 169.5 277.8 169.4C277.8 169.4 277.7 169.4 277.7 169.3C277.3 169.1 276.9 169.3 276.7 169.6L274.4 174.1C274.2 174.4 274.3 174.9 274.7 175.1L302.4 192.5Z" fill="#222433"/>
</g>
<mask id="mask53_52_764" style="mask-type:luminance" maskUnits="userSpaceOnUse" x="270" y="53" width="114" height="191">
<path d="M384 53.5H270V243.3H384V53.5Z" fill="white"/>
</mask>
<g mask="url(#mask53_52_764)">
<path d="M331.4 243.3C331 243.3 330.7 243 330.7 242.7L327.599 227.1C327.499 226.7 327.8 226.3 328.2 226.2C328.6 226.1 328.999 226.4 329.099 226.8L332.2 242.4C332.3 242.8 331.999 243.2 331.599 243.3C331.499 243.3 331.5 243.3 331.4 243.3Z" fill="#222433"/>
</g>
<mask id="mask54_52_764" style="mask-type:luminance" maskUnits="userSpaceOnUse" x="270" y="53" width="114" height="191">
<path d="M384 53.5H270V243.3H384V53.5Z" fill="white"/>
</mask>
<g mask="url(#mask54_52_764)">
<path d="M359.9 201.6H299.9L302.2 193.3H357.7L359.9 201.6Z" fill="white"/>
</g>
<mask id="mask55_52_764" style="mask-type:luminance" maskUnits="userSpaceOnUse" x="270" y="53" width="114" height="191">
<path d="M384 53.5H270V243.3H384V53.5Z" fill="white"/>
</mask>
<g mask="url(#mask55_52_764)">
<path d="M359.9 202.4H300C299.6 202.4 299.2 202.1 299.3 201.7C299.3 201.6 299.3 201.6 299.3 201.5L301.6 193.2C301.7 192.9 302 192.6 302.3 192.6H357.8C358.1 192.6 358.4 192.8 358.5 193.2L360.6 201.5C360.7 201.9 360.5 202.3 360.1 202.4C360 202.4 359.9 202.4 359.9 202.4ZM300.9 200.9H358.9L357.2 194.1H302.8L300.9 200.9Z" fill="#222433"/>
</g>
<mask id="mask56_52_764" style="mask-type:luminance" maskUnits="userSpaceOnUse" x="270" y="53" width="114" height="191">
<path d="M384 53.5H270V243.3H384V53.5Z" fill="white"/>
</mask>
<g mask="url(#mask56_52_764)">
<path d="M347.2 82.7996C346.3 82.7996 345.4 82.9996 344.5 83.2996L344.1 71.5996H311.4L310.8 82.9996C306.8 82.0996 302.9 84.5996 302 88.5996C301.1 92.5996 303.6 96.4996 307.6 97.3996C308.6 97.5996 309.7 97.5996 310.7 97.3996V97.4996C310.4 98.6996 310.3 99.8996 310.3 101.1C310.3 107.2 313.5 112.9 318.6 116.1V125.9C318.6 131.3 323 135.6 328.4 135.6C333.8 135.6 338.2 131.2 338.2 125.8V115.4C344 111.3 346.7 104.2 345.2 97.1996C349.1 98.2996 353.2 96.0996 354.4 92.1996C355.6 88.2996 353.3 84.1996 349.4 83.0996C348.5 82.8996 347.9 82.7996 347.2 82.7996Z" fill="white"/>
</g>
<mask id="mask57_52_764" style="mask-type:luminance" maskUnits="userSpaceOnUse" x="270" y="53" width="114" height="191">
<path d="M384 53.5H270V243.3H384V53.5Z" fill="white"/>
</mask>
<g mask="url(#mask57_52_764)">
<path d="M344.8 68.0002C346.1 61.4002 341.7 55.0002 335 53.7002C329.6 52.7002 324.2 55.3002 321.8 60.2002C315.7 58.8002 309.6 62.6002 308.1 68.7002C307.9 69.5002 307.8 70.4002 307.8 71.3002C307.8 71.6002 307.8 71.9002 307.8 72.2002C305.7 75.4002 305.3 79.4002 306.8 82.9002C307.5 82.5002 311.7 82.8002 311.7 82.8002C311.7 82.8002 311.7 78.2002 311.8 77.9002C312.3 75.3002 314.8 73.5002 317.4 74.0002C317.4 74.0002 322.8 75.0002 325.1 75.3002C329.9 79.0002 336.6 78.7002 341 74.5002C342.5 75.4002 343.4 77.0002 343.4 78.7002L343.3 83.7002C343.3 83.7002 344.7 82.4002 347.7 82.8002C350.9 77.8002 349.5 71.4002 344.8 68.0002Z" fill="#9753D9"/>
</g>
<mask id="mask58_52_764" style="mask-type:luminance" maskUnits="userSpaceOnUse" x="270" y="53" width="114" height="191">
<path d="M384 53.5H270V243.3H384V53.5Z" fill="white"/>
</mask>
<g mask="url(#mask58_52_764)">
<path d="M342.9 84.1999C346.2 81.8999 350.8 82.6999 353.2 85.9999C355.5 89.2999 354.7 93.8999 351.4 96.2999C349.6 97.5999 347.3 97.9999 345.1 97.2999C346.6 104.2 343.8 111.3 338.1 115.5V125.9C338.1 131.3 333.7 135.6 328.3 135.7C322.9 135.7 318.5 131.3 318.5 126V116.2C313.3 113 310.2 107.3 310.2 101.2C310.2 99.9999 310.3 98.8 310.6 97.6V97.4999C306.6 98.2999 302.7 95.7999 301.9 91.7999C301.1 87.7999 303.7 83.9 307.6 83.1C308.1 83 308.6 82.9 309.1 82.9C310.6 82.9 312 83.2999 313.2 84.1999" fill="white"/>
</g>
<mask id="mask59_52_764" style="mask-type:luminance" maskUnits="userSpaceOnUse" x="270" y="53" width="114" height="191">
<path d="M384 53.5H270V243.3H384V53.5Z" fill="white"/>
</mask>
<g mask="url(#mask59_52_764)">
<path d="M328.3 136.4C322.5 136.4 317.8 131.7 317.8 125.9V116.5C312.6 113.1 309.4 107.3 309.5 101.1C309.5 100.2 309.6 99.2003 309.7 98.3003C309.5 98.3003 309.3 98.3003 309.1 98.3003C304.6 98.3003 301 94.7003 301 90.2003C301 85.7003 304.6 82.1003 309.1 82.1003C310.7 82.1003 312.3 82.6003 313.6 83.5003C313.9 83.7003 314 84.2003 313.8 84.5003C313.6 84.8003 313.1 84.9003 312.8 84.7003C309.8 82.7003 305.6 83.5003 303.6 86.5003C301.6 89.5003 302.4 93.7003 305.4 95.7003C306.5 96.4003 307.8 96.8003 309.1 96.8003C309.5 96.8003 310 96.8003 310.4 96.7003C310.8 96.6003 311.2 96.9003 311.3 97.3003C311.3 97.4003 311.3 97.5003 311.3 97.6003V97.7003C311.1 98.8003 310.9 100 310.9 101.1C310.9 106.9 313.9 112.4 318.9 115.4C319.1 115.5 319.3 115.8 319.3 116V125.8C319.3 130.8 323.3 134.8 328.3 134.8C333.3 134.8 337.3 130.8 337.3 125.8V115.4C337.3 115.2 337.4 114.9 337.6 114.8C343.1 110.9 345.7 104.1 344.3 97.5003C344.2 97.1003 344.4 96.7003 344.8 96.5003C344.9 96.4003 345.1 96.4003 345.2 96.5003C348.7 97.5003 352.4 95.5003 353.4 92.0003C354.4 88.5003 352.4 84.8003 348.9 83.8003C347 83.2003 344.9 83.6003 343.2 84.7003C342.9 84.9003 342.4 84.9003 342.2 84.5003C342 84.1003 342 83.7003 342.4 83.5003C346.1 80.9003 351.2 81.8003 353.7 85.5003C356.2 89.2003 355.4 94.2003 351.7 96.8003C350.3 97.8003 348.7 98.3003 347 98.3003C346.6 98.3003 346.3 98.3003 345.9 98.2003C346 99.1003 346.1 100.1 346.1 101.1C346.1 106.9 343.3 112.4 338.7 115.8V125.8C338.8 131.7 334.1 136.4 328.3 136.4Z" fill="#222433"/>
</g>
<mask id="mask60_52_764" style="mask-type:luminance" maskUnits="userSpaceOnUse" x="270" y="53" width="114" height="191">
<path d="M384 53.5H270V243.3H384V53.5Z" fill="white"/>
</mask>
<g mask="url(#mask60_52_764)">
<path d="M346 93.7004C345.6 93.7004 345.3 93.4004 345.3 92.9004C345.3 92.8004 345.3 92.6004 345.4 92.5004L349.3 85.8004C349.5 85.4004 350 85.3004 350.3 85.5004C350.7 85.7004 350.8 86.2004 350.6 86.5004L346.7 93.2004C346.5 93.6004 346.3 93.7004 346 93.7004Z" fill="#222433"/>
</g>
<mask id="mask61_52_764" style="mask-type:luminance" maskUnits="userSpaceOnUse" x="270" y="53" width="114" height="191">
<path d="M384 53.5H270V243.3H384V53.5Z" fill="white"/>
</mask>
<g mask="url(#mask61_52_764)">
<path d="M310.3 93.7C310 93.7 309.8 93.6 309.6 93.3L305.7 86.6C305.5 86.2 305.6 85.8 306 85.6C306.4 85.4 306.8 85.5 307 85.9L310.9 92.6C311.1 93 311 93.4 310.6 93.6C310.5 93.7 310.4 93.7 310.3 93.7Z" fill="#222433"/>
</g>
<mask id="mask62_52_764" style="mask-type:luminance" maskUnits="userSpaceOnUse" x="270" y="53" width="114" height="191">
<path d="M384 53.5H270V243.3H384V53.5Z" fill="white"/>
</mask>
<g mask="url(#mask62_52_764)">
<path d="M319.2 92.6996C322.68 92.6996 325.5 89.879 325.5 86.3996C325.5 82.9202 322.68 80.0996 319.2 80.0996C315.721 80.0996 312.9 82.9202 312.9 86.3996C312.9 89.879 315.721 92.6996 319.2 92.6996Z" fill="white"/>
</g>
<mask id="mask63_52_764" style="mask-type:luminance" maskUnits="userSpaceOnUse" x="270" y="53" width="114" height="191">
<path d="M384 53.5H270V243.3H384V53.5Z" fill="white"/>
</mask>
<g mask="url(#mask63_52_764)">
<path d="M319.2 93.5C315.3 93.5 312.2 90.4 312.2 86.5C312.2 82.6 315.4 79.5 319.2 79.5C323.1 79.5 326.2 82.6 326.2 86.5C326.3 90.3 323.1 93.5 319.2 93.5ZM319.2 80.9C316.1 80.9 313.7 83.4 313.7 86.4C313.7 89.4 316.2 91.9 319.2 91.9C322.3 91.9 324.7 89.4 324.7 86.4C324.8 83.4 322.3 80.9 319.2 80.9Z" fill="#222433"/>
</g>
<mask id="mask64_52_764" style="mask-type:luminance" maskUnits="userSpaceOnUse" x="270" y="53" width="114" height="191">
<path d="M384 53.5H270V243.3H384V53.5Z" fill="white"/>
</mask>
<g mask="url(#mask64_52_764)">
<path d="M337.1 92.6996C340.579 92.6996 343.4 89.879 343.4 86.3996C343.4 82.9202 340.579 80.0996 337.1 80.0996C333.62 80.0996 330.8 82.9202 330.8 86.3996C330.8 89.879 333.62 92.6996 337.1 92.6996Z" fill="white"/>
</g>
<mask id="mask65_52_764" style="mask-type:luminance" maskUnits="userSpaceOnUse" x="270" y="53" width="114" height="191">
<path d="M384 53.5H270V243.3H384V53.5Z" fill="white"/>
</mask>
<g mask="url(#mask65_52_764)">
<path d="M337.1 93.5C333.2 93.5 330.1 90.4 330.1 86.5C330.1 82.6 333.3 79.5 337.1 79.5C340.9 79.5 344.1 82.6 344.1 86.5C344.1 90.3 340.9 93.5 337.1 93.5ZM337.1 80.9C334 80.9 331.6 83.4 331.6 86.4C331.6 89.4 334.1 91.9 337.1 91.9C340.1 91.9 342.6 89.4 342.6 86.4C342.6 83.4 340.1 80.9 337.1 80.9Z" fill="#222433"/>
</g>
<mask id="mask66_52_764" style="mask-type:luminance" maskUnits="userSpaceOnUse" x="270" y="53" width="114" height="191">
<path d="M384 53.5H270V243.3H384V53.5Z" fill="white"/>
</mask>
<g mask="url(#mask66_52_764)">
<path d="M330.8 86.6998H325.5C325.1 86.6998 324.7 86.3998 324.7 85.9998C324.7 85.5998 325 85.2998 325.5 85.2998H330.8C331.2 85.2998 331.6 85.5998 331.6 85.9998C331.6 86.3998 331.2 86.6998 330.8 86.6998Z" fill="#222433"/>
</g>
<mask id="mask67_52_764" style="mask-type:luminance" maskUnits="userSpaceOnUse" x="270" y="53" width="114" height="191">
<path d="M384 53.5H270V243.3H384V53.5Z" fill="white"/>
</mask>
<g mask="url(#mask67_52_764)">
<path d="M330.3 120.6H326.4C319.5 120.6 313.8 115 313.8 108.1C313.8 101.2 319.4 95.5996 326.4 95.5996H330.3C337.2 95.5996 342.9 101.2 342.9 108.1C342.9 115 337.3 120.6 330.3 120.6Z" fill="#9753D9"/>
</g>
<mask id="mask68_52_764" style="mask-type:luminance" maskUnits="userSpaceOnUse" x="270" y="53" width="114" height="191">
<path d="M384 53.5H270V243.3H384V53.5Z" fill="white"/>
</mask>
<g mask="url(#mask68_52_764)">
<path d="M326.3 96.7997C325.9 96.7997 325.5 96.4997 325.5 96.0997C325.5 95.7997 325.7 95.4997 326 95.3997L329.8 94.2997L327.2 86.4997C327.1 86.0997 327.3 85.6997 327.7 85.5997C328.1 85.4997 328.5 85.6997 328.6 86.0997L331.4 94.6997C331.5 95.0997 331.3 95.4997 330.9 95.5997L326.3 96.8997C326.5 96.7997 326.4 96.7997 326.3 96.7997Z" fill="#222433"/>
</g>
<mask id="mask69_52_764" style="mask-type:luminance" maskUnits="userSpaceOnUse" x="270" y="53" width="114" height="191">
<path d="M384 53.5H270V243.3H384V53.5Z" fill="white"/>
</mask>
<g mask="url(#mask69_52_764)">
<path d="M328.2 108C327.9 108 327.7 108 327.4 108C323.6 107.5 320.9 104.2 321 100.4C321 100 321.3 99.7002 321.8 99.7002H334.9C335.3 99.7002 335.7 100 335.7 100.4C335.7 100.5 335.7 100.5 335.7 100.6C334.5 106.1 331.1 108 328.2 108ZM322.6 101.1C322.8 103.8 324.9 106.1 327.6 106.4C329.9 106.7 332.7 105.4 333.9 101.1H322.6Z" fill="#222433"/>
</g>
<mask id="mask70_52_764" style="mask-type:luminance" maskUnits="userSpaceOnUse" x="270" y="53" width="114" height="191">
<path d="M384 53.5H270V243.3H384V53.5Z" fill="white"/>
</mask>
<g mask="url(#mask70_52_764)">
<path d="M319.2 88.3C320.249 88.3 321.1 87.4494 321.1 86.4C321.1 85.3507 320.249 84.5 319.2 84.5C318.15 84.5 317.3 85.3507 317.3 86.4C317.3 87.4494 318.15 88.3 319.2 88.3Z" fill="#222433"/>
</g>
<mask id="mask71_52_764" style="mask-type:luminance" maskUnits="userSpaceOnUse" x="270" y="53" width="114" height="191">
<path d="M384 53.5H270V243.3H384V53.5Z" fill="white"/>
</mask>
<g mask="url(#mask71_52_764)">
<path d="M337 88.3C338.049 88.3 338.9 87.4494 338.9 86.4C338.9 85.3507 338.049 84.5 337 84.5C335.95 84.5 335.1 85.3507 335.1 86.4C335.1 87.4494 335.95 88.3 337 88.3Z" fill="#222433"/>
</g>
<mask id="mask72_52_764" style="mask-type:luminance" maskUnits="userSpaceOnUse" x="270" y="53" width="114" height="191">
<path d="M384 53.5H270V243.3H384V53.5Z" fill="white"/>
</mask>
<g mask="url(#mask72_52_764)">
<path d="M333.4 202.4H325.1C324.7 202.4 324.3 202.1 324.3 201.7V193.3C324.3 192.9 324.6 192.6 325.1 192.6H333.4C333.8 192.6 334.2 192.9 334.2 193.3V201.7C334.1 202 333.8 202.4 333.4 202.4ZM325.8 200.9H332.6V194H325.8V200.9Z" fill="#222433"/>
</g>
<mask id="mask73_52_764" style="mask-type:luminance" maskUnits="userSpaceOnUse" x="270" y="53" width="114" height="191">
<path d="M384 53.5H270V243.3H384V53.5Z" fill="white"/>
</mask>
<g mask="url(#mask73_52_764)">
<path d="M328.3 194C327.9 194 327.5 193.7 327.5 193.3V137.1C327.5 136.7 327.8 136.4 328.3 136.4C328.7 136.4 329.1 136.7 329.1 137.1V193.3C329.1 193.7 328.8 194 328.3 194Z" fill="#222433"/>
</g>
<mask id="mask74_52_764" style="mask-type:luminance" maskUnits="userSpaceOnUse" x="270" y="53" width="114" height="191">
<path d="M384 53.5H270V243.3H384V53.5Z" fill="white"/>
</mask>
<g mask="url(#mask74_52_764)">
<path d="M340.9 144.1C340.8 144.1 340.7 144.1 340.6 144L328.6 138C328.4 138.1 328.2 138.1 328.1 138L316.1 143.9C315.7 144.1 315.3 143.9 315.1 143.6C315 143.5 315 143.4 315 143.3V127.1C315 126.7 315.3 126.4 315.8 126.4H318.6C319 126.4 319.4 126.7 319.4 127.1C319.4 127.5 319.1 127.8 318.6 127.8H316.5V142L328 136.3C328.2 136.2 328.5 136.2 328.8 136.4L340.2 142.1V127.9H338.1C337.7 127.9 337.3 127.6 337.3 127.2C337.3 126.8 337.6 126.5 338.1 126.5H340.9C341.3 126.5 341.7 126.8 341.7 127.2V143.4C341.7 143.8 341.3 144.1 340.9 144.1Z" fill="#222433"/>
</g>
<mask id="mask75_52_764" style="mask-type:luminance" maskUnits="userSpaceOnUse" x="270" y="53" width="114" height="191">
<path d="M384 53.5H270V243.3H384V53.5Z" fill="white"/>
</mask>
<g mask="url(#mask75_52_764)">
<path d="M303.6 194C303.2 194 302.8 193.7 302.8 193.3V171.4C302.8 171 303.1 170.7 303.6 170.7C304 170.7 304.4 171 304.4 171.4V193.3C304.4 193.7 304 194 303.6 194Z" fill="#222433"/>
</g>
<mask id="mask76_52_764" style="mask-type:luminance" maskUnits="userSpaceOnUse" x="270" y="53" width="114" height="191">
<path d="M384 53.5H270V243.3H384V53.5Z" fill="white"/>
</mask>
<g mask="url(#mask76_52_764)">
<path d="M357.7 194C357.3 194 356.9 193.7 356.9 193.3V193.2L361.5 166.1C361.6 165.7 362 165.4 362.4 165.5C362.8 165.6 363.1 166 363 166.4L358.4 193.5C358.4 193.8 358.1 194 357.7 194Z" fill="#222433"/>
</g>
<mask id="mask77_52_764" style="mask-type:luminance" maskUnits="userSpaceOnUse" x="270" y="53" width="114" height="191">
<path d="M384 53.5H270V243.3H384V53.5Z" fill="white"/>
</mask>
<g mask="url(#mask77_52_764)">
<path d="M353.9 164.8H341C340.6 164.8 340.2 164.5 340.2 164.1C340.2 163.7 340.5 163.4 341 163.4H353.9C354.3 163.4 354.7 163.7 354.7 164.1C354.6 164.5 354.3 164.8 353.9 164.8Z" fill="#222433"/>
</g>
<mask id="mask78_52_764" style="mask-type:luminance" maskUnits="userSpaceOnUse" x="403" y="136" width="47" height="109">
<path d="M449.2 136.899H403.2V244.099H449.2V136.899Z" fill="white"/>
</mask>
<g mask="url(#mask78_52_764)">
<path d="M427.7 200.1C427.2 200.1 426.9 199.7 426.9 199.3L431 151C431 150.6 431.4 150.3 431.8 150.3C432.2 150.3 432.5 150.7 432.5 151.1L428.4 199.4C428.4 199.8 428.1 200.1 427.7 200.1Z" fill="#222433"/>
</g>
<mask id="mask79_52_764" style="mask-type:luminance" maskUnits="userSpaceOnUse" x="403" y="136" width="47" height="109">
<path d="M449.2 136.899H403.2V244.099H449.2V136.899Z" fill="white"/>
</mask>
<g mask="url(#mask79_52_764)">
<path d="M441.8 151.4L421.9 149.9C418.5 149.7 415.9 146.8 416.1 143.4C416.3 140 419.2 137.4 422.6 137.6C422.7 137.6 422.7 137.6 422.8 137.6L442.7 139.1C446.1 139.3 448.7 142.2 448.5 145.6C448.3 149 445.4 151.6 442 151.4C442 151.4 442 151.4 441.9 151.4H441.8ZM422.4 142.6C421.7 142.5 421.1 143 421.1 143.7C421 144.4 421.5 145 422.2 145L442.1 146.5C442.8 146.5 443.4 146 443.4 145.3C443.4 144.6 442.9 144.1 442.3 144L422.4 142.6Z" fill="white"/>
</g>
<mask id="mask80_52_764" style="mask-type:luminance" maskUnits="userSpaceOnUse" x="403" y="136" width="47" height="109">
<path d="M449.2 136.899H403.2V244.099H449.2V136.899Z" fill="white"/>
</mask>
<g mask="url(#mask80_52_764)">
<path d="M442.3 152.199C442.2 152.199 442 152.199 441.9 152.199C441.8 152.199 441.8 152.199 441.7 152.199L421.8 150.699C418 150.499 415.1 147.199 415.3 143.399C415.5 139.599 418.8 136.799 422.6 136.999C422.7 136.999 422.7 136.999 422.8 136.999L442.7 138.499C446.5 138.699 449.4 141.999 449.2 145.799C449 149.299 446 152.199 442.3 152.199ZM422.2 138.399C419.2 138.399 416.8 140.799 416.8 143.799C416.8 146.699 419 148.999 421.9 149.199L441.9 150.699C442 150.699 442 150.699 442.1 150.699C445.1 150.899 447.6 148.599 447.8 145.699C448 142.699 445.7 140.199 442.7 139.999L422.7 138.499C422.6 138.499 422.6 138.499 422.5 138.499C422.4 138.399 422.3 138.399 422.2 138.399ZM442.2 147.199H442.1L422.1 145.699C421 145.599 420.2 144.699 420.3 143.599C420.4 142.499 421.3 141.699 422.4 141.799L442.3 143.299C443.4 143.399 444.2 144.399 444.1 145.499C444.1 146.499 443.2 147.199 442.2 147.199ZM422.3 143.299C422 143.299 421.8 143.499 421.8 143.799C421.8 143.999 422 144.299 422.2 144.299L442.1 145.799C442.2 145.799 442.3 145.799 442.4 145.699C442.6 145.499 442.6 145.199 442.4 144.999C442.3 144.899 442.2 144.899 442.1 144.799L422.3 143.299Z" fill="#222433"/>
</g>
<mask id="mask81_52_764" style="mask-type:luminance" maskUnits="userSpaceOnUse" x="403" y="136" width="47" height="109">
<path d="M449.2 136.899H403.2V244.099H449.2V136.899Z" fill="white"/>
</mask>
<g mask="url(#mask81_52_764)">
<path d="M439.3 167.7C437 167.5 430.9 163 430.9 163C430.9 163 437.7 159.4 439.9 159.6C442.2 159.8 443.8 161.8 443.6 164.1C443.4 166.2 441.5 167.8 439.3 167.7Z" fill="#3A25A1"/>
</g>
<mask id="mask82_52_764" style="mask-type:luminance" maskUnits="userSpaceOnUse" x="403" y="136" width="47" height="109">
<path d="M449.2 136.899H403.2V244.099H449.2V136.899Z" fill="white"/>
</mask>
<g mask="url(#mask82_52_764)">
<path d="M421.8 166.399C424.1 166.599 430.8 162.999 430.8 162.999C430.8 162.999 424.6 158.399 422.4 158.299C420.1 158.099 418.2 159.799 418 162.099C417.9 164.299 419.6 166.299 421.8 166.399Z" fill="#3A25A1"/>
</g>
<mask id="mask83_52_764" style="mask-type:luminance" maskUnits="userSpaceOnUse" x="403" y="136" width="47" height="109">
<path d="M449.2 136.899H403.2V244.099H449.2V136.899Z" fill="white"/>
</mask>
<g mask="url(#mask83_52_764)">
<path d="M426.9 200.099C426.6 200.099 426.4 199.899 426.2 199.699L405.6 158.499C405.4 158.099 405.6 157.699 405.9 157.499C406.2 157.299 406.7 157.499 406.9 157.799L427.5 198.999C427.7 199.399 427.5 199.799 427.2 199.999C427.1 200.099 427 200.099 426.9 200.099Z" fill="#222433"/>
</g>
<mask id="mask84_52_764" style="mask-type:luminance" maskUnits="userSpaceOnUse" x="403" y="136" width="47" height="109">
<path d="M449.2 136.899H403.2V244.099H449.2V136.899Z" fill="white"/>
</mask>
<g mask="url(#mask84_52_764)">
<path d="M411 168.6C410.9 168.6 410.7 168.6 410.6 168.5L403.5 164C403.1 163.8 403 163.3 403.3 163C403.6 162.7 404 162.5 404.3 162.8L410.3 166.6L410.9 159.5C410.9 159.1 411.3 158.8 411.7 158.8C412.1 158.8 412.4 159.2 412.4 159.6L411.7 167.9C411.8 168.3 411.4 168.6 411 168.6Z" fill="#222433"/>
</g>
<mask id="mask85_52_764" style="mask-type:luminance" maskUnits="userSpaceOnUse" x="403" y="136" width="47" height="109">
<path d="M449.2 136.899H403.2V244.099H449.2V136.899Z" fill="white"/>
</mask>
<g mask="url(#mask85_52_764)">
<path d="M414.3 175.099C414.2 175.099 414 175.099 413.9 174.999L403.6 168.399C403.2 168.199 403.1 167.699 403.4 167.399C403.6 166.999 404.1 166.899 404.4 167.199L413.7 173.099L414.6 162.199C414.6 161.799 415 161.499 415.4 161.499C415.8 161.499 416.1 161.899 416.1 162.299L415.1 174.399C415 174.799 414.7 175.099 414.3 175.099Z" fill="#222433"/>
</g>
<mask id="mask86_52_764" style="mask-type:luminance" maskUnits="userSpaceOnUse" x="403" y="136" width="47" height="109">
<path d="M449.2 136.899H403.2V244.099H449.2V136.899Z" fill="white"/>
</mask>
<g mask="url(#mask86_52_764)">
<path d="M417.901 182.499C417.801 182.499 417.601 182.499 417.501 182.399L404.201 173.999C403.801 173.799 403.701 173.299 404.001 172.999C404.201 172.599 404.701 172.499 405.001 172.799L417.201 180.499L418.501 166.099C418.501 165.699 418.901 165.399 419.301 165.399C419.701 165.399 420.001 165.799 420.001 166.199L418.601 181.799C418.701 182.199 418.301 182.499 417.901 182.499Z" fill="#222433"/>
</g>
<mask id="mask87_52_764" style="mask-type:luminance" maskUnits="userSpaceOnUse" x="403" y="136" width="47" height="109">
<path d="M449.2 136.899H403.2V244.099H449.2V136.899Z" fill="white"/>
</mask>
<g mask="url(#mask87_52_764)">
<path d="M421.5 189.599C421.4 189.599 421.2 189.599 421.1 189.499L405.4 179.599C405 179.399 404.9 178.899 405.2 178.599C405.4 178.199 405.9 178.099 406.2 178.399L420.8 187.599L422.3 170.399C422.3 169.999 422.7 169.699 423.1 169.699C423.5 169.699 423.8 170.099 423.8 170.499L422.2 188.899C422.2 189.299 421.9 189.599 421.5 189.599Z" fill="#222433"/>
</g>
<mask id="mask88_52_764" style="mask-type:luminance" maskUnits="userSpaceOnUse" x="403" y="136" width="47" height="109">
<path d="M449.2 136.899H403.2V244.099H449.2V136.899Z" fill="white"/>
</mask>
<g mask="url(#mask88_52_764)">
<path d="M420.7 243.299C416.7 243.299 413.5 239.999 413.5 235.999C413.5 234.799 413.8 233.599 414.4 232.499L428 210.699L441.6 232.499C443.5 235.999 442.3 240.299 438.8 242.199C437.8 242.799 436.6 243.199 435.3 243.199H420.7V243.299Z" fill="white"/>
</g>
<mask id="mask89_52_764" style="mask-type:luminance" maskUnits="userSpaceOnUse" x="403" y="136" width="47" height="109">
<path d="M449.2 136.899H403.2V244.099H449.2V136.899Z" fill="white"/>
</mask>
<g mask="url(#mask89_52_764)">
<path d="M420.7 244.1C416.3 244.1 412.7 240.4 412.8 236C412.8 234.7 413.2 233.4 413.8 232.2L427.4 210.4C427.6 210 428.1 209.9 428.4 210.2C428.5 210.3 428.6 210.3 428.6 210.4L442.2 232.2C444.3 236 442.9 240.8 439.1 242.9C437.8 243.6 436.5 244 435.3 244L420.7 244.1ZM415.1 233C414.6 233.9 414.3 235 414.3 236.1C414.3 239.6 417.2 242.6 420.7 242.6H435.3C436.2 242.6 437.3 242.3 438.4 241.7C441.5 240 442.6 236.1 440.9 233L428 212.3L415.1 233Z" fill="#222433"/>
</g>
<mask id="mask90_52_764" style="mask-type:luminance" maskUnits="userSpaceOnUse" x="403" y="136" width="47" height="109">
<path d="M449.2 136.899H403.2V244.099H449.2V136.899Z" fill="white"/>
</mask>
<g mask="url(#mask90_52_764)">
<path d="M436.6 199.6L428 210.8L419.4 199.6H436.6Z" fill="white"/>
</g>
<mask id="mask91_52_764" style="mask-type:luminance" maskUnits="userSpaceOnUse" x="403" y="136" width="47" height="109">
<path d="M449.2 136.899H403.2V244.099H449.2V136.899Z" fill="white"/>
</mask>
<g mask="url(#mask91_52_764)">
<path d="M428 211.599C427.8 211.599 427.5 211.499 427.4 211.299L418.8 199.999C418.5 199.699 418.6 199.199 418.9 198.899C419 198.799 419.2 198.699 419.4 198.699H436.5C436.9 198.699 437.3 198.999 437.3 199.499C437.3 199.699 437.2 199.799 437.1 199.999L428.5 211.299C428.4 211.499 428.2 211.599 428 211.599ZM420.9 200.299L428 209.599L435.1 200.299H420.9Z" fill="#222433"/>
</g>
<mask id="mask92_52_764" style="mask-type:luminance" maskUnits="userSpaceOnUse" x="412" y="14" width="34" height="51">
<path d="M433.715 14.4708L412.902 19.8652L424.369 64.1034L445.181 58.709L433.715 14.4708Z" fill="white"/>
</mask>
<g mask="url(#mask92_52_764)">
<path d="M415.201 25.7997C414.801 25.8997 414.401 25.6997 414.301 25.2997C414.301 25.1997 414.301 24.9997 414.301 24.8997L416.001 19.5997C416.101 19.1997 416.501 18.9997 416.901 19.0997C417.301 19.1997 417.501 19.5997 417.401 19.9997L415.701 25.2997C415.701 25.4997 415.401 25.6997 415.201 25.7997Z" fill="#222433"/>
</g>
<mask id="mask93_52_764" style="mask-type:luminance" maskUnits="userSpaceOnUse" x="412" y="14" width="34" height="51">
<path d="M433.715 14.4708L412.902 19.8652L424.369 64.1034L445.181 58.709L433.715 14.4708Z" fill="white"/>
</mask>
<g mask="url(#mask93_52_764)">
<path d="M431.801 39.6C431.401 39.7 431.001 39.5 430.901 39.1C430.801 38.8 430.901 38.5 431.101 38.3L435.301 34.6C435.601 34.3 436.101 34.3 436.401 34.6C436.701 34.9 436.701 35.4 436.401 35.7L432.201 39.4C432.101 39.5 432.001 39.6 431.801 39.6Z" fill="#222433"/>
</g>
<mask id="mask94_52_764" style="mask-type:luminance" maskUnits="userSpaceOnUse" x="412" y="14" width="34" height="51">
<path d="M433.715 14.4708L412.902 19.8652L424.369 64.1034L445.181 58.709L433.715 14.4708Z" fill="white"/>
</mask>
<g mask="url(#mask94_52_764)">
<path d="M444.4 58.8993C444.4 58.9993 444.4 58.9993 444.4 58.8993L438.8 59.8993C438.4 59.9993 438 59.6993 437.9 59.2993C437.8 58.8993 438.1 58.4993 438.5 58.3993L444 57.3993C444.4 57.2993 444.8 57.5992 444.9 57.9992C445.1 58.4992 444.8 58.7993 444.4 58.8993Z" fill="#222433"/>
</g>
<mask id="mask95_52_764" style="mask-type:luminance" maskUnits="userSpaceOnUse" x="14" y="241" width="442" height="5">
<path d="M455.7 241.8H14.2002V245.2H455.7V241.8Z" fill="white"/>
</mask>
<g mask="url(#mask95_52_764)">
<path d="M454.8 244.4H15.0002C14.5002 244.4 14.2002 244 14.2002 243.5C14.2002 243 14.6002 242.6 15.0002 242.6H454.9C455.4 242.6 455.7 243 455.7 243.5C455.7 244 455.3 244.4 454.8 244.4Z" fill="#222433"/>
</g>
</svg>
